<svg width="15" height="15" viewBox="0 0 15 15" fill="none" xmlns="http://www.w3.org/2000/svg">
<path fill-rule="evenodd" clip-rule="evenodd" d="M7.5 0.625C3.70312 0.625 0.625 3.70312 0.625 7.5C0.625 11.2969 3.70312 14.375 7.5 14.375C11.2969 14.375 14.375 11.2969 14.375 7.5C14.375 3.70312 11.2969 0.625 7.5 0.625ZM5.5 8.75C5.4113 8.75102 5.32389 8.72869 5.24655 8.68525C5.16921 8.64181 5.10465 8.57878 5.05938 8.5025C5.01674 8.4284 4.99642 8.34356 5.00086 8.25819C5.00529 8.17281 5.03429 8.09053 5.08438 8.02125L7.08437 5.20875C7.1321 5.14346 7.1947 5.09047 7.26697 5.05417C7.33925 5.01787 7.41912 4.9993 7.5 5C7.6675 5 7.82313 5.07812 7.91625 5.20875L9.91625 8.02125C9.96633 8.09053 9.99533 8.17281 9.99977 8.25819C10.0042 8.34356 9.98388 8.4284 9.94125 8.5025C9.89592 8.57887 9.83127 8.64196 9.75381 8.68541C9.67634 8.72886 9.58881 8.75113 9.5 8.75H5.5Z" fill="#FF900E"/>
</svg>
