<svg width="15" height="15" viewBox="0 0 15 15" fill="none" xmlns="http://www.w3.org/2000/svg">
<path fill-rule="evenodd" clip-rule="evenodd" d="M7.5 0.625C3.70312 0.625 0.625 3.70312 0.625 7.5C0.625 11.2969 3.70312 14.375 7.5 14.375C11.2969 14.375 14.375 11.2969 14.375 7.5C14.375 3.70312 11.2969 0.625 7.5 0.625ZM5.5 6.25C5.4113 6.24898 5.32389 6.27131 5.24655 6.31475C5.16921 6.35819 5.10465 6.42122 5.05937 6.4975C5.01674 6.5716 4.99642 6.65644 5.00086 6.74181C5.00529 6.82719 5.03429 6.90947 5.08437 6.97875L7.08437 9.79125C7.1321 9.85654 7.1947 9.90953 7.26697 9.94583C7.33924 9.98213 7.41912 10.0007 7.5 10C7.58098 10.0008 7.66098 9.98228 7.73337 9.94597C7.80577 9.90967 7.86846 9.85663 7.91625 9.79125L9.91625 6.97875C9.96633 6.90947 9.99533 6.82719 9.99977 6.74181C10.0042 6.65644 9.98388 6.5716 9.94125 6.4975C9.89592 6.42113 9.83127 6.35804 9.75381 6.31459C9.67634 6.27114 9.58881 6.24887 9.5 6.25H5.5Z" fill="#0EB6FF"/>
</svg>
