<svg width="30" height="30" viewBox="0 0 30 30" fill="none" xmlns="http://www.w3.org/2000/svg">
<path d="M14.8828 8.20312H13.0283C12.9316 8.20312 12.8525 8.28223 12.8525 8.37891V18.3457H12.6855L5.7832 8.2793C5.75098 8.23242 5.69531 8.20312 5.63965 8.20312H3.69141C3.59473 8.20312 3.51562 8.28223 3.51562 8.37891V21.9727C3.51562 22.0693 3.59473 22.1484 3.69141 22.1484H5.52832C5.625 22.1484 5.7041 22.0693 5.7041 21.9727V11.8682H5.87109L12.8496 22.0723C12.8818 22.1191 12.9375 22.1484 12.9961 22.1484H14.8828C14.9795 22.1484 15.0586 22.0693 15.0586 21.9727V8.37891C15.0586 8.28223 14.9795 8.20312 14.8828 8.20312ZM25.957 20.3027H17.0508C16.9219 20.3027 16.8164 20.4082 16.8164 20.5371V21.9434C16.8164 22.0723 16.9219 22.1777 17.0508 22.1777H25.957C26.0859 22.1777 26.1914 22.0723 26.1914 21.9434V20.5371C26.1914 20.4082 26.0859 20.3027 25.957 20.3027ZM21.498 18.457C23.0479 18.457 24.2871 17.9531 25.1953 16.9424C26.0566 15.9785 26.4844 14.7217 26.4844 13.1689C26.4844 11.6133 26.0566 10.3418 25.1953 9.38086C24.29 8.36133 23.0508 7.85156 21.498 7.85156C19.9248 7.85156 18.6885 8.36426 17.7979 9.39844C16.9424 10.3682 16.5264 11.6221 16.5264 13.1689C16.5264 14.7041 16.9453 15.958 17.8008 16.9277C18.6973 17.9443 19.9395 18.457 21.498 18.457V18.457ZM19.4033 10.7314C19.8984 10.1279 20.584 9.82617 21.4951 9.82617C22.418 9.82617 23.1006 10.1074 23.5752 10.6787C24.0557 11.2734 24.3047 12.1025 24.3047 13.166C24.3047 14.2295 24.0586 15.0439 23.5781 15.624C23.0947 16.1924 22.4063 16.4795 21.4951 16.4795C20.5811 16.4795 19.8838 16.1777 19.4033 15.5889C18.9258 15 18.6855 14.2031 18.6855 13.1689C18.6885 12.1201 18.9258 11.3232 19.4033 10.7314V10.7314Z" fill="black"/>
</svg>
