<svg width="30" height="30" viewBox="0 0 30 30" fill="none" xmlns="http://www.w3.org/2000/svg">
<path d="M8.03801 3.01615C8.19561 2.82806 8.27317 2.58568 8.25406 2.34104C8.23495 2.0964 8.12068 1.869 7.93578 1.70767C7.75089 1.54634 7.51011 1.46393 7.26513 1.47814C7.02016 1.49234 6.79052 1.60203 6.62551 1.78365L5.01051 3.63365C4.09474 4.68311 3.57706 6.02112 3.54801 7.41365L3.47676 10.8124C3.47162 11.061 3.56547 11.3015 3.73765 11.481C3.90983 11.6604 4.14625 11.7641 4.39489 11.7693C4.64353 11.7744 4.88403 11.6806 5.06348 11.5084C5.24292 11.3362 5.34662 11.0998 5.35176 10.8512L5.42176 7.45365C5.44182 6.50081 5.79623 5.58535 6.42301 4.8674L8.03801 3.01615Z" fill="black"/>
<path fill-rule="evenodd" clip-rule="evenodd" d="M7.79594 9.625C7.87989 8.28767 8.47034 7.0326 9.4471 6.1153C10.4239 5.19799 11.7135 4.68741 13.0534 4.6875H13.7497V3.75C13.7497 3.41848 13.8814 3.10054 14.1158 2.86612C14.3502 2.6317 14.6682 2.5 14.9997 2.5C15.3312 2.5 15.6492 2.6317 15.8836 2.86612C16.118 3.10054 16.2497 3.41848 16.2497 3.75V4.6875H16.9459C18.2859 4.68741 19.5755 5.19799 20.5523 6.1153C21.529 7.0326 22.1195 8.28767 22.2034 9.625L22.4797 14.0425C22.585 15.7268 23.1505 17.3499 24.1147 18.735C24.3139 19.0213 24.4356 19.3543 24.468 19.7016C24.5004 20.0489 24.4424 20.3987 24.2996 20.717C24.1567 21.0352 23.934 21.311 23.653 21.5177C23.372 21.7243 23.0423 21.8548 22.6959 21.8963L18.4372 22.4062V23.75C18.4372 24.6617 18.075 25.536 17.4304 26.1807C16.7857 26.8253 15.9114 27.1875 14.9997 27.1875C14.088 27.1875 13.2137 26.8253 12.569 26.1807C11.9244 25.536 11.5622 24.6617 11.5622 23.75V22.4062L7.30344 21.895C6.95731 21.8534 6.62783 21.723 6.347 21.5164C6.06617 21.3098 5.84355 21.0341 5.70076 20.7161C5.55797 20.398 5.49986 20.0485 5.53209 19.7013C5.56432 19.3542 5.68579 19.0213 5.88469 18.735C6.84882 17.3499 7.41435 15.7268 7.51969 14.0425L7.79594 9.62625V9.625ZM13.4372 23.75C13.4372 24.1644 13.6018 24.5618 13.8948 24.8549C14.1879 25.1479 14.5853 25.3125 14.9997 25.3125C15.4141 25.3125 15.8115 25.1479 16.1045 24.8549C16.3976 24.5618 16.5622 24.1644 16.5622 23.75V22.8125H13.4372V23.75Z" fill="black"/>
<path d="M22.0554 1.69388C21.8681 1.85734 21.7534 2.08849 21.7365 2.33649C21.7197 2.58449 21.802 2.82905 21.9654 3.01638L23.5804 4.86638C24.207 5.58483 24.5609 6.50076 24.5804 7.45388L24.6516 10.8501C24.6542 10.9732 24.6809 11.0946 24.7304 11.2074C24.7799 11.3202 24.851 11.4221 24.9399 11.5074C25.0288 11.5926 25.1335 11.6595 25.2482 11.7043C25.363 11.7491 25.4854 11.7708 25.6085 11.7683C25.7316 11.7657 25.853 11.7389 25.9658 11.6895C26.0785 11.64 26.1805 11.5688 26.2657 11.48C26.351 11.3911 26.4179 11.2863 26.4627 11.1716C26.5074 11.0569 26.5292 10.9345 26.5266 10.8114L26.4554 7.41388C26.4263 6.02134 25.9086 4.68334 24.9929 3.63388L23.3779 1.78388C23.2144 1.59661 22.9832 1.48193 22.7352 1.46506C22.4872 1.44818 22.2427 1.53048 22.0554 1.69388Z" fill="black"/>
</svg>
