<svg width="18" height="18" viewBox="0 0 18 18" fill="none" xmlns="http://www.w3.org/2000/svg">
<g clip-path="url(#clip0_712_1056)">
<path fill-rule="evenodd" clip-rule="evenodd" d="M17.469 3.34466C17.6256 3.40717 17.7599 3.51517 17.8546 3.65474C17.9492 3.7943 17.9999 3.95903 18 4.12766V13.8724C17.9999 14.041 17.9492 14.2058 17.8546 14.3453C17.7599 14.4849 17.6256 14.5929 17.469 14.6554L9.31275 17.9179C9.11162 17.9983 8.88726 17.9983 8.68613 17.9179L0.529875 14.6554C0.373465 14.5927 0.239406 14.4846 0.144968 14.3451C0.0505301 14.2055 3.92174e-05 14.0409 0 13.8724L0 4.12766C3.92174e-05 3.95916 0.0505301 3.79453 0.144968 3.65497C0.239406 3.51542 0.373465 3.40734 0.529875 3.34466L8.37337 0.207035L8.38463 0.20366L8.68613 0.0821601C8.88759 0.0014219 9.11241 0.0014219 9.31388 0.0821601L9.6165 0.20366L9.62775 0.207035L17.469 3.34466V3.34466ZM11.7045 2.25004L4.78125 5.01866L2.07675 3.93754L1.125 4.31891V4.76891L8.4375 7.69391V16.6062L9 16.8312L9.5625 16.6062V7.69504L16.875 4.77003V4.32003L15.9233 3.93866L9 6.70616L6.2955 5.62504L13.2188 2.85641L11.7045 2.25004Z" fill="black"/>
</g>
<defs>
<clipPath id="clip0_712_1056">
<rect width="18" height="18" fill="white"/>
</clipPath>
</defs>
</svg>
