<svg width="30" height="30" viewBox="0 0 30 30" fill="none" xmlns="http://www.w3.org/2000/svg">
<g clip-path="url(#clip0_1132_1511)">
<path d="M29.9329 1.28613C30.0011 1.11576 30.0178 0.929123 29.9809 0.749355C29.9441 0.569587 29.8552 0.404594 29.7255 0.274832C29.5957 0.14507 29.4307 0.0562444 29.251 0.0193679C29.0712 -0.0175085 28.8845 -0.000814473 28.7142 0.0673805L1.43855 10.978H1.43668L0.589179 11.3155C0.428661 11.3795 0.288965 11.4867 0.185521 11.6251C0.0820776 11.7636 0.018913 11.9279 0.00300447 12.1C-0.012904 12.2721 0.0190627 12.4452 0.0953736 12.6003C0.171684 12.7553 0.28937 12.8863 0.435429 12.9786L1.20418 13.4661L1.20605 13.4699L10.5717 19.4286L13.5529 24.1124C15.0004 26.2499 15.0004 24.3749 15.0004 23.4374C15.0002 22.246 15.2523 21.068 15.7401 19.9811C16.2279 18.8941 16.9404 17.9228 17.8306 17.131C18.7209 16.3393 19.7687 15.745 20.9052 15.3874C22.0416 15.0298 23.2409 14.9169 24.4242 15.0561L29.9329 1.28613ZM26.4961 4.82988L12.4448 18.8811L12.0417 18.2474C11.9678 18.1311 11.8692 18.0325 11.7529 17.9586L11.1192 17.5555L25.1704 3.50426L27.3792 2.62113L26.4979 4.82988H26.4961Z" fill="black"/>
<path d="M30 23.4375C30 25.178 29.3086 26.8472 28.0779 28.0779C26.8472 29.3086 25.178 30 23.4375 30C21.697 30 20.0278 29.3086 18.7971 28.0779C17.5664 26.8472 16.875 25.178 16.875 23.4375C16.875 21.697 17.5664 20.0278 18.7971 18.7971C20.0278 17.5664 21.697 16.875 23.4375 16.875C25.178 16.875 26.8472 17.5664 28.0779 18.7971C29.3086 20.0278 30 21.697 30 23.4375V23.4375ZM23.4375 19.6875C23.1889 19.6875 22.9504 19.7863 22.7746 19.9621C22.5988 20.1379 22.5 20.3764 22.5 20.625V22.5H20.625C20.3764 22.5 20.1379 22.5988 19.9621 22.7746C19.7863 22.9504 19.6875 23.1889 19.6875 23.4375C19.6875 23.6861 19.7863 23.9246 19.9621 24.1004C20.1379 24.2762 20.3764 24.375 20.625 24.375H22.5V26.25C22.5 26.4986 22.5988 26.7371 22.7746 26.9129C22.9504 27.0887 23.1889 27.1875 23.4375 27.1875C23.6861 27.1875 23.9246 27.0887 24.1004 26.9129C24.2762 26.7371 24.375 26.4986 24.375 26.25V24.375H26.25C26.4986 24.375 26.7371 24.2762 26.9129 24.1004C27.0887 23.9246 27.1875 23.6861 27.1875 23.4375C27.1875 23.1889 27.0887 22.9504 26.9129 22.7746C26.7371 22.5988 26.4986 22.5 26.25 22.5H24.375V20.625C24.375 20.3764 24.2762 20.1379 24.1004 19.9621C23.9246 19.7863 23.6861 19.6875 23.4375 19.6875Z" fill="black"/>
</g>
<defs>
<clipPath id="clip0_1132_1511">
<rect width="30" height="30" fill="white"/>
</clipPath>
</defs>
</svg>
