<svg xmlns="http://www.w3.org/2000/svg" width="40" height="38" viewBox="0 0 40 38" fill="none">
<path d="M39.412 6.584L33.414 0.586002C33.2286 0.399917 33.0082 0.252341 32.7655 0.151771C32.5229 0.0512003 32.2627 -0.000378898 32 2.09535e-06H8C7.73731 -0.000378898 7.47715 0.0512003 7.23447 0.151771C6.9918 0.252341 6.77141 0.399917 6.586 0.586002L0.588005 6.584C0.40114 6.76935 0.252941 6.98996 0.152004 7.23303C0.0510666 7.47611 -0.000598676 7.7368 5.23369e-06 8V34C5.23369e-06 36.206 1.794 38 4 38H36C38.206 38 40 36.206 40 34V8C40.0006 7.7368 39.9489 7.47611 39.848 7.23303C39.7471 6.98996 39.5989 6.76935 39.412 6.584ZM8.828 4H31.172L33.172 6H6.828L8.828 4ZM24 24V30H16V24H10L20 14L30 24H24Z" fill="#000000"/>
</svg>