<svg width="30" height="30" viewBox="0 0 30 30" fill="none" xmlns="http://www.w3.org/2000/svg">
<path d="M26.25 2.5H7.5C6.83696 2.5 6.20107 2.76339 5.73223 3.23223C5.26339 3.70107 5 4.33696 5 5V8.75H2.5V11.25H5V13.75H2.5V16.25H5V18.75H2.5V21.25H5V25C5 25.663 5.26339 26.2989 5.73223 26.7678C6.20107 27.2366 6.83696 27.5 7.5 27.5H26.25C26.5815 27.5 26.8995 27.3683 27.1339 27.1339C27.3683 26.8995 27.5 26.5815 27.5 26.25V3.75C27.5 3.41848 27.3683 3.10054 27.1339 2.86612C26.8995 2.6317 26.5815 2.5 26.25 2.5ZM16.25 6.24875C18.31 6.24875 20 7.9375 20 9.99875C19.9964 10.9923 19.6002 11.9442 18.8977 12.6468C18.1953 13.3495 17.2436 13.746 16.25 13.75C14.1913 13.75 12.5 12.0588 12.5 9.99875C12.5 7.9375 14.1913 6.24875 16.25 6.24875ZM23.75 22.5H8.75V21.5625C8.75 18.7887 12.1312 15.9375 16.25 15.9375C20.3688 15.9375 23.75 18.7887 23.75 21.5625V22.5Z" fill="black"/>
</svg>
