<svg width="30" height="30" viewBox="0 0 30 30" fill="none" xmlns="http://www.w3.org/2000/svg">
<path d="M25 21.25C25 21.5815 24.8683 21.8995 24.6339 22.1339C24.3995 22.3683 24.0815 22.5 23.75 22.5C23.4185 22.5 23.1005 22.3683 22.8661 22.1339C22.6317 21.8995 22.5 21.5815 22.5 21.25V6.25C22.5 5.91848 22.3683 5.60054 22.1339 5.36612C21.8995 5.1317 21.5815 5 21.25 5H3.75C3.41848 5 3.10054 5.1317 2.86612 5.36612C2.6317 5.60054 2.5 5.91848 2.5 6.25V22.5C2.5 23.163 2.76339 23.7989 3.23223 24.2678C3.70107 24.7366 4.33696 25 5 25H23.75C25.8175 25 27.5 23.3175 27.5 21.25V8.75H25V21.25ZM15 8.75H18.75V11.25H15V8.75ZM15 13.75H18.75V16.25H15V13.75ZM6.25 8.75H12.5V16.25H6.25V8.75ZM6.25 21.25V18.75H18.75V21.25H6.25Z" fill="black"/>
</svg>
