<svg xmlns="http://www.w3.org/2000/svg" width="40" height="38" viewBox="0 0 40 38" fill="none">
<path d="M39.297 6.55212L33.3345 0.690505C33.1502 0.508652 32.9311 0.364432 32.6899 0.266148C32.4486 0.167864 32.19 0.117458 31.9289 0.11783H8.07111C7.80999 0.117565 7.5514 0.168021 7.31018 0.266298C7.06896 0.364576 6.84987 0.508738 6.66549 0.690505L0.703032 6.55212C0.517453 6.73338 0.370248 6.949 0.269922 7.18652C0.169596 7.42403 0.118136 7.67874 0.118517 7.93592V33.3447C0.118517 35.5005 1.90189 37.2537 4.09481 37.2537H35.9052C38.0981 37.2537 39.8815 35.5005 39.8815 33.3447V7.93592C39.8821 7.67871 39.8307 7.42394 39.7304 7.18639C39.63 6.94884 39.4827 6.73325 39.297 6.55212ZM8.8942 4.02687H31.1058L33.0939 5.9814H6.90605L8.8942 4.02687ZM20 31.3902L10.0593 21.6176H16.0237V15.754H23.9763V21.6176H29.9407L20 31.3902Z" fill="#000000"/>
</svg>