<svg width="31" height="31" viewBox="0 0 31 31" fill="none" xmlns="http://www.w3.org/2000/svg">
<path d="M5.5 16.75H13C13.3315 16.75 13.6495 16.6183 13.8839 16.3839C14.1183 16.1495 14.25 15.8315 14.25 15.5V5.5C14.25 5.16848 14.1183 4.85054 13.8839 4.61612C13.6495 4.3817 13.3315 4.25 13 4.25H5.5C5.16848 4.25 4.85054 4.3817 4.61612 4.61612C4.3817 4.85054 4.25 5.16848 4.25 5.5V15.5C4.25 15.8315 4.3817 16.1495 4.61612 16.3839C4.85054 16.6183 5.16848 16.75 5.5 16.75ZM4.25 25.5C4.25 25.8315 4.3817 26.1495 4.61612 26.3839C4.85054 26.6183 5.16848 26.75 5.5 26.75H13C13.3315 26.75 13.6495 26.6183 13.8839 26.3839C14.1183 26.1495 14.25 25.8315 14.25 25.5V20.5C14.25 20.1685 14.1183 19.8505 13.8839 19.6161C13.6495 19.3817 13.3315 19.25 13 19.25H5.5C5.16848 19.25 4.85054 19.3817 4.61612 19.6161C4.3817 19.8505 4.25 20.1685 4.25 20.5V25.5ZM16.75 25.5C16.75 25.8315 16.8817 26.1495 17.1161 26.3839C17.3505 26.6183 17.6685 26.75 18 26.75H25.5C25.8315 26.75 26.1495 26.6183 26.3839 26.3839C26.6183 26.1495 26.75 25.8315 26.75 25.5V16.75C26.75 16.4185 26.6183 16.1005 26.3839 15.8661C26.1495 15.6317 25.8315 15.5 25.5 15.5H18C17.6685 15.5 17.3505 15.6317 17.1161 15.8661C16.8817 16.1005 16.75 16.4185 16.75 16.75V25.5ZM18 13H25.5C25.8315 13 26.1495 12.8683 26.3839 12.6339C26.6183 12.3995 26.75 12.0815 26.75 11.75V5.5C26.75 5.16848 26.6183 4.85054 26.3839 4.61612C26.1495 4.3817 25.8315 4.25 25.5 4.25H18C17.6685 4.25 17.3505 4.3817 17.1161 4.61612C16.8817 4.85054 16.75 5.16848 16.75 5.5V11.75C16.75 12.0815 16.8817 12.3995 17.1161 12.6339C17.3505 12.8683 17.6685 13 18 13Z" fill="black"/>
</svg>
