<svg width="25" height="25" viewBox="0 0 25 25" fill="none" xmlns="http://www.w3.org/2000/svg">
<path d="M20.8334 6.25C20.8334 3.99167 17.0178 2.08333 12.5001 2.08333C7.98237 2.08333 4.16675 3.99167 4.16675 6.25V8.33333C4.16675 10.5917 7.98237 12.5 12.5001 12.5C17.0178 12.5 20.8334 10.5917 20.8334 8.33333V6.25ZM12.5001 19.7917C7.98237 19.7917 4.16675 17.8833 4.16675 15.625V18.75C4.16675 21.0083 7.98237 22.9167 12.5001 22.9167C17.0178 22.9167 20.8334 21.0083 20.8334 18.75V15.625C20.8334 17.8833 17.0178 19.7917 12.5001 19.7917Z" fill="black"/>
<path d="M20.8334 10.4167C20.8334 12.675 17.0178 14.5833 12.5001 14.5833C7.98237 14.5833 4.16675 12.675 4.16675 10.4167V13.5417C4.16675 15.8 7.98237 17.7083 12.5001 17.7083C17.0178 17.7083 20.8334 15.8 20.8334 13.5417V10.4167Z" fill="black"/>
</svg>
