<svg width="20" height="17" viewBox="0 0 20 17" fill="none" xmlns="http://www.w3.org/2000/svg">
<g clip-path="url(#clip0_851_1070)">
<path d="M17.9365 0.158752H2.0635C0.969257 0.158752 0.0793762 1.04863 0.0793762 2.14288V14.0476C0.0793762 15.1419 0.969257 16.0318 2.0635 16.0318H17.9365C19.0308 16.0318 19.9206 15.1419 19.9206 14.0476V2.14288C19.9206 1.04863 19.0308 0.158752 17.9365 0.158752ZM6.74108 4.12701C7.88295 4.12701 8.72521 4.96927 8.72521 6.11113C8.72521 7.253 7.88295 8.09526 6.74108 8.09526C5.59922 8.09526 4.75696 7.253 4.75696 6.11113C4.75696 4.96927 5.59823 4.12701 6.74108 4.12701ZM10.4266 12.0635H3.05557V11.6022C3.05557 10.2401 4.71827 8.83931 6.74108 8.83931C8.7639 8.83931 10.4266 10.2401 10.4266 11.6022V12.0635ZM16.9445 11.0714H12.9762V9.08732H16.9445V11.0714ZM16.9445 7.1032H11.9841V5.11907H16.9445V7.1032Z" fill="black"/>
</g>
<defs>
<clipPath id="clip0_851_1070">
<rect width="20" height="16.1905" fill="white"/>
</clipPath>
</defs>
</svg>
