<svg width="31" height="31" viewBox="0 0 31 31" fill="none" xmlns="http://www.w3.org/2000/svg">
<path d="M5.00854 22.8486H7.50854V27.868L13.8848 22.8486H20.0085C21.3873 22.8486 22.5085 21.7453 22.5085 20.3887V10.5491C22.5085 9.19249 21.3873 8.08922 20.0085 8.08922H5.00854C3.62979 8.08922 2.50854 9.19249 2.50854 10.5491V20.3887C2.50854 21.7453 3.62979 22.8486 5.00854 22.8486Z" fill="black"/>
<path d="M25.0085 3.16944H10.0085C8.62979 3.16944 7.50855 4.2727 7.50855 5.62933H22.5085C23.8873 5.62933 25.0085 6.73259 25.0085 8.08922V17.9288C26.3873 17.9288 27.5085 16.8255 27.5085 15.4689V5.62933C27.5085 4.2727 26.3873 3.16944 25.0085 3.16944Z" fill="black"/>
</svg>
