<svg width="30" height="30" viewBox="0 0 30 30" fill="none" xmlns="http://www.w3.org/2000/svg">
<path d="M23.4375 19.6875C23.9553 19.6875 24.375 19.2678 24.375 18.75C24.375 18.2322 23.9553 17.8125 23.4375 17.8125C22.9197 17.8125 22.5 18.2322 22.5 18.75C22.5 19.2678 22.9197 19.6875 23.4375 19.6875Z" fill="black"/>
<path d="M18.2006 28.125H14.0625V23.9869L18.7819 19.2675C18.7609 19.0958 18.7503 18.923 18.75 18.75C18.7493 17.8007 19.037 16.8735 19.5748 16.0912C20.1126 15.3089 20.8753 14.7084 21.7619 14.369C22.6485 14.0296 23.6172 13.9675 24.5399 14.1908C25.4626 14.414 26.2958 14.9122 26.9292 15.6193C27.5625 16.3265 27.9663 17.2093 28.087 18.1509C28.2077 19.0925 28.0396 20.0486 27.605 20.8926C27.1704 21.7366 26.4898 22.4288 25.6532 22.8775C24.8166 23.3263 23.8635 23.5104 22.92 23.4056L18.2006 28.125ZM15.9375 26.25H17.4244L22.305 21.3694L22.8113 21.4856C23.4139 21.629 24.0469 21.5718 24.6141 21.3227C25.1813 21.0736 25.6517 20.6462 25.9538 20.1054C26.256 19.5646 26.3734 18.9399 26.2882 18.3263C26.203 17.7127 25.9199 17.1437 25.4818 16.7057C25.0438 16.2676 24.4748 15.9845 23.8612 15.8993C23.2476 15.8141 22.6229 15.9315 22.0821 16.2337C21.5413 16.5358 21.1139 17.0062 20.8648 17.5734C20.6157 18.1406 20.5585 18.7736 20.7019 19.3762L20.8181 19.8825L15.9375 24.7631V26.25ZM5.625 7.5H7.5V15H5.625V7.5ZM1.875 7.5H3.75V15H1.875V7.5ZM16.875 7.5H18.75V13.125H16.875V7.5ZM13.125 15H11.25C10.7527 15 10.2758 14.8025 9.92418 14.4508C9.57254 14.0992 9.375 13.6223 9.375 13.125V9.375C9.375 8.87772 9.57254 8.40081 9.92418 8.04918C10.2758 7.69754 10.7527 7.5 11.25 7.5H13.125C13.6223 7.5 14.0992 7.69754 14.4508 8.04918C14.8025 8.40081 15 8.87772 15 9.375V13.125C15 13.6223 14.8025 14.0992 14.4508 14.4508C14.0992 14.8025 13.6223 15 13.125 15ZM11.25 13.125H13.125V9.375H11.25V13.125ZM1.875 16.875H3.75V24.375H1.875V16.875ZM13.125 16.875H15V20.625H13.125V16.875ZM9.375 24.375H7.5C7.00272 24.375 6.52581 24.1775 6.17417 23.8258C5.82254 23.4742 5.625 22.9973 5.625 22.5V18.75C5.625 18.2527 5.82254 17.7758 6.17417 17.4242C6.52581 17.0725 7.00272 16.875 7.5 16.875H9.375C9.87228 16.875 10.3492 17.0725 10.7008 17.4242C11.0525 17.7758 11.25 18.2527 11.25 18.75V22.5C11.25 22.9973 11.0525 23.4742 10.7008 23.8258C10.3492 24.1775 9.87228 24.375 9.375 24.375ZM7.5 22.5H9.375V18.75H7.5V22.5ZM1.875 1.875H3.75V5.625H1.875V1.875ZM13.125 1.875H15V5.625H13.125V1.875ZM16.875 1.875H18.75V5.625H16.875V1.875ZM9.375 5.625H7.5C7.00272 5.625 6.52581 5.42746 6.17417 5.07583C5.82254 4.72419 5.625 4.24728 5.625 3.75V1.875H7.5V3.75H9.375V1.875H11.25V3.75C11.25 4.24728 11.0525 4.72419 10.7008 5.07583C10.3492 5.42746 9.87228 5.625 9.375 5.625Z" fill="black"/>
</svg>
