<svg width="30" height="30" viewBox="0 0 30 30" fill="none" xmlns="http://www.w3.org/2000/svg">
<path d="M8.4375 26.25C8.18886 26.25 7.9504 26.1512 7.77459 25.9754C7.59877 25.7996 7.5 25.5611 7.5 25.3125V4.6875C7.50007 4.52288 7.54349 4.36118 7.62589 4.21866C7.70829 4.07615 7.82677 3.95784 7.9694 3.87564C8.11203 3.79345 8.2738 3.75026 8.43842 3.75042C8.60304 3.75058 8.76472 3.79409 8.90719 3.87656L26.7197 14.1891C26.8618 14.2715 26.9797 14.3898 27.0617 14.5321C27.1436 14.6744 27.1868 14.8358 27.1868 15C27.1868 15.1642 27.1436 15.3256 27.0617 15.4679C26.9797 15.6102 26.8618 15.7285 26.7197 15.8109L8.90719 26.1234C8.76452 26.2063 8.60248 26.25 8.4375 26.25ZM2.8125 3.75H4.6875V26.25H2.8125V3.75Z" fill="black"/>
</svg>
