<svg width="31" height="31" viewBox="0 0 31 31" fill="none" xmlns="http://www.w3.org/2000/svg">
<g clip-path="url(#clip0_117_2702)">
<path fill-rule="evenodd" clip-rule="evenodd" d="M14.0743 1.12457C14.8156 0.465638 15.9327 0.465638 16.674 1.12457L20.8928 4.87457C21.7004 5.59245 21.7731 6.82912 21.0552 7.63673C20.3374 8.44435 19.1007 8.5171 18.2931 7.79921L17.3307 6.94376V14.7744C17.3307 15.8549 16.4547 16.7309 15.3742 16.7309C14.2936 16.7309 13.4176 15.8549 13.4176 14.7744V6.94376L12.4553 7.79921C11.6476 8.5171 10.411 8.44435 9.69309 7.63673C8.97521 6.82912 9.04795 5.59245 9.85557 4.87457L14.0743 1.12457ZM10.0929 12.3913C10.5761 13.3577 10.1844 14.533 9.21789 15.0162L7.96197 15.6442L15.3742 19.4985L22.7864 15.6442L21.5304 15.0162C20.5639 14.533 20.1722 13.3577 20.6554 12.3913C21.1387 11.4248 22.3139 11.033 23.2804 11.5163L27.9679 13.86C28.6257 14.1889 29.0435 14.859 29.0494 15.5945C29.0552 16.3299 28.6481 17.0065 27.9956 17.3458L16.2768 23.4396C15.711 23.7338 15.0373 23.7338 14.4715 23.4396L2.75277 17.3458C2.10023 17.0065 1.69311 16.3299 1.69895 15.5945C1.70479 14.859 2.12259 14.1889 2.78043 13.86L7.46793 11.5163C8.43441 11.033 9.60964 11.4248 10.0929 12.3913ZM1.91955 21.6367C2.41807 20.678 3.59937 20.305 4.55806 20.8035L15.3742 26.4279L26.1903 20.8035C27.149 20.305 28.3303 20.678 28.8288 21.6367C29.3273 22.5954 28.9542 23.7767 27.9956 24.2752L16.2768 30.3689C15.711 30.6632 15.0373 30.6632 14.4715 30.3689L2.75277 24.2752C1.79408 23.7767 1.42103 22.5954 1.91955 21.6367Z" fill="black"/>
</g>
<defs>
<clipPath id="clip0_117_2702">
<rect width="30" height="30" fill="white" transform="translate(0.374268 0.609985)"/>
</clipPath>
</defs>
</svg>
