<svg width="30" height="30" viewBox="0 0 30 30" fill="none" xmlns="http://www.w3.org/2000/svg">
<path fill-rule="evenodd" clip-rule="evenodd" d="M8.75 4.75C9.57843 4.75 10.25 5.42157 10.25 6.25V8.5H12.5C13.3284 8.5 14 9.17157 14 10C14 10.8284 13.3284 11.5 12.5 11.5H10.25V13.75C10.25 14.5784 9.57843 15.25 8.75 15.25C7.92157 15.25 7.25 14.5784 7.25 13.75V11.5H5C4.17157 11.5 3.5 10.8284 3.5 10C3.5 9.17157 4.17157 8.5 5 8.5H7.25V6.25C7.25 5.42157 7.92157 4.75 8.75 4.75ZM14.75 13.75C14.75 12.9216 15.4216 12.25 16.25 12.25H23.75C24.8109 12.25 25.8283 12.6714 26.5784 13.4216C27.3286 14.1717 27.75 15.1891 27.75 16.25V18.75C27.75 19.8109 27.3286 20.8283 26.5784 21.5784C25.8283 22.3286 24.8109 22.75 23.75 22.75H6.25C5.18913 22.75 4.17172 22.3286 3.42157 21.5784C2.67143 20.8283 2.25 19.8109 2.25 18.75V17.5C2.25 16.6716 2.92157 16 3.75 16C4.57843 16 5.25 16.6716 5.25 17.5V18.75C5.25 19.0152 5.35536 19.2696 5.54289 19.4571C5.73043 19.6446 5.98478 19.75 6.25 19.75H23.75C24.0152 19.75 24.2696 19.6446 24.4571 19.4571C24.6446 19.2696 24.75 19.0152 24.75 18.75V16.25C24.75 15.9848 24.6446 15.7304 24.4571 15.5429C24.2696 15.3554 24.0152 15.25 23.75 15.25H16.25C15.4216 15.25 14.75 14.5784 14.75 13.75Z" fill="black"/>
</svg>
