<svg width="24" height="24" viewBox="0 0 24 24" fill="none" xmlns="http://www.w3.org/2000/svg">
<path d="M4 20V13H11L7.783 16.22C8.33247 16.7819 8.98837 17.2287 9.71241 17.5343C10.4364 17.8399 11.2141 17.9982 12 18C13.2393 17.9982 14.4475 17.6127 15.4589 16.8964C16.4702 16.1802 17.2349 15.1684 17.648 14H17.666C17.78 13.675 17.867 13.34 17.925 13H19.937C19.6934 14.9332 18.7527 16.7111 17.2913 17.9999C15.83 19.2888 13.9485 19.9999 12 20H11.99C10.9398 20.0031 9.89944 19.7979 8.9291 19.3963C7.95876 18.9946 7.07772 18.4045 6.337 17.66L4 20ZM6.074 11H4.062C4.30548 9.06748 5.24564 7.29016 6.70616 6.00142C8.16667 4.71267 10.0472 4.00105 11.995 4.00001H12C13.0504 3.99668 14.0909 4.2018 15.0615 4.60347C16.032 5.00514 16.9132 5.59538 17.654 6.34001L20 4.00001V11H13L16.222 7.78001C15.672 7.21748 15.0153 6.77032 14.2903 6.46468C13.5654 6.15904 12.7867 6.00107 12 6.00001C10.7607 6.00184 9.55246 6.38735 8.54114 7.10358C7.52982 7.81982 6.76508 8.83163 6.352 10H6.334C6.219 10.325 6.132 10.66 6.075 11H6.074Z" fill="#145CA4"/>
</svg>
