<svg width="50" height="50" viewBox="0 0 50 50" fill="none" xmlns="http://www.w3.org/2000/svg">
<g clip-path="url(#clip0_294_434)">
<path d="M25 21.7344C29.1076 21.7344 32.4375 18.4465 32.4375 14.3906C32.4375 10.3348 29.1076 7.04688 25 7.04688C20.8924 7.04688 17.5625 10.3348 17.5625 14.3906C17.5625 18.4465 20.8924 21.7344 25 21.7344Z" fill="black"/>
<path d="M13.7188 15.1249H14.4688V14.453C14.4733 12.4992 15.0245 10.5857 16.06 8.92896C17.0955 7.27218 18.5739 5.93822 20.3281 5.07799C19.8088 3.882 18.9753 2.84898 17.916 2.08868C16.8567 1.32837 15.6113 0.869155 14.312 0.759807C13.0128 0.65046 11.7081 0.895063 10.5367 1.46764C9.36525 2.04021 8.37077 2.91938 7.65886 4.01175C6.94696 5.10413 6.54421 6.36893 6.4934 7.67182C6.44259 8.97471 6.74562 10.267 7.37029 11.4115C7.99496 12.556 8.91796 13.51 10.0412 14.172C11.1645 14.8341 12.4462 15.1796 13.75 15.1717L13.7188 15.1249ZM35.5625 14.3905V15.0624H36.3125C37.599 15.0494 38.8582 14.69 39.9576 14.0217C41.057 13.3535 41.9559 12.4012 42.5598 11.2652C43.1636 10.1291 43.45 8.8513 43.3888 7.5662C43.3276 6.2811 42.9212 5.03626 42.2121 3.9627C41.5031 2.88915 40.5178 2.02658 39.3599 1.46581C38.202 0.905028 36.9143 0.666777 35.6324 0.776129C34.3505 0.885482 33.1218 1.33839 32.0756 2.08719C31.0294 2.83599 30.2044 3.85298 29.6875 5.03112C31.4422 5.88798 32.9223 7.21856 33.9605 8.87248C34.9987 10.5264 35.5536 12.4377 35.5625 14.3905ZM31.7031 22.4686C34.8098 23.0835 37.8136 24.1356 40.625 25.5936C41.0211 25.8112 41.3798 26.0907 41.6875 26.4217H50V21.078C50.0015 20.873 49.947 20.6715 49.8423 20.4953C49.7377 20.3191 49.5869 20.1748 49.4062 20.078C45.3565 17.9597 40.8515 16.8603 36.2812 16.8749H35.25C34.7085 19.076 33.4631 21.0401 31.7031 22.4686ZM7.07815 29.453C7.07529 28.666 7.28781 27.8933 7.69268 27.2186C8.09755 26.5438 8.67934 25.9926 9.37502 25.6248C12.1864 24.1669 15.1902 23.1148 18.2969 22.4998C16.5454 21.0835 15.3008 19.1371 14.75 16.953H13.7188C9.1485 16.9384 4.64354 18.0379 0.59378 20.1561C0.413106 20.2529 0.262305 20.3972 0.157663 20.5734C0.0530214 20.7497 -0.00148488 20.9511 3.07683e-05 21.1561V31.1405H7.07815V29.453ZM30.4062 38.4686H39.7187V40.6561H30.4062V38.4686Z" fill="black"/>
<path d="M48.1406 29.9846H37.4062V28.4221C37.4062 28.0077 37.2416 27.6103 36.9486 27.3173C36.6556 27.0243 36.2582 26.8596 35.8438 26.8596C35.4293 26.8596 35.0319 27.0243 34.7389 27.3173C34.4459 27.6103 34.2813 28.0077 34.2813 28.4221V29.9846H31.25V25.5628C29.1943 25.1311 27.1005 24.906 25 24.8909C20.0684 24.8704 15.2072 26.0615 10.8438 28.3596C10.6494 28.4605 10.4867 28.6131 10.3737 28.8006C10.2606 28.9881 10.2016 29.2032 10.2032 29.4221V38.1877H21.3125V47.7034C21.3125 48.1178 21.4771 48.5152 21.7702 48.8082C22.0632 49.1012 22.4606 49.2659 22.875 49.2659H48.1406C48.555 49.2659 48.9524 49.1012 49.2455 48.8082C49.5385 48.5152 49.7031 48.1178 49.7031 47.7034V31.5471C49.7031 31.1327 49.5385 30.7353 49.2455 30.4423C48.9524 30.1492 48.555 29.9846 48.1406 29.9846ZM46.5781 46.1721H24.4375V33.1096H34.2813V34.5315C34.2813 34.9459 34.4459 35.3433 34.7389 35.6364C35.0319 35.9294 35.4293 36.094 35.8438 36.094C36.2582 36.094 36.6556 35.9294 36.9486 35.6364C37.2416 35.3433 37.4062 34.9459 37.4062 34.5315V33.1096H46.5781V46.1721Z" fill="black"/>
</g>
<defs>
<clipPath id="clip0_294_434">
<rect width="50" height="50" fill="white"/>
</clipPath>
</defs>
</svg>
