<svg width="30" height="30" viewBox="0 0 30 30" fill="none" xmlns="http://www.w3.org/2000/svg">
<g clip-path="url(#clip0_28_8)">
<path d="M3.51663 19.3333L1.9333 26.1667C1.87868 26.4165 1.88055 26.6753 1.93878 26.9243C1.99701 27.1733 2.11012 27.4061 2.26985 27.6058C2.42958 27.8054 2.6319 27.9669 2.86203 28.0783C3.09215 28.1898 3.34427 28.2485 3.59997 28.25C3.71906 28.2629 3.8392 28.2629 3.9583 28.25L10.8333 26.6667L24.0333 13.5167L16.6666 6.16667L3.51663 19.3333Z" fill="black"/>
<path d="M28.1833 6.93333L23.2666 2.01667C22.9434 1.69505 22.506 1.51451 22.05 1.51451C21.594 1.51451 21.1566 1.69505 20.8333 2.01667L18.1 4.75L25.4583 12.1083L28.1916 9.375C28.3516 9.21423 28.4783 9.0235 28.5645 8.81372C28.6506 8.60394 28.6946 8.37923 28.6938 8.15244C28.693 7.92565 28.6475 7.70124 28.5599 7.49206C28.4723 7.28287 28.3444 7.09301 28.1833 6.93333Z" fill="black"/>
</g>
<defs>
<clipPath id="clip0_28_8">
<rect width="30" height="30" fill="white"/>
</clipPath>
</defs>
</svg>
