<svg width="30" height="30" viewBox="0 0 30 30" fill="none" xmlns="http://www.w3.org/2000/svg">
<path d="M28.125 1.875H1.875C1.37772 1.875 0.900805 2.07254 0.549175 2.42417C0.197544 2.77581 0 3.25272 0 3.75V26.25C0 26.7473 0.197544 27.2242 0.549175 27.5758C0.900805 27.9275 1.37772 28.125 1.875 28.125H28.125C28.6223 28.125 29.0992 27.9275 29.4508 27.5758C29.8025 27.2242 30 26.7473 30 26.25V3.75C30 3.25272 29.8025 2.77581 29.4508 2.42417C29.0992 2.07254 28.6223 1.875 28.125 1.875V1.875ZM6.4875 5.625C7.04376 5.625 7.58753 5.78995 8.05004 6.09899C8.51255 6.40803 8.87304 6.84729 9.08591 7.3612C9.29878 7.87512 9.35448 8.44062 9.24596 8.98619C9.13744 9.53176 8.86957 10.0329 8.47624 10.4262C8.0829 10.8196 7.58176 11.0874 7.03619 11.196C6.49062 11.3045 5.92512 11.2488 5.4112 11.0359C4.89729 10.823 4.45803 10.4626 4.14899 10C3.83995 9.53753 3.675 8.99376 3.675 8.4375C3.675 7.69158 3.97132 6.97621 4.49876 6.44876C5.02621 5.92132 5.74158 5.625 6.4875 5.625V5.625ZM3.75 23.4375V19.5937L9.375 13.8937C9.55065 13.7191 9.78826 13.6211 10.0359 13.6211C10.2836 13.6211 10.5212 13.7191 10.6969 13.8937L13.125 16.2656L5.925 23.4375H3.75ZM26.25 23.4375H8.57812L14.4187 17.5969L19.4813 12.5344C19.6569 12.3598 19.8945 12.2618 20.1422 12.2618C20.3899 12.2618 20.6275 12.3598 20.8031 12.5344L26.25 17.9813V23.4375Z" fill="black"/>
</svg>
