<svg width="30" height="30" viewBox="0 0 30 30" fill="none" xmlns="http://www.w3.org/2000/svg">
<g clip-path="url(#clip0_1299_7893)">
<path d="M8.16683 15.6665H21.8335V18.2332H23.1668V14.3332H15.6668V11.6665H14.3335V14.3332H6.8335V18.2332H8.16683V15.6665Z" fill="black"/>
<path d="M11.6665 19.1665H3.33317C2.4127 19.1665 1.6665 19.9127 1.6665 20.8332V25.8332C1.6665 26.7536 2.4127 27.4998 3.33317 27.4998H11.6665C12.587 27.4998 13.3332 26.7536 13.3332 25.8332V20.8332C13.3332 19.9127 12.587 19.1665 11.6665 19.1665Z" fill="black"/>
<path d="M26.6665 19.1665H18.3332C17.4127 19.1665 16.6665 19.9127 16.6665 20.8332V25.8332C16.6665 26.7536 17.4127 27.4998 18.3332 27.4998H26.6665C27.587 27.4998 28.3332 26.7536 28.3332 25.8332V20.8332C28.3332 19.9127 27.587 19.1665 26.6665 19.1665Z" fill="black"/>
<path d="M19.1665 2.5H10.8332C9.9127 2.5 9.1665 3.24619 9.1665 4.16667V9.16667C9.1665 10.0871 9.9127 10.8333 10.8332 10.8333H19.1665C20.087 10.8333 20.8332 10.0871 20.8332 9.16667V4.16667C20.8332 3.24619 20.087 2.5 19.1665 2.5Z" fill="black"/>
</g>
<defs>
<clipPath id="clip0_1299_7893">
<rect width="30" height="30" fill="white"/>
</clipPath>
</defs>
</svg>
