<svg width="30" height="30" viewBox="0 0 30 30" fill="none" xmlns="http://www.w3.org/2000/svg">
<path d="M28.2953 11.55L27.9353 11.19C28.1682 10.7061 28.248 10.1626 28.1642 9.63217C28.0804 9.1017 27.8369 8.60937 27.4661 8.22082C27.2132 7.96909 26.9094 7.7742 26.5752 7.64918C26.2409 7.52416 25.8839 7.47188 25.5278 7.49582C25.1932 7.51538 24.8646 7.59351 24.557 7.72666V1.66666H1.22363V28.3333H24.557V14.85L27.132 12.275L27.352 12.4942C27.3807 12.5229 27.4035 12.557 27.4191 12.5945C27.4346 12.632 27.4427 12.6723 27.4427 12.7129C27.4427 12.7535 27.4346 12.7938 27.4191 12.8313C27.4035 12.8688 27.3807 12.9029 27.352 12.9317L25.3911 14.8933C25.266 15.0183 25.1957 15.1879 25.1956 15.3647C25.1956 15.5415 25.2657 15.7111 25.3907 15.8362C25.5157 15.9613 25.6853 16.0317 25.8621 16.0317C26.0389 16.0318 26.2085 15.9616 26.3336 15.8367L28.2953 13.875C28.6034 13.5665 28.7764 13.1484 28.7764 12.7125C28.7764 12.2765 28.6034 11.8584 28.2953 11.55ZM6.22363 6.83332H19.5586V8.16666H6.22363V6.83332ZM6.22363 10.1667H19.5586V11.5H6.22363V10.1667ZM6.22363 13.5H14.9736V14.8333H6.22363V13.5ZM18.5495 24.9133H12.047C11.2953 24.9133 10.592 24.8417 10.2186 24.2267C9.83613 23.5975 10.2161 22.8667 10.4936 22.3317C10.5428 22.2375 10.4336 22.1208 10.3086 22.25C9.94197 22.6267 9.35863 23.305 8.88947 23.85C8.39363 24.4267 8.19697 24.6525 8.09197 24.7475C7.98088 24.8765 7.83 24.9649 7.66311 24.9987C7.49623 25.0325 7.32284 25.0098 7.1703 24.9342C7.03334 24.8551 6.92605 24.7333 6.8648 24.5875C6.80356 24.4417 6.79173 24.2798 6.83113 24.1267C6.86613 23.9183 7.46113 21.6 8.0003 19.5158C7.28363 20.7883 5.00863 24.5992 4.90197 24.7783C4.82262 24.9113 4.69372 25.0072 4.54361 25.0451C4.3935 25.083 4.23449 25.0597 4.10155 24.9804C3.96861 24.9011 3.87263 24.7722 3.83474 24.622C3.79684 24.4719 3.82012 24.3129 3.89947 24.18C3.92863 24.1325 6.77863 19.3567 7.1378 18.6633C7.25489 18.3862 7.47281 18.1638 7.74753 18.0411C8.02225 17.9185 8.33329 17.9047 8.6178 18.0025C8.87461 18.1069 9.08232 18.3047 9.19907 18.5562C9.31582 18.8076 9.33293 19.0939 9.24697 19.3575C8.94697 20.5142 8.64113 21.7008 8.4053 22.6242C8.78613 22.1842 9.18447 21.7325 9.47197 21.4367C9.69323 21.1707 9.99557 20.9845 10.3327 20.9067C10.6698 20.8289 11.0232 20.8637 11.3386 21.0058C11.5347 21.1056 11.6917 21.2681 11.7847 21.4674C11.8777 21.6668 11.9014 21.8915 11.852 22.1058C11.7724 22.3713 11.6639 22.6273 11.5286 22.8692C11.3061 23.3317 11.412 23.7458 12.047 23.7458H18.5495C18.7042 23.7458 18.8525 23.8073 18.9619 23.9167C19.0713 24.0261 19.1328 24.1744 19.1328 24.3292C19.1328 24.4839 19.0713 24.6322 18.9619 24.7416C18.8525 24.851 18.7042 24.9133 18.5495 24.9133ZM16.8161 20.705L14.6461 21.2775C14.6146 21.2864 14.5812 21.2867 14.5495 21.2782C14.5178 21.2697 14.489 21.2527 14.4661 21.2292C14.4422 21.2066 14.4249 21.1778 14.4163 21.1461C14.4076 21.1143 14.4078 21.0808 14.417 21.0492L14.9703 18.8833L20.462 13.3917L22.2953 15.225L16.8161 20.705ZM26.3711 11.1492L23.2378 14.2825L21.4045 12.4492L24.5378 9.31582C24.818 9.02771 25.1951 8.85372 25.5961 8.82749L25.6711 8.82499C25.8285 8.82218 25.9848 8.85072 26.1311 8.90895C26.2773 8.96718 26.4105 9.05393 26.5228 9.16416C26.7637 9.44848 26.8828 9.81624 26.8544 10.1878C26.826 10.5593 26.6524 10.9047 26.3711 11.1492Z" fill="black"/>
</svg>
