<svg width="22" height="22" viewBox="0 0 22 22" fill="none" xmlns="http://www.w3.org/2000/svg">
<path d="M6.41712 2.76512C7.77369 1.8588 9.36853 1.37504 11 1.375C13.1873 1.37755 15.2842 2.24756 16.8308 3.79418C18.3774 5.34081 19.2475 7.43775 19.25 9.625C19.2499 11.33 18.7215 12.993 17.7376 14.3854C16.7537 15.7778 15.3625 16.8312 13.7555 17.4006V17.3401C13.7775 17.3209 13.7981 17.2989 13.8187 17.2782C14.2005 16.8969 14.4151 16.3796 14.4155 15.84V15.6516C15.2439 15.1815 15.9665 14.5458 16.5384 13.784C17.1102 13.0222 17.5189 12.1508 17.739 11.2241C17.9591 10.2974 17.9858 9.33524 17.8176 8.39772C17.6494 7.46019 17.2898 6.56739 16.7612 5.775C16.1807 4.90568 15.411 4.17896 14.5099 3.64925C13.6087 3.11954 12.5993 2.80056 11.5574 2.7162C10.5155 2.63185 9.46797 2.78429 8.49331 3.16213C7.51865 3.53997 6.64209 4.1334 5.92927 4.89801C5.21646 5.66261 4.68585 6.57856 4.37718 7.57729C4.0685 8.57601 3.98977 9.63162 4.14687 10.6651C4.30397 11.6986 4.69283 12.6831 5.28434 13.545C5.87585 14.4069 6.65467 15.1238 7.5625 15.642V15.84C7.5627 16.1219 7.62147 16.4007 7.73509 16.6587C7.8487 16.9167 8.01468 17.1483 8.2225 17.3387V17.3937C6.78239 16.8797 5.51351 15.9755 4.55754 14.7821C3.60158 13.5887 2.99616 12.153 2.80888 10.6354C2.62161 9.11782 2.85985 7.57805 3.49702 6.18803C4.13418 4.79801 5.14518 3.61245 6.41712 2.76375V2.76512Z" fill="black"/>
<path d="M12.8466 16.3075C12.7852 16.3687 12.7123 16.4173 12.632 16.4503C12.5518 16.4833 12.4659 16.5002 12.3791 16.5V19.965C12.3791 20.14 12.3096 20.3079 12.1858 20.4317C12.062 20.5555 11.8942 20.625 11.7191 20.625H10.2575C10.2726 20.625 10.252 20.6195 10.2108 20.6085C10.1076 20.581 9.87937 20.5205 9.79137 20.4311C9.72989 20.3698 9.68111 20.2969 9.64785 20.2167C9.61458 20.1365 9.59747 20.0505 9.5975 19.9636V16.5C9.42246 16.5 9.25458 16.4305 9.13081 16.3067C9.00704 16.1829 8.9375 16.015 8.9375 15.84V13.0625C8.9375 12.6978 9.08237 12.3481 9.34023 12.0902C9.59809 11.8324 9.94783 11.6875 10.3125 11.6875H11.6655C12.0302 11.6875 12.3799 11.8324 12.6378 12.0902C12.8956 12.3481 13.0405 12.6978 13.0405 13.0625V15.84C13.0402 16.0122 12.9726 16.1775 12.8521 16.3006L12.8466 16.3061V16.3075Z" fill="black"/>
<path d="M14.63 9.62498C14.63 10.3469 14.4141 11.0467 14.0181 11.6394C14.2697 12.0546 14.4155 12.5414 14.4155 13.0625V13.2082C14.8935 12.7531 15.2755 12.2069 15.539 11.6018C15.8026 10.9967 15.9423 10.345 15.95 9.685C15.9577 9.02504 15.8332 8.37023 15.5838 7.75915C15.3344 7.14808 14.9652 6.59311 14.498 6.12698C14.0391 5.65034 13.4893 5.27053 12.8812 5.01001C12.273 4.74948 11.6187 4.61352 10.9571 4.61017C10.2955 4.60682 9.63991 4.73614 9.02912 4.99049C8.41833 5.24484 7.86473 5.61905 7.40104 6.09102C6.93735 6.56298 6.57298 7.12311 6.32948 7.7383C6.08597 8.35349 5.96826 9.01126 5.98331 9.67272C5.99837 10.3342 6.14587 10.9859 6.41711 11.5894C6.68835 12.1929 7.07782 12.7358 7.5625 13.1862V13.0625C7.5625 12.5345 7.711 12.0409 7.9695 11.6229C7.65798 11.1504 7.46123 10.6117 7.39497 10.0496C7.32871 9.48763 7.39476 8.91791 7.58786 8.38596C7.78097 7.85402 8.09576 7.37459 8.50712 6.98596C8.91848 6.59733 9.41501 6.31025 9.95706 6.14766C10.4991 5.98507 11.0717 5.95146 11.629 6.04952C12.1864 6.14758 12.7131 6.3746 13.1671 6.71244C13.6211 7.05028 13.9898 7.48958 14.2438 7.99528C14.4978 8.50098 14.6301 9.05907 14.63 9.62498V9.62498Z" fill="black"/>
<path d="M12.375 9.625C12.375 9.98967 12.2301 10.3394 11.9723 10.5973C11.7144 10.8551 11.3647 11 11 11C10.6353 11 10.2856 10.8551 10.0277 10.5973C9.76987 10.3394 9.625 9.98967 9.625 9.625C9.625 9.26033 9.76987 8.91059 10.0277 8.65273C10.2856 8.39487 10.6353 8.25 11 8.25C11.3647 8.25 11.7144 8.39487 11.9723 8.65273C12.2301 8.91059 12.375 9.26033 12.375 9.625Z" fill="black"/>
</svg>
