<svg width="20" height="20" viewBox="0 0 20 20" fill="none" xmlns="http://www.w3.org/2000/svg">
<path d="M1 14.5V5.5C1 4.67 1.67 4 2.5 4H16.51C17.34 4 18.01 4.67 18.01 5.5V14.5C18.01 15.33 17.34 16 16.51 16H2.5C1.67 16 1 15.33 1 14.5ZM2.31 5.39C1.98 5.72 2.16 6.06 2.34 6.23L6.4 9.95L2.5 14.01C2.38 14.15 2.3 14.37 2.44 14.52C2.57 14.68 2.87 14.67 3 14.57L7.37 10.84L9.51 12.79L11.64 10.84L16.01 14.57C16.14 14.67 16.44 14.68 16.57 14.52C16.71 14.37 16.63 14.15 16.51 14.01L12.61 9.95L16.67 6.23C16.85 6.06 17.03 5.72 16.7 5.39C16.37 5.06 16.03 5.22 15.75 5.46L9.51 10.5L3.26 5.46C2.98 5.22 2.64 5.06 2.31 5.39Z" fill="black"/>
</svg>
