<svg width="18" height="18" viewBox="0 0 18 18" fill="none" xmlns="http://www.w3.org/2000/svg">
<g clip-path="url(#clip0_2413_7635)">
<path d="M4.52813 13.6408C4.3875 13.6127 4.275 13.5846 4.13437 13.5283C3.99375 13.4721 3.88125 13.4439 3.76875 13.3877C3.51562 13.2752 3.29062 13.1346 3.06562 12.9658C2.61562 12.6564 2.25 12.2346 1.96875 11.7283C1.6875 11.2502 1.51875 10.6877 1.49063 10.1533C1.4625 9.87207 1.49063 9.61895 1.51875 9.3377C1.54688 9.19707 1.575 9.08457 1.60312 8.94394C1.63125 8.80332 1.6875 8.69082 1.71562 8.5502L1.74375 8.94394C1.74375 9.08457 1.77188 9.19707 1.8 9.3377C1.82813 9.59082 1.88438 9.84395 1.94063 10.0689C2.05313 10.5471 2.22188 10.9971 2.475 11.4189C2.72813 11.8408 3.00938 12.2346 3.375 12.6002C3.54375 12.7689 3.74063 12.9377 3.9375 13.1064C4.02188 13.1908 4.13438 13.2752 4.24688 13.3596L4.52813 13.6408ZM4.44375 14.6533C4.35938 14.7096 4.24687 14.7377 4.13437 14.7658C4.02187 14.7939 3.9375 14.8221 3.825 14.8221C3.62813 14.8502 3.40313 14.8783 3.17813 14.8502C2.75625 14.8221 2.30625 14.7096 1.94063 14.5127C1.54688 14.3158 1.20938 14.0064 0.984375 13.6408C0.871875 13.4721 0.759375 13.2752 0.675 13.0783C0.646875 12.9939 0.61875 12.8814 0.590625 12.7689C0.590625 12.6846 0.5625 12.6002 0.5625 12.4877C0.646875 12.5721 0.703125 12.6564 0.759375 12.7127C0.84375 12.7971 0.9 12.8814 0.95625 12.9377C1.09688 13.0783 1.20938 13.2189 1.35 13.3314C1.63125 13.5846 1.9125 13.8096 2.25 13.9783C2.55938 14.1471 2.925 14.2877 3.2625 14.4002C3.43125 14.4564 3.62813 14.4846 3.825 14.5408C3.90938 14.5689 4.02188 14.5689 4.10625 14.5971C4.24688 14.6252 4.33125 14.6252 4.44375 14.6533M10.8 0.98457C10.9406 1.0127 11.0531 1.06895 11.1937 1.1252C11.3344 1.18145 11.4469 1.2377 11.5594 1.29395C11.8125 1.43457 12.0375 1.5752 12.2625 1.74395C12.7125 2.08145 13.0781 2.53145 13.3313 3.0377C13.5844 3.54395 13.725 4.10645 13.725 4.64082C13.725 4.92207 13.6969 5.1752 13.6406 5.45645C13.6125 5.59707 13.5844 5.70957 13.5281 5.85019C13.4719 5.99082 13.4437 6.10332 13.3875 6.21582L13.3594 5.82207C13.3594 5.68145 13.3594 5.56894 13.3313 5.42832L13.2469 4.66895C13.1625 4.19082 12.9938 3.7127 12.7688 3.2627C12.5438 2.8127 12.2625 2.41895 11.925 2.05332C11.7563 1.85645 11.5594 1.6877 11.3906 1.49082C11.3062 1.40645 11.1938 1.32207 11.0813 1.2377L10.8 0.98457M13.2469 0.87207C13.3594 0.900195 13.4437 0.92832 13.5281 0.98457C13.6125 1.0127 13.725 1.06895 13.8094 1.1252C13.9781 1.2377 14.1469 1.3502 14.3156 1.49082C14.625 1.77207 14.8781 2.10957 15.0188 2.50332C15.1875 2.89707 15.2438 3.31895 15.1875 3.74082C15.1594 3.9377 15.1031 4.13457 15.0469 4.33145C15.0187 4.41582 14.9625 4.52832 14.9344 4.6127C14.8781 4.69707 14.85 4.78144 14.7656 4.86582V4.30332C14.7656 4.10645 14.7375 3.9377 14.7375 3.76895C14.6813 3.40332 14.625 3.06582 14.4844 2.75645C14.3438 2.41895 14.175 2.1377 13.9781 1.82832C13.8656 1.6877 13.7531 1.51895 13.6406 1.37832C13.5844 1.29395 13.5281 1.2377 13.4437 1.15332C13.3875 1.0127 13.3031 0.92832 13.2469 0.87207" fill="#42ADE2"/>
<path d="M2.81421 5.06277C2.25171 5.3159 2.05484 5.99089 2.30796 6.55339L5.85171 13.9503L7.82046 13.0221L4.27671 5.59715C4.02359 5.03465 3.37671 4.78152 2.81421 5.06277M12.1236 10.9409L14.2048 9.95652L10.1548 1.51902C9.87359 0.95652 9.19859 0.703395 8.60796 0.984645C8.04546 1.2659 7.79234 1.9409 8.07359 2.53152L12.1236 10.9409Z" fill="#FFDD67"/>
<path d="M8.63359 0.956694C8.57734 0.984819 8.52109 1.01294 8.46484 1.06919C8.99922 0.928569 9.56172 1.18169 9.81484 1.68794L13.8648 10.1254L14.2305 9.95669L10.1805 1.51919C9.89922 0.928569 9.22422 0.675444 8.63359 0.956694" fill="#EBA352"/>
<path d="M7.81958 12.9938L9.98521 11.9532L5.85083 3.34691C5.56958 2.75629 4.83833 2.47504 4.24771 2.75629C3.65708 3.03754 3.40396 3.76879 3.68521 4.35941L7.81958 12.9938Z" fill="#FFDD67"/>
<path d="M4.24688 2.78423C4.19063 2.81235 4.13438 2.84048 4.07812 2.89673C4.6125 2.7561 5.23125 3.00923 5.48438 3.5436L8.04375 8.91548L8.6625 9.2811L5.85 3.37485C5.56875 2.7561 4.86563 2.50298 4.24688 2.78423" fill="#EBA352"/>
<path d="M9.64771 11.2779L11.8133 10.2373L7.67896 1.63104C7.39771 1.04042 6.66646 0.759166 6.07583 1.06854C5.48521 1.34979 5.23208 2.08104 5.51333 2.67167L9.64771 11.2779Z" fill="#FFDD67"/>
<path d="M6.07578 1.04106C6.01953 1.06919 5.96328 1.12544 5.90703 1.15356C6.44141 1.01294 7.06016 1.26606 7.31328 1.80044L10.2102 7.87544L10.8289 8.24106L7.67891 1.63169C7.39766 1.01294 6.66641 0.759812 6.07578 1.04106M2.81328 5.06294C2.75703 5.09106 2.70078 5.11919 2.64453 5.17544C3.15078 5.03481 3.68516 5.28794 3.91016 5.79419L6.01953 10.2098L6.63828 10.5754L4.27578 5.62544C4.02266 5.03481 3.37578 4.78169 2.81328 5.06294Z" fill="#EBA352"/>
<path d="M17.1009 4.21833C16.3416 3.62771 15.1041 4.27458 14.4853 6.29958C14.0634 7.70583 14.0072 8.12771 13.1072 8.54958L12.6009 7.50896C12.6009 7.50896 4.61345 11.3621 4.92282 11.9808C4.92282 11.9808 5.87907 14.9621 7.51032 16.3402C9.92907 18.4215 15.5822 16.1996 15.8353 10.8277C15.9759 7.70583 17.9166 4.86521 17.1009 4.21833Z" fill="#FFDD67"/>
<path d="M17.1008 4.21836C16.9602 4.10586 16.7914 4.04961 16.6227 4.02148C16.6508 4.04961 16.707 4.04961 16.7352 4.07773C17.5789 4.72461 16.707 6.21523 16.2289 7.56523C15.8352 8.63398 15.4977 9.73086 15.5539 10.7996C15.7789 15.4684 11.082 17.6902 8.26953 16.8465C11.0258 17.9996 16.1445 15.8059 15.9195 10.9402C15.8633 9.87149 16.1727 8.83086 16.5945 7.70586C17.0445 6.35586 17.9164 4.86523 17.1008 4.21836" fill="#EBA352"/>
<path d="M13.3596 8.4375C11.6158 8.63437 9.05643 11.1375 10.8564 13.8656C9.53456 11.1094 11.7002 9.25313 13.0783 8.60625C13.2189 8.49375 13.3596 8.4375 13.3596 8.4375" fill="#EBA352"/>
</g>
<defs>
<clipPath id="clip0_2413_7635">
<rect width="18" height="18" fill="white"/>
</clipPath>
</defs>
</svg>
