<svg width="30" height="30" viewBox="0 0 30 30" fill="none" xmlns="http://www.w3.org/2000/svg">
<path d="M20.971 3H9.0265C9.0265 3 7.5325 3 7.5325 4.5H22.465C22.465 3 20.971 3 20.971 3ZM25.4515 7.5C25.4515 6 23.959 6 23.959 6H6.04C6.04 6 4.5475 6 4.5475 7.5V9H25.4515V7.5ZM28.4365 9L27.5545 8.112V10.5H2.4445V8.112L1.561 9C0.677496 9.888 0.0444963 10.125 0.399996 12C0.753996 13.869 2.4685 24.114 2.7235 25.5C3.0025 27.021 4.549 27 4.549 27H25.453C25.453 27 26.998 27.021 27.2785 25.5C27.5335 24.114 29.2465 13.869 29.602 12C29.9545 10.125 29.3215 9.888 28.4365 9ZM20.9995 17.9955C20.9995 18.8265 20.326 19.5 19.495 19.5H10.504C10.105 19.5 9.7223 19.3415 9.44015 19.0593C9.15801 18.7772 8.9995 18.3945 8.9995 17.9955V15H10.4995V18H19.4995V15H20.9995V17.9955Z" fill="black"/>
</svg>
