<svg width="51" height="51" viewBox="0 0 51 51" fill="none" xmlns="http://www.w3.org/2000/svg">
<path d="M1.85942 1.85942C2.75467 0.96444 3.96872 0.46167 5.2346 0.46167C6.50049 0.46167 7.71454 0.96444 8.60979 1.85942L25.4905 18.7401L42.3712 1.85942C43.2716 0.989804 44.4775 0.508617 45.7292 0.519494C46.9809 0.530371 48.1783 1.03244 49.0634 1.91757C49.9485 2.8027 50.4506 4.00007 50.4615 5.25179C50.4724 6.5035 49.9912 7.70941 49.1216 8.60979L32.2409 25.4905L49.1216 42.3712C49.9912 43.2716 50.4724 44.4775 50.4615 45.7292C50.4506 46.9809 49.9485 48.1783 49.0634 49.0634C48.1783 49.9485 46.9809 50.4506 45.7292 50.4615C44.4775 50.4724 43.2716 49.9912 42.3712 49.1216L25.4905 32.2409L8.60979 49.1216C7.70941 49.9912 6.5035 50.4724 5.25179 50.4615C4.00007 50.4506 2.8027 49.9485 1.91757 49.0634C1.03244 48.1783 0.530371 46.9809 0.519494 45.7292C0.508617 44.4775 0.989804 43.2716 1.85942 42.3712L18.7401 25.4905L1.85942 8.60979C0.96444 7.71454 0.46167 6.50049 0.46167 5.2346C0.46167 3.96872 0.96444 2.75467 1.85942 1.85942Z" fill="black"/>
</svg>
