<svg width="31" height="30" viewBox="0 0 31 30" fill="none" xmlns="http://www.w3.org/2000/svg">
<path d="M15.4445 1.87405C18.9258 1.87405 22.2644 3.25696 24.726 5.71855C27.1876 8.18014 28.5705 11.5188 28.5705 15C28.5705 18.4812 27.1876 21.8198 24.726 24.2814C22.2644 26.743 18.9258 28.1259 15.4445 28.1259C11.9633 28.1259 8.62469 26.743 6.1631 24.2814C3.70151 21.8198 2.3186 18.4812 2.3186 15C2.3186 11.5188 3.70151 8.18014 6.1631 5.71855C8.62469 3.25696 11.9633 1.87405 15.4445 1.87405ZM17.4133 9.9328C18.3883 9.9328 19.1795 9.25593 19.1795 8.2528C19.1795 7.24968 18.3864 6.5728 17.4133 6.5728C16.4383 6.5728 15.6508 7.24968 15.6508 8.2528C15.6508 9.25593 16.4383 9.9328 17.4133 9.9328ZM17.7564 20.4834C17.7564 20.2828 17.8258 19.7616 17.7864 19.4653L16.2452 21.2391C15.9264 21.5747 15.527 21.8072 15.3395 21.7453C15.2545 21.714 15.1834 21.6534 15.139 21.5743C15.0947 21.4952 15.08 21.403 15.0977 21.3141L17.6664 13.1991C17.8764 12.1697 17.2989 11.2303 16.0745 11.1103C14.7827 11.1103 12.8814 12.4209 11.7245 14.0841C11.7245 14.2828 11.687 14.7778 11.7264 15.0741L13.2658 13.2984C13.5845 12.9666 13.9558 12.7322 14.1433 12.7959C14.2357 12.8291 14.3114 12.8971 14.3541 12.9855C14.3969 13.0738 14.4033 13.1754 14.372 13.2684L11.8258 21.3441C11.5314 22.2891 12.0883 23.2153 13.4383 23.4253C15.4258 23.4253 16.5995 22.1466 17.7583 20.4834H17.7564Z" fill="black"/>
</svg>
