<svg width="31" height="31" viewBox="0 0 31 31" fill="none" xmlns="http://www.w3.org/2000/svg">
<path d="M15.4995 21.75C15.1804 21.7484 14.8656 21.6758 14.5781 21.5374C14.2905 21.399 14.0374 21.1984 13.837 20.95L8.57451 14.575C8.267 14.1912 8.07349 13.7288 8.01603 13.2403C7.95857 12.7519 8.03947 12.2572 8.24951 11.8125C8.41986 11.426 8.69785 11.0968 9.05028 10.864C9.40271 10.6313 9.81469 10.5049 10.237 10.5H20.762C21.1843 10.5049 21.5963 10.6313 21.9487 10.864C22.3012 11.0968 22.5792 11.426 22.7495 11.8125C22.9595 12.2572 23.0404 12.7519 22.983 13.2403C22.9255 13.7288 22.732 14.1912 22.4245 14.575L17.162 20.95C16.9616 21.1984 16.7085 21.399 16.4209 21.5374C16.1334 21.6758 15.8186 21.7484 15.4995 21.75Z" fill="black"/>
</svg>
