<svg width="30" height="30" viewBox="0 0 30 30" fill="none" xmlns="http://www.w3.org/2000/svg">
<g clip-path="url(#clip0_1299_7902)">
<path d="M0.727295 8.67348L14.3761 14.8651C14.7746 15.0461 15.2251 15.0461 15.6236 14.8651L29.2724 8.67348C30.2421 8.23345 30.2421 6.76802 29.2724 6.32798L15.6242 0.135789C15.4284 0.0463109 15.2157 0 15.0004 0C14.7852 0 14.5725 0.0463109 14.3767 0.135789L0.727295 6.32739C-0.242432 6.76743 -0.242432 8.23345 0.727295 8.67348ZM29.273 13.8461L25.8693 12.3034L16.3982 16.5965C15.9552 16.7975 15.4847 16.8995 15.0001 16.8995C14.5156 16.8995 14.0457 16.7975 13.6021 16.5965L4.13159 12.3034L0.727295 13.8461C-0.242432 14.2856 -0.242432 15.7504 0.727295 16.1899L14.3761 22.3768C14.7746 22.5573 15.2251 22.5573 15.6236 22.3768L29.273 16.1899C30.2427 15.7504 30.2427 14.2856 29.273 13.8461ZM29.273 21.3344L25.8822 19.7975L16.3982 24.0965C15.9552 24.2975 15.4847 24.3995 15.0001 24.3995C14.5156 24.3995 14.0457 24.2975 13.6021 24.0965L4.1187 19.7975L0.727295 21.3344C-0.242432 21.7739 -0.242432 23.2387 0.727295 23.6782L14.3761 29.8651C14.7746 30.0456 15.2251 30.0456 15.6236 29.8651L29.273 23.6782C30.2427 23.2387 30.2427 21.7739 29.273 21.3344Z" fill="black"/>
</g>
<defs>
<clipPath id="clip0_1299_7902">
<rect width="30" height="30" fill="white"/>
</clipPath>
</defs>
</svg>
