<svg width="30" height="30" viewBox="0 0 30 30" fill="none" xmlns="http://www.w3.org/2000/svg">
<path d="M15 15C19.1426 15 22.5 11.6426 22.5 7.5C22.5 3.35742 19.1426 0 15 0C10.8574 0 7.5 3.35742 7.5 7.5C7.5 11.6426 10.8574 15 15 15ZM20.6133 16.9102L17.8125 28.125L15.9375 20.1562L17.8125 16.875H12.1875L14.0625 20.1562L12.1875 28.125L9.38672 16.9102C5.20898 17.1094 1.875 20.5254 1.875 24.75V27.1875C1.875 28.7402 3.13477 30 4.6875 30H25.3125C26.8652 30 28.125 28.7402 28.125 27.1875V24.75C28.125 20.5254 24.791 17.1094 20.6133 16.9102Z" fill="black"/>
</svg>
