<svg width="30" height="27" viewBox="0 0 30 27" fill="none" xmlns="http://www.w3.org/2000/svg">
<g clip-path="url(#clip0_409_11528)">
<path d="M20 6.34896C20 6.02083 19.8698 5.70312 19.6354 5.46875L14.5365 0.364583C14.3021 0.130208 13.9844 0 13.651 0H13.3333V6.66667H20V6.34896ZM29.7396 16.0417L24.7552 11.0208C24.2292 10.4948 23.3281 10.8646 23.3281 11.6094V15H19.9948V18.3333H23.3281V21.7292C23.3281 22.474 24.2292 22.8437 24.7552 22.3177L29.7396 17.2917C30.0833 16.9479 30.0833 16.3854 29.7396 16.0417ZM10 17.5V15.8333C10 15.375 10.375 15 10.8333 15H20V8.33333H12.9167C12.2292 8.33333 11.6667 7.77083 11.6667 7.08333V0H1.25C0.557292 0 0 0.557292 0 1.25V25.4167C0 26.1094 0.557292 26.6667 1.25 26.6667H18.75C19.4427 26.6667 20 26.1094 20 25.4167V18.3333H10.8333C10.375 18.3333 10 17.9583 10 17.5Z" fill="black"/>
</g>
<defs>
<clipPath id="clip0_409_11528">
<rect width="30" height="26.6667" fill="white"/>
</clipPath>
</defs>
</svg>
