<svg width="30" height="30" viewBox="0 0 30 30" fill="none" xmlns="http://www.w3.org/2000/svg">
<g clip-path="url(#clip0_411_11464)">
<path d="M0.9375 16.875C0.421875 16.875 0 17.2969 0 17.8125V19.6875C0 20.2031 0.421875 20.625 0.9375 20.625H7.5V16.875H0.9375ZM29.5898 6.15234L23.8535 0.410156C23.5898 0.146484 23.2324 0 22.8574 0H22.5V7.5H30V7.14258C30 6.77344 29.8535 6.41602 29.5898 6.15234ZM20.625 7.96875V0H8.90625C8.12695 0 7.5 0.626953 7.5 1.40625V16.875H15V13.0547C15 12.2168 16.0137 11.8008 16.6055 12.3926L22.207 18.0469C22.5937 18.4395 22.5937 19.0664 22.207 19.4531L16.5996 25.1016C16.0078 25.6934 14.9941 25.2773 14.9941 24.4395V20.625H7.5V28.5938C7.5 29.373 8.12695 30 8.90625 30H28.5938C29.373 30 30 29.373 30 28.5938V9.375H22.0312C21.2578 9.375 20.625 8.74219 20.625 7.96875Z" fill="black"/>
</g>
<defs>
<clipPath id="clip0_411_11464">
<rect width="30" height="30" fill="white"/>
</clipPath>
</defs>
</svg>
