<svg width="30" height="24" viewBox="0 0 30 24" fill="none" xmlns="http://www.w3.org/2000/svg">
<g clip-path="url(#clip0_2603_7553)">
<path d="M23.25 10.5C19.5188 10.5 16.5 13.5188 16.5 17.25C16.5 20.9812 19.5188 24 23.25 24C26.9812 24 30 20.9812 30 17.25C30 13.5188 26.9812 10.5 23.25 10.5ZM26.25 17.5453C26.25 17.7937 26.0437 18 25.7953 18H22.9547C22.7063 18 22.5 17.7937 22.5 17.5453V13.9547C22.5 13.7063 22.7063 13.5 22.9547 13.5H23.5453C23.7937 13.5 24 13.7063 24 13.9547V16.5H25.7953C26.0437 16.5 26.25 16.7063 26.25 16.9547V17.5453ZM15 17.25C15 15.9469 15.3141 14.7141 15.8531 13.6172C15.4781 13.5469 15.0938 13.5 14.7 13.5H13.9172C12.8766 13.9781 11.7188 14.25 10.5 14.25C9.28125 14.25 8.12813 13.9781 7.08281 13.5H6.3C2.82187 13.5 0 16.3219 0 19.8V21.75C0 22.9922 1.00781 24 2.25 24H18.5203C16.3969 22.5047 15 20.0391 15 17.25ZM10.5 12C13.8141 12 16.5 9.31406 16.5 6C16.5 2.68594 13.8141 0 10.5 0C7.18594 0 4.5 2.68594 4.5 6C4.5 9.31406 7.18594 12 10.5 12Z" fill="black"/>
</g>
<defs>
<clipPath id="clip0_2603_7553">
<rect width="30" height="24" fill="white"/>
</clipPath>
</defs>
</svg>
