<svg width="31" height="31" viewBox="0 0 31 31" fill="none" xmlns="http://www.w3.org/2000/svg">
<path d="M25.0432 5.12828C25.1765 5.26386 25.2787 5.41694 25.3499 5.57876C25.421 5.74058 25.4565 5.9199 25.4565 6.11233V10.3153C25.4565 11.0895 24.8209 11.7149 24.0342 11.7149C23.2474 11.7149 22.6118 11.0895 22.6118 10.3153V9.49748L17.9269 14.1029C17.4024 14.6189 16.5579 14.6539 15.9934 14.1772L11.9441 10.7571L7.89036 14.1772C7.29474 14.6802 6.39688 14.6102 5.88571 14.0241C5.37455 13.4381 5.44567 12.5546 6.04128 12.0517L11.0196 7.85302C11.5529 7.40254 12.3397 7.40254 12.8731 7.85302L16.8512 11.2076L20.5983 7.51625H19.7671C18.9803 7.51625 18.3447 6.89083 18.3447 6.11671C18.3447 5.34258 18.9803 4.71716 19.7671 4.71716H24.0342C24.4253 4.71716 24.7809 4.87461 25.0387 5.12391L25.0432 5.12828ZM4.12109 18.0128C4.12109 16.8538 5.07674 15.9135 6.25464 15.9135H24.7454C25.9233 15.9135 26.8789 16.8538 26.8789 18.0128V25.0106C26.8789 26.1696 25.9233 27.1099 24.7454 27.1099H6.25464C5.07674 27.1099 4.12109 26.1696 4.12109 25.0106V18.0128ZM6.25464 22.9112V25.0106H8.38818C8.38818 23.8516 7.43253 22.9112 6.25464 22.9112ZM8.38818 18.0128H6.25464V20.1122C7.43253 20.1122 8.38818 19.1718 8.38818 18.0128ZM24.7454 22.9112C23.5675 22.9112 22.6118 23.8516 22.6118 25.0106H24.7454V22.9112ZM22.6118 18.0128C22.6118 19.1718 23.5675 20.1122 24.7454 20.1122V18.0128H22.6118ZM18.3447 21.5117C18.3447 20.7693 18.045 20.0574 17.5115 19.5324C16.978 19.0075 16.2545 18.7126 15.5 18.7126C14.7455 18.7126 14.022 19.0075 13.4885 19.5324C12.955 20.0574 12.6553 20.7693 12.6553 21.5117C12.6553 22.2541 12.955 22.966 13.4885 23.491C14.022 24.0159 14.7455 24.3108 15.5 24.3108C16.2545 24.3108 16.978 24.0159 17.5115 23.491C18.045 22.966 18.3447 22.2541 18.3447 21.5117Z" fill="black"/>
</svg>
