<svg width="30" height="30" viewBox="0 0 30 30" fill="none" xmlns="http://www.w3.org/2000/svg">
<g clip-path="url(#clip0_890_1084)">
<path d="M20 9.375C19.0781 9.375 18.3333 8.53711 18.3333 7.5C18.3333 6.46289 19.0781 5.625 20 5.625H28.3333C29.2552 5.625 30 6.46289 30 7.5V16.875C30 17.9121 29.2552 18.75 28.3333 18.75C27.4115 18.75 26.6667 17.9121 26.6667 16.875V12.0293L17.8438 21.9492C17.1927 22.6816 16.1354 22.6816 15.4844 21.9492L10 15.7793L2.84375 23.8242C2.19271 24.5566 1.13542 24.5566 0.484375 23.8242C-0.166667 23.0918 -0.166667 21.9023 0.484375 21.1699L8.81771 11.7949C9.46875 11.0625 10.526 11.0625 11.1771 11.7949L16.6667 17.9707L24.3073 9.375H20Z" fill="black"/>
</g>
<defs>
<clipPath id="clip0_890_1084">
<rect width="30" height="30" fill="white"/>
</clipPath>
</defs>
</svg>
