<svg width="100" height="80" viewBox="0 0 100 80" fill="none" xmlns="http://www.w3.org/2000/svg">
<g clip-path="url(#clip0_2212_7551)">
<path d="M101.242 0V62.5C101.242 72.1719 93.3151 80 83.5217 80C73.8706 80 66.0389 72.3906 65.8016 62.9219L7.64192 78.5781C4.93645 79.2969 2.1677 77.7344 1.42409 75.0625C0.680479 72.3906 2.27845 69.6563 4.98392 68.9219L55.6759 55.2812V10C55.6759 4.48438 60.2166 0 65.8016 0H101.242ZM91.116 62.5C91.116 58.3594 87.7143 55 83.5217 55C79.329 55 75.9274 58.3594 75.9274 62.5C75.9274 66.6406 79.329 70 83.5217 70C87.7143 70 91.116 66.6406 91.116 62.5ZM3.63909 32.4531C2.91131 29.7812 4.52509 27.0469 7.21474 26.3281L14.5559 24.3906L17.8309 36.4687C18.1948 37.7969 19.5871 38.5937 20.932 38.2344L25.8208 36.9375C27.1656 36.5781 27.9725 35.2031 27.6086 33.875L24.3336 21.7969L31.6747 19.8594C34.3802 19.1406 37.149 20.7344 37.8767 23.3906L44.4268 47.5313C45.1546 50.2031 43.5408 52.9375 40.8512 53.6562L16.3912 60.1406C13.6857 60.8594 10.917 59.2656 10.1892 56.6094L3.63909 32.4531Z" fill="black"/>
</g>
<defs>
<clipPath id="clip0_2212_7551">
<rect width="100" height="80" fill="white"/>
</clipPath>
</defs>
</svg>
