<svg width="20" height="16" viewBox="0 0 20 16" fill="none" xmlns="http://www.w3.org/2000/svg">
<g clip-path="url(#clip0_897_1088)">
<path d="M7 8C4.79063 8 3 6.20937 3 4C3 1.79063 4.79063 0 7 0C9.20937 0 11 1.79063 11 4C11 6.20937 9.20937 8 7 8ZM5.57188 9.5H8.42813C9.07188 9.5 9.69063 9.60937 10.2656 9.80937C10.0938 10.3437 10 10.9094 10 11.5C10 13.3594 10.9219 15.0031 12.3375 16H0.928125C0.415625 16 0 15.5844 0 15.0719C0 11.9937 2.49375 9.5 5.57188 9.5ZM20 11.5C20 13.9844 17.9844 16 15.5 16C13.0156 16 11 13.9844 11 11.5C11 9.01562 13.0156 7 15.5 7C17.9844 7 20 9.01562 20 11.5ZM15.5 9C15.225 9 15 9.225 15 9.5V11.5C15 11.775 15.225 12 15.5 12H17C17.275 12 17.5 11.775 17.5 11.5C17.5 11.225 17.275 11 17 11H16V9.5C16 9.225 15.775 9 15.5 9Z" fill="black"/>
</g>
<defs>
<clipPath id="clip0_897_1088">
<rect width="20" height="16" fill="white"/>
</clipPath>
</defs>
</svg>
