<svg width="30" height="30" viewBox="0 0 30 30" fill="none" xmlns="http://www.w3.org/2000/svg">
<path d="M4.5 9C4.5 7.4087 5.13214 5.88258 6.25736 4.75736C7.38258 3.63214 8.9087 3 10.5 3C12.0913 3 13.6174 3.63214 14.7426 4.75736C15.8679 5.88258 16.5 7.4087 16.5 9C16.5 10.5913 15.8679 12.1174 14.7426 13.2426C13.6174 14.3679 12.0913 15 10.5 15C8.9087 15 7.38258 14.3679 6.25736 13.2426C5.13214 12.1174 4.5 10.5913 4.5 9ZM0 25.6078C0 20.9906 3.74063 17.25 8.35781 17.25H12.6422C17.2594 17.25 21 20.9906 21 25.6078C21 26.3766 20.3766 27 19.6078 27H1.39219C0.623438 27 0 26.3766 0 25.6078ZM28.5609 27H22.0969C22.35 26.5594 22.5 26.0484 22.5 25.5V25.125C22.5 22.2797 21.2297 19.725 19.2281 18.0094C19.3406 18.0047 19.4484 18 19.5609 18H22.4391C26.6156 18 30 21.3844 30 25.5609C30 26.3578 29.3531 27 28.5609 27ZM20.25 15C18.7969 15 17.4844 14.4094 16.5328 13.4578C17.4563 12.2109 18 10.6687 18 9C18 7.74375 17.6906 6.55781 17.1422 5.51719C18.0141 4.87969 19.0875 4.5 20.25 4.5C23.1516 4.5 25.5 6.84844 25.5 9.75C25.5 12.6516 23.1516 15 20.25 15Z" fill="black"/>
</svg>
