<svg width="25" height="25" viewBox="0 0 25 25" fill="none" xmlns="http://www.w3.org/2000/svg">
<path d="M23.8636 2.32362e-05H15.9091C15.2585 -0.0026361 14.6277 0.223048 14.127 0.637585C13.6264 1.05212 13.2878 1.62911 13.1705 2.26759L12.125 7.99321C12.0527 8.39211 12.0692 8.80199 12.1733 9.19384C12.2774 9.58568 12.4665 9.94992 12.7273 10.2608C12.9895 10.5718 13.3164 10.8221 13.6853 10.9944C14.0542 11.1667 14.4563 11.2568 14.8636 11.2585H18.1818L17.8977 12.0068C17.688 12.5616 17.6151 13.1587 17.6853 13.7475C17.7555 14.3364 17.9667 14.8997 18.301 15.39C18.6353 15.8803 19.0829 16.2832 19.606 16.5646C20.1292 16.846 20.7125 16.9976 21.3068 17.0068C21.5273 17.0085 21.7436 16.9462 21.9292 16.8274C22.1149 16.7087 22.2619 16.5386 22.3523 16.3379L24.8977 10.6009C24.9557 10.4759 24.9903 10.3415 25 10.2041V1.13381C25 0.83311 24.8803 0.544727 24.6672 0.332101C24.4541 0.119475 24.165 2.32362e-05 23.8636 2.32362e-05ZM10.1591 13.6621H6.875L7.15909 12.9138C7.36579 12.3557 7.43441 11.7561 7.35911 11.1659C7.28381 10.5757 7.06682 10.0124 6.72657 9.52373C6.38632 9.03511 5.93288 8.63567 5.40477 8.35934C4.87667 8.083 4.28951 7.93796 3.69318 7.93652C3.47266 7.93478 3.25639 7.9971 3.07076 8.11588C2.88512 8.23466 2.73814 8.40476 2.64773 8.60545L0.102273 14.3424C0.0371538 14.4849 0.00233103 14.6393 0 14.7959V23.8662C0 24.1669 0.119724 24.4553 0.332833 24.6679C0.545943 24.8805 0.834981 25 1.13636 25H9.09091C9.7415 25.0026 10.3723 24.777 10.873 24.3624C11.3736 23.9479 11.7122 23.3709 11.8295 22.7324L12.875 17.0635C12.9473 16.6646 12.9308 16.2547 12.8267 15.8629C12.7226 15.471 12.5335 15.1068 12.2727 14.7959C12.0263 14.4628 11.709 14.1883 11.3435 13.9923C10.978 13.7962 10.5735 13.6835 10.1591 13.6621Z" fill="black"/>
</svg>
