<svg width="30" height="30" viewBox="0 0 30 30" fill="none" xmlns="http://www.w3.org/2000/svg">
<path d="M15 3C13.4087 3 11.8826 3.63214 10.7574 4.75736C9.63214 5.88258 9 7.4087 9 9C9 10.5913 9.63214 12.1174 10.7574 13.2426C11.8826 14.3679 13.4087 15 15 15C16.5913 15 18.1174 14.3679 19.2426 13.2426C20.3679 12.1174 21 10.5913 21 9C21 7.4087 20.3679 5.88258 19.2426 4.75736C18.1174 3.63214 16.5913 3 15 3ZM7.5135 16.5C7.11845 16.4984 6.72698 16.5748 6.36154 16.7249C5.99609 16.8749 5.66386 17.0956 5.38389 17.3743C5.10392 17.653 4.88173 17.9843 4.73005 18.3491C4.57837 18.7138 4.50019 19.105 4.5 19.5C4.5 22.0365 5.7495 23.949 7.7025 25.1955C9.2745 26.1975 11.295 26.7675 13.5 26.94V25.5C13.5 24.885 13.743 24.33 14.1615 23.9115L18.0315 20.0415C18.0108 19.8301 18.0002 19.6179 18 19.4055C17.9934 18.3824 18.2684 17.3772 18.795 16.5H7.515H7.5135ZM15.2235 28.278C15.2915 28.349 15.3732 28.4053 15.4638 28.4435C15.5543 28.4816 15.6517 28.5009 15.75 28.5H18.75C18.8931 28.4999 19.034 28.4638 19.1595 28.395C19.2594 28.3348 19.3376 28.2445 19.383 28.137C19.4305 28.0245 19.4618 27.9058 19.476 27.7845C19.4917 27.6566 19.4997 27.5279 19.5 27.399V27C19.86 26.9925 20.1405 26.9805 20.3445 26.9655C20.5128 26.9631 20.6746 26.9003 20.8005 26.7885C20.9106 26.6659 20.973 26.5078 20.976 26.343C20.991 26.148 21 25.8675 21 25.5H21.75C21.915 25.5 22.047 25.4655 22.149 25.395C22.2465 25.3289 22.3267 25.2404 22.383 25.137C22.44 25.0272 22.4757 24.9076 22.488 24.7845C22.503 24.6525 22.512 24.5145 22.512 24.375C22.5042 24.2617 22.5002 24.1481 22.5 24.0345V23.742C22.758 23.8365 23.019 23.9025 23.2845 23.9415C23.5515 23.9805 23.82 24 24.0945 24C24.6783 23.9989 25.2557 23.8789 25.7916 23.6473C26.3275 23.4157 26.8106 23.0774 27.2115 22.653C27.6165 22.23 27.933 21.75 28.1595 21.2115C28.386 20.6715 28.5 20.1015 28.5 19.5C28.5 18.8745 28.383 18.2895 28.149 17.742C27.9233 17.2082 27.5968 16.7228 27.1875 16.3125C26.777 15.9037 26.2917 15.5778 25.758 15.3525C25.2023 15.1159 24.6039 14.996 24 15C23.4094 15.011 22.8258 15.13 22.278 15.351C21.7438 15.5661 21.2575 15.8847 20.847 16.2885C20.4351 16.6929 20.1015 17.1699 19.863 17.6955C19.6197 18.2325 19.4958 18.8159 19.5 19.4055C19.5 19.773 19.5435 20.16 19.629 20.5665L15.222 24.972C15.1508 25.0401 15.0944 25.1222 15.0562 25.213C15.0181 25.3038 14.9989 25.4015 15 25.5V27.75C15 27.9525 15.075 28.1295 15.222 28.278H15.2235ZM25.9215 17.5785C26.0278 17.6818 26.1117 17.8057 26.1682 17.9427C26.2247 18.0797 26.2526 18.2268 26.25 18.375C26.2526 18.5232 26.2247 18.6703 26.1682 18.8073C26.1117 18.9443 26.0278 19.0682 25.9215 19.1715C25.8182 19.2778 25.6943 19.3617 25.5573 19.4182C25.4203 19.4747 25.2732 19.5026 25.125 19.5C24.9768 19.5026 24.8297 19.4747 24.6927 19.4182C24.5557 19.3617 24.4318 19.2778 24.3285 19.1715C24.2222 19.0682 24.1383 18.9443 24.0818 18.8073C24.0253 18.6703 23.9974 18.5232 24 18.375C24 18.063 24.1095 17.7975 24.3285 17.5785C24.4318 17.4722 24.5557 17.3883 24.6927 17.3318C24.8297 17.2753 24.9768 17.2474 25.125 17.25C25.437 17.25 25.7025 17.3595 25.9215 17.5785Z" fill="black"/>
</svg>
