<svg width="30" height="30" viewBox="0 0 30 30" fill="none" xmlns="http://www.w3.org/2000/svg">
<path d="M17.25 2.24756V8.99756C17.25 9.5943 17.4871 10.1666 17.909 10.5885C18.331 11.0105 18.9033 11.2476 19.5 11.2476H26.25V23.9976C26.25 24.5943 26.0129 25.1666 25.591 25.5885C25.169 26.0105 24.5967 26.2476 24 26.2476H16.2405C16.5578 25.9661 16.8119 25.6206 16.9859 25.2338C17.1599 24.847 17.2499 24.4277 17.25 24.0036V17.9976C17.25 17.4403 17.0948 16.8941 16.8017 16.4201C16.5087 15.9461 16.0895 15.5631 15.591 15.3141L11.091 13.0641C10.6746 12.856 10.2155 12.7477 9.75 12.7477C9.28451 12.7477 8.8254 12.856 8.409 13.0641L8.25 13.1436V4.49756C8.25 3.90082 8.48705 3.32853 8.90901 2.90657C9.33097 2.48461 9.90326 2.24756 10.5 2.24756H17.25ZM18.75 2.62256V8.99756C18.75 9.19647 18.829 9.38724 18.9697 9.52789C19.1103 9.66854 19.3011 9.74756 19.5 9.74756H25.875L18.75 2.62256ZM10.4205 14.4066L14.9205 16.6566C15.1696 16.781 15.3792 16.9724 15.5257 17.2093C15.6722 17.4461 15.7499 17.7191 15.75 17.9976V24.0036C15.7499 24.2821 15.6722 24.555 15.5257 24.7918C15.3792 25.0287 15.1696 25.2201 14.9205 25.3446L10.4205 27.5946C10.2123 27.6986 9.98275 27.7528 9.75 27.7528C9.51725 27.7528 9.2877 27.6986 9.0795 27.5946L4.5795 25.3446C4.33038 25.2201 4.12083 25.0287 3.97433 24.7918C3.82782 24.555 3.75015 24.2821 3.75 24.0036V17.9976C3.75015 17.7191 3.82782 17.4461 3.97433 17.2093C4.12083 16.9724 4.33038 16.781 4.5795 16.6566L9.0795 14.4066C9.2877 14.3025 9.51725 14.2484 9.75 14.2484C9.98275 14.2484 10.2123 14.3025 10.4205 14.4066ZM6.2955 17.9511C6.1125 17.8727 5.90586 17.8702 5.72105 17.9442C5.53623 18.0182 5.38837 18.1626 5.31 18.3456C5.23163 18.5286 5.22916 18.7352 5.30315 18.92C5.37713 19.1048 5.5215 19.2527 5.7045 19.3311L9 20.7411V24.7476C9 24.9465 9.07902 25.1372 9.21967 25.2779C9.36032 25.4185 9.55109 25.4976 9.75 25.4976C9.94891 25.4976 10.1397 25.4185 10.2803 25.2779C10.421 25.1372 10.5 24.9465 10.5 24.7476V20.7426L13.7955 19.3296C13.9755 19.2493 14.1167 19.1015 14.1885 18.918C14.2604 18.7345 14.2571 18.5301 14.1795 18.349C14.1018 18.1679 13.956 18.0246 13.7736 17.9501C13.5911 17.8757 13.3867 17.876 13.2045 17.9511L9.75 19.4316L6.2955 17.9511Z" fill="black"/>
</svg>
