<svg width="30" height="30" viewBox="0 0 30 30" fill="none" xmlns="http://www.w3.org/2000/svg">
<g clip-path="url(#clip0_195_11464)">
<path d="M13.4543 3.74745C13.6991 3.7125 13.9347 3.62967 14.1475 3.50369C14.3603 3.37771 14.5462 3.21105 14.6946 3.01322C14.843 2.8154 14.951 2.59027 15.0124 2.35072C15.0738 2.11116 15.0874 1.86185 15.0525 1.61703C15.0175 1.37221 14.9347 1.13667 14.8087 0.923863C14.6827 0.711054 14.516 0.525142 14.3182 0.376742C14.1204 0.228342 13.8952 0.12036 13.6557 0.0589617C13.4161 -0.00243658 13.1668 -0.0160489 12.922 0.0189018C10.1538 0.417189 7.55118 1.57796 5.40529 3.37129C3.2594 5.16462 1.65495 7.51974 0.771532 10.1731C-0.111889 12.8264 -0.239425 15.6732 0.403197 18.3949C1.04582 21.1166 2.43324 23.6057 4.41018 25.5837C6.38711 27.5618 8.87555 28.9506 11.597 29.5948C14.3184 30.239 17.1654 30.1131 19.8194 29.2313C22.4733 28.3495 24.8295 26.7465 26.6241 24.6017C28.4188 22.457 29.5812 19.8551 29.9811 17.0874C30.0517 16.5929 29.923 16.0907 29.6232 15.6912C29.3235 15.2916 28.8774 15.0275 28.3829 14.9569C27.8884 14.8864 27.3862 15.0151 26.9866 15.3148C26.5871 15.6145 26.323 16.0606 26.2524 16.5551C25.9518 18.6306 25.0796 20.5816 23.7333 22.1897C22.3871 23.7978 20.6199 24.9995 18.6295 25.6605C16.6391 26.3215 14.504 26.4156 12.4632 25.9324C10.4223 25.4491 8.55622 24.4075 7.07365 22.9241C5.59109 21.4408 4.55054 19.5741 4.06846 17.5331C3.58637 15.492 3.68176 13.3571 4.34395 11.3672C5.00614 9.37728 6.209 7.61087 7.81795 6.26561C9.4269 4.92035 11.3785 4.0468 13.4543 3.74745ZM20.0906 0.724439C19.6195 0.557962 19.1015 0.585459 18.6506 0.80088C18.1997 1.0163 17.8529 1.402 17.6864 1.87313C17.5199 2.34426 17.5474 2.86223 17.7629 3.31308C17.9783 3.76394 18.364 4.11075 18.8352 4.27723C19.5909 4.54337 20.3116 4.88736 20.9845 5.30164C21.1951 5.43883 21.4311 5.53246 21.6784 5.57703C21.9258 5.6216 22.1796 5.61619 22.4249 5.56113C22.6701 5.50607 22.9019 5.40246 23.1065 5.25643C23.3111 5.1104 23.4843 4.92488 23.6161 4.71083C23.7478 4.49678 23.8354 4.25851 23.8736 4.01009C23.9119 3.76166 23.8999 3.50809 23.8386 3.26434C23.7773 3.02058 23.6678 2.79157 23.5166 2.5908C23.3653 2.39003 23.1754 2.22157 22.9581 2.09534C22.0535 1.53815 21.0923 1.07861 20.0906 0.724439ZM27.9121 7.05167C27.7859 6.83431 27.6174 6.64443 27.4166 6.4932C27.2158 6.34198 26.9868 6.23248 26.7431 6.17115C26.4993 6.10983 26.2457 6.09793 25.9973 6.13615C25.7488 6.17437 25.5106 6.26193 25.2965 6.39368C25.0824 6.52543 24.8969 6.6987 24.7509 6.90328C24.6048 7.10785 24.5012 7.3396 24.4462 7.58484C24.3911 7.83009 24.3857 8.08387 24.4303 8.33124C24.4748 8.57861 24.5685 8.81455 24.7057 9.02516C25.1175 9.69304 25.4589 10.4086 25.7251 11.1593C25.8974 11.6224 26.2449 11.9992 26.6925 12.2084C27.1401 12.4177 27.652 12.4427 28.1178 12.2779C28.5837 12.1132 28.9661 11.772 29.1827 11.3279C29.3993 10.8838 29.4326 10.3724 29.2755 9.90395C28.9229 8.90779 28.4658 7.95171 27.9121 7.05167ZM15.0688 9.28378C15.0688 8.78435 14.8704 8.30537 14.5172 7.95222C14.1641 7.59907 13.6851 7.40067 13.1856 7.40067C12.6862 7.40067 12.2072 7.59907 11.854 7.95222C11.5008 8.30537 11.3024 8.78435 11.3024 9.28378V16.8162C11.3024 17.8557 12.1461 18.6993 13.1856 18.6993H18.2074C18.7069 18.6993 19.1859 18.5009 19.539 18.1478C19.8922 17.7946 20.0906 17.3156 20.0906 16.8162C20.0906 16.3168 19.8922 15.8378 19.539 15.4846C19.1859 15.1315 18.7069 14.9331 18.2074 14.9331H15.0688V9.28378Z" fill="black"/>
</g>
<defs>
<clipPath id="clip0_195_11464">
<rect width="30" height="30" fill="white"/>
</clipPath>
</defs>
</svg>
