<svg width="30" height="30" viewBox="0 0 30 30" fill="none" xmlns="http://www.w3.org/2000/svg">
<path d="M15 2.5V10C15 10.663 15.2634 11.2989 15.7322 11.7678C16.2011 12.2366 16.837 12.5 17.5 12.5H25V25.625C25 26.1223 24.8025 26.5992 24.4508 26.9508C24.0992 27.3025 23.6223 27.5 23.125 27.5H16.25V21.2475C16.2498 20.9194 16.185 20.5945 16.0593 20.2914C15.9336 19.9883 15.7494 19.7129 15.5172 19.481C15.2851 19.2491 15.0096 19.0651 14.7063 18.9397C14.4031 18.8143 14.0781 18.7498 13.75 18.75H12.5V17.5C12.5 16.837 12.2366 16.2011 11.7678 15.7322C11.2989 15.2634 10.663 15 10 15H6.25C5.81107 14.9994 5.37981 15.115 5 15.335V4.375C5 3.87772 5.19754 3.40081 5.54917 3.04917C5.90081 2.69754 6.37772 2.5 6.875 2.5H15ZM16.875 3.125V10C16.875 10.1658 16.9408 10.3247 17.0581 10.4419C17.1753 10.5592 17.3342 10.625 17.5 10.625H24.375L16.875 3.125ZM5 20V18.125C5 17.6277 5.19754 17.1508 5.54917 16.7992C5.90081 16.4475 6.37772 16.25 6.875 16.25H9.375C9.87228 16.25 10.3492 16.4475 10.7008 16.7992C11.0525 17.1508 11.25 17.6277 11.25 18.125V20H13.125C13.6223 20 14.0992 20.1975 14.4508 20.5492C14.8025 20.9008 15 21.3777 15 21.875V23.75H11.25V23.125C11.25 22.9592 11.1842 22.8003 11.0669 22.6831C10.9497 22.5658 10.7908 22.5 10.625 22.5C10.4592 22.5 10.3003 22.5658 10.1831 22.6831C10.0658 22.8003 10 22.9592 10 23.125V23.75H6.25V23.125C6.25 22.9592 6.18415 22.8003 6.06694 22.6831C5.94973 22.5658 5.79076 22.5 5.625 22.5C5.45924 22.5 5.30027 22.5658 5.18306 22.6831C5.06585 22.8003 5 22.9592 5 23.125V23.75H1.25V21.875C1.25 21.3777 1.44754 20.9008 1.79917 20.5492C2.15081 20.1975 2.62772 20 3.125 20H5ZM6.25 18.125V20H10V18.125C10 17.9592 9.93415 17.8003 9.81694 17.6831C9.69973 17.5658 9.54076 17.5 9.375 17.5H6.875C6.70924 17.5 6.55027 17.5658 6.43306 17.6831C6.31585 17.8003 6.25 17.9592 6.25 18.125ZM11.25 25H15V26.875C15 27.3723 14.8025 27.8492 14.4508 28.2008C14.0992 28.5525 13.6223 28.75 13.125 28.75H3.125C2.62772 28.75 2.15081 28.5525 1.79917 28.2008C1.44754 27.8492 1.25 27.3723 1.25 26.875V25H5V25.625C5 25.7908 5.06585 25.9497 5.18306 26.0669C5.30027 26.1842 5.45924 26.25 5.625 26.25C5.79076 26.25 5.94973 26.1842 6.06694 26.0669C6.18415 25.9497 6.25 25.7908 6.25 25.625V25H10V25.625C10 25.7908 10.0658 25.9497 10.1831 26.0669C10.3003 26.1842 10.4592 26.25 10.625 26.25C10.7908 26.25 10.9497 26.1842 11.0669 26.0669C11.1842 25.9497 11.25 25.7908 11.25 25.625V25Z" fill="black"/>
</svg>
