<svg width="30" height="30" viewBox="0 0 30 30" fill="none" xmlns="http://www.w3.org/2000/svg">
<path d="M15 3C13.4087 3 11.8826 3.63214 10.7574 4.75736C9.63213 5.88258 8.99999 7.4087 8.99999 9C8.99999 10.5913 9.63213 12.1174 10.7574 13.2426C11.8826 14.3679 13.4087 15 15 15C16.5913 15 18.1174 14.3679 19.2426 13.2426C20.3679 12.1174 21 10.5913 21 9C21 7.4087 20.3679 5.88258 19.2426 4.75736C18.1174 3.63214 16.5913 3 15 3ZM22.2975 25.1955C20.691 26.22 18.6165 26.7915 16.3545 26.952C16.2417 26.6541 16.0668 26.3836 15.8415 26.1585L12.8415 23.16C13.2762 22.2516 13.5012 21.2571 13.5 20.25C13.502 18.9148 13.1061 17.6093 12.363 16.5H22.5C23.2956 16.5 24.0587 16.8161 24.6213 17.3787C25.1839 17.9413 25.5 18.7043 25.5 19.5C25.5 22.0365 24.2505 23.949 22.2975 25.1955ZM6.74999 25.5C7.92899 25.5 9.01799 25.11 9.89399 24.4545L13.719 28.2795C13.7886 28.3492 13.8713 28.4046 13.9623 28.4423C14.0533 28.4801 14.1509 28.4996 14.2495 28.4997C14.348 28.4997 14.4456 28.4804 14.5367 28.4427C14.6277 28.4051 14.7105 28.3499 14.7802 28.2802C14.85 28.2106 14.9053 28.1279 14.9431 28.0369C14.9809 27.9459 15.0003 27.8483 15.0004 27.7498C15.0005 27.6512 14.9811 27.5536 14.9435 27.4626C14.9058 27.3715 14.8506 27.2887 14.781 27.219L10.956 23.394C11.664 22.4472 12.0317 21.2891 11.9996 20.1072C11.9674 18.9254 11.5373 17.789 10.7788 16.882C10.0204 15.9751 8.97801 15.3507 7.8205 15.11C6.66299 14.8693 5.45811 15.0263 4.40095 15.5556C3.34379 16.0849 2.49624 16.9556 1.99555 18.0266C1.49485 19.0976 1.37032 20.3063 1.64211 21.4569C1.91391 22.6075 2.56612 23.6327 3.49314 24.3665C4.42016 25.1003 5.56771 25.4997 6.74999 25.5V25.5ZM6.74999 24C5.75543 24 4.8016 23.6049 4.09834 22.9016C3.39508 22.1984 2.99999 21.2446 2.99999 20.25C2.99999 19.2554 3.39508 18.3016 4.09834 17.5983C4.8016 16.8951 5.75543 16.5 6.74999 16.5C7.74455 16.5 8.69838 16.8951 9.40164 17.5983C10.1049 18.3016 10.5 19.2554 10.5 20.25C10.5 21.2446 10.1049 22.1984 9.40164 22.9016C8.69838 23.6049 7.74455 24 6.74999 24Z" fill="black"/>
</svg>
