<svg width="30" height="30" viewBox="0 0 30 30" fill="none" xmlns="http://www.w3.org/2000/svg">
<path d="M7.81226 3.12457H6.56226C5.65057 3.12457 4.77623 3.48674 4.13158 4.13139C3.48692 4.77605 3.12476 5.65039 3.12476 6.56207V22.1871C3.12476 23.0988 3.48692 23.9731 4.13158 24.6178C4.77623 25.2624 5.65057 25.6246 6.56226 25.6246H6.87476V18.1246C6.87476 17.3787 7.17107 16.6633 7.69852 16.1358C8.22596 15.6084 8.94133 15.3121 9.68726 15.3121H18.8785L21.1135 13.0771C21.4945 12.6957 21.947 12.3931 22.445 12.1868C22.9431 11.9804 23.4769 11.8743 24.016 11.8746H24.0185C24.5648 11.8746 25.1123 11.9833 25.6248 12.2008V9.73332C25.6249 9.19963 25.5199 8.67114 25.3157 8.17805C25.1115 7.68496 24.8122 7.23693 24.4348 6.85957L21.891 4.31582C21.1401 3.56411 20.1247 3.13647 19.0623 3.12457V8.74957C19.0623 9.49549 18.7659 10.2109 18.2385 10.7383C17.711 11.2658 16.9957 11.5621 16.2498 11.5621H10.6248C9.87883 11.5621 9.16346 11.2658 8.63602 10.7383C8.10857 10.2109 7.81226 9.49549 7.81226 8.74957V3.12457ZM17.0035 17.1871L13.7348 20.4558C13.1445 21.0462 12.7259 21.7859 12.5235 22.5958L11.951 24.8833C11.8885 25.1358 11.8635 25.3833 11.8735 25.6246H8.74976V18.1246C8.74976 17.8759 8.84853 17.6375 9.02434 17.4617C9.20016 17.2858 9.43862 17.1871 9.68726 17.1871H17.0035ZM17.1873 3.12457V8.74957C17.1873 8.99821 17.0885 9.23667 16.9127 9.41248C16.7369 9.5883 16.4984 9.68707 16.2498 9.68707H10.6248C10.3761 9.68707 10.1377 9.5883 9.96184 9.41248C9.78603 9.23667 9.68726 8.99821 9.68726 8.74957V3.12457H17.1873ZM24.0185 13.1246H24.016C23.2848 13.1246 22.5535 13.4033 21.9973 13.9621L14.6198 21.3396C14.1893 21.7694 13.8838 22.3082 13.736 22.8983L13.1635 25.1871C13.1066 25.4148 13.1096 25.6534 13.1723 25.8796C13.235 26.1058 13.3552 26.3119 13.5213 26.4778C13.6873 26.6437 13.8935 26.7638 14.1197 26.8263C14.346 26.8888 14.5846 26.8917 14.8123 26.8346L17.0998 26.2633C17.6903 26.1157 18.2296 25.8102 18.6598 25.3796L26.0373 18.0021C26.4372 17.6028 26.7097 17.0938 26.8202 16.5395C26.9308 15.9853 26.8744 15.4107 26.6583 14.8885C26.4422 14.3663 26.076 13.92 25.6061 13.606C25.1362 13.292 24.5837 13.1244 24.0185 13.1246Z" fill="black"/>
</svg>
