<svg width="50" height="50" viewBox="0 0 50 50" fill="none" xmlns="http://www.w3.org/2000/svg">
<g clip-path="url(#clip0_317_381)">
<path d="M0 9.375C0 6.8886 0.987721 4.50403 2.74587 2.74587C4.50403 0.987721 6.8886 0 9.375 0H34.375C36.8614 0 39.246 0.987721 41.0041 2.74587C42.7623 4.50403 43.75 6.8886 43.75 9.375V20.0031C42.3246 19.1802 40.7077 18.747 39.0618 18.7471C37.4159 18.7472 35.799 19.1807 34.3737 20.0038C32.9485 20.827 31.765 22.0109 30.9424 23.4365C30.1198 24.8621 29.687 26.4791 29.6875 28.125H25C24.5856 28.125 24.1882 28.2896 23.8951 28.5826C23.6021 28.8757 23.4375 29.2731 23.4375 29.6875C23.4375 30.1019 23.6021 30.4993 23.8951 30.7924C24.1882 31.0854 24.5856 31.25 25 31.25H30.2188C30.6324 32.4161 31.2729 33.4888 32.1031 34.4063C30.1618 34.5833 28.3568 35.4796 27.0425 36.9194C25.7283 38.3591 24.9997 40.2381 25 42.1875C25 42.7094 25.0406 43.2313 25.1188 43.75H9.375C6.8886 43.75 4.50403 42.7623 2.74587 41.0041C0.987721 39.246 0 36.8614 0 34.375V9.375ZM19.8563 12.825C20.1496 12.5316 20.3145 12.1337 20.3145 11.7188C20.3145 11.3038 20.1496 10.9059 19.8563 10.6125C19.5629 10.3191 19.1649 10.1543 18.75 10.1543C18.3351 10.1543 17.9371 10.3191 17.6437 10.6125L13.2313 15.025L11.9906 13.8938C11.6824 13.6303 11.2838 13.497 10.879 13.522C10.4743 13.547 10.0951 13.7284 9.82167 14.0278C9.54821 14.3272 9.40187 14.7212 9.41357 15.1266C9.42527 15.5319 9.5941 15.9168 9.88438 16.2L12.2281 18.3406C12.5251 18.611 12.9148 18.7566 13.3163 18.7473C13.7178 18.738 14.1003 18.5745 14.3844 18.2906L19.8531 12.8219L19.8563 12.825ZM19.8563 26.2375C19.7111 26.092 19.5387 25.9765 19.3489 25.8978C19.159 25.819 18.9555 25.7785 18.75 25.7785C18.5445 25.7785 18.341 25.819 18.1511 25.8978C17.9613 25.9765 17.7889 26.092 17.6437 26.2375L13.2313 30.65L11.9906 29.5188C11.6824 29.2553 11.2838 29.122 10.879 29.147C10.4743 29.172 10.0951 29.3534 9.82167 29.6528C9.54821 29.9522 9.40187 30.3463 9.41357 30.7516C9.42527 31.1569 9.5941 31.5418 9.88438 31.825L12.2281 33.9656C12.5247 34.2364 12.9141 34.3826 13.3156 34.3739C13.7171 34.3651 14.0999 34.2022 14.3844 33.9188L19.8531 28.45C20.146 28.157 20.3106 27.7596 20.3106 27.3453C20.3106 26.931 20.146 26.5336 19.8531 26.2406L19.8563 26.2375ZM23.4375 14.0625C23.4375 14.4769 23.6021 14.8743 23.8951 15.1674C24.1882 15.4604 24.5856 15.625 25 15.625H32.8125C33.2269 15.625 33.6243 15.4604 33.9174 15.1674C34.2104 14.8743 34.375 14.4769 34.375 14.0625C34.375 13.6481 34.2104 13.2507 33.9174 12.9576C33.6243 12.6646 33.2269 12.5 32.8125 12.5H25C24.5856 12.5 24.1882 12.6646 23.8951 12.9576C23.6021 13.2507 23.4375 13.6481 23.4375 14.0625ZM45.3125 28.125C45.3125 29.7826 44.654 31.3723 43.4819 32.5444C42.3098 33.7165 40.7201 34.375 39.0625 34.375C37.4049 34.375 35.8152 33.7165 34.6431 32.5444C33.471 31.3723 32.8125 29.7826 32.8125 28.125C32.8125 26.4674 33.471 24.8777 34.6431 23.7056C35.8152 22.5335 37.4049 21.875 39.0625 21.875C40.7201 21.875 42.3098 22.5335 43.4819 23.7056C44.654 24.8777 45.3125 26.4674 45.3125 28.125ZM50 42.1875C50 46.0781 46.875 50 39.0625 50C31.25 50 28.125 46.0938 28.125 42.1875C28.125 40.9443 28.6189 39.752 29.4979 38.8729C30.377 37.9939 31.5693 37.5 32.8125 37.5H45.3125C46.5557 37.5 47.748 37.9939 48.6271 38.8729C49.5061 39.752 50 40.9443 50 42.1875Z" fill="black"/>
</g>
<defs>
<clipPath id="clip0_317_381">
<rect width="50" height="50" fill="white"/>
</clipPath>
</defs>
</svg>
