<svg width="30" height="30" viewBox="0 0 30 30" fill="none" xmlns="http://www.w3.org/2000/svg">
<path d="M7.74939 6.9225C8.06558 5.9967 8.66351 5.19302 9.45939 4.6241C10.2553 4.05519 11.2092 3.74954 12.1875 3.75H21.5625C22.8057 3.75 23.998 4.24386 24.8771 5.12294C25.7562 6.00201 26.25 7.1943 26.25 8.4375V17.8125C26.25 19.8713 24.9225 21.6187 23.0775 22.2506V22.9331C23.0775 23.5612 22.8581 24.3638 22.3425 25.0256C21.8006 25.7231 20.94 26.25 19.7606 26.25H8.94189C8.2586 26.2547 7.58119 26.1236 6.94902 25.8643C6.31685 25.6049 5.74253 25.2225 5.25945 24.7392C4.77637 24.256 4.39416 23.6815 4.13503 23.0493C3.8759 22.417 3.74503 21.7395 3.75002 21.0562V10.2431C3.75002 9.21375 4.11939 8.35688 4.77377 7.7625C5.41127 7.18313 6.24564 6.92438 7.06689 6.92438L7.74939 6.9225ZM7.50002 8.7975H7.06877C6.6917 8.7806 6.32213 8.90647 6.03377 9.15C5.81252 9.35063 5.62502 9.6825 5.62502 10.2413V21.0581C5.62502 22.92 7.08002 24.3769 8.94377 24.3769H19.7606C20.3213 24.3769 20.6494 24.15 20.8631 23.8744C21.0681 23.6019 21.1858 23.2738 21.2006 22.9331V22.5H12.1875C10.9443 22.5 9.75203 22.0061 8.87295 21.1271C7.99388 20.248 7.50002 19.0557 7.50002 17.8125V8.7975ZM15 11.25H17.4244L12.4613 16.2113C12.3741 16.2984 12.305 16.4019 12.2578 16.5158C12.2106 16.6297 12.1863 16.7517 12.1863 16.875C12.1863 16.9983 12.2106 17.1203 12.2578 17.2342C12.305 17.3481 12.3741 17.4516 12.4613 17.5388C12.5484 17.6259 12.6519 17.6951 12.7658 17.7422C12.8797 17.7894 13.0017 17.8137 13.125 17.8137C13.2483 17.8137 13.3703 17.7894 13.4842 17.7422C13.5981 17.6951 13.7016 17.6259 13.7888 17.5388L18.75 12.5756V15C18.75 15.2486 18.8488 15.4871 19.0246 15.6629C19.2004 15.8387 19.4389 15.9375 19.6875 15.9375C19.9362 15.9375 20.1746 15.8387 20.3504 15.6629C20.5262 15.4871 20.625 15.2486 20.625 15V10.3125C20.625 10.0639 20.5262 9.8254 20.3504 9.64959C20.1746 9.47377 19.9362 9.375 19.6875 9.375H15C14.7514 9.375 14.5129 9.47377 14.3371 9.64959C14.1613 9.8254 14.0625 10.0639 14.0625 10.3125C14.0625 10.5611 14.1613 10.7996 14.3371 10.9754C14.5129 11.1512 14.7514 11.25 15 11.25Z" fill="black"/>
</svg>
