<svg width="25" height="25" viewBox="0 0 25 25" fill="none" xmlns="http://www.w3.org/2000/svg">
<path d="M12.5001 8.33333V2.08333H6.25008C5.69755 2.08333 5.16764 2.30283 4.77694 2.69353C4.38624 3.08423 4.16675 3.61413 4.16675 4.16667V20.8333C4.16675 21.3859 4.38624 21.9158 4.77694 22.3065C5.16764 22.6972 5.69755 22.9167 6.25008 22.9167H18.7501C19.3026 22.9167 19.8325 22.6972 20.2232 22.3065C20.6139 21.9158 20.8334 21.3859 20.8334 20.8333V10.4167H14.5834C14.0309 10.4167 13.501 10.1972 13.1103 9.80647C12.7196 9.41577 12.5001 8.88587 12.5001 8.33333ZM7.29175 12.7604C7.29175 12.5532 7.37406 12.3545 7.52057 12.208C7.66708 12.0615 7.8658 11.9792 8.073 11.9792C8.2802 11.9792 8.47891 12.0615 8.62542 12.208C8.77194 12.3545 8.85425 12.5532 8.85425 12.7604C8.85425 12.9676 8.77194 13.1663 8.62542 13.3128C8.47891 13.4594 8.2802 13.5417 8.073 13.5417C7.8658 13.5417 7.66708 13.4594 7.52057 13.3128C7.37406 13.1663 7.29175 12.9676 7.29175 12.7604ZM7.29175 15.8854C7.29175 15.6782 7.37406 15.4795 7.52057 15.333C7.66708 15.1865 7.8658 15.1042 8.073 15.1042C8.2802 15.1042 8.47891 15.1865 8.62542 15.333C8.77194 15.4795 8.85425 15.6782 8.85425 15.8854C8.85425 16.0926 8.77194 16.2913 8.62542 16.4378C8.47891 16.5844 8.2802 16.6667 8.073 16.6667C7.8658 16.6667 7.66708 16.5844 7.52057 16.4378C7.37406 16.2913 7.29175 16.0926 7.29175 15.8854ZM7.29175 19.0104C7.29175 18.8032 7.37406 18.6045 7.52057 18.458C7.66708 18.3115 7.8658 18.2292 8.073 18.2292C8.2802 18.2292 8.47891 18.3115 8.62542 18.458C8.77194 18.6045 8.85425 18.8032 8.85425 19.0104C8.85425 19.2176 8.77194 19.4163 8.62542 19.5628C8.47891 19.7094 8.2802 19.7917 8.073 19.7917C7.8658 19.7917 7.66708 19.7094 7.52057 19.5628C7.37406 19.4163 7.29175 19.2176 7.29175 19.0104ZM10.4167 12.7604C10.4167 12.5532 10.4991 12.3545 10.6456 12.208C10.7921 12.0615 10.9908 11.9792 11.198 11.9792H16.9272C17.1344 11.9792 17.3331 12.0615 17.4796 12.208C17.6261 12.3545 17.7084 12.5532 17.7084 12.7604C17.7084 12.9676 17.6261 13.1663 17.4796 13.3128C17.3331 13.4594 17.1344 13.5417 16.9272 13.5417H11.198C10.9908 13.5417 10.7921 13.4594 10.6456 13.3128C10.4991 13.1663 10.4167 12.9676 10.4167 12.7604ZM10.4167 15.8854C10.4167 15.6782 10.4991 15.4795 10.6456 15.333C10.7921 15.1865 10.9908 15.1042 11.198 15.1042H16.9272C17.1344 15.1042 17.3331 15.1865 17.4796 15.333C17.6261 15.4795 17.7084 15.6782 17.7084 15.8854C17.7084 16.0926 17.6261 16.2913 17.4796 16.4378C17.3331 16.5844 17.1344 16.6667 16.9272 16.6667H11.198C10.9908 16.6667 10.7921 16.5844 10.6456 16.4378C10.4991 16.2913 10.4167 16.0926 10.4167 15.8854ZM10.4167 19.0104C10.4167 18.8032 10.4991 18.6045 10.6456 18.458C10.7921 18.3115 10.9908 18.2292 11.198 18.2292H16.9272C17.1344 18.2292 17.3331 18.3115 17.4796 18.458C17.6261 18.6045 17.7084 18.8032 17.7084 19.0104C17.7084 19.2176 17.6261 19.4163 17.4796 19.5628C17.3331 19.7094 17.1344 19.7917 16.9272 19.7917H11.198C10.9908 19.7917 10.7921 19.7094 10.6456 19.5628C10.4991 19.4163 10.4167 19.2176 10.4167 19.0104ZM14.0626 8.33333V2.60417L20.3126 8.85417H14.5834C14.4453 8.85417 14.3128 8.79929 14.2151 8.70162C14.1175 8.60394 14.0626 8.47147 14.0626 8.33333Z" fill="black"/>
</svg>
