<svg width="30" height="30" viewBox="0 0 30 30" fill="none" xmlns="http://www.w3.org/2000/svg">
<path d="M14.25 9V2.25H7.5C6.90326 2.25 6.33097 2.48705 5.90901 2.90901C5.48705 3.33097 5.25 3.90326 5.25 4.5V21C5.25 21.5967 5.48705 22.169 5.90901 22.591C6.33097 23.0129 6.90326 23.25 7.5 23.25H13.0605C12.6593 21.8369 12.6427 20.3424 13.0124 18.9207C13.382 17.4991 14.1246 16.2019 15.1632 15.1632C16.2019 14.1246 17.4991 13.382 18.9207 13.0124C20.3424 12.6427 21.8369 12.6593 23.25 13.0605V11.25H16.5C15.9033 11.25 15.331 11.0129 14.909 10.591C14.4871 10.169 14.25 9.59674 14.25 9ZM8.25 7.5C8.25 7.30109 8.32902 7.11032 8.46967 6.96967C8.61032 6.82902 8.80109 6.75 9 6.75H12C12.1989 6.75 12.3897 6.82902 12.5303 6.96967C12.671 7.11032 12.75 7.30109 12.75 7.5C12.75 7.69891 12.671 7.88968 12.5303 8.03033C12.3897 8.17098 12.1989 8.25 12 8.25H9C8.80109 8.25 8.61032 8.17098 8.46967 8.03033C8.32902 7.88968 8.25 7.69891 8.25 7.5ZM9 9.75H12C12.1989 9.75 12.3897 9.82902 12.5303 9.96967C12.671 10.1103 12.75 10.3011 12.75 10.5C12.75 10.6989 12.671 10.8897 12.5303 11.0303C12.3897 11.171 12.1989 11.25 12 11.25H9C8.80109 11.25 8.61032 11.171 8.46967 11.0303C8.32902 10.8897 8.25 10.6989 8.25 10.5C8.25 10.3011 8.32902 10.1103 8.46967 9.96967C8.61032 9.82902 8.80109 9.75 9 9.75ZM8.25 13.5C8.25 13.3011 8.32902 13.1103 8.46967 12.9697C8.61032 12.829 8.80109 12.75 9 12.75H12C12.1989 12.75 12.3897 12.829 12.5303 12.9697C12.671 13.1103 12.75 13.3011 12.75 13.5C12.75 13.6989 12.671 13.8897 12.5303 14.0303C12.3897 14.171 12.1989 14.25 12 14.25H9C8.80109 14.25 8.61032 14.171 8.46967 14.0303C8.32902 13.8897 8.25 13.6989 8.25 13.5ZM7.5 24.75H13.65C13.9245 25.287 14.256 25.7895 14.6355 26.25H7.5C6.10761 26.25 4.77226 25.6969 3.78769 24.7123C2.80312 23.7277 2.25 22.3924 2.25 21V19.5C2.25 19.3011 2.32902 19.1103 2.46967 18.9697C2.61032 18.829 2.80109 18.75 3 18.75C3.19891 18.75 3.38968 18.829 3.53033 18.9697C3.67098 19.1103 3.75 19.3011 3.75 19.5V21C3.75 21.9946 4.14509 22.9484 4.84835 23.6517C5.55161 24.3549 6.50544 24.75 7.5 24.75ZM15.75 9V2.625L22.875 9.75H16.5C16.3011 9.75 16.1103 9.67098 15.9697 9.53033C15.829 9.38968 15.75 9.19891 15.75 9ZM27.75 21C27.75 22.7902 27.0388 24.5071 25.773 25.773C24.5071 27.0388 22.7902 27.75 21 27.75C19.2098 27.75 17.4929 27.0388 16.227 25.773C14.9612 24.5071 14.25 22.7902 14.25 21C14.25 19.2098 14.9612 17.4929 16.227 16.227C17.4929 14.9612 19.2098 14.25 21 14.25C22.7902 14.25 24.5071 14.9612 25.773 16.227C27.0388 17.4929 27.75 19.2098 27.75 21ZM21.75 18C21.75 17.8011 21.671 17.6103 21.5303 17.4697C21.3897 17.329 21.1989 17.25 21 17.25C20.8011 17.25 20.6103 17.329 20.4697 17.4697C20.329 17.6103 20.25 17.8011 20.25 18V20.25H18C17.8011 20.25 17.6103 20.329 17.4697 20.4697C17.329 20.6103 17.25 20.8011 17.25 21C17.25 21.1989 17.329 21.3897 17.4697 21.5303C17.6103 21.671 17.8011 21.75 18 21.75H20.25V24C20.25 24.1989 20.329 24.3897 20.4697 24.5303C20.6103 24.671 20.8011 24.75 21 24.75C21.1989 24.75 21.3897 24.671 21.5303 24.5303C21.671 24.3897 21.75 24.1989 21.75 24V21.75H24C24.1989 21.75 24.3897 21.671 24.5303 21.5303C24.671 21.3897 24.75 21.1989 24.75 21C24.75 20.8011 24.671 20.6103 24.5303 20.4697C24.3897 20.329 24.1989 20.25 24 20.25H21.75V18Z" fill="black"/>
</svg>
