<svg width="31" height="31" viewBox="0 0 31 31" fill="none" xmlns="http://www.w3.org/2000/svg">
<path d="M5.90015 6.14499C5.90015 4.30697 7.37015 2.81525 9.1814 2.81525H19.4939C21.3051 2.81525 22.7751 4.30697 22.7751 6.14499V18.0369H28.4001V20.891C28.4001 22.1526 27.9063 23.3625 27.0272 24.2545C26.1481 25.1466 24.9558 25.6477 23.7126 25.6477H20.8064C20.8683 25.3395 20.9001 25.0218 20.9001 24.6964V18.9883C20.9003 18.0492 20.6266 17.131 20.1134 16.3495C19.6002 15.568 18.8706 14.9582 18.0164 14.5968C18.0762 14.4522 18.0997 14.2949 18.0849 14.1388C18.0702 13.9827 18.0175 13.8328 17.9317 13.7024C17.8459 13.572 17.7297 13.4652 17.5933 13.3915C17.4569 13.3178 17.3047 13.2796 17.1501 13.2801H11.5251C11.2765 13.2801 11.038 13.3804 10.8622 13.5588C10.6864 13.7372 10.5876 13.9792 10.5876 14.2315H5.90015V6.14499ZM22.7751 23.745H23.7126C24.4586 23.745 25.1739 23.4443 25.7014 22.9091C26.2288 22.3739 26.5251 21.6479 26.5251 20.891V19.9396H22.7751V23.745ZM10.5876 9.47473C10.5876 9.72704 10.6864 9.96902 10.8622 10.1474C11.038 10.3258 11.2765 10.4261 11.5251 10.4261H17.1501C17.3988 10.4261 17.6372 10.3258 17.8131 10.1474C17.9889 9.96902 18.0876 9.72704 18.0876 9.47473C18.0876 9.22241 17.9889 8.98043 17.8131 8.80202C17.6372 8.6236 17.3988 8.52337 17.1501 8.52337H11.5251C11.2765 8.52337 11.038 8.6236 10.8622 8.80202C10.6864 8.98043 10.5876 9.22241 10.5876 9.47473ZM19.0251 18.9883C19.0251 18.2313 18.7288 17.5054 18.2014 16.9701C17.6739 16.4349 16.9586 16.1342 16.2126 16.1342H4.96265C4.21673 16.1342 3.50135 16.4349 2.97391 16.9701C2.44646 17.5054 2.15015 18.2313 2.15015 18.9883V24.6964C2.15015 25.4533 2.44646 26.1793 2.97391 26.7145C3.50135 27.2498 4.21673 27.5505 4.96265 27.5505H16.2126C16.9586 27.5505 17.6739 27.2498 18.2014 26.7145C18.7288 26.1793 19.0251 25.4533 19.0251 24.6964V18.9883ZM17.1501 22.7937V24.6964C16.9015 24.6964 16.663 24.7966 16.4872 24.975C16.3114 25.1535 16.2126 25.3954 16.2126 25.6477H14.3376C14.3376 24.8908 14.634 24.1649 15.1614 23.6296C15.6889 23.0944 16.4042 22.7937 17.1501 22.7937ZM16.2126 18.0369C16.2126 18.2892 16.3114 18.5312 16.4872 18.7096C16.663 18.888 16.9015 18.9883 17.1501 18.9883V20.891C16.4042 20.891 15.6889 20.5903 15.1614 20.055C14.634 19.5198 14.3376 18.7939 14.3376 18.0369H16.2126ZM4.02515 18.9883C4.27379 18.9883 4.51224 18.888 4.68806 18.7096C4.86387 18.5312 4.96265 18.2892 4.96265 18.0369H6.83765C6.83765 18.7939 6.54133 19.5198 6.01388 20.055C5.48644 20.5903 4.77107 20.891 4.02515 20.891V18.9883ZM4.96265 25.6477C4.96265 25.3954 4.86387 25.1535 4.68806 24.975C4.51224 24.7966 4.27379 24.6964 4.02515 24.6964V22.7937C4.77107 22.7937 5.48644 23.0944 6.01388 23.6296C6.54133 24.1649 6.83765 24.8908 6.83765 25.6477H4.96265ZM7.77515 21.8423C7.77515 21.4675 7.84789 21.0964 7.98924 20.7501C8.13058 20.4039 8.33774 20.0892 8.59891 19.8242C8.86007 19.5592 9.17012 19.349 9.51135 19.2055C9.85258 19.0621 10.2183 18.9883 10.5876 18.9883C10.957 18.9883 11.3227 19.0621 11.6639 19.2055C12.0052 19.349 12.3152 19.5592 12.5764 19.8242C12.8375 20.0892 13.0447 20.4039 13.1861 20.7501C13.3274 21.0964 13.4001 21.4675 13.4001 21.8423C13.4001 22.5993 13.1038 23.3252 12.5764 23.8605C12.0489 24.3957 11.3336 24.6964 10.5876 24.6964C9.84173 24.6964 9.12635 24.3957 8.59891 23.8605C8.07146 23.3252 7.77515 22.5993 7.77515 21.8423Z" fill="black"/>
</svg>
