<svg width="20" height="14" viewBox="0 0 20 14" fill="none" xmlns="http://www.w3.org/2000/svg">
<g clip-path="url(#clip0_851_1072)">
<path d="M0.0568237 3.76438C0.0568237 2.81173 0.43096 1.89811 1.09693 1.22448C1.76289 0.550861 2.66614 0.172424 3.60796 0.172424H16.3921C17.3339 0.172424 18.2371 0.550861 18.9031 1.22448C19.5691 1.89811 19.9432 2.81173 19.9432 3.76438V9.5115C19.9432 9.98321 19.8513 10.4503 19.6729 10.8861C19.4944 11.3219 19.2328 11.7179 18.9031 12.0514C18.5733 12.3849 18.1819 12.6495 17.751 12.83C17.3202 13.0105 16.8584 13.1035 16.3921 13.1035H3.60796C2.66614 13.1035 1.76289 12.725 1.09693 12.0514C0.43096 11.3778 0.0568237 10.4641 0.0568237 9.5115V3.76438ZM5.94603 4.69254L5.02841 5.62214L4.1108 4.69254C4.04477 4.62575 3.96637 4.57276 3.8801 4.53661C3.79382 4.50047 3.70135 4.48186 3.60796 4.48186C3.51457 4.48186 3.4221 4.50047 3.33582 4.53661C3.24955 4.57276 3.17115 4.62575 3.10512 4.69254C3.03909 4.75933 2.9867 4.83863 2.95097 4.9259C2.91523 5.01317 2.89684 5.1067 2.89684 5.20116C2.89684 5.29562 2.91523 5.38915 2.95097 5.47642C2.9867 5.56369 3.03909 5.64299 3.10512 5.70978L4.02415 6.63794L3.10512 7.5661C3.03909 7.63289 2.9867 7.71219 2.95097 7.79946C2.91523 7.88673 2.89684 7.98026 2.89684 8.07472C2.89684 8.16918 2.91523 8.26272 2.95097 8.34999C2.9867 8.43726 3.03909 8.51655 3.10512 8.58334C3.23848 8.71824 3.41936 8.79402 3.60796 8.79402C3.70135 8.79402 3.79382 8.77542 3.8801 8.73927C3.96637 8.70312 4.04477 8.65014 4.1108 8.58334L5.02841 7.65375L5.94603 8.58334C6.01206 8.65014 6.09046 8.70312 6.17673 8.73927C6.26301 8.77542 6.35548 8.79402 6.44887 8.79402C6.54226 8.79402 6.63473 8.77542 6.72101 8.73927C6.80728 8.70312 6.88568 8.65014 6.95171 8.58334C7.01774 8.51655 7.07013 8.43726 7.10586 8.34999C7.1416 8.26272 7.15999 8.16918 7.15999 8.07472C7.15999 7.98026 7.1416 7.88673 7.10586 7.79946C7.07013 7.71219 7.01774 7.63289 6.95171 7.5661L6.03268 6.63794L6.95171 5.70978C7.01774 5.64299 7.07013 5.56369 7.10586 5.47642C7.1416 5.38915 7.15999 5.29562 7.15999 5.20116C7.15999 5.1067 7.1416 5.01317 7.10586 4.9259C7.07013 4.83863 7.01774 4.75933 6.95171 4.69254C6.88568 4.62575 6.80728 4.57276 6.72101 4.53661C6.63473 4.50047 6.54226 4.48186 6.44887 4.48186C6.35548 4.48186 6.26301 4.50047 6.17673 4.53661C6.09046 4.57276 6.01206 4.62575 5.94603 4.69254V4.69254ZM11.6278 4.69254L10.7102 5.62214L9.79262 4.69254C9.72659 4.62575 9.64819 4.57276 9.56191 4.53661C9.47564 4.50047 9.38316 4.48186 9.28978 4.48186C9.19639 4.48186 9.10392 4.50047 9.01764 4.53661C8.93137 4.57276 8.85297 4.62575 8.78694 4.69254C8.7209 4.75933 8.66852 4.83863 8.63279 4.9259C8.59705 5.01317 8.57865 5.1067 8.57865 5.20116C8.57865 5.29562 8.59705 5.38915 8.63279 5.47642C8.66852 5.56369 8.7209 5.64299 8.78694 5.70978L9.70597 6.63794L8.78694 7.5661C8.7209 7.63289 8.66852 7.71219 8.63279 7.79946C8.59705 7.88673 8.57865 7.98026 8.57865 8.07472C8.57865 8.16918 8.59705 8.26272 8.63279 8.34999C8.66852 8.43726 8.7209 8.51655 8.78694 8.58334C8.9203 8.71824 9.10118 8.79402 9.28978 8.79402C9.38316 8.79402 9.47564 8.77542 9.56191 8.73927C9.64819 8.70312 9.72659 8.65014 9.79262 8.58334L10.7102 7.65375L11.6278 8.58334C11.7612 8.71824 11.9421 8.79402 12.1307 8.79402C12.3193 8.79402 12.5002 8.71824 12.6335 8.58334C12.7669 8.44845 12.8418 8.26549 12.8418 8.07472C12.8418 7.88395 12.7669 7.701 12.6335 7.5661L11.7145 6.63794L12.6335 5.70978C12.7669 5.57489 12.8418 5.39193 12.8418 5.20116C12.8418 5.01039 12.7669 4.82743 12.6335 4.69254C12.5002 4.55764 12.3193 4.48186 12.1307 4.48186C11.9421 4.48186 11.7612 4.55764 11.6278 4.69254V4.69254ZM14.2614 8.07472C14.2614 8.26525 14.3362 8.44798 14.4694 8.5827C14.6026 8.71743 14.7832 8.79311 14.9716 8.79311H16.3921C16.5804 8.79311 16.7611 8.71743 16.8943 8.5827C17.0275 8.44798 17.1023 8.26525 17.1023 8.07472C17.1023 7.88419 17.0275 7.70147 16.8943 7.56674C16.7611 7.43202 16.5804 7.35633 16.3921 7.35633H14.9716C14.7832 7.35633 14.6026 7.43202 14.4694 7.56674C14.3362 7.70147 14.2614 7.88419 14.2614 8.07472Z" fill="black"/>
</g>
<defs>
<clipPath id="clip0_851_1072">
<rect width="20" height="13.3333" fill="white"/>
</clipPath>
</defs>
</svg>
