<svg width="30" height="30" viewBox="0 0 30 30" fill="none" xmlns="http://www.w3.org/2000/svg">
<path d="M3.28125 5.625C2.90829 5.625 2.5506 5.77316 2.28688 6.03688C2.02316 6.3006 1.875 6.65829 1.875 7.03125C1.875 7.40421 2.02316 7.7619 2.28688 8.02562C2.5506 8.28934 2.90829 8.4375 3.28125 8.4375H26.7188C27.0917 8.4375 27.4494 8.28934 27.7131 8.02562C27.9768 7.7619 28.125 7.40421 28.125 7.03125C28.125 6.65829 27.9768 6.3006 27.7131 6.03688C27.4494 5.77316 27.0917 5.625 26.7188 5.625H3.28125ZM3.28125 11.25C2.90829 11.25 2.5506 11.3982 2.28688 11.6619C2.02316 11.9256 1.875 12.2833 1.875 12.6562C1.875 13.0292 2.02316 13.3869 2.28688 13.6506C2.5506 13.9143 2.90829 14.0625 3.28125 14.0625H26.7188C27.0917 14.0625 27.4494 13.9143 27.7131 13.6506C27.9768 13.3869 28.125 13.0292 28.125 12.6562C28.125 12.2833 27.9768 11.9256 27.7131 11.6619C27.4494 11.3982 27.0917 11.25 26.7188 11.25H3.28125ZM1.875 18.2812C1.875 17.9083 2.02316 17.5506 2.28688 17.2869C2.5506 17.0232 2.90829 16.875 3.28125 16.875H26.7188C27.0917 16.875 27.4494 17.0232 27.7131 17.2869C27.9768 17.5506 28.125 17.9083 28.125 18.2812C28.125 18.6542 27.9768 19.0119 27.7131 19.2756C27.4494 19.5393 27.0917 19.6875 26.7188 19.6875H3.28125C2.90829 19.6875 2.5506 19.5393 2.28688 19.2756C2.02316 19.0119 1.875 18.6542 1.875 18.2812ZM3.28125 22.5C2.90829 22.5 2.5506 22.6482 2.28688 22.9119C2.02316 23.1756 1.875 23.5333 1.875 23.9062C1.875 24.2792 2.02316 24.6369 2.28688 24.9006C2.5506 25.1643 2.90829 25.3125 3.28125 25.3125H19.2188C19.5917 25.3125 19.9494 25.1643 20.2131 24.9006C20.4768 24.6369 20.625 24.2792 20.625 23.9062C20.625 23.5333 20.4768 23.1756 20.2131 22.9119C19.9494 22.6482 19.5917 22.5 19.2188 22.5H3.28125Z" fill="black"/>
</svg>
