<svg width="50" height="50" viewBox="0 0 50 50" fill="none" xmlns="http://www.w3.org/2000/svg">
<g clip-path="url(#clip0_297_383)">
<path d="M0 17.7543V7.80163C2.24167e-05 7.13256 0.184935 6.47673 0.533996 5.9077C0.883057 5.33868 1.38246 4.87895 1.97619 4.58011L10.3095 0.379163C10.8049 0.129806 11.3511 0 11.9048 0C12.4585 0 13.0046 0.129806 13.5 0.379163L21.8333 4.58011C22.4271 4.87895 22.9265 5.33868 23.2755 5.9077C23.6246 6.47673 23.8095 7.13256 23.8095 7.80163V17.7543C23.8091 18.4229 23.6239 19.0782 23.2749 19.6468C22.9259 20.2154 22.4267 20.6747 21.8333 20.9734L13.5 25.1743C13.0046 25.4237 12.4585 25.5535 11.9048 25.5535C11.3511 25.5535 10.8049 25.4237 10.3095 25.1743L1.97619 20.9734C1.38282 20.6747 0.883658 20.2154 0.534622 19.6468C0.185585 19.0782 0.000464619 18.4229 0 17.7543ZM3.69762 8.03928C3.55693 8.32363 3.53382 8.65262 3.63335 8.95412C3.73288 9.25561 3.94693 9.50502 4.22857 9.64764L10.7143 12.9196V19.9772C10.7143 20.2955 10.8397 20.6008 11.063 20.8259C11.2862 21.051 11.589 21.1774 11.9048 21.1774C12.2205 21.1774 12.5233 21.051 12.7466 20.8259C12.9698 20.6008 13.0952 20.2955 13.0952 19.9772V12.9196L19.581 9.65004C19.7209 9.57943 19.8456 9.48172 19.9481 9.36249C20.0506 9.24327 20.1287 9.10486 20.1781 8.95518C20.2276 8.80549 20.2472 8.64746 20.2361 8.49011C20.2249 8.33275 20.1831 8.17915 20.1131 8.03808C20.0431 7.89701 19.9461 7.77123 19.8279 7.66792C19.7096 7.56461 19.5724 7.48579 19.4239 7.43597C19.2754 7.38615 19.1187 7.3663 18.9626 7.37756C18.8066 7.38881 18.6542 7.43095 18.5143 7.50156L11.9048 10.8359L5.29524 7.50156C5.15533 7.43104 5.00301 7.389 4.84698 7.37786C4.69095 7.36672 4.53428 7.38669 4.38591 7.43662C4.23754 7.48656 4.10038 7.56549 3.98228 7.6689C3.86418 7.77231 3.76745 7.89816 3.69762 8.03928ZM25.1262 4.37366C25.8198 5.37997 26.1912 6.57622 26.1905 7.80163V17.7519C26.1904 18.8664 25.8826 19.9588 25.3014 20.9069C24.7202 21.8549 23.8887 22.6211 22.9 23.1195L14.5667 27.3204C13.7402 27.737 12.8288 27.9539 11.9048 27.9539C10.9807 27.9539 10.0694 27.737 9.24286 27.3204L2.38095 23.866V38.5837C2.38106 39.9289 2.879 41.2256 3.77733 42.2201C4.67567 43.2146 5.90975 43.8354 7.2381 43.9609C7.51228 45.6439 8.37001 47.1742 9.65855 48.2792C10.9471 49.3843 12.5828 49.9924 14.2744 49.9953C15.9661 49.9981 17.6038 49.3956 18.896 48.295C20.1883 47.1943 21.0511 45.667 21.331 43.9849H26.2881C26.5666 45.6659 27.4274 47.1929 28.7174 48.2942C30.0074 49.3956 31.643 50 33.3333 50C35.0237 50 36.6593 49.3956 37.9493 48.2942C39.2393 47.1929 40.1001 45.6659 40.3786 43.9849H44.6429C45.3466 43.9849 46.0434 43.8452 46.6935 43.5736C47.3436 43.302 47.9343 42.9039 48.4318 42.4021C48.9293 41.9003 49.3238 41.3046 49.5929 40.649C49.862 39.9934 50.0003 39.2908 50 38.5813V25.5896C49.9996 24.79 49.8232 24.0004 49.4833 23.2779L45.4381 14.6648C45.004 13.7407 44.3187 12.9598 43.4619 12.4129C42.605 11.866 41.6118 11.5755 40.5976 11.5753H36.9048V9.77487C36.9048 8.34238 36.3403 6.96856 35.3357 5.95564C34.331 4.94271 32.9684 4.37366 31.5476 4.37366H25.1262ZM43.4524 34.3804H46.4286V37.9812H43.4524C42.9788 37.9812 42.5246 37.7915 42.1897 37.4539C41.8548 37.1162 41.6667 36.6583 41.6667 36.1808C41.6667 35.7033 41.8548 35.2454 42.1897 34.9077C42.5246 34.5701 42.9788 34.3804 43.4524 34.3804ZM42.2119 16.2083L45.6738 23.578H36.9048V15.1761H40.5952C40.9341 15.1758 41.266 15.2727 41.5523 15.4554C41.8386 15.6382 42.0673 15.8993 42.2119 16.2083ZM17.8571 42.7823C17.8571 43.2551 17.7648 43.7234 17.5853 44.1602C17.4058 44.5971 17.1427 44.9941 16.8111 45.3284C16.4795 45.6628 16.0857 45.928 15.6524 46.109C15.2191 46.2899 14.7547 46.3831 14.2857 46.3831C13.8167 46.3831 13.3523 46.2899 12.919 46.109C12.4857 45.928 12.092 45.6628 11.7603 45.3284C11.4287 44.9941 11.1656 44.5971 10.9861 44.1602C10.8067 43.7234 10.7143 43.2551 10.7143 42.7823C10.7143 41.8273 11.0906 40.9114 11.7603 40.2361C12.4301 39.5608 13.3385 39.1815 14.2857 39.1815C15.2329 39.1815 16.1413 39.5608 16.8111 40.2361C17.4809 40.9114 17.8571 41.8273 17.8571 42.7823ZM33.3333 39.1815C34.2805 39.1815 35.1889 39.5608 35.8587 40.2361C36.5285 40.9114 36.9048 41.8273 36.9048 42.7823C36.9048 43.7373 36.5285 44.6531 35.8587 45.3284C35.1889 46.0037 34.2805 46.3831 33.3333 46.3831C32.3861 46.3831 31.4777 46.0037 30.808 45.3284C30.1382 44.6531 29.7619 43.7373 29.7619 42.7823C29.7619 41.8273 30.1382 40.9114 30.808 40.2361C31.4777 39.5608 32.3861 39.1815 33.3333 39.1815Z" fill="black"/>
</g>
<defs>
<clipPath id="clip0_297_383">
<rect width="50" height="50" fill="white"/>
</clipPath>
</defs>
</svg>
