<svg width="30" height="30" viewBox="0 0 30 30" fill="none" xmlns="http://www.w3.org/2000/svg">
<path d="M6.5625 3.75C5.3193 3.75 4.12701 4.24386 3.24794 5.12294C2.36886 6.00201 1.875 7.1943 1.875 8.4375V17.8125C1.875 18.4281 1.99625 19.0376 2.23181 19.6063C2.46738 20.175 2.81266 20.6918 3.24794 21.1271C4.12701 22.0061 5.3193 22.5 6.5625 22.5H7.5V26.1412C7.49993 26.4942 7.60153 26.8397 7.79265 27.1365C7.98376 27.4332 8.2563 27.6687 8.57768 27.8146C8.89906 27.9606 9.25568 28.0109 9.60489 27.9595C9.9541 27.9082 10.2811 27.7573 10.5469 27.525L16.29 22.5H23.4375C24.0531 22.5 24.6626 22.3788 25.2313 22.1432C25.8 21.9076 26.3168 21.5623 26.7521 21.1271C27.1873 20.6918 27.5326 20.175 27.7682 19.6063C28.0038 19.0376 28.125 18.4281 28.125 17.8125V8.4375C28.125 7.1943 27.6311 6.00201 26.7521 5.12294C25.873 4.24386 24.6807 3.75 23.4375 3.75H6.5625Z" fill="black"/>
</svg>
