<svg width="20" height="20" viewBox="0 0 20 20" fill="none" xmlns="http://www.w3.org/2000/svg">
<path d="M15.5495 1.79945C15.7217 1.61737 15.9287 1.47167 16.1582 1.37096C16.3877 1.27024 16.635 1.21656 16.8856 1.21307C17.1362 1.20959 17.3849 1.25637 17.6171 1.35067C17.8493 1.44496 18.0603 1.58485 18.2375 1.76207C18.4147 1.93928 18.5546 2.15022 18.6489 2.38242C18.7432 2.61462 18.79 2.86337 18.7865 3.11396C18.783 3.36456 18.7293 3.61191 18.6286 3.8414C18.5279 4.07089 18.3822 4.27785 18.2001 4.45007L12.7064 9.94382C12.6991 9.95108 12.6933 9.9597 12.6894 9.96919C12.6854 9.97868 12.6834 9.98886 12.6834 9.99913C12.6834 10.0094 12.6854 10.0196 12.6894 10.0291C12.6933 10.0386 12.6991 10.0472 12.7064 10.0544L18.2001 15.5482C18.3766 15.7218 18.5169 15.9286 18.6131 16.1566C18.7092 16.3847 18.7592 16.6296 18.7603 16.8771C18.7613 17.1246 18.7133 17.3699 18.6191 17.5987C18.5249 17.8276 18.3863 18.0356 18.2113 18.2106C18.0363 18.3856 17.8284 18.5243 17.5995 18.6186C17.3706 18.7129 17.1254 18.7609 16.8779 18.7599C16.6304 18.7589 16.3855 18.709 16.1574 18.6129C15.9293 18.5168 15.7225 18.3765 15.5489 18.2001L10.0551 12.7063C10.0479 12.699 10.0392 12.6933 10.0298 12.6893C10.0203 12.6854 10.0101 12.6834 9.99981 12.6834C9.98953 12.6834 9.97936 12.6854 9.96987 12.6893C9.96037 12.6933 9.95175 12.699 9.9445 12.7063L4.45075 18.2001C4.27718 18.3765 4.07039 18.5169 3.84231 18.613C3.61424 18.7092 3.36938 18.7592 3.12187 18.7602C2.87436 18.7613 2.62909 18.7133 2.40021 18.6191C2.17134 18.5248 1.96338 18.3862 1.78834 18.2112C1.61331 18.0362 1.47465 17.8283 1.38037 17.5995C1.28609 17.3706 1.23805 17.1253 1.23903 16.8778C1.24001 16.6303 1.28998 16.3855 1.38607 16.1574C1.48216 15.9293 1.62245 15.7224 1.79887 15.5488L7.29262 10.0551C7.2999 10.0478 7.30567 10.0392 7.30961 10.0297C7.31355 10.0202 7.31557 10.01 7.31557 9.99976C7.31557 9.98948 7.31355 9.97931 7.30961 9.96982C7.30567 9.96032 7.2999 9.9517 7.29262 9.94445L1.79887 4.4507C1.45193 4.09814 1.25835 3.62277 1.26031 3.12814C1.26226 2.63351 1.45959 2.15969 1.80931 1.80988C2.15903 1.46008 2.63281 1.26264 3.12744 1.26057C3.62207 1.2585 4.09748 1.45196 4.45012 1.79882L9.94387 7.29257C9.95113 7.29985 9.95975 7.30562 9.96924 7.30956C9.97873 7.3135 9.98891 7.31552 9.99918 7.31552C10.0095 7.31552 10.0196 7.3135 10.0291 7.30956C10.0386 7.30562 10.0472 7.29985 10.0545 7.29257L15.5482 1.79882L15.5495 1.79945Z" fill="black"/>
</svg>
