<svg width="24" height="24" viewBox="0 0 24 24" fill="none" xmlns="http://www.w3.org/2000/svg">
<path d="M12.75 2.74609C12.75 2.54718 12.671 2.35642 12.5303 2.21576C12.3897 2.07511 12.1989 1.99609 12 1.99609C11.8011 1.99609 11.6103 2.07511 11.4697 2.21576C11.329 2.35642 11.25 2.54718 11.25 2.74609V4.00009H9.25C8.78587 4.00009 8.34075 4.18447 8.01256 4.51266C7.68437 4.84085 7.5 5.28596 7.5 5.75009V7.90509C9.02 7.76709 10.5 8.94109 10.5 10.6481V21.2501C10.5 21.2771 10.5 21.3031 10.498 21.3281V22.0001H13.498V20.7501H13.5V13.2501C13.5 12.5207 13.7897 11.8213 14.3055 11.3055C14.8212 10.7898 15.5207 10.5001 16.25 10.5001H16.5V5.75009C16.5 5.28596 16.3156 4.84085 15.9874 4.51266C15.6592 4.18447 15.2141 4.00009 14.75 4.00009H12.75V2.74609ZM14.498 22.0001H18.75C19.2141 22.0001 19.6592 21.8157 19.9874 21.4875C20.3156 21.1593 20.5 20.7142 20.5 20.2501V13.2501C20.5 12.786 20.3156 12.3408 19.9874 12.0127C19.6592 11.6845 19.2141 11.5001 18.75 11.5001H16.25C15.7859 11.5001 15.3408 11.6845 15.0126 12.0127C14.6844 12.3408 14.5 12.786 14.5 13.2501V20.7501H14.498V22.0001ZM9.5 20.7501H9.498V22.0001H5.25C4.78587 22.0001 4.34075 21.8157 4.01256 21.4875C3.68437 21.1593 3.5 20.7142 3.5 20.2501V12.2901C3.5 11.7001 3.797 11.1501 4.29 10.8271L6.79 9.18609C7.953 8.42109 9.5 9.25609 9.5 10.6481V20.7501Z" fill="black"/>
</svg>
