<svg width="30" height="30" viewBox="0 0 30 30" fill="none" xmlns="http://www.w3.org/2000/svg">
<path d="M14.0625 15C15.803 15 17.4722 14.3086 18.7029 13.0779C19.9336 11.8472 20.625 10.178 20.625 8.4375C20.625 6.69702 19.9336 5.02782 18.7029 3.79711C17.4722 2.5664 15.803 1.875 14.0625 1.875C12.322 1.875 10.6528 2.5664 9.42211 3.79711C8.1914 5.02782 7.5 6.69702 7.5 8.4375C7.5 10.178 8.1914 11.8472 9.42211 13.0779C10.6528 14.3086 12.322 15 14.0625 15ZM6.09375 16.875C5.22351 16.875 4.38891 17.2207 3.77356 17.8361C3.1582 18.4514 2.8125 19.286 2.8125 20.1562V20.625C2.8125 22.8684 4.24031 24.7659 6.26719 26.0559C8.30531 27.3534 11.0644 28.125 14.0625 28.125C14.76 28.125 15.4453 28.0828 16.1109 28.0031C15.1742 27.2118 14.4217 26.2254 13.9059 25.1129C13.3901 24.0005 13.1236 22.7887 13.125 21.5625C13.125 19.8281 13.6481 18.2156 14.5462 16.875H6.09375ZM28.5938 21.5625C28.5938 23.4273 27.853 25.2157 26.5343 26.5343C25.2157 27.853 23.4273 28.5938 21.5625 28.5938C19.6977 28.5938 17.9093 27.853 16.5907 26.5343C15.272 25.2157 14.5312 23.4273 14.5312 21.5625C14.5312 19.6977 15.272 17.9093 16.5907 16.5907C17.9093 15.272 19.6977 14.5313 21.5625 14.5312C23.4273 14.5313 25.2157 15.272 26.5343 16.5907C27.853 17.9093 28.5937 19.6977 28.5938 21.5625ZM20.895 17.0044L20.0137 19.6556H17.2069C16.5216 19.6556 16.2413 20.535 16.8 20.9316L19.0556 22.5319L18.1847 25.1494C17.9709 25.7934 18.705 26.3372 19.2591 25.9444L21.5625 24.3103L23.8659 25.9444C24.42 26.3381 25.1541 25.7944 24.9403 25.1494L24.0684 22.5319L26.325 20.9316C26.8847 20.535 26.6034 19.6556 25.9181 19.6556H23.1113L22.23 17.0044C22.0162 16.3631 21.1088 16.3631 20.895 17.0044Z" fill="black"/>
</svg>
