<svg width="30" height="30" viewBox="0 0 30 30" fill="none" xmlns="http://www.w3.org/2000/svg">
<path d="M15.2393 14.4666L5.82431 16.0354C5.71607 16.0534 5.61449 16.0997 5.52979 16.1695C5.44509 16.2392 5.38026 16.3301 5.34181 16.4329L2.09556 25.1304C1.78556 25.9304 2.62181 26.6929 3.38931 26.3079L12.9818 21.5116C12.901 19.9426 13.2769 18.3838 14.0638 17.024C14.8508 15.6643 16.0151 14.5618 17.4157 13.8501C18.8164 13.1385 20.3934 12.8482 21.9556 13.0144C23.5179 13.1806 24.9985 13.7962 26.2181 14.7866C26.3008 14.6767 26.3584 14.5499 26.3868 14.4152C26.4152 14.2805 26.4136 14.1412 26.3823 14.0072C26.3509 13.8732 26.2905 13.7477 26.2053 13.6396C26.1201 13.5315 26.0123 13.4435 25.8893 13.3816L3.38931 2.13162C2.62181 1.74787 1.78556 2.51037 2.09556 3.30912L5.34306 12.0066C5.38151 12.1094 5.44634 12.2003 5.53104 12.27C5.61574 12.3398 5.71732 12.3861 5.82556 12.4041L15.2406 13.9729C15.2993 13.9822 15.3528 14.0122 15.3914 14.0575C15.43 14.1027 15.4512 14.1603 15.4512 14.2197C15.4512 14.2792 15.43 14.3367 15.3914 14.382C15.3528 14.4272 15.2993 14.4572 15.2406 14.4666H15.2393ZM21.0956 14.2204C22.9189 14.2204 24.6676 14.9447 25.9569 16.234C27.2462 17.5233 27.9706 19.272 27.9706 21.0954C27.9706 22.9187 27.2462 24.6674 25.9569 25.9567C24.6676 27.246 22.9189 27.9704 21.0956 27.9704C19.2722 27.9704 17.5235 27.246 16.2342 25.9567C14.9449 24.6674 14.2206 22.9187 14.2206 21.0954C14.2206 19.272 14.9449 17.5233 16.2342 16.234C17.5235 14.9447 19.2722 14.2204 21.0956 14.2204ZM23.5956 21.0954H21.0956V17.9704C21.0956 17.8046 21.0297 17.6456 20.9125 17.5284C20.7953 17.4112 20.6363 17.3454 20.4706 17.3454C20.3048 17.3454 20.1458 17.4112 20.0286 17.5284C19.9114 17.6456 19.8456 17.8046 19.8456 17.9704V21.7204C19.8456 21.8861 19.9114 22.0451 20.0286 22.1623C20.1458 22.2795 20.3048 22.3454 20.4706 22.3454H23.5956C23.7613 22.3454 23.9203 22.2795 24.0375 22.1623C24.1547 22.0451 24.2206 21.8861 24.2206 21.7204C24.2206 21.5546 24.1547 21.3956 24.0375 21.2784C23.9203 21.1612 23.7613 21.0954 23.5956 21.0954Z" fill="black"/>
</svg>
