<svg width="30" height="30" viewBox="0 0 30 30" fill="none" xmlns="http://www.w3.org/2000/svg">
<path d="M10.7091 7.45091C10.6197 6.83509 10.6638 6.20725 10.8385 5.61C11.0132 5.01275 11.3144 4.46009 11.7216 3.98952C12.1287 3.51896 12.6324 3.14152 13.1983 2.88282C13.7643 2.62413 14.3793 2.49023 15.0016 2.49023C15.6238 2.49023 16.2388 2.62413 16.8048 2.88282C17.3707 3.14152 17.8744 3.51896 18.2816 3.98952C18.6888 4.46009 18.9899 5.01275 19.1646 5.61C19.3393 6.20725 19.3835 6.83509 19.2941 7.45091L17.8541 17.5259C17.7544 18.2113 17.4113 18.8379 16.8875 19.2911C16.3636 19.7442 15.6942 19.9936 15.0016 19.9936C14.3089 19.9936 13.6395 19.7442 13.1157 19.2911C12.5919 18.8379 12.2487 18.2113 12.1491 17.5259L10.7091 7.45091ZM17.5016 25.0009C17.5016 25.664 17.2382 26.2998 16.7693 26.7687C16.3005 27.2375 15.6646 27.5009 15.0016 27.5009C14.3385 27.5009 13.7026 27.2375 13.2338 26.7687C12.765 26.2998 12.5016 25.664 12.5016 25.0009C12.5016 24.3379 12.765 23.702 13.2338 23.2331C13.7026 22.7643 14.3385 22.5009 15.0016 22.5009C15.6646 22.5009 16.3005 22.7643 16.7693 23.2331C17.2382 23.702 17.5016 24.3379 17.5016 25.0009Z" fill="black"/>
</svg>
