<svg width="30" height="30" viewBox="0 0 30 30" fill="none" xmlns="http://www.w3.org/2000/svg">
<path d="M15 3V9.75C15 10.3467 15.2371 10.919 15.659 11.341C16.081 11.7629 16.6533 12 17.25 12H24V24.75C24 25.3467 23.7629 25.919 23.341 26.341C22.919 26.7629 22.3467 27 21.75 27H16.425C16.4745 26.757 16.5 26.5065 16.5 26.25V20.25C16.5001 19.3745 16.1939 18.5266 15.6345 17.8532C15.0751 17.1798 14.2976 16.7234 13.437 16.563C13.2766 15.7024 12.8202 14.9249 12.1468 14.3655C11.4734 13.8061 10.6255 13.4999 9.75 13.5H6.75C6.4935 13.5 6.243 13.5255 6 13.575V5.25C6 4.65326 6.23705 4.08097 6.65901 3.65901C7.08097 3.23705 7.65326 3 8.25 3H15ZM16.5 3.375V9.75C16.5 9.94891 16.579 10.1397 16.7197 10.2803C16.8603 10.421 17.0511 10.5 17.25 10.5H23.625L16.5 3.375ZM4.5 17.25V18H3.75C3.15326 18 2.58097 18.2371 2.15901 18.659C1.73705 19.081 1.5 19.6533 1.5 20.25V26.25C1.5 26.8467 1.73705 27.419 2.15901 27.841C2.58097 28.2629 3.15326 28.5 3.75 28.5H12.75C13.3467 28.5 13.919 28.2629 14.341 27.841C14.7629 27.419 15 26.8467 15 26.25V20.25C15 19.6533 14.7629 19.081 14.341 18.659C13.919 18.2371 13.3467 18 12.75 18H12V17.25C12 16.6533 11.7629 16.081 11.341 15.659C10.919 15.2371 10.3467 15 9.75 15H6.75C6.15326 15 5.58097 15.2371 5.15901 15.659C4.73705 16.081 4.5 16.6533 4.5 17.25ZM6.75 16.5H9.75C9.94891 16.5 10.1397 16.579 10.2803 16.7197C10.421 16.8603 10.5 17.0511 10.5 17.25V18H6V17.25C6 17.0511 6.07902 16.8603 6.21967 16.7197C6.36032 16.579 6.55109 16.5 6.75 16.5V16.5Z" fill="black"/>
</svg>
