<svg width="30" height="30" viewBox="0 0 30 30" fill="none" xmlns="http://www.w3.org/2000/svg">
<path d="M13.125 7.50063C13.125 8.49519 12.7299 9.44901 12.0267 10.1523C11.3234 10.8555 10.3696 11.2506 9.375 11.2506C8.38044 11.2506 7.42661 10.8555 6.72335 10.1523C6.02009 9.44901 5.625 8.49519 5.625 7.50063C5.625 6.50606 6.02009 5.55224 6.72335 4.84897C7.42661 4.14571 8.38044 3.75063 9.375 3.75063C10.3696 3.75063 11.3234 4.14571 12.0267 4.84897C12.7299 5.55224 13.125 6.50606 13.125 7.50063ZM5.9375 12.5006C5.35734 12.5006 4.80094 12.7311 4.3907 13.1413C3.98047 13.5516 3.75 14.108 3.75 14.6881V20.6256C3.75 22.1175 4.34263 23.5482 5.39752 24.6031C6.45242 25.658 7.88316 26.2506 9.375 26.2506C10.8668 26.2506 12.2976 25.658 13.3525 24.6031C14.4074 23.5482 15 22.1175 15 20.6256V14.6881C15 14.108 14.7695 13.5516 14.3593 13.1413C13.9491 12.7311 13.3927 12.5006 12.8125 12.5006H5.9375ZM13.575 26.0681C14.408 25.4265 15.0825 24.6021 15.5463 23.6584C16.0101 22.7147 16.2509 21.6771 16.25 20.6256V14.6881C16.25 13.8569 15.955 13.0956 15.4638 12.5006H18.4375C19.645 12.5006 20.625 13.4806 20.625 14.6881V20.6256C20.6252 21.4858 20.428 22.3346 20.0488 23.1067C19.6695 23.8787 19.1182 24.5535 18.4373 25.0792C17.7564 25.6048 16.964 25.9673 16.1211 26.1388C15.2782 26.3102 14.4071 26.286 13.575 26.0681ZM14.375 7.50063C14.375 8.75063 13.9163 9.89188 13.1588 10.7681C13.7294 11.0892 14.3741 11.2553 15.0288 11.2499C15.6836 11.2444 16.3254 11.0677 16.8907 10.7372C17.4559 10.4067 17.9247 9.93395 18.2505 9.36602C18.5763 8.79809 18.7477 8.15475 18.7477 7.5C18.7477 6.84525 18.5763 6.20191 18.2505 5.63398C17.9247 5.06605 17.4559 4.59332 16.8907 4.26282C16.3254 3.93232 15.6836 3.75556 15.0288 3.75013C14.3741 3.7447 13.7294 3.91079 13.1588 4.23188C13.9163 5.10938 14.375 6.25188 14.375 7.50063ZM19.2 26.0681C20.033 25.4265 20.7075 24.6021 21.1713 23.6584C21.6351 22.7147 21.8759 21.6771 21.875 20.6256V14.6881C21.875 13.8569 21.58 13.0956 21.0888 12.5006H24.0625C25.27 12.5006 26.25 13.4806 26.25 14.6881V20.6256C26.2502 21.4858 26.053 22.3346 25.6738 23.1067C25.2945 23.8787 24.7432 24.5535 24.0623 25.0792C23.3814 25.6048 22.589 25.9673 21.7461 26.1388C20.9032 26.3102 20.0321 26.286 19.2 26.0681ZM20 7.50063C20 8.75063 19.5413 9.89188 18.7838 10.7681C19.3544 11.0892 19.9991 11.2553 20.6538 11.2499C21.3086 11.2444 21.9504 11.0677 22.5157 10.7372C23.0809 10.4067 23.5497 9.93395 23.8755 9.36602C24.2013 8.79809 24.3727 8.15475 24.3727 7.5C24.3727 6.84525 24.2013 6.20191 23.8755 5.63398C23.5497 5.06605 23.0809 4.59332 22.5157 4.26282C21.9504 3.93232 21.3086 3.75556 20.6538 3.75013C19.9991 3.7447 19.3544 3.91079 18.7838 4.23188C19.5413 5.11063 20 6.25313 20 7.50063Z" fill="black"/>
</svg>
