<svg width="30" height="30" viewBox="0 0 30 30" fill="none" xmlns="http://www.w3.org/2000/svg">
<path d="M7.92875 6.17252C8.04497 6.28861 8.13717 6.42647 8.20007 6.57822C8.26298 6.72996 8.29536 6.89262 8.29536 7.05689C8.29536 7.22116 8.26298 7.38382 8.20007 7.53557C8.13717 7.68731 8.04497 7.82518 7.92875 7.94127C6.05304 9.81729 4.99931 12.3615 4.99931 15.0144C4.99931 17.6673 6.05304 20.2115 7.92875 22.0875C8.0448 22.2037 8.13685 22.3415 8.19963 22.4932C8.2624 22.6449 8.29468 22.8075 8.29463 22.9717C8.29457 23.1359 8.26217 23.2985 8.19929 23.4501C8.1364 23.6018 8.04426 23.7396 7.92812 23.8556C7.81199 23.9717 7.67413 24.0637 7.52242 24.1265C7.37071 24.1893 7.20812 24.2216 7.04393 24.2215C6.87975 24.2215 6.71718 24.1891 6.56551 24.1262C6.41385 24.0633 6.27605 23.9712 6.16 23.855C1.2775 18.9725 1.2775 11.055 6.16 6.17252C6.27609 6.0563 6.41395 5.9641 6.5657 5.90119C6.71745 5.83829 6.8801 5.80591 7.04437 5.80591C7.20864 5.80591 7.3713 5.83829 7.52305 5.90119C7.6748 5.9641 7.81266 6.0563 7.92875 6.17252V6.17252ZM23.8425 6.17252C28.725 11.0563 28.725 18.9725 23.8425 23.855C23.6067 24.0827 23.291 24.2087 22.9632 24.2059C22.6355 24.203 22.322 24.0716 22.0902 23.8398C21.8585 23.608 21.727 23.2945 21.7242 22.9668C21.7213 22.639 21.8473 22.3233 22.075 22.0875C23.9507 20.2115 25.0044 17.6673 25.0044 15.0144C25.0044 12.3615 23.9507 9.81729 22.075 7.94127C21.8404 7.70688 21.7086 7.38892 21.7085 7.05733C21.7084 6.72575 21.84 6.40769 22.0744 6.17314C22.3088 5.93859 22.6267 5.80676 22.9583 5.80664C23.2899 5.80652 23.6079 5.93813 23.8425 6.17252V6.17252ZM11.6375 9.76502C11.8718 9.99943 12.0035 10.3173 12.0035 10.6488C12.0035 10.9802 11.8718 11.2981 11.6375 11.5325C11.1824 11.9875 10.8215 12.5277 10.5752 13.1223C10.3289 13.7168 10.2021 14.354 10.2021 14.9975C10.2021 15.641 10.3289 16.2783 10.5752 16.8728C10.8215 17.4673 11.1824 18.0075 11.6375 18.4625C11.7569 18.5778 11.8521 18.7158 11.9176 18.8683C11.9831 19.0208 12.0176 19.1848 12.0191 19.3508C12.0205 19.5167 11.9889 19.6813 11.926 19.835C11.8632 19.9886 11.7704 20.1281 11.653 20.2455C11.5356 20.3629 11.3961 20.4557 11.2424 20.5185C11.0888 20.5814 10.9242 20.613 10.7582 20.6116C10.5923 20.6101 10.4282 20.5757 10.2757 20.5101C10.1232 20.4446 9.98531 20.3494 9.87 20.23C8.48228 18.8423 7.70268 16.9601 7.70268 14.9975C7.70268 13.035 8.48228 11.1528 9.87 9.76502C10.1044 9.53068 10.4223 9.39903 10.7537 9.39903C11.0852 9.39903 11.4031 9.53068 11.6375 9.76502V9.76502ZM20.3362 9.76502C21.724 11.1528 22.5036 13.035 22.5036 14.9975C22.5036 16.9601 21.724 18.8423 20.3362 20.23C20.2202 20.3462 20.0824 20.4383 19.9307 20.5012C19.7791 20.5641 19.6165 20.5965 19.4523 20.5965C19.2881 20.5966 19.1255 20.5643 18.9738 20.5015C18.8221 20.4387 18.6843 20.3467 18.5681 20.2306C18.452 20.1146 18.3598 19.9768 18.297 19.8251C18.2341 19.6735 18.2017 19.5109 18.2016 19.3467C18.2016 19.1825 18.2338 19.0199 18.2966 18.8682C18.3594 18.7165 18.4514 18.5787 18.5675 18.4625C19.0226 18.0075 19.3835 17.4673 19.6298 16.8728C19.8761 16.2783 20.0029 15.641 20.0029 14.9975C20.0029 14.354 19.8761 13.7168 19.6298 13.1223C19.3835 12.5277 19.0226 11.9875 18.5675 11.5325C18.3331 11.298 18.2015 10.9799 18.2016 10.6483C18.2017 10.3167 18.3336 9.99878 18.5681 9.76439C18.8027 9.53001 19.1207 9.3984 19.4523 9.39851C19.7839 9.39863 20.1019 9.53047 20.3362 9.76502V9.76502ZM15.1025 13.2275C15.3487 13.2275 15.5925 13.276 15.82 13.3702C16.0475 13.4645 16.2542 13.6026 16.4283 13.7767C16.6024 13.9508 16.7405 14.1575 16.8348 14.385C16.929 14.6125 16.9775 14.8563 16.9775 15.1025C16.9775 15.3487 16.929 15.5926 16.8348 15.82C16.7405 16.0475 16.6024 16.2542 16.4283 16.4283C16.2542 16.6025 16.0475 16.7406 15.82 16.8348C15.5925 16.929 15.3487 16.9775 15.1025 16.9775C14.6052 16.9775 14.1283 16.78 13.7767 16.4283C13.425 16.0767 13.2275 15.5998 13.2275 15.1025C13.2275 14.6052 13.425 14.1283 13.7767 13.7767C14.1283 13.4251 14.6052 13.2275 15.1025 13.2275V13.2275Z" fill="black"/>
</svg>
