<svg width="30" height="30" viewBox="0 0 30 30" fill="none" xmlns="http://www.w3.org/2000/svg">
<g clip-path="url(#clip0_1115_1507)">
<path d="M0 15C0 6.71625 6.71625 0 15 0C23.2837 0 30 6.71625 30 15C30 23.2837 23.2837 30 15 30C6.72 29.99 0.01 23.28 0 15.0013V15ZM3 15C3 21.6275 8.3725 27 15 27C21.6275 27 27 21.6275 27 15C27 8.3725 21.6275 3 15 3C8.37625 3.0075 3.0075 8.37625 3 14.9987V15V15ZM8 15C8 13.1435 8.7375 11.363 10.0503 10.0503C11.363 8.7375 13.1435 8 15 8C16.8565 8 18.637 8.7375 19.9497 10.0503C21.2625 11.363 22 13.1435 22 15C22 16.8565 21.2625 18.637 19.9497 19.9497C18.637 21.2625 16.8565 22 15 22C13.1435 22 11.363 21.2625 10.0503 19.9497C8.7375 18.637 8 16.8565 8 15V15Z" fill="black"/>
</g>
<defs>
<clipPath id="clip0_1115_1507">
<rect width="30" height="30" fill="white"/>
</clipPath>
</defs>
</svg>
