<svg width="30" height="30" viewBox="0 0 30 30" fill="none" xmlns="http://www.w3.org/2000/svg">
<path d="M14.9939 1.1582C14.1502 6.42168 13.4412 9.55059 11.4959 11.4959C9.55059 13.4412 6.42168 14.1502 1.1582 14.9939C6.42168 15.8377 9.55059 16.5467 11.4959 18.4979C13.4412 20.4432 14.1502 23.5721 14.9939 28.8396C15.8377 23.5721 16.5467 20.4432 18.492 18.492C20.4432 16.5467 23.5721 15.8377 28.8396 14.9939C23.5721 14.1502 20.4432 13.4412 18.4979 11.4959C16.5467 9.55059 15.8377 6.42168 14.9939 1.1582ZM24.785 5.21465C22.1014 7.1541 20.0389 8.54863 18.199 9.32793C18.4979 9.87871 18.8436 10.3475 19.242 10.7459C19.6404 11.1443 20.1092 11.49 20.6658 11.7947C21.451 9.95488 22.8455 7.89238 24.785 5.21465ZM5.21816 5.21816C7.15996 7.89824 8.54863 9.95488 9.32793 11.7889C9.87871 11.49 10.3475 11.1443 10.7459 10.7459C11.1443 10.3475 11.49 9.87871 11.7889 9.32793C9.95488 8.54863 7.89824 7.15996 5.21816 5.21816ZM20.6658 18.1932C20.1092 18.4979 19.6404 18.8436 19.242 19.242C18.8436 19.6404 18.4979 20.1092 18.1932 20.6658C20.0389 21.4451 22.1014 22.8396 24.785 24.785C22.8396 22.1014 21.4451 20.0389 20.6658 18.1932ZM9.32793 18.199C8.54863 20.0389 7.1541 22.1014 5.21465 24.785C7.89238 22.8455 9.95488 21.451 11.7947 20.6658C11.49 20.1092 11.1443 19.6404 10.7459 19.242C10.3475 18.8436 9.87871 18.4979 9.32793 18.199Z" fill="black"/>
</svg>
