<svg width="30" height="30" viewBox="0 0 30 30" fill="none" xmlns="http://www.w3.org/2000/svg">
<path d="M15.1539 1.80176L1.48511 7.41211L1.54183 7.4359V13.5407L1.8805 13.6798L2.28702 13.8464L3.18978 24.7924L4.03575 14.5641L5.07948 14.9926V28.676H6.17442V17.0598L6.93983 24.0966L7.73085 16.842L9.03819 28.6266L10.2816 17.1295L10.287 17.1312L10.9389 23.8824L11.5394 17.6458L14.936 19.0392L15.1428 19.1235L15.1649 19.1143L16.0237 28.264L16.95 18.3855L19.1511 17.4829V28.6999H20.246V18.3252L20.3816 16.9793L22.8242 15.9797L23.0659 18.9404V28.7H24.1609V15.4321L24.2342 15.4028L24.9244 21.612L25.6825 14.8096L26.1916 14.6008L27.4203 25.6256L28.766 13.548L28.7825 13.5406V7.42852L28.8227 7.41211L15.154 1.80176H15.1539ZM27.6874 7.8791V12.8045L26.0725 13.4655H26.0651V13.4692L25.8216 13.5681L26.3965 8.4082L27.6874 7.8791ZM4.5229 8.65898L5.29558 8.9758L5.84671 14.0552H5.67831L4.12915 13.4197L4.52278 8.65898H4.5229ZM22.3427 10.0726L22.7309 14.8334L20.5079 15.7453L21.0279 10.611L22.3426 10.0726H22.3427ZM8.44499 10.2686L9.6737 10.7739L10.168 15.8972L7.93235 14.9798L8.44505 10.2686H8.44499ZM18.644 11.5906L19.1237 16.311L17.0656 17.1533L17.5454 12.041L18.644 11.5905V11.5906ZM12.1053 11.7718L14.5699 12.7826L15.0515 17.9022L11.6494 16.5052L12.1052 11.7719L12.1053 11.7718Z" fill="black"/>
</svg>
