<svg width="30" height="30" viewBox="0 0 30 30" fill="none" xmlns="http://www.w3.org/2000/svg">
<g clip-path="url(#clip0_429_11464)">
<path d="M24.2637 0C21.0857 0 18.5275 2.52208 18.5275 5.64935C18.5275 8.77922 21.0857 11.2987 24.2637 11.2987C27.4418 11.2987 30 8.77922 30 5.64935C30 2.52208 27.4418 0 24.2637 0ZM26.9341 2.20844L27.9231 2.85649L23.3011 9.68182L19.622 6.06494L20.4659 5.23377L23.1165 7.85065L26.9341 2.20844ZM17.9802 8.51299L10.1802 13.8312H0V16.1688H10.1802L17.9802 21.487C18.3165 20.7727 18.778 20.1234 19.3319 19.5714L12.633 15L19.3319 10.4286C18.778 9.87662 18.3165 9.22727 17.9802 8.51299ZM24.2637 18.7013C21.0857 18.7013 18.5275 21.2208 18.5275 24.3506C18.5275 27.4805 21.0857 30 24.2637 30C27.4418 30 30 27.4805 30 24.3506C30 21.2208 27.4418 18.7013 24.2637 18.7013ZM21.5209 20.8182L24.2637 23.5195L27.0066 20.8182L27.8506 21.6494L25.1077 24.3506L27.8506 27.0519L27.0066 27.8831L24.2637 25.1818L21.5209 27.8831L20.6769 27.0519L23.4198 24.3506L20.6769 21.6494L21.5209 20.8182Z" fill="black"/>
</g>
<defs>
<clipPath id="clip0_429_11464">
<rect width="30" height="30" fill="white"/>
</clipPath>
</defs>
</svg>
