<svg width="30" height="30" viewBox="0 0 30 30" fill="none" xmlns="http://www.w3.org/2000/svg">
<g clip-path="url(#clip0_2560_7549)">
<path d="M0 6C0 3.7425 1.17 1.38 3 0C3 1.2675 4.035 3 6 3C7.19347 3 8.33807 3.47411 9.18198 4.31802C10.0259 5.16193 10.5 6.30653 10.5 7.5C10.5 8.079 10.3815 8.628 10.182 9.1365C11.2946 10.0195 12.3903 10.9237 13.4685 11.8485L10.3485 14.9685C9.42406 13.89 8.51991 12.7943 7.6365 11.682C7.1158 11.8898 6.56063 11.9977 6 12C2.685 12 0 9.315 0 6ZM18.228 16.272L20.2395 14.2605C21.171 14.74 22.2023 14.9934 23.25 15C25.0402 15 26.7571 14.2888 28.023 13.023C29.2888 11.7571 30 10.0402 30 8.25C30 7.1625 29.718 6.1485 29.2605 5.2395L24 10.5L21 7.5L26.2605 2.2395C25.329 1.75995 24.2977 1.50661 23.25 1.5C21.4598 1.5 19.7429 2.21116 18.477 3.47703C17.2112 4.7429 16.5 6.45979 16.5 8.25C16.5 9.3375 16.782 10.3515 17.2395 11.2605L1.5 27L4.5 30L14.772 19.728C17.5971 22.6266 20.5908 25.3558 23.7375 27.9015L25.875 29.625L28.125 27.375L26.4015 25.2375C23.8558 22.0908 21.1266 19.0971 18.228 16.272Z" fill="black"/>
</g>
<defs>
<clipPath id="clip0_2560_7549">
<rect width="30" height="30" fill="white"/>
</clipPath>
</defs>
</svg>
