<svg width="50" height="50" viewBox="0 0 50 50" fill="none" xmlns="http://www.w3.org/2000/svg">
<g clip-path="url(#clip0_302_381)">
<path fill-rule="evenodd" clip-rule="evenodd" d="M31.9444 10.3887C31.576 10.3887 31.2228 10.2424 30.9623 9.98193C30.7018 9.72146 30.5555 9.36819 30.5555 8.99984V2.61373C29.2333 2.02588 27.8275 1.64773 26.3888 1.49289V6.22206C26.3888 6.59042 26.2425 6.94369 25.982 7.20415C25.7216 7.46462 25.3683 7.61095 24.9999 7.61095C24.6316 7.61095 24.2783 7.46462 24.0178 7.20415C23.7574 6.94369 23.611 6.59042 23.611 6.22206V1.4165C22.1771 1.49229 20.7673 1.81656 19.4444 2.37484V8.99984C19.4444 9.36819 19.2981 9.72146 19.0376 9.98193C18.7771 10.2424 18.4238 10.3887 18.0555 10.3887C17.6871 10.3887 17.3339 10.2424 17.0734 9.98193C16.8129 9.72146 16.6666 9.36819 16.6666 8.99984V4.10262C15.4297 5.16277 14.4592 6.49865 13.8333 8.00262C13.6991 8.11423 13.5685 8.23002 13.4416 8.34984C13.1041 9.61373 13.1402 10.6707 13.3791 11.3359C13.4966 11.6809 13.4738 12.0581 13.3157 12.3864C13.1576 12.7147 12.8768 12.9677 12.5339 13.0908C12.191 13.214 11.8134 13.1975 11.4825 13.0449C11.1517 12.8922 10.8941 12.6157 10.7652 12.2748C10.6802 12.0367 10.6115 11.7931 10.5597 11.5457C8.52355 14.3943 10.4013 16.4526 14.0222 17.7221C13.7751 19.3068 13.874 20.9262 14.3122 22.4691C14.7503 24.012 15.5173 25.4417 16.5604 26.66C17.6035 27.8784 18.898 28.8564 20.3549 29.527C21.8119 30.1976 23.3968 30.5449 25.0006 30.5449C26.6045 30.5449 28.1894 30.1976 29.6463 29.527C31.1033 28.8564 32.3978 27.8784 33.4409 26.66C34.484 25.4417 35.251 24.012 35.6891 22.4691C36.1273 20.9262 36.2262 19.3068 35.9791 17.7221C39.6055 16.4498 41.4833 14.3859 39.4291 11.529C39.3735 11.779 39.3041 12.0248 39.2208 12.2651C39.1625 12.4399 39.0701 12.6013 38.9488 12.74C38.8276 12.8787 38.68 12.9919 38.5146 13.073C38.3491 13.1541 38.1692 13.2015 37.9853 13.2124C37.8014 13.2233 37.6172 13.1975 37.4434 13.1366C37.2695 13.0756 37.1095 12.9806 36.9728 12.8572C36.836 12.7338 36.7251 12.5844 36.6466 12.4177C36.5681 12.2511 36.5236 12.0704 36.5156 11.8864C36.5075 11.7023 36.5362 11.5185 36.5999 11.3457C36.8708 10.5734 36.8777 9.54706 36.5763 8.43178C36.469 8.37159 36.3597 8.31508 36.2485 8.26234C35.6902 6.88734 34.7152 5.50817 33.3333 4.34845V9.00123C33.3333 9.36958 33.1869 9.72285 32.9265 9.98332C32.666 10.2438 32.3127 10.3901 31.9444 10.3901V10.3887ZM25.8944 19.2429C26.3935 19.0057 26.7779 18.5799 26.9631 18.0592C27.1483 17.5385 27.1191 16.9656 26.8819 16.4665C26.6447 15.9674 26.2189 15.5829 25.6982 15.3977C25.1775 15.2126 24.6046 15.2418 24.1055 15.479C23.6064 15.7162 23.2219 16.142 23.0367 16.6627C22.945 16.9205 22.905 17.1938 22.919 17.4671C22.9329 17.7404 23.0005 18.0083 23.118 18.2554C23.2355 18.5025 23.4004 18.7241 23.6035 18.9075C23.8066 19.0909 24.0439 19.2325 24.3017 19.3242C24.8223 19.5093 25.3953 19.4801 25.8944 19.2429ZM24.9999 22.2221C27.0972 22.2221 28.8833 20.8943 29.5652 19.0346C30.8116 18.9164 32.0511 18.7351 33.2791 18.4915C33.4119 19.6579 33.2967 20.8391 32.9412 21.9578C32.5857 23.0766 31.9978 24.1076 31.2161 24.9834C30.4344 25.8591 29.4765 26.5598 28.4051 27.0396C27.3338 27.5193 26.1731 27.7674 24.9992 27.7674C23.8254 27.7674 22.6647 27.5193 21.5934 27.0396C20.522 26.5598 19.5641 25.8591 18.7824 24.9834C18.0007 24.1076 17.4128 23.0766 17.0573 21.9578C16.7018 20.8391 16.5866 19.6579 16.7194 18.4915C17.8902 18.7276 19.1402 18.9082 20.4347 19.0332C20.7774 19.9683 21.3991 20.7755 22.2156 21.3459C23.0321 21.9162 24.004 22.222 24.9999 22.2221Z" fill="black"/>
<path d="M26.3891 1.38889C26.3891 1.02053 26.2428 0.667264 25.9823 0.406796C25.7218 0.146329 25.3686 0 25.0002 0C24.6319 0 24.2786 0.146329 24.0181 0.406796C23.7577 0.667264 23.6113 1.02053 23.6113 1.38889H26.3891Z" fill="black"/>
<path fill-rule="evenodd" clip-rule="evenodd" d="M31.2026 31.1113C32.7998 31.3669 34.4637 31.7086 36.1109 32.1322V50.0002H13.8887V32.1308C15.5084 31.7163 17.1462 31.3761 18.797 31.1113L23.6109 34.7224H26.3887L31.2026 31.1113ZM27.7776 43.0558C27.7776 43.7925 27.4849 44.499 26.964 45.02C26.443 45.5409 25.7365 45.8336 24.9998 45.8336C24.2631 45.8336 23.5565 45.5409 23.0356 45.02C22.5147 44.499 22.222 43.7925 22.222 43.0558C22.222 42.3191 22.5147 41.6125 23.0356 41.0916C23.5565 40.5707 24.2631 40.278 24.9998 40.278C25.7365 40.278 26.443 40.5707 26.964 41.0916C27.4849 41.6125 27.7776 42.3191 27.7776 43.0558Z" fill="black"/>
<path d="M8.33333 33.9236C9.24689 33.5581 10.1734 33.2259 11.1111 32.9277V50H8.33333V33.9236ZM38.8889 32.9277C39.8431 33.2333 40.7736 33.5652 41.6667 33.9236V50H38.8889V32.9277ZM5.55556 35.2013C2.27083 36.9402 0 39.1208 0 41.6666V50H5.55556V35.2013ZM50 41.6666C50 39.1208 47.7292 36.9388 44.4444 35.2013V50H50V41.6666Z" fill="black"/>
</g>
<defs>
<clipPath id="clip0_302_381">
<rect width="50" height="50" fill="white"/>
</clipPath>
</defs>
</svg>
