<svg width="30" height="30" viewBox="0 0 30 30" fill="none" xmlns="http://www.w3.org/2000/svg">
<path d="M10.625 19.375V18.125H11.875V19.375H10.625Z" fill="black"/>
<path fill-rule="evenodd" clip-rule="evenodd" d="M12.5 2.5C12.0027 2.5 11.5258 2.69754 11.1742 3.04917C10.8225 3.40081 10.625 3.87772 10.625 4.375H8.125C7.62772 4.375 7.15081 4.57254 6.79917 4.92417C6.44754 5.27581 6.25 5.75272 6.25 6.25V25.625C6.25 26.1223 6.44754 26.5992 6.79917 26.9508C7.15081 27.3025 7.62772 27.5 8.125 27.5H21.875C22.3723 27.5 22.8492 27.3025 23.2008 26.9508C23.5525 26.5992 23.75 26.1223 23.75 25.625V6.25C23.75 5.75272 23.5525 5.27581 23.2008 4.92417C22.8492 4.57254 22.3723 4.375 21.875 4.375H19.375C19.375 3.87772 19.1775 3.40081 18.8258 3.04917C18.4742 2.69754 17.9973 2.5 17.5 2.5H12.5ZM11.875 4.375C11.875 4.20924 11.9408 4.05027 12.0581 3.93306C12.1753 3.81585 12.3342 3.75 12.5 3.75H17.5C17.6658 3.75 17.8247 3.81585 17.9419 3.93306C18.0592 4.05027 18.125 4.20924 18.125 4.375V5.625C18.125 5.79076 18.0592 5.94973 17.9419 6.06694C17.8247 6.18415 17.6658 6.25 17.5 6.25H12.5C12.3342 6.25 12.1753 6.18415 12.0581 6.06694C11.9408 5.94973 11.875 5.79076 11.875 5.625V4.375ZM10 12.5C9.83424 12.5 9.67527 12.5658 9.55806 12.6831C9.44085 12.8003 9.375 12.9592 9.375 13.125C9.375 13.2908 9.44085 13.4497 9.55806 13.5669C9.67527 13.6842 9.83424 13.75 10 13.75H14.375C14.5408 13.75 14.6997 13.6842 14.8169 13.5669C14.9342 13.4497 15 13.2908 15 13.125C15 12.9592 14.9342 12.8003 14.8169 12.6831C14.6997 12.5658 14.5408 12.5 14.375 12.5H10ZM9.375 10C9.375 9.83424 9.44085 9.67527 9.55806 9.55806C9.67527 9.44085 9.83424 9.375 10 9.375H19.6875C19.8533 9.375 20.0122 9.44085 20.1294 9.55806C20.2467 9.67527 20.3125 9.83424 20.3125 10C20.3125 10.1658 20.2467 10.3247 20.1294 10.4419C20.0122 10.5592 19.8533 10.625 19.6875 10.625H10C9.83424 10.625 9.67527 10.5592 9.55806 10.4419C9.44085 10.3247 9.375 10.1658 9.375 10ZM9.375 17.5C9.375 17.3342 9.44085 17.1753 9.55806 17.0581C9.67527 16.9408 9.83424 16.875 10 16.875H12.5C12.6658 16.875 12.8247 16.9408 12.9419 17.0581C13.0592 17.1753 13.125 17.3342 13.125 17.5V20C13.125 20.1658 13.0592 20.3247 12.9419 20.4419C12.8247 20.5592 12.6658 20.625 12.5 20.625H10C9.83424 20.625 9.67527 20.5592 9.55806 20.4419C9.44085 20.3247 9.375 20.1658 9.375 20V17.5ZM17.5 20C17.9973 20 18.4742 19.8025 18.8258 19.4508C19.1775 19.0992 19.375 18.6223 19.375 18.125C19.375 17.6277 19.1775 17.1508 18.8258 16.7992C18.4742 16.4475 17.9973 16.25 17.5 16.25C17.0027 16.25 16.5258 16.4475 16.1742 16.7992C15.8225 17.1508 15.625 17.6277 15.625 18.125C15.625 18.6223 15.8225 19.0992 16.1742 19.4508C16.5258 19.8025 17.0027 20 17.5 20ZM13.75 22.8125C13.75 21.49 16.2481 20.8238 17.5 20.8238C18.7519 20.8238 21.25 21.49 21.25 22.8125V24.375H13.75V22.8125Z" fill="black"/>
</svg>
