<svg width="50" height="50" viewBox="0 0 50 50" fill="none" xmlns="http://www.w3.org/2000/svg">
<g clip-path="url(#clip0_294_424)">
<path d="M12.9434 10.0208C13.892 7.03194 16.2906 4.55972 19.4447 3.20555V6.94444C19.4447 7.3128 19.5911 7.66607 19.8515 7.92654C20.112 8.187 20.4653 8.33333 20.8336 8.33333C21.202 8.33333 21.5553 8.187 21.8157 7.92654C22.0762 7.66607 22.2225 7.3128 22.2225 6.94444V1.38889C22.2225 1.02053 22.3689 0.667264 22.6293 0.406796C22.8898 0.146329 23.2431 0 23.6114 0H26.3892C26.7575 0 27.1108 0.146329 27.3713 0.406796C27.6318 0.667264 27.7781 1.02053 27.7781 1.38889V6.94444C27.7781 7.3128 27.9244 7.66607 28.1849 7.92654C28.4453 8.187 28.7986 8.33333 29.167 8.33333C29.5353 8.33333 29.8886 8.187 30.1491 7.92654C30.4095 7.66607 30.5559 7.3128 30.5559 6.94444V3.20555C33.7559 4.57917 36.1767 7.10139 37.0975 10.1486C36.7406 10.4375 36.1447 10.7875 35.2156 11.1264C33.1434 11.8819 29.667 12.5 24.2697 12.5C20.3822 12.5 17.2586 11.8944 15.1503 11.125C14.1336 10.7542 13.4031 10.3625 12.9434 10.0208Z" fill="black"/>
<path fill-rule="evenodd" clip-rule="evenodd" d="M36.1667 13.7349C37.3958 13.2849 38.3653 12.7461 39.0542 12.1266C39.8417 12.8808 40.2778 13.7099 40.2778 14.5822C40.2778 16.2461 38.6889 17.7586 36.0972 18.878C36.1725 20.382 35.9413 21.8856 35.4175 23.2975C34.8938 24.7094 34.0886 26.0001 33.0507 27.0912C32.0128 28.1824 30.764 29.0511 29.38 29.6447C27.9961 30.2384 26.5059 30.5445 25 30.5445C23.4941 30.5445 22.0039 30.2384 20.62 29.6447C19.236 29.0511 17.9872 28.1824 16.9493 27.0912C15.9114 26.0001 15.1062 24.7094 14.5825 23.2975C14.0587 21.8856 13.8275 20.382 13.9028 18.878C11.3111 17.7586 9.72222 16.2461 9.72222 14.5822C9.72222 13.6794 10.1889 12.8224 11.0292 12.0488L11.1861 12.1738C11.9417 12.7586 12.975 13.2877 14.2 13.7336C16.6597 14.6322 20.1153 15.2766 24.2694 15.2766C29.8361 15.2766 33.6708 14.6447 36.1667 13.7349ZM16.675 19.8238C16.7709 21.9673 17.6899 23.9912 19.2407 25.4741C20.7914 26.957 22.8544 27.7846 25 27.7846C27.1456 27.7846 29.2086 26.957 30.7593 25.4741C32.3101 23.9912 33.2291 21.9673 33.325 19.8238C30.9306 20.4627 28.0694 20.8322 25 20.8322C21.9306 20.8322 19.0694 20.4613 16.675 19.8238ZM0 49.9988H29.1667V34.0266L26.3889 36.1099V41.5224C25.9336 41.6274 25.4671 41.6754 25 41.6655C24.3403 41.6655 23.8958 41.5961 23.6111 41.5224V36.4183L17.1569 31.3988C9.05556 32.9544 0 36.5794 0 41.6655V49.9988ZM9.72222 47.2211H20.8333V40.5266L11.7708 42.0377L14.3764 34.8738C12.7979 35.2798 11.2439 35.776 9.72222 36.3599V47.2211ZM2.77778 47.2211H6.94444V37.6085L6.84167 37.6627C5.36389 38.4461 4.28333 39.2447 3.60278 39.9961C2.93611 40.7349 2.77778 41.2808 2.77778 41.6655V47.2211Z" fill="black"/>
<path d="M36.9027 27.2918C37.7055 26.4724 38.8194 27.2988 38.5749 28.4196L38.5388 28.5835C38.4139 29.1548 38.4187 29.7468 38.5527 30.3159C38.6868 30.8851 38.9467 31.417 39.3133 31.8725C39.68 32.328 40.1441 32.6956 40.6716 32.9481C41.199 33.2006 41.7763 33.3316 42.3611 33.3316C42.9458 33.3316 43.5231 33.2006 44.0506 32.9481C44.578 32.6956 45.0421 32.328 45.4088 31.8725C45.7754 31.417 46.0354 30.8851 46.1694 30.3159C46.3034 29.7468 46.3082 29.1548 46.1833 28.5835L46.1472 28.4196C45.9027 27.2988 47.0166 26.4738 47.8194 27.2932C49.2195 28.7195 50.0027 30.6391 49.9999 32.6377C50.0008 33.9331 49.6719 35.2075 49.0443 36.3407C48.4167 37.474 47.511 38.4288 46.4124 39.1155C46.0249 39.3571 45.8333 39.821 45.8333 40.278V47.2224C45.8333 47.9591 45.5406 48.6657 45.0197 49.1866C44.4988 49.7075 43.7922 50.0002 43.0555 50.0002H41.6666C40.9299 50.0002 40.2234 49.7075 39.7024 49.1866C39.1815 48.6657 38.8888 47.9591 38.8888 47.2224V40.278C38.8888 39.821 38.6972 39.3571 38.3097 39.1155C37.211 38.4287 36.3051 37.4736 35.6775 36.3401C35.0499 35.2066 34.7211 33.932 34.7222 32.6363C34.7222 30.5557 35.5541 28.6682 36.9027 27.2918Z" fill="black"/>
</g>
<defs>
<clipPath id="clip0_294_424">
<rect width="50" height="50" fill="white"/>
</clipPath>
</defs>
</svg>
