<svg width="30" height="30" viewBox="0 0 30 30" fill="none" xmlns="http://www.w3.org/2000/svg">
<path fill-rule="evenodd" clip-rule="evenodd" d="M7.5034 2.91626C7.5034 2.55131 11.2662 0 15.0024 0C18.7385 0 22.5013 2.55214 22.5013 2.91626C22.5013 4.21608 22.363 4.98597 22.2463 5.40508C22.1689 5.68004 21.9114 5.83252 21.6256 5.83252H8.37911C8.09332 5.83252 7.83585 5.68004 7.75837 5.40508C7.64172 4.98597 7.5034 4.21608 7.5034 2.91626ZM13.7525 2.49965C13.5315 2.49965 13.3196 2.58744 13.1634 2.7437C13.0071 2.89995 12.9193 3.11189 12.9193 3.33287C12.9193 3.55385 13.0071 3.76578 13.1634 3.92204C13.3196 4.0783 13.5315 4.16609 13.7525 4.16609H16.2522C16.4732 4.16609 16.6851 4.0783 16.8414 3.92204C16.9976 3.76578 17.0854 3.55385 17.0854 3.33287C17.0854 3.11189 16.9976 2.89995 16.8414 2.7437C16.6851 2.58744 16.4732 2.49965 16.2522 2.49965H13.7525ZM8.36828 11.0135C5.59367 10.1553 6.29357 8.62213 7.35176 7.49896H22.8846C23.7311 8.58047 24.1852 10.0394 21.6264 10.9126C21.731 11.8409 21.6393 12.7807 21.3574 13.6712C21.0754 14.5617 20.6094 15.383 19.9896 16.0819C19.3698 16.7807 18.61 17.3415 17.7596 17.7279C16.9091 18.1142 15.9869 18.3175 15.0529 18.3245C14.1188 18.3316 13.1937 18.1422 12.3375 17.7687C11.4813 17.3953 10.7132 16.846 10.0829 16.1566C9.45264 15.4672 8.97431 14.653 8.67893 13.7668C8.38354 12.8807 8.27771 11.9423 8.36828 11.0126V11.0135ZM14.7757 11.665C16.9771 11.665 18.6835 11.5484 19.9917 11.3451C20.0347 12.0244 19.9385 12.7054 19.709 13.3462C19.4795 13.9871 19.1216 14.5743 18.6572 15.072C18.1927 15.5696 17.6316 15.9671 17.008 16.2402C16.3845 16.5133 15.7118 16.6562 15.0311 16.6601C14.3505 16.664 13.6761 16.5289 13.0495 16.263C12.4229 15.9971 11.8572 15.6061 11.387 15.1138C10.9169 14.6216 10.5522 14.0385 10.3154 13.4003C10.0786 12.7622 9.97454 12.0824 10.0097 11.4026C11.2287 11.5709 12.791 11.665 14.7757 11.665ZM22.0155 23.83C21.2619 22.6542 20.2245 21.6868 18.9989 21.017C17.7734 20.3473 16.399 19.9966 15.0024 19.9972C13.6051 19.9963 12.2302 20.3471 11.0041 21.0172C9.77806 21.6873 8.74037 22.6552 7.98667 23.8317C7.70694 23.4009 7.27734 23.0891 6.781 22.9568L5.17123 22.526C4.63766 22.383 4.06913 22.4577 3.59068 22.7338C3.11223 23.0099 2.76304 23.4648 2.61991 23.9983L1.97334 26.413C1.90252 26.6772 1.88446 26.9528 1.92017 27.2241C1.95588 27.4953 2.04466 27.7569 2.18146 27.9938C2.31825 28.2307 2.50038 28.4383 2.71743 28.6049C2.93448 28.7714 3.18221 28.8935 3.44647 28.9643L5.05541 29.3959C5.32604 29.4688 5.60863 29.4862 5.88615 29.4469C6.16367 29.4077 6.43037 29.3127 6.67018 29.1676C6.67085 29.3886 6.75927 29.6003 6.91599 29.756C7.07272 29.9118 7.28492 29.999 7.5059 29.9983C7.72688 29.9977 7.93855 29.9092 8.09434 29.7525C8.25013 29.5958 8.33728 29.3836 8.33662 29.1626V28.3294C8.33662 28.0119 8.35911 27.6995 8.40161 27.3937L12.7377 28.556C12.9389 28.9868 13.2589 29.3513 13.6601 29.6067C14.0612 29.862 14.5268 29.9976 15.0024 29.9976C15.4779 29.9976 15.9435 29.862 16.3447 29.6067C16.7458 29.3513 17.0658 28.9868 17.267 28.556L21.6031 27.3937C21.6456 27.6995 21.6681 28.0119 21.6681 28.3294V29.1626C21.667 29.3836 21.7537 29.596 21.9092 29.753C22.0647 29.91 22.2762 29.9989 22.4971 30C22.7181 30.0011 22.9305 29.9144 23.0875 29.7589C23.2446 29.6034 23.3334 29.3919 23.3345 29.1709C23.8011 29.4509 24.3777 29.5484 24.9451 29.3959L26.5549 28.9651C26.8192 28.8944 27.0669 28.7722 27.284 28.6057C27.501 28.4392 27.6831 28.2315 27.8199 27.9946C27.9567 27.7577 28.0455 27.4961 28.0812 27.2249C28.1169 26.9537 28.0989 26.6781 28.028 26.4138L27.3806 23.9992C27.2375 23.4656 26.8883 23.0108 26.4099 22.7347C25.9314 22.4586 25.3629 22.3838 24.8293 22.5269L23.2195 22.9576C22.7244 23.0895 22.2955 23.4008 22.0155 23.83ZM8.83905 25.7856C9.28914 24.697 10.0194 23.747 10.9556 23.0321C11.8917 22.3172 13.0005 21.8629 14.1691 21.7153V25.139C13.7957 25.2715 13.4591 25.4906 13.1868 25.7784C12.9145 26.0662 12.7143 26.4144 12.6027 26.7946L8.83905 25.7864V25.7856ZM21.1657 25.7856C20.7155 24.6971 19.9852 23.7471 19.0491 23.0322C18.1129 22.3173 17.0042 21.863 15.8356 21.7153V25.139C16.5888 25.4056 17.1771 26.0222 17.402 26.7946L21.1657 25.7864V25.7856ZM15.0024 28.3294C15.2233 28.3294 15.4353 28.2416 15.5915 28.0853C15.7478 27.9291 15.8356 27.7172 15.8356 27.4962C15.8356 27.2752 15.7478 27.0633 15.5915 26.907C15.4353 26.7507 15.2233 26.663 15.0024 26.663C14.7814 26.663 14.5694 26.7507 14.4132 26.907C14.2569 27.0633 14.1691 27.2752 14.1691 27.4962C14.1691 27.7172 14.2569 27.9291 14.4132 28.0853C14.5694 28.2416 14.7814 28.3294 15.0024 28.3294Z" fill="black"/>
</svg>
