<svg width="30" height="30" viewBox="0 0 30 30" fill="none" xmlns="http://www.w3.org/2000/svg">
<path fill-rule="evenodd" clip-rule="evenodd" d="M8.4375 6.31063C8.4375 4.85875 15 3.75 15 3.75C15 3.75 21.5625 4.85875 21.5625 6.31063C21.5625 8.24625 20.3688 9.0625 20.3688 9.0625H9.63125C9.63125 9.0625 8.4375 8.24625 8.4375 6.31063V6.31063ZM15.9375 6.5625C15.9375 6.81114 15.8387 7.0496 15.6629 7.22541C15.4871 7.40123 15.2486 7.5 15 7.5C14.7514 7.5 14.5129 7.40123 14.3371 7.22541C14.1613 7.0496 14.0625 6.81114 14.0625 6.5625C14.0625 6.31386 14.1613 6.0754 14.3371 5.89959C14.5129 5.72377 14.7514 5.625 15 5.625C15.2486 5.625 15.4871 5.72377 15.6629 5.89959C15.8387 6.0754 15.9375 6.31386 15.9375 6.5625ZM19.8837 11.425C20.7525 10.7469 20.6175 10 20.6175 10H9.3825C9.3825 10 9.24688 10.7469 10.1163 11.425C9.95621 12.1552 9.96193 12.9119 10.133 13.6396C10.304 14.3673 10.6361 15.0474 11.1046 15.6298C11.5732 16.2122 12.1664 16.6821 12.8406 17.005C13.5148 17.3279 14.2528 17.4955 15.0003 17.4955C15.7478 17.4955 16.4858 17.3279 17.16 17.005C17.8342 16.6821 18.4274 16.2122 18.896 15.6298C19.3646 15.0474 19.6966 14.3673 19.8676 13.6396C20.0387 12.9119 20.0444 12.1552 19.8844 11.425H19.8837ZM15 12.5C16.7006 12.5 17.8894 12.3037 18.72 12.0212C18.7876 12.5496 18.7418 13.0862 18.5858 13.5955C18.4298 14.1048 18.1671 14.575 17.8152 14.9748C17.4633 15.3746 17.0302 15.6949 16.5448 15.9142C16.0595 16.1336 15.5329 16.2471 15.0003 16.2471C14.4677 16.2471 13.9412 16.1336 13.4558 15.9142C12.9704 15.6949 12.5374 15.3746 12.1854 14.9748C11.8335 14.575 11.5708 14.1048 11.4148 13.5955C11.2588 13.0862 11.213 12.5496 11.2806 12.0212C12.1106 12.3037 13.2994 12.5 15 12.5ZM15.9375 18.75C16.1033 18.75 16.2622 18.8158 16.3794 18.9331C16.4967 19.0503 16.5625 19.2092 16.5625 19.375V20.2387C16.5624 20.3548 16.5301 20.4685 16.469 20.5672C16.408 20.6659 16.3207 20.7456 16.2169 20.7975L15.9375 20.9375L16.2981 22.7406L18.9481 18.7656C19.1294 18.7656 19.2981 18.7669 19.4506 18.7681C22.8288 19.5387 26.25 21.11 26.25 23.4737V26.25H3.75V23.4737C3.75 21.11 7.32062 19.5206 10.6988 18.75C10.6869 18.7525 10.8138 18.7544 11.0456 18.7563L13.7231 22.7719L14.0625 20.9375L13.7831 20.7975C13.6793 20.7456 13.592 20.6659 13.531 20.5672C13.4699 20.4685 13.4376 20.3548 13.4375 20.2387V19.375C13.4375 19.2092 13.5033 19.0503 13.6206 18.9331C13.7378 18.8158 13.8967 18.75 14.0625 18.75H15.9375ZM21.875 22.0831C21.875 22.0831 21.0419 21.6669 20.625 21.25C20.2081 21.6669 19.375 22.0831 19.375 22.0831C19.375 22.0831 19.8112 23.75 20.625 23.75C21.4388 23.75 21.875 22.0831 21.875 22.0831Z" fill="black"/>
</svg>
