<svg width="30" height="30" viewBox="0 0 30 30" fill="none" xmlns="http://www.w3.org/2000/svg">
<path fill-rule="evenodd" clip-rule="evenodd" d="M10.3125 7.96875C10.3125 6.72555 10.8064 5.53326 11.6854 4.65419C12.5645 3.77511 13.7568 3.28125 15 3.28125C16.2432 3.28125 17.4355 3.77511 18.3146 4.65419C19.1936 5.53326 19.6875 6.72555 19.6875 7.96875C19.6875 9.21195 19.1936 10.4042 18.3146 11.2833C17.4355 12.1624 16.2432 12.6562 15 12.6562C13.7568 12.6562 12.5645 12.1624 11.6854 11.2833C10.8064 10.4042 10.3125 9.21195 10.3125 7.96875ZM19.6875 11.7188C19.6875 10.7242 20.0826 9.77036 20.7858 9.0671C21.4891 8.36384 22.4429 7.96875 23.4375 7.96875C24.4321 7.96875 25.3859 8.36384 26.0892 9.0671C26.7924 9.77036 27.1875 10.7242 27.1875 11.7188C27.1875 12.7133 26.7924 13.6671 26.0892 14.3704C25.3859 15.0737 24.4321 15.4688 23.4375 15.4688C22.4429 15.4688 21.4891 15.0737 20.7858 14.3704C20.0826 13.6671 19.6875 12.7133 19.6875 11.7188ZM2.8125 11.7188C2.8125 10.7242 3.20759 9.77036 3.91085 9.0671C4.61411 8.36384 5.56794 7.96875 6.5625 7.96875C7.55706 7.96875 8.51089 8.36384 9.21415 9.0671C9.91741 9.77036 10.3125 10.7242 10.3125 11.7188C10.3125 12.7133 9.91741 13.6671 9.21415 14.3704C8.51089 15.0737 7.55706 15.4688 6.5625 15.4688C5.56794 15.4688 4.61411 15.0737 3.91085 14.3704C3.20759 13.6671 2.8125 12.7133 2.8125 11.7188ZM7.8875 18.4288C8.64979 17.2335 9.70114 16.2498 10.9443 15.5686C12.1875 14.8874 13.5824 14.5306 15 14.5312C16.1873 14.5302 17.3614 14.7798 18.4455 15.264C19.5296 15.7481 20.4992 16.4557 21.2909 17.3405C22.0826 18.2253 22.6785 19.2673 23.0396 20.3983C23.4007 21.5293 23.5188 22.7239 23.3862 23.9037C23.37 24.0503 23.3195 24.191 23.2387 24.3144C23.1579 24.4378 23.0491 24.5403 22.9212 24.6137C20.5107 25.9969 17.7792 26.7228 15 26.7188C12.2208 26.7231 9.48917 25.9972 7.07875 24.6137C6.95086 24.5403 6.8421 24.4378 6.7613 24.3144C6.68051 24.191 6.62995 24.0503 6.61375 23.9037C6.40382 21.987 6.85308 20.056 7.8875 18.4288Z" fill="black"/>
<path d="M6.3526 17.3486C5.11979 19.2516 4.54542 21.5065 4.7176 23.7674C3.96698 23.6536 3.22873 23.4694 2.5126 23.2174L2.36885 23.1674C2.2406 23.1219 2.12829 23.0401 2.04554 22.9321C1.96278 22.824 1.91313 22.6943 1.9026 22.5586L1.8901 22.4074C1.83961 21.7798 1.91605 21.1485 2.11486 20.5512C2.31367 19.9538 2.63077 19.4026 3.04726 18.9305C3.46374 18.4584 3.97106 18.075 4.53895 17.8032C5.10684 17.5314 5.72366 17.3768 6.3526 17.3486ZM25.2826 23.7674C25.4548 21.5065 24.8804 19.2516 23.6476 17.3486C24.2765 17.3768 24.8934 17.5314 25.4613 17.8032C26.0291 18.075 26.5365 18.4584 26.9529 18.9305C27.3694 19.4026 27.6865 19.9538 27.8853 20.5512C28.0842 21.1485 28.1606 21.7798 28.1101 22.4074L28.0976 22.5586C28.0868 22.6941 28.0371 22.8236 27.9543 22.9314C27.8716 23.0392 27.7594 23.1207 27.6313 23.1661L27.4876 23.2161C26.7788 23.4661 26.0426 23.6524 25.2826 23.7674Z" fill="black"/>
</svg>
