<svg width="30" height="30" viewBox="0 0 30 30" fill="none" xmlns="http://www.w3.org/2000/svg">
<path d="M15.0005 12.5004C16.3264 12.5004 17.598 11.9737 18.5356 11.0361C19.4731 10.0985 19.9999 8.82695 19.9999 7.50104C19.9999 6.17514 19.4731 4.90354 18.5356 3.96598C17.598 3.02842 16.3264 2.50171 15.0005 2.50171C13.6746 2.50171 12.403 3.02842 11.4655 3.96598C10.5279 4.90354 10.0012 6.17514 10.0012 7.50104C10.0012 8.82695 10.5279 10.0985 11.4655 11.0361C12.403 11.9737 13.6746 12.5004 15.0005 12.5004ZM8.33475 10.8339C8.33475 11.7179 7.9836 12.5656 7.35857 13.1906C6.73353 13.8157 5.8858 14.1668 5.00186 14.1668C4.11792 14.1668 3.27019 13.8157 2.64515 13.1906C2.02011 12.5656 1.66897 11.7179 1.66897 10.8339C1.66897 9.94999 2.02011 9.10226 2.64515 8.47722C3.27019 7.85218 4.11792 7.50104 5.00186 7.50104C5.8858 7.50104 6.73353 7.85218 7.35857 8.47722C7.9836 9.10226 8.33475 9.94999 8.33475 10.8339ZM0.819084 23.0423C0.534598 22.8806 0.321558 22.6176 0.222497 22.3057C-0.0711216 21.3547 -0.0742007 20.3377 0.213654 19.385C0.501508 18.4322 1.06719 17.5871 1.83827 16.9578C2.60934 16.3285 3.55071 15.9436 4.54182 15.8525C5.53294 15.7615 6.52868 15.9683 7.40154 16.4465C5.60783 18.2092 4.48515 20.5424 4.22696 23.044C4.18863 23.4139 4.20363 23.7805 4.26862 24.1338C3.05239 24.0287 1.87443 23.6559 0.819084 23.0423ZM25.7324 24.1322C26.9485 24.0275 28.1265 23.6553 29.182 23.0423C29.4658 22.8803 29.6782 22.6173 29.7769 22.3057C30.071 21.3546 30.0744 20.3374 29.7868 19.3843C29.4991 18.4313 28.9334 17.5858 28.1623 16.9562C27.3911 16.3266 26.4495 15.9416 25.4582 15.8505C24.4668 15.7594 23.4708 15.9664 22.5978 16.4448C24.3931 18.2075 25.517 20.5414 25.7758 23.044C25.8129 23.4075 25.7983 23.7744 25.7324 24.1338V24.1322ZM28.3321 10.8339C28.3321 11.7179 27.9809 12.5656 27.3559 13.1906C26.7309 13.8157 25.8831 14.1668 24.9992 14.1668C24.1153 14.1668 23.2675 13.8157 22.6425 13.1906C22.0174 12.5656 21.6663 11.7179 21.6663 10.8339C21.6663 9.94999 22.0174 9.10226 22.6425 8.47722C23.2675 7.85218 24.1153 7.50104 24.9992 7.50104C25.8831 7.50104 26.7309 7.85218 27.3559 8.47722C27.9809 9.10226 28.3321 9.94999 28.3321 10.8339ZM7.1749 24.4821C7.01055 24.3349 6.88314 24.1511 6.80295 23.9456C6.72276 23.7401 6.69205 23.5185 6.7133 23.2989C6.92526 21.2483 7.88988 19.3491 9.4207 17.9684C10.9515 16.5877 12.9398 15.8234 15.0014 15.8234C17.0629 15.8234 19.0512 16.5877 20.582 17.9684C22.1128 19.3491 23.0775 21.2483 23.2894 23.2989C23.3108 23.5185 23.2801 23.7401 23.2 23.9457C23.1198 24.1512 22.9923 24.335 22.8278 24.4821C20.6851 26.4268 17.8941 27.5023 15.0005 27.4984C12.1075 27.502 9.31709 26.4265 7.1749 24.4821Z" fill="black"/>
</svg>
