<svg width="30" height="30" viewBox="0 0 30 30" fill="none" xmlns="http://www.w3.org/2000/svg">
<path d="M26.2504 12.65H17.7754L21.2004 9.125C17.7879 5.75 12.2629 5.625 8.85043 9C5.43793 12.3875 5.43793 17.85 8.85043 21.2375C12.2629 24.625 17.7879 24.625 21.2004 21.2375C22.9004 19.5625 23.7504 17.6 23.7504 15.125H26.2504C26.2504 17.6 25.1504 20.8125 22.9504 22.9875C18.5629 27.3375 11.4379 27.3375 7.05043 22.9875C2.67543 18.65 2.63793 11.6 7.02543 7.2625C11.4129 2.925 18.4504 2.925 22.8379 7.2625L26.2504 3.75V12.65V12.65ZM15.6254 10V15.3125L20.0004 17.9125L19.1004 19.425L13.7504 16.25V10H15.6254Z" fill="black"/>
</svg>
