<svg width="30" height="30" viewBox="0 0 30 30" fill="none" xmlns="http://www.w3.org/2000/svg">
<path d="M3.74854 21.564V26.2515H8.43604L22.261 12.4265L17.5735 7.73903L3.74854 21.564ZM25.886 8.80153C26.0019 8.68589 26.0938 8.54853 26.1566 8.39731C26.2193 8.24609 26.2516 8.08399 26.2516 7.92028C26.2516 7.75657 26.2193 7.59447 26.1566 7.44325C26.0938 7.29203 26.0019 7.15467 25.886 7.03903L22.961 4.11403C22.8454 3.99815 22.708 3.90622 22.5568 3.84349C22.4056 3.78076 22.2435 3.74847 22.0798 3.74847C21.9161 3.74847 21.754 3.78076 21.6028 3.84349C21.4515 3.90622 21.3142 3.99815 21.1985 4.11403L18.911 6.40153L23.5985 11.089L25.886 8.80153Z" fill="black"/>
</svg>
