<svg width="30" height="30" viewBox="0 0 30 30" fill="none" xmlns="http://www.w3.org/2000/svg">
<path d="M23.75 11.25H22.5V5H10V25H27.5V15C27.5 12.925 25.825 11.25 23.75 11.25ZM12.5 7.5H20V11.25H12.5V7.5ZM17.5 21.25H12.5V15H17.5V21.25ZM20 21.25C19.3125 21.25 18.75 20.6875 18.75 20C18.75 19.3125 19.3125 18.75 20 18.75C20.6875 18.75 21.25 19.3125 21.25 20C21.25 20.6875 20.6875 21.25 20 21.25ZM20 17.5C19.3125 17.5 18.75 16.9375 18.75 16.25C18.75 15.5625 19.3125 15 20 15C20.6875 15 21.25 15.5625 21.25 16.25C21.25 16.9375 20.6875 17.5 20 17.5ZM23.75 21.25C23.0625 21.25 22.5 20.6875 22.5 20C22.5 19.3125 23.0625 18.75 23.75 18.75C24.4375 18.75 25 19.3125 25 20C25 20.6875 24.4375 21.25 23.75 21.25ZM23.75 17.5C23.0625 17.5 22.5 16.9375 22.5 16.25C22.5 15.5625 23.0625 15 23.75 15C24.4375 15 25 15.5625 25 16.25C25 16.9375 24.4375 17.5 23.75 17.5ZM5.625 10C4.7962 10 4.00134 10.3292 3.41529 10.9153C2.82924 11.5013 2.5 12.2962 2.5 13.125V23.125C2.5 23.9538 2.82924 24.7487 3.41529 25.3347C4.00134 25.9208 4.7962 26.25 5.625 26.25C6.4538 26.25 7.24866 25.9208 7.83471 25.3347C8.42076 24.7487 8.75 23.9538 8.75 23.125V13.125C8.75 12.7146 8.66917 12.3083 8.51212 11.9291C8.35508 11.55 8.12489 11.2055 7.83471 10.9153C7.54453 10.6251 7.20003 10.3949 6.82089 10.2379C6.44174 10.0808 6.03538 10 5.625 10V10Z" fill="black"/>
</svg>
