<svg width="30" height="30" viewBox="0 0 30 30" fill="none" xmlns="http://www.w3.org/2000/svg">
<path d="M27.2727 12.3333H15.8864C15.3246 10.774 14.2818 9.4235 12.9018 8.46822C11.5218 7.51294 9.87265 6.99994 8.18182 7C3.66818 7 0 10.5867 0 15C0 19.4133 3.66818 23 8.18182 23C9.87265 23.0001 11.5218 22.4871 12.9018 21.5318C14.2818 20.5765 15.3246 19.226 15.8864 17.6667H16.3636L19.0909 20.3333L21.8182 17.6667L24.5455 20.3333L30 14.9467L27.2727 12.3333ZM8.18182 19C5.93182 19 4.09091 17.2 4.09091 15C4.09091 12.8 5.93182 11 8.18182 11C10.4318 11 12.2727 12.8 12.2727 15C12.2727 17.2 10.4318 19 8.18182 19Z" fill="black"/>
</svg>
