<svg width="30" height="30" viewBox="0 0 30 30" fill="none" xmlns="http://www.w3.org/2000/svg">
<path d="M15.85 7.35002C16.725 7.05002 17.375 6.22501 17.475 5.30001C17.5375 4.71251 17.4125 4.16251 17.125 3.71251L15.525 0.937515C15.469 0.843223 15.3894 0.765122 15.2941 0.710878C15.1987 0.656635 15.0909 0.628113 14.9812 0.628113C14.8716 0.628113 14.7638 0.656635 14.6684 0.710878C14.5731 0.765122 14.4935 0.843223 14.4375 0.937515L12.8375 3.71251C12.625 4.08751 12.5 4.52502 12.5 5.00002C12.5 6.65002 14.125 7.93752 15.85 7.35002ZM20.6625 19.9L19.4125 18.65L18.0625 19.9875C16.4375 21.6125 13.5875 21.625 11.95 19.9875L10.6125 18.65L9.25 19.9875C8.4375 20.8 7.35 21.25 6.2 21.25C5.2875 21.25 4.45 20.9625 3.75 20.4875V25C3.75 26.375 4.875 27.5 6.25 27.5H23.75C25.125 27.5 26.25 26.375 26.25 25V20.4875C25.3125 21.125 24.1125 21.425 22.825 21.1375C22 20.9625 21.2625 20.5 20.6625 19.9ZM22.5 11.25H16.25V10C16.25 9.31252 15.6875 8.75002 15 8.75002C14.3125 8.75002 13.75 9.31252 13.75 10V11.25H7.5C5.425 11.25 3.75 12.925 3.75 15V16.825C3.75 17.8875 4.375 18.9125 5.3875 19.25C6.3 19.55 7.2875 19.325 7.925 18.675L10.6 16.0125L13.2625 18.675C14.2125 19.625 15.775 19.625 16.725 18.675L19.4 16.0125L22.0625 18.675C22.6 19.2125 23.35 19.4625 24.125 19.3625C25.3625 19.2 26.2375 18.0375 26.2375 16.7875V15.0125C26.242 14.5193 26.1485 14.0301 25.9626 13.5732C25.7767 13.1163 25.5019 12.7009 25.1543 12.3509C24.8067 12.001 24.3931 11.7235 23.9375 11.5345C23.4818 11.3455 22.9933 11.2488 22.5 11.25Z" fill="black"/>
</svg>
