<svg width="30" height="30" viewBox="0 0 30 30" fill="none" xmlns="http://www.w3.org/2000/svg">
<path d="M9.90173 9.425C8.90173 9 8.47673 7.7625 9.07673 6.8625C10.2892 5.0625 12.3142 3.75 14.9892 3.75C17.9267 3.75 19.9392 5.0875 20.9642 6.7625C21.8392 8.2 22.3517 10.8875 21.0017 12.8875C19.5017 15.1 18.0642 15.775 17.2892 17.2C17.1017 17.5375 16.9892 17.8125 16.9142 18.375C16.8017 19.2875 16.0517 20 15.1267 20C14.0392 20 13.1517 19.0625 13.2767 17.975C13.3517 17.3375 13.5017 16.675 13.8517 16.05C14.8142 14.3125 16.6642 13.2875 17.7392 11.75C18.8767 10.1375 18.2392 7.125 15.0142 7.125C13.5517 7.125 12.6017 7.8875 12.0142 8.8C11.5767 9.5125 10.6642 9.7375 9.90173 9.425ZM17.5017 25C17.5017 26.375 16.3767 27.5 15.0017 27.5C13.6267 27.5 12.5017 26.375 12.5017 25C12.5017 23.625 13.6267 22.5 15.0017 22.5C16.3767 22.5 17.5017 23.625 17.5017 25Z" fill="black"/>
</svg>
