<svg width="30" height="31" viewBox="0 0 30 31" fill="none" xmlns="http://www.w3.org/2000/svg">
<path d="M27.2727 13.0171H15.8864C15.3246 11.4479 14.2818 10.0888 12.9018 9.12752C11.5218 8.1662 9.87265 7.64996 8.18182 7.65002C3.66818 7.65002 0 11.2594 0 15.7006C0 20.1418 3.66818 23.7511 8.18182 23.7511C9.87265 23.7512 11.5218 23.235 12.9018 22.2736C14.2818 21.3123 15.3246 19.9533 15.8864 18.3841H16.3636L19.0909 21.0676L21.8182 18.3841L24.5455 21.0676L30 15.6469L27.2727 13.0171ZM8.18182 19.7259C5.93182 19.7259 4.09091 17.9145 4.09091 15.7006C4.09091 13.4867 5.93182 11.6753 8.18182 11.6753C10.4318 11.6753 12.2727 13.4867 12.2727 15.7006C12.2727 17.9145 10.4318 19.7259 8.18182 19.7259Z" fill="black"/>
</svg>
