<svg width="30" height="30" viewBox="0 0 30 30" fill="none" xmlns="http://www.w3.org/2000/svg">
<g clip-path="url(#clip0_2528_7549)">
<path d="M19.508 9.58165L17.6048 7.6804L8.08922 17.1942C7.71446 17.569 7.41721 18.0141 7.21444 18.5038C7.01166 18.9936 6.90734 19.5185 6.90743 20.0486C6.90752 20.5786 7.01201 21.1035 7.21494 21.5932C7.41788 22.0829 7.71527 22.5278 8.09016 22.9026C8.46504 23.2773 8.91006 23.5746 9.39983 23.7774C9.88959 23.9801 10.4145 24.0845 10.9446 24.0844C11.4746 24.0843 11.9995 23.9798 12.4892 23.7769C12.9789 23.5739 13.4238 23.2765 13.7986 22.9017L25.2173 11.4848C26.4789 10.2229 27.1876 8.51159 27.1874 6.72724C27.1873 4.94289 26.4783 3.23169 25.2164 1.97009C23.9546 0.708486 22.2432 -0.000175783 20.4589 3.27064e-08C18.6745 0.000175848 16.9633 0.709175 15.7017 1.97103L3.71297 13.9579L3.68672 13.9823C0.0210938 17.6479 0.0210938 23.5879 3.68672 27.2517C7.35234 30.9154 13.2923 30.9154 16.958 27.2517L16.9823 27.2254L16.9842 27.2273L25.1686 19.0448L23.2655 17.1435L15.0811 25.3241L15.0567 25.3485C13.8007 26.602 12.0987 27.3061 10.3242 27.3061C8.54972 27.3061 6.84771 26.602 5.59172 25.3485C4.96915 24.7246 4.47585 23.9839 4.14012 23.1689C3.80439 22.354 3.63283 21.4807 3.63527 20.5993C3.6377 19.7179 3.8141 18.8457 4.15433 18.0326C4.49457 17.2195 4.99195 16.4815 5.61797 15.861L5.61609 15.8592L17.6067 3.87228C19.1798 2.29728 21.7411 2.29728 23.3161 3.87228C24.8911 5.44728 24.8892 8.00665 23.3161 9.57978L11.8973 20.9967C11.6418 21.2317 11.3053 21.3589 10.9582 21.3518C10.6111 21.3446 10.2801 21.2036 10.0345 20.9582C9.78884 20.7128 9.64751 20.382 9.64001 20.0349C9.63251 19.6878 9.75941 19.3512 9.99422 19.0954L19.5098 9.57978L19.508 9.58165Z" fill="black"/>
</g>
<defs>
<clipPath id="clip0_2528_7549">
<rect width="30" height="30" fill="white"/>
</clipPath>
</defs>
</svg>
