<svg width="30" height="30" viewBox="0 0 30 30" fill="none" xmlns="http://www.w3.org/2000/svg">
<path fill-rule="evenodd" clip-rule="evenodd" d="M22.5 5V8.75H26.25C26.5815 8.75 26.8995 8.8817 27.1339 9.11612C27.3683 9.35054 27.5 9.66848 27.5 10V22.5C27.5 23.4946 27.1049 24.4484 26.4017 25.1517C25.6984 25.8549 24.7446 26.25 23.75 26.25H6.25C5.25544 26.25 4.30161 25.8549 3.59835 25.1517C2.89509 24.4484 2.5 23.4946 2.5 22.5V5C2.5 4.66848 2.6317 4.35054 2.86612 4.11612C3.10054 3.8817 3.41848 3.75 3.75 3.75H21.25C21.5815 3.75 21.8995 3.8817 22.1339 4.11612C22.3683 4.35054 22.5 4.66848 22.5 5ZM25 22.5C25 22.8315 24.8683 23.1495 24.6339 23.3839C24.3995 23.6183 24.0815 23.75 23.75 23.75C23.4185 23.75 23.1005 23.6183 22.8661 23.3839C22.6317 23.1495 22.5 22.8315 22.5 22.5V11.25H25V22.5ZM7.5 10C7.5 9.66848 7.6317 9.35054 7.86612 9.11612C8.10054 8.8817 8.41848 8.75 8.75 8.75H16.25C16.5815 8.75 16.8995 8.8817 17.1339 9.11612C17.3683 9.35054 17.5 9.66848 17.5 10C17.5 10.3315 17.3683 10.6495 17.1339 10.8839C16.8995 11.1183 16.5815 11.25 16.25 11.25H8.75C8.41848 11.25 8.10054 11.1183 7.86612 10.8839C7.6317 10.6495 7.5 10.3315 7.5 10ZM10 15C10 14.6685 10.1317 14.3505 10.3661 14.1161C10.6005 13.8817 10.9185 13.75 11.25 13.75H16.25C16.5815 13.75 16.8995 13.8817 17.1339 14.1161C17.3683 14.3505 17.5 14.6685 17.5 15C17.5 15.3315 17.3683 15.6495 17.1339 15.8839C16.8995 16.1183 16.5815 16.25 16.25 16.25H11.25C10.9185 16.25 10.6005 16.1183 10.3661 15.8839C10.1317 15.6495 10 15.3315 10 15Z" fill="black"/>
</svg>
