<svg width="176" height="159" viewBox="0 0 176 159" fill="none" xmlns="http://www.w3.org/2000/svg">
<path d="M153 78.5C153 108.047 129.047 132 99.5 132C69.9527 132 46 108.047 46 78.5C46 48.9527 69.9527 25 99.5 25C129.047 25 153 48.9527 153 78.5ZM93.3117 106.828L133.005 67.1343C134.353 65.7864 134.353 63.6009 133.005 62.253L128.124 57.3718C126.776 56.0237 124.591 56.0237 123.243 57.3718L90.871 89.7432L75.7574 74.6297C74.4096 73.2818 72.2241 73.2818 70.876 74.6297L65.9948 79.5109C64.6469 80.8587 64.6469 83.0443 65.9948 84.3921L88.4302 106.828C89.7783 108.176 91.9636 108.176 93.3117 106.828Z" fill="#3494D3"/>
<path d="M153.167 120.245C158.092 118.792 166.709 122.949 164.657 131.262" stroke="#FFC480" stroke-width="3" stroke-linecap="round"/>
<path d="M149.079 40.0747C155.009 41.6601 156.533 36.7574 157.227 34.4783C158.268 31.0597 159.999 24.9059 165.287 27.4078" stroke="#FF2F9F" stroke-width="3" stroke-linecap="round"/>
<path d="M37.1026 80.1218C23.7058 97.4825 11.2021 80.9898 20.094 79.0608C29.0645 77.9517 29.254 98.891 5.70801 96.1088" stroke="#8CD2FF" stroke-width="3" stroke-linecap="round"/>
<ellipse cx="168.865" cy="59.2636" rx="7.13514" ry="7.22727" fill="#8CD2FF"/>
<ellipse cx="42.335" cy="35.1727" rx="5.23243" ry="5.3" fill="#FFC580"/>
<ellipse cx="93.7082" cy="6.26364" rx="6.18378" ry="6.26364" fill="#D251FF"/>
<ellipse cx="107.502" cy="12.5273" rx="2.85405" ry="2.89091" fill="#FFC480"/>
<ellipse cx="147.935" cy="137.318" rx="6.18378" ry="6.26364" fill="#4591C3"/>
<ellipse cx="47.5674" cy="133.945" rx="7.61081" ry="7.70909" fill="#64BE62"/>
<ellipse cx="132.714" cy="137.318" rx="3.32973" ry="3.37273" fill="#64BE62"/>
</svg>
