<svg width="18" height="10" viewBox="0 0 18 10" fill="none" xmlns="http://www.w3.org/2000/svg">
<path d="M0.943209 1.66476C0.576223 1.29777 0.576222 0.702772 0.943208 0.335786C1.31019 -0.0311996 1.90519 -0.0311995 2.27218 0.335786L9.80302 7.86663C10.17 8.23362 10.17 8.82862 9.80303 9.1956C9.43604 9.56259 8.84104 9.56259 8.47405 9.1956L0.943209 1.66476Z" fill="black"/>
<path d="M9.80303 9.1956C9.43604 9.56259 8.84104 9.56259 8.47405 9.1956C8.10707 8.82862 8.10764 8.23419 8.47463 7.8672L16.0055 0.336359C16.3725 -0.0306267 16.9675 -0.0306277 17.3344 0.336358C17.7014 0.703344 17.7014 1.29834 17.3344 1.66533L9.80303 9.1956Z" fill="black"/>
</svg>
