<svg width="30" height="30" viewBox="0 0 30 30" fill="none" xmlns="http://www.w3.org/2000/svg">
<g clip-path="url(#clip0_621_11466)">
<path d="M10.3636 29.3182L7.77273 24.9546L2.86364 23.8637L3.34091 18.8182L0 15.0001L3.34091 11.1819L2.86364 6.13643L7.77273 5.04552L10.3636 0.681885L15 2.65916L19.6364 0.681885L22.2273 5.04552L27.1364 6.13643L26.6591 11.1819L30 15.0001L26.6591 18.8182L27.1364 23.8637L22.2273 24.9546L19.6364 29.3182L15 27.341L10.3636 29.3182ZM13.5682 19.841L21.2727 12.1364L19.3636 10.1592L13.5682 15.9546L10.6364 13.091L8.72727 15.0001L13.5682 19.841Z" fill="black"/>
</g>
<defs>
<clipPath id="clip0_621_11466">
<rect width="30" height="30" fill="white"/>
</clipPath>
</defs>
</svg>
