<svg width="30" height="30" viewBox="0 0 30 30" fill="none" xmlns="http://www.w3.org/2000/svg">
<path d="M2.5 27.5V5C2.5 4.3125 2.745 3.72375 3.235 3.23375C3.725 2.74375 4.31333 2.49917 5 2.5H25C25.6875 2.5 26.2763 2.745 26.7663 3.235C27.2563 3.725 27.5008 4.31334 27.5 5V20C27.5 20.6875 27.255 21.2763 26.765 21.7663C26.275 22.2563 25.6867 22.5008 25 22.5H7.5L2.5 27.5ZM11.3437 17.8125L15 15.5938L18.6563 17.8125L17.6875 13.6563L20.9375 10.8438L16.6562 10.5L15 6.5625L13.3438 10.5L9.0625 10.8438L12.3125 13.6563L11.3437 17.8125Z" fill="black"/>
</svg>
