<svg width="30" height="30" viewBox="0 0 30 30" fill="none" xmlns="http://www.w3.org/2000/svg">
<path d="M18.125 22.5C18.6458 22.5 19.0883 22.3175 19.4525 21.9525C19.8175 21.5883 20 21.1458 20 20.625C20 20.1042 19.8175 19.6617 19.4525 19.2975C19.0883 18.9325 18.6458 18.75 18.125 18.75C17.6042 18.75 17.1617 18.9325 16.7975 19.2975C16.4325 19.6617 16.25 20.1042 16.25 20.625C16.25 21.1458 16.4325 21.5883 16.7975 21.9525C17.1617 22.3175 17.6042 22.5 18.125 22.5ZM11.8125 22.4375L19.9375 14.3125L18.1875 12.5625L10.0625 20.6875L11.8125 22.4375ZM11.875 16.25C12.3958 16.25 12.8383 16.0675 13.2025 15.7025C13.5675 15.3383 13.75 14.8958 13.75 14.375C13.75 13.8542 13.5675 13.4117 13.2025 13.0475C12.8383 12.6825 12.3958 12.5 11.875 12.5C11.3542 12.5 10.9117 12.6825 10.5475 13.0475C10.1825 13.4117 10 13.8542 10 14.375C10 14.8958 10.1825 15.3383 10.5475 15.7025C10.9117 16.0675 11.3542 16.25 11.875 16.25ZM15 27.5C12.1458 27.5 9.76583 26.5208 7.86 24.5625C5.95333 22.6042 5 20.1667 5 17.25C5 15.1667 5.82833 12.9012 7.485 10.4537C9.14083 8.00542 11.6458 5.35417 15 2.5C18.3542 5.35417 20.8596 8.00542 22.5163 10.4537C24.1721 12.9012 25 15.1667 25 17.25C25 20.1667 24.0467 22.6042 22.14 24.5625C20.2342 26.5208 17.8542 27.5 15 27.5Z" fill="black"/>
</svg>
