<svg width="30" height="30" viewBox="0 0 30 30" fill="none" xmlns="http://www.w3.org/2000/svg">
<path d="M5 26.875C4.3125 26.875 3.72375 26.63 3.23375 26.14C2.74375 25.65 2.49917 25.0617 2.5 24.375V10.625C2.5 9.9375 2.745 9.34875 3.235 8.85875C3.725 8.36875 4.31334 8.12417 5 8.125H10V5.625C10 4.9375 10.245 4.34875 10.735 3.85875C11.225 3.36875 11.8133 3.12417 12.5 3.125H17.5C18.1875 3.125 18.7763 3.37 19.2663 3.86C19.7563 4.35 20.0008 4.93834 20 5.625V8.125H25C25.6875 8.125 26.2763 8.37 26.7663 8.86C27.2563 9.35 27.5008 9.93834 27.5 10.625V24.375C27.5 25.0625 27.255 25.6513 26.765 26.1413C26.275 26.6313 25.6867 26.8758 25 26.875H5ZM12.5 8.125H17.5V5.625H12.5V8.125Z" fill="black"/>
</svg>
