<svg width="30" height="30" viewBox="0 0 30 30" fill="none" xmlns="http://www.w3.org/2000/svg">
<path d="M0 30V24.2H30V30H25.5V27.1H17.25V30H12.75V27.1H4.5V30H0ZM6 21.3C5.575 21.3 5.2185 21.1608 4.9305 20.8824C4.6435 20.605 4.5 20.2608 4.5 19.85V2.45C4.5 2.03917 4.6435 1.69455 4.9305 1.41615C5.2185 1.13872 5.575 1 6 1H24C24.425 1 24.781 1.13872 25.068 1.41615C25.356 1.69455 25.5 2.03917 25.5 2.45V19.85C25.5 20.2608 25.356 20.605 25.068 20.8824C24.781 21.1608 24.425 21.3 24 21.3H6ZM10.5 9.7H19.5V6.8H10.5V9.7Z" fill="black"/>
</svg>
