<svg width="30" height="30" viewBox="0 0 30 30" fill="none" xmlns="http://www.w3.org/2000/svg">
<path d="M1.44539 28C1.17747 28 0.933895 27.9335 0.714681 27.8007C0.495467 27.6678 0.324968 27.4935 0.203183 27.2778C0.0813972 27.0611 0.0141717 26.8261 0.00150598 26.5729C-0.0111597 26.3196 0.0560658 26.0731 0.203183 25.8333L13.7214 2.72222C13.8675 2.48148 14.0565 2.30093 14.2884 2.18056C14.5203 2.06019 14.7575 2 15.0001 2C15.2437 2 15.4814 2.06019 15.7133 2.18056C15.9452 2.30093 16.1337 2.48148 16.2788 2.72222L29.797 25.8333C29.9432 26.0741 30.0104 26.3211 29.9987 26.5743C29.987 26.8276 29.9198 27.0621 29.797 27.2778C29.6752 27.4944 29.5047 27.6692 29.2855 27.8021C29.0663 27.935 28.8227 28.001 28.5548 28H1.44539ZM15.0001 23.6667C15.4142 23.6667 15.7615 23.528 16.0421 23.2507C16.3227 22.9733 16.4625 22.6305 16.4615 22.2222C16.4615 21.813 16.3212 21.4697 16.0406 21.1923C15.76 20.915 15.4132 20.7768 15.0001 20.7778C14.586 20.7778 14.2387 20.9164 13.9581 21.1938C13.6775 21.4711 13.5377 21.8139 13.5387 22.2222C13.5387 22.6315 13.679 22.9748 13.9596 23.2521C14.2402 23.5294 14.587 23.6676 15.0001 23.6667ZM15.0001 19.3333C15.4142 19.3333 15.7615 19.1947 16.0421 18.9173C16.3227 18.64 16.4625 18.2972 16.4615 17.8889V13.5556C16.4615 13.1463 16.3212 12.803 16.0406 12.5257C15.76 12.2483 15.4132 12.1101 15.0001 12.1111C14.586 12.1111 14.2387 12.2498 13.9581 12.5271C13.6775 12.8044 13.5377 13.1473 13.5387 13.5556V17.8889C13.5387 18.2981 13.679 18.6414 13.9596 18.9188C14.2402 19.1961 14.587 19.3343 15.0001 19.3333Z" fill="black"/>
</svg>
