<svg width="30" height="30" viewBox="0 0 30 30" fill="none" xmlns="http://www.w3.org/2000/svg">
<path d="M15 20.625L20 15.625H10L15 20.625ZM6.25 26.25C5.5625 26.25 4.97375 26.005 4.48375 25.515C3.99375 25.025 3.74917 24.4367 3.75 23.75V6.25C3.75 5.5625 3.995 4.97375 4.485 4.48375C4.975 3.99375 5.56334 3.74917 6.25 3.75H23.75C24.4375 3.75 25.0263 3.995 25.5163 4.485C26.0063 4.975 26.2508 5.56334 26.25 6.25V23.75C26.25 24.4375 26.005 25.0263 25.515 25.5163C25.025 26.0063 24.4367 26.2508 23.75 26.25H6.25ZM6.25 12.5V23.75H23.75V12.5H6.25Z" fill="black"/>
</svg>
