<svg width="30" height="30" viewBox="0 0 30 30" fill="none" xmlns="http://www.w3.org/2000/svg">
<path d="M15.875 14L14.0625 12.2188C13.8333 11.9896 13.5467 11.875 13.2025 11.875C12.8583 11.875 12.5617 12 12.3125 12.25C12.0833 12.4792 11.9688 12.7708 11.9688 13.125C11.9688 13.4792 12.0833 13.7708 12.3125 14L15 16.6875C15.25 16.9375 15.5417 17.0625 15.875 17.0625C16.2083 17.0625 16.5 16.9375 16.75 16.6875L22.0625 11.375C22.3125 11.125 22.4325 10.8333 22.4225 10.5C22.4125 10.1667 22.2925 9.875 22.0625 9.625C21.8125 9.375 21.5158 9.24459 21.1725 9.23375C20.8292 9.22292 20.5321 9.34292 20.2813 9.59375L15.875 14ZM10 22.5C9.3125 22.5 8.72375 22.255 8.23375 21.765C7.74375 21.275 7.49917 20.6867 7.5 20V5C7.5 4.3125 7.745 3.72375 8.235 3.23375C8.725 2.74375 9.31334 2.49917 10 2.5H25C25.6875 2.5 26.2763 2.745 26.7663 3.235C27.2563 3.725 27.5008 4.31334 27.5 5V20C27.5 20.6875 27.255 21.2763 26.765 21.7663C26.275 22.2563 25.6867 22.5008 25 22.5H10ZM5 27.5C4.3125 27.5 3.72375 27.255 3.23375 26.765C2.74375 26.275 2.49917 25.6867 2.5 25V8.75C2.5 8.39584 2.62 8.09875 2.86 7.85875C3.1 7.61875 3.39667 7.49917 3.75 7.5C4.10417 7.5 4.40125 7.62 4.64125 7.86C4.88125 8.1 5.00084 8.39667 5 8.75V25H21.25C21.6042 25 21.9013 25.12 22.1413 25.36C22.3813 25.6 22.5008 25.8967 22.5 26.25C22.5 26.6042 22.38 26.9013 22.14 27.1413C21.9 27.3813 21.6033 27.5008 21.25 27.5H5Z" fill="black"/>
</svg>
