<svg width="30" height="30" viewBox="0 0 30 30" fill="none" xmlns="http://www.w3.org/2000/svg">
<path d="M24.5 19.9688C24.0208 19.9688 23.5471 19.9112 23.0787 19.7962C22.6096 19.6821 22.1562 19.5417 21.7188 19.375C21.3437 19.2083 20.9633 19.0625 20.5775 18.9375C20.1925 18.8125 19.7917 18.75 19.375 18.75C18.8958 18.75 18.4271 18.8333 17.9688 19C17.5104 19.1667 17.0625 19.3646 16.625 19.5938L15.875 17.875C16.4167 17.5833 16.9842 17.3438 17.5775 17.1563C18.1717 16.9688 18.7708 16.875 19.375 16.875C19.8542 16.875 20.3279 16.9321 20.7962 17.0463C21.2654 17.1613 21.7188 17.3021 22.1563 17.4688C22.5313 17.6354 22.9117 17.7812 23.2975 17.9062C23.6825 18.0312 24.0833 18.0938 24.5 18.0938C24.9792 18.0938 25.4479 18.0104 25.9063 17.8437C26.3646 17.6771 26.8125 17.4792 27.25 17.25L28 18.9688C27.4583 19.2604 26.8908 19.5 26.2975 19.6875C25.7033 19.875 25.1042 19.9688 24.5 19.9688V19.9688ZM24.5 23.7188C24.0208 23.7188 23.5471 23.6612 23.0787 23.5462C22.6096 23.4321 22.1562 23.2917 21.7188 23.125C21.3437 22.9583 20.9633 22.8125 20.5775 22.6875C20.1925 22.5625 19.7917 22.5 19.375 22.5C18.8958 22.5 18.4271 22.5833 17.9688 22.75C17.5104 22.9167 17.0625 23.1146 16.625 23.3437L15.875 21.625C16.4167 21.3333 16.9842 21.0938 17.5775 20.9063C18.1717 20.7188 18.7708 20.625 19.375 20.625C19.8542 20.625 20.3279 20.6821 20.7962 20.7962C21.2654 20.9112 21.7188 21.0521 22.1563 21.2188C22.5313 21.3854 22.9117 21.5313 23.2975 21.6563C23.6825 21.7813 24.0833 21.8438 24.5 21.8438C24.9792 21.8438 25.4479 21.7604 25.9063 21.5937C26.3646 21.4271 26.8125 21.2292 27.25 21L28 22.7187C27.4583 23.0104 26.8908 23.25 26.2975 23.4375C25.7033 23.625 25.1042 23.7188 24.5 23.7188V23.7188ZM24.5 27.4688C24.0208 27.4688 23.5471 27.4112 23.0787 27.2962C22.6096 27.1821 22.1562 27.0417 21.7188 26.875C21.3437 26.7083 20.9633 26.5625 20.5775 26.4375C20.1925 26.3125 19.7917 26.25 19.375 26.25C18.8958 26.25 18.4271 26.3333 17.9688 26.5C17.5104 26.6667 17.0625 26.8646 16.625 27.0937L15.875 25.375C16.4167 25.0833 16.9842 24.8438 17.5775 24.6563C18.1717 24.4688 18.7708 24.375 19.375 24.375C19.8542 24.375 20.3279 24.4321 20.7962 24.5462C21.2654 24.6612 21.7188 24.8021 22.1563 24.9688C22.5313 25.1354 22.9117 25.2813 23.2975 25.4063C23.6825 25.5313 24.0833 25.5938 24.5 25.5938C24.9792 25.5938 25.4479 25.5104 25.9063 25.3437C26.3646 25.1771 26.8125 24.9792 27.25 24.75L28 26.4687C27.4583 26.7604 26.8908 27 26.2975 27.1875C25.7033 27.375 25.1042 27.4688 24.5 27.4688V27.4688ZM13.75 25.5625C11.2917 25.25 9.21875 24.1667 7.53125 22.3125C5.84375 20.4583 5 18.2708 5 15.75C5 14.375 5.25542 13.0987 5.76625 11.9212C6.27625 10.7446 7 9.70833 7.9375 8.8125L15 1.875L22.0625 8.8125C22.8125 9.54167 23.4325 10.375 23.9225 11.3125C24.4117 12.25 24.7396 13.2604 24.9062 14.3438H16.25C15.5625 14.3438 14.9742 14.5883 14.485 15.0775C13.995 15.5675 13.75 16.1563 13.75 16.8438V25.5625Z" fill="black"/>
</svg>
