<svg width="30" height="30" viewBox="0 0 30 30" fill="none" xmlns="http://www.w3.org/2000/svg">
<path d="M24.5625 25.4375L25.4375 24.5625L23.125 22.25V18.75H21.875V22.75L24.5625 25.4375ZM12.5 7.5H17.5V5H12.5V7.5ZM22.5 28.75C20.7708 28.75 19.2967 28.1404 18.0775 26.9213C16.8583 25.7021 16.2492 24.2283 16.25 22.5C16.25 20.7708 16.8596 19.2967 18.0788 18.0775C19.2979 16.8583 20.7717 16.2492 22.5 16.25C24.2292 16.25 25.7033 16.8596 26.9225 18.0788C28.1417 19.2979 28.7508 20.7717 28.75 22.5C28.75 24.2292 28.1404 25.7033 26.9213 26.9225C25.7021 28.1417 24.2283 28.7508 22.5 28.75ZM5 26.25C4.3125 26.25 3.72375 26.005 3.23375 25.515C2.74375 25.025 2.49917 24.4367 2.5 23.75V10C2.5 9.3125 2.745 8.72375 3.235 8.23375C3.725 7.74375 4.31334 7.49917 5 7.5H10V5C10 4.3125 10.245 3.72375 10.735 3.23375C11.225 2.74375 11.8133 2.49917 12.5 2.5H17.5C18.1875 2.5 18.7763 2.745 19.2663 3.235C19.7563 3.725 20.0008 4.31334 20 5V7.5H25C25.6875 7.5 26.2763 7.745 26.7663 8.235C27.2563 8.725 27.5008 9.31334 27.5 10V15.3438C26.7708 14.8229 25.9792 14.4271 25.125 14.1563C24.2708 13.8854 23.3958 13.75 22.5 13.75C20.0833 13.75 18.0208 14.6042 16.3125 16.3125C14.6042 18.0208 13.75 20.0833 13.75 22.5C13.75 23.1458 13.8179 23.7867 13.9538 24.4225C14.0896 25.0583 14.3029 25.6675 14.5938 26.25H5Z" fill="black"/>
</svg>
