<svg width="30" height="30" viewBox="0 0 30 30" fill="none" xmlns="http://www.w3.org/2000/svg">
<path d="M5 27.5V20C5 19.3125 5.245 18.7238 5.735 18.2338C6.225 17.7438 6.81333 17.4992 7.5 17.5H22.5C23.1875 17.5 23.7763 17.745 24.2663 18.235C24.7563 18.725 25.0008 19.3133 25 20V27.5H5ZM7.5 22.5H22.5V20H7.5V22.5ZM15 17.5L8.75 8.75C8.75 7.02083 9.35958 5.54667 10.5788 4.3275C11.7979 3.10833 13.2717 2.49917 15 2.5C16.7292 2.5 18.2033 3.10958 19.4225 4.32875C20.6417 5.54792 21.2508 7.02167 21.25 8.75L15 17.5Z" fill="black"/>
</svg>
