<svg width="30" height="30" viewBox="0 0 30 30" fill="none" xmlns="http://www.w3.org/2000/svg">
<path d="M19.3026 25.0722L22.0658 22.35L24.8289 25.0722L26.0132 23.9056L23.2895 21.2222L26.0526 18.5L24.8684 17.3333L22.1053 20.0556L19.3421 17.3333L18.1579 18.5L20.9211 21.2222L18.1579 23.9444L19.3026 25.0722ZM0 25.8889V16.5556L12.6316 13.4444L0 10.3333V1L22.5789 10.3333H22.1053C19.0263 10.3333 16.4142 11.403 14.2689 13.5424C12.1237 15.6819 11.0516 18.2677 11.0526 21.3L0 25.8889ZM22.1053 29C19.9211 29 18.0589 28.2414 16.5189 26.7242C14.9789 25.207 14.2095 23.373 14.2105 21.2222C14.2105 19.0704 14.9805 17.2359 16.5205 15.7187C18.0605 14.2015 19.9221 13.4434 22.1053 13.4444C24.2895 13.4444 26.1516 14.203 27.6916 15.7202C29.2316 17.2374 30.0011 19.0714 30 21.2222C30 23.3741 29.23 25.2086 27.69 26.7258C26.15 28.243 24.2884 29.001 22.1053 29Z" fill="black"/>
</svg>
