<svg width="30" height="30" viewBox="0 0 30 30" fill="none" xmlns="http://www.w3.org/2000/svg">
<path d="M6.4 6.25L7.4125 5H22.4125L23.5875 6.25M15 21.875L8.125 15H12.5V12.5H17.5V15H21.875L15 21.875ZM25.675 6.5375L23.9375 4.4375C23.6 4.0125 23.0875 3.75 22.5 3.75H7.5C6.9125 3.75 6.4 4.0125 6.05 4.4375L4.325 6.5375C3.9625 6.9625 3.75 7.5 3.75 8.125V23.75C3.75 24.413 4.01339 25.0489 4.48223 25.5178C4.95107 25.9866 5.58696 26.25 6.25 26.25H23.75C24.413 26.25 25.0489 25.9866 25.5178 25.5178C25.9866 25.0489 26.25 24.413 26.25 23.75V8.125C26.25 7.5 26.0375 6.9625 25.675 6.5375Z" fill="black"/>
</svg>
