<svg width="30" height="30" viewBox="0 0 30 30" fill="none" xmlns="http://www.w3.org/2000/svg">
<path d="M3.75 20.625C3.75 21.1 4.0125 21.5125 4.4125 21.725L14.2875 27.275C14.4875 27.425 14.7375 27.5 15 27.5C15.2625 27.5 15.5125 27.425 15.7125 27.275L25.5875 21.725C25.7879 21.6197 25.9556 21.4615 26.0724 21.2675C26.1892 21.0736 26.2506 20.8514 26.25 20.625V9.375C26.25 8.9 25.9875 8.4875 25.5875 8.275L15.7125 2.725C15.5125 2.575 15.2625 2.5 15 2.5C14.7375 2.5 14.4875 2.575 14.2875 2.725L4.4125 8.275C4.0125 8.4875 3.75 8.9 3.75 9.375V20.625ZM15 5.1875L17.3625 6.525L10 10.7625L7.55 9.375L15 5.1875ZM22.45 9.375L15 13.5625L12.55 12.1875L19.9 7.9375L22.45 9.375ZM23.75 19.8875L16.25 24.1125V15.725L23.75 11.5125V19.8875ZM6.25 19.8875V11.5125L13.75 15.725V24.1125L6.25 19.8875V19.8875Z" fill="black"/>
</svg>
