<svg width="30" height="30" viewBox="0 0 30 30" fill="none" xmlns="http://www.w3.org/2000/svg">
<path d="M12.5 7.75C12.5 5.375 11 3.25 8.75 2.5V7.125H5V2.5C2.75 3.25 1.25 5.375 1.25 7.75C1.25 10.125 2.75 12.25 5 13V26.75C5 27.25 5.25 27.5 5.625 27.5H8.125C8.5 27.5 8.75 27.25 8.75 26.875V13.125C11 12.375 12.5 10.25 12.5 7.75ZM20 10C15.125 10.125 11.25 14 11.25 18.75C11.25 23.625 15.125 27.5 20 27.5C24.875 27.5 28.75 23.625 28.75 18.75C28.75 13.875 24.875 10 20 10ZM20 25C16.5 25 13.75 22.25 13.75 18.75C13.75 15.25 16.5 12.5 20 12.5C23.5 12.5 26.25 15.25 26.25 18.75C26.25 22.25 23.5 25 20 25ZM18.75 13.75V20L23.25 22.75L24.25 21.25L20.625 19.125V13.75H18.75Z" fill="black"/>
</svg>
