<svg width="31" height="30" viewBox="0 0 31 30" fill="none" xmlns="http://www.w3.org/2000/svg">
<path d="M26.2627 23.125V24.375H3.7627V23.125L6.2627 20.625V13.125C6.2627 9.25 8.8002 5.8375 12.5127 4.7375V4.375C12.5127 3.71196 12.7761 3.07608 13.2449 2.60723C13.7138 2.13839 14.3497 1.875 15.0127 1.875C15.6757 1.875 16.3116 2.13839 16.7805 2.60723C17.2493 3.07608 17.5127 3.71196 17.5127 4.375V4.7375C21.2252 5.8375 23.7627 9.25 23.7627 13.125V20.625L26.2627 23.125ZM17.5127 25.625C17.5127 26.288 17.2493 26.9239 16.7805 27.3928C16.3116 27.8616 15.6757 28.125 15.0127 28.125C14.3497 28.125 13.7138 27.8616 13.2449 27.3928C12.7761 26.9239 12.5127 26.288 12.5127 25.625" fill="black"/>
</svg>
