<svg width="30" height="30" viewBox="0 0 30 30" fill="none" xmlns="http://www.w3.org/2000/svg">
<path d="M15.5 20.5263C8.59375 20.5263 3 23.3526 3 26.8421V30H28V26.8421C28 23.3526 22.4063 20.5263 15.5 20.5263ZM9.25 11.0526C9.25 12.7277 9.90848 14.3341 11.0806 15.5186C12.2527 16.703 13.8424 17.3684 15.5 17.3684C17.1576 17.3684 18.7473 16.703 19.9194 15.5186C21.0915 14.3341 21.75 12.7277 21.75 11.0526M14.7188 0C14.25 0 13.9375 0.331579 13.9375 0.789474V5.52632H12.375V1.57895C12.375 1.57895 8.85938 2.93684 8.85938 7.5C8.85938 7.5 7.6875 7.72105 7.6875 9.47368H23.3125C23.2344 7.72105 22.1406 7.5 22.1406 7.5C22.1406 2.93684 18.625 1.57895 18.625 1.57895V5.52632H17.0625V0.789474C17.0625 0.331579 16.7656 0 16.2812 0H14.7188Z" fill="black"/>
</svg>
