<svg width="30" height="30" viewBox="0 0 30 30" fill="none" xmlns="http://www.w3.org/2000/svg">
<path d="M22.6389 1.49986H28.75V4.49957H22.6389V1.49986ZM22.6389 7.49929H28.75V10.499H22.6389V7.49929ZM22.6389 13.4987H28.75V16.4984H23.7847L22.6389 15.1486V13.4987ZM28.75 19.4981V22.4979H25.6944C25.6944 21.463 25.5417 20.4431 25.2514 19.4981H28.75ZM7.36111 1.49986V4.49957H1.25V1.49986H7.36111ZM7.36111 7.49929V10.499H1.25V7.49929H7.36111ZM7.36111 13.4987V15.1486L6.21528 16.4984H1.25V13.4987H7.36111ZM1.25 19.4981H4.74861C4.45833 20.4431 4.30556 21.463 4.30556 22.4979H1.25V19.4981ZM19.5833 16.4984V4.49957C19.5833 2.00981 17.5361 0 15 0C12.4639 0 10.4167 2.00981 10.4167 4.49957V16.4984C7.04028 18.9882 6.35278 23.6828 8.88889 26.9974C11.425 30.3121 16.2069 30.9871 19.5833 28.4973C22.9597 26.0075 23.6472 21.313 21.1111 17.9983C20.6811 17.4262 20.1661 16.9206 19.5833 16.4984ZM15 2.99972C15.8403 2.99972 16.5278 3.67465 16.5278 4.49957V8.99915H13.4722V4.49957C13.4722 3.67465 14.1597 2.99972 15 2.99972Z" fill="black"/>
</svg>
