<svg width="30" height="30" viewBox="0 0 30 30" fill="none" xmlns="http://www.w3.org/2000/svg">
<path d="M13.7494 7.50061H17.4994L21.6119 3.37561C21.7281 3.25845 21.8664 3.16545 22.0187 3.10199C22.171 3.03853 22.3344 3.00586 22.4994 3.00586C22.6644 3.00586 22.8278 3.03853 22.9801 3.10199C23.1325 3.16545 23.2707 3.25845 23.3869 3.37561L26.6119 6.61311C26.8447 6.84731 26.9754 7.16412 26.9754 7.49436C26.9754 7.82459 26.8447 8.1414 26.6119 8.37561L23.7494 11.2506H13.7494V13.7506C13.7494 14.0821 13.6177 14.4001 13.3833 14.6345C13.1489 14.8689 12.8309 15.0006 12.4994 15.0006C12.1679 15.0006 11.85 14.8689 11.6155 14.6345C11.3811 14.4001 11.2494 14.0821 11.2494 13.7506V10.0006C11.2494 9.33757 11.5128 8.70168 11.9817 8.23284C12.4505 7.764 13.0864 7.50061 13.7494 7.50061ZM6.24943 13.7506V18.7506L3.38693 21.6131C3.15411 21.8473 3.02344 22.1641 3.02344 22.4944C3.02344 22.8246 3.15411 23.1414 3.38693 23.3756L6.61193 26.6131C6.72813 26.7303 6.86638 26.8233 7.01871 26.8867C7.17103 26.9502 7.33441 26.9829 7.49943 26.9829C7.66444 26.9829 7.82783 26.9502 7.98015 26.8867C8.13247 26.8233 8.27072 26.7303 8.38693 26.6131L13.7494 21.2506H18.7494C19.0809 21.2506 19.3989 21.1189 19.6333 20.8845C19.8677 20.6501 19.9994 20.3321 19.9994 20.0006V18.7506H21.2494C21.5809 18.7506 21.8989 18.6189 22.1333 18.3845C22.3677 18.1501 22.4994 17.8321 22.4994 17.5006V16.2506H23.7494C24.0809 16.2506 24.3989 16.1189 24.6333 15.8845C24.8677 15.6501 24.9994 15.3321 24.9994 15.0006V13.7506H16.2494V15.0006C16.2494 15.6636 15.986 16.2995 15.5172 16.7684C15.0484 17.2372 14.4125 17.5006 13.7494 17.5006H11.2494C10.5864 17.5006 9.9505 17.2372 9.48166 16.7684C9.01282 16.2995 8.74943 15.6636 8.74943 15.0006V11.2506L6.24943 13.7506Z" fill="black"/>
</svg>
