<svg width="30" height="30" viewBox="0 0 30 30" fill="none" xmlns="http://www.w3.org/2000/svg">
<path d="M26.25 13.8875V6.25C26.25 5.58696 25.9866 4.95107 25.5178 4.48223C25.0489 4.01339 24.413 3.75 23.75 3.75H18.525C18 2.3 16.625 1.25 15 1.25C13.375 1.25 12 2.3 11.475 3.75H6.25C4.875 3.75 3.75 4.875 3.75 6.25V23.75C3.75 24.413 4.01339 25.0489 4.48223 25.5178C4.95107 25.9866 5.58696 26.25 6.25 26.25H13.8875C15.4625 27.8 17.6125 28.75 20 28.75C24.8375 28.75 28.75 24.8375 28.75 20C28.75 17.6125 27.8 15.4625 26.25 13.8875ZM15 3.75C15.6875 3.75 16.25 4.3125 16.25 5C16.25 5.6875 15.6875 6.25 15 6.25C14.3125 6.25 13.75 5.6875 13.75 5C13.75 4.3125 14.3125 3.75 15 3.75ZM7.5 8.75H22.5V11.25H7.5V8.75ZM11.35 21.25H7.5V18.75H11.35C11.2875 19.1625 11.25 19.575 11.25 20C11.25 20.425 11.2875 20.8375 11.35 21.25ZM7.5 16.25V13.75H13.8875C13.125 14.4625 12.55 15.3125 12.1 16.25H7.5ZM20 26.25C16.55 26.25 13.75 23.45 13.75 20C13.75 16.55 16.55 13.75 20 13.75C23.45 13.75 26.25 16.55 26.25 20C26.25 23.45 23.45 26.25 20 26.25ZM20.625 20.3125L24.2 22.425L23.2625 23.95L18.75 21.25V15H20.625V20.3125Z" fill="black"/>
</svg>
