<svg width="30" height="30" viewBox="0 0 30 30" fill="none" xmlns="http://www.w3.org/2000/svg">
<path d="M22.6141 14.7125L24.4516 22.625L17.5016 18.425L10.5516 22.625L12.3766 14.7125L6.25164 9.375L14.3391 8.7L17.5016 1.25L20.6641 8.7L28.7516 9.375L22.6141 14.7125ZM2.50164 15.5375C2.73914 15.5375 2.97664 15.4625 3.18914 15.325L7.18914 12.6875L5.22664 10.9875L1.81414 13.2375C1.23789 13.6125 1.07789 14.375 1.45164 15C1.70164 15.3375 2.10164 15.5375 2.50164 15.5375ZM1.45164 26.9375C1.70164 27.3 2.10164 27.5 2.50164 27.5C2.73914 27.5 2.97664 27.4375 3.18914 27.3L8.32664 23.9125L8.75164 22.2L9.13914 20.3875L1.81414 25.2C1.23789 25.5875 1.07789 26.3625 1.45164 26.9375ZM1.81414 19.225C1.53809 19.4063 1.34501 19.6895 1.27709 20.0127C1.20916 20.3359 1.27192 20.6729 1.45164 20.95C1.70164 21.325 2.10164 21.5125 2.50164 21.5125C2.73914 21.5125 2.97664 21.45 3.18914 21.3125L9.96414 16.875L10.3016 15.3875L9.15164 14.375L1.81414 19.225Z" fill="black"/>
</svg>
