<svg width="50" height="50" viewBox="0 0 50 50" fill="none" xmlns="http://www.w3.org/2000/svg">
<path d="M25.5 10C24.837 10 24.2011 9.73661 23.7322 9.26777C23.2634 8.79893 23 8.16304 23 7.5C23 6.83696 23.2634 6.20107 23.7322 5.73223C24.2011 5.26339 24.837 5 25.5 5C26.163 5 26.7989 5.26339 27.2678 5.73223C27.7366 6.20107 28 6.83696 28 7.5C28 8.16304 27.7366 8.79893 27.2678 9.26777C26.7989 9.73661 26.163 10 25.5 10ZM28 32.5H23V17.5H28M28 42.5H23V37.5H28M43 5H32.55C31.5 2.1 28.75 0 25.5 0C22.25 0 19.5 2.1 18.45 5H8C6.67392 5 5.40215 5.52678 4.46447 6.46447C3.52678 7.40215 3 8.67392 3 10V45C3 46.3261 3.52678 47.5979 4.46447 48.5355C5.40215 49.4732 6.67392 50 8 50H43C44.3261 50 45.5979 49.4732 46.5355 48.5355C47.4732 47.5979 48 46.3261 48 45V10C48 8.67392 47.4732 7.40215 46.5355 6.46447C45.5979 5.52678 44.3261 5 43 5Z" fill="black"/>
</svg>
