<svg width="31" height="31" viewBox="0 0 31 31" fill="none" xmlns="http://www.w3.org/2000/svg">
<path d="M24.7009 25.5H7.01955V11.75H24.7009M20.912 3V5.5H10.8084V3H8.28251V5.5H7.01955C5.61768 5.5 4.49365 6.6125 4.49365 8V25.5C4.49365 26.163 4.75977 26.7989 5.23347 27.2678C5.70717 27.7366 6.34964 28 7.01955 28H24.7009C25.3708 28 26.0133 27.7366 26.4869 27.2678C26.9606 26.7989 27.2268 26.163 27.2268 25.5V8C27.2268 7.33696 26.9606 6.70107 26.4869 6.23223C26.0133 5.76339 25.3708 5.5 24.7009 5.5H23.4379V3M22.175 16.75H15.8602V23H22.175V16.75Z" fill="black"/>
</svg>
