<svg width="30" height="30" viewBox="0 0 30 30" fill="none" xmlns="http://www.w3.org/2000/svg">
<g clip-path="url(#clip0_603_11468)">
<path d="M15 14.25C14.0054 14.25 13.0516 13.8549 12.3483 13.1517C11.6451 12.4484 11.25 11.4946 11.25 10.5C11.25 9.50544 11.6451 8.55161 12.3483 7.84835C13.0516 7.14509 14.0054 6.75 15 6.75C15.9946 6.75 16.9484 7.14509 17.6517 7.84835C18.3549 8.55161 18.75 9.50544 18.75 10.5C18.75 10.9925 18.653 11.4801 18.4645 11.9351C18.2761 12.39 17.9999 12.8034 17.6517 13.1517C17.3034 13.4999 16.89 13.7761 16.4351 13.9645C15.9801 14.153 15.4925 14.25 15 14.25ZM15 0C12.2152 0 9.54451 1.10625 7.57538 3.07538C5.60625 5.04451 4.5 7.71523 4.5 10.5C4.5 18.375 15 30 15 30C15 30 25.5 18.375 25.5 10.5C25.5 7.71523 24.3938 5.04451 22.4246 3.07538C20.4555 1.10625 17.7848 0 15 0Z" fill="black"/>
</g>
<defs>
<clipPath id="clip0_603_11468">
<rect width="30" height="30" fill="white"/>
</clipPath>
</defs>
</svg>
