<svg width="30" height="30" viewBox="0 0 30 30" fill="none" xmlns="http://www.w3.org/2000/svg">
<path d="M29.375 21.25L23.125 27.5L18.75 23.125L20.625 21.25L23.125 23.75L27.5 19.375L29.375 21.25ZM15 11.25C15.9946 11.25 16.9484 11.6451 17.6517 12.3483C18.3549 13.0516 18.75 14.0054 18.75 15C18.75 15.9946 18.3549 16.9484 17.6517 17.6517C16.9484 18.3549 15.9946 18.75 15 18.75C14.0054 18.75 13.0516 18.3549 12.3483 17.6517C11.6451 16.9484 11.25 15.9946 11.25 15C11.25 14.0054 11.6451 13.0516 12.3483 12.3483C13.0516 11.6451 14.0054 11.25 15 11.25ZM15 21.25C15.625 21.25 16.2125 21.1625 16.775 20.9875C16.4375 21.875 16.25 22.775 16.25 23.75V24.3125L15 24.375C8.75 24.375 3.4125 20.4875 1.25 15C3.4125 9.5125 8.75 5.625 15 5.625C21.25 5.625 26.5875 9.5125 28.75 15C28.4375 15.8 28.05 16.575 27.6 17.3125C26.475 16.6375 25.15 16.25 23.75 16.25C22.775 16.25 21.875 16.4375 20.9875 16.775C21.1625 16.2125 21.25 15.625 21.25 15C21.25 13.3424 20.5915 11.7527 19.4194 10.5806C18.2473 9.40848 16.6576 8.75 15 8.75C13.3424 8.75 11.7527 9.40848 10.5806 10.5806C9.40848 11.7527 8.75 13.3424 8.75 15C8.75 16.6576 9.40848 18.2473 10.5806 19.4194C11.7527 20.5915 13.3424 21.25 15 21.25Z" fill="black"/>
</svg>
