<svg width="30" height="30" viewBox="0 0 30 30" fill="none" xmlns="http://www.w3.org/2000/svg">
<path d="M19 16.5V4.5C19 3.30653 18.5259 2.16193 17.682 1.31802C16.8381 0.474106 15.6935 0 14.5 0C13.3065 0 12.1619 0.474106 11.318 1.31802C10.4741 2.16193 10 3.30653 10 4.5V16.5C8.74071 17.4445 7.8105 18.7612 7.34115 20.2637C6.8718 21.7663 6.8871 23.3784 7.38488 24.8717C7.88266 26.365 8.83768 27.6639 10.1147 28.5843C11.3917 29.5047 12.9259 30 14.5 30C16.0741 30 17.6083 29.5047 18.8853 28.5843C20.1623 27.6639 21.1173 26.365 21.6151 24.8717C22.1129 23.3784 22.1282 21.7663 21.6589 20.2637C21.1895 18.7612 20.2593 17.4445 19 16.5M14.5 3C14.8978 3 15.2794 3.15804 15.5607 3.43934C15.842 3.72064 16 4.10218 16 4.5V9H13V4.5C13 4.10218 13.158 3.72064 13.4393 3.43934C13.7206 3.15804 14.1022 3 14.5 3V3Z" fill="black"/>
</svg>
