<svg width="50" height="50" viewBox="0 0 50 50" fill="none" xmlns="http://www.w3.org/2000/svg">
<g clip-path="url(#clip0_294_439)">
<path d="M44.4444 0H5.55556C2.5 0 0 2.5 0 5.55556V44.4444C0 47.5 2.5 50 5.55556 50H44.4444C47.5 50 50 47.5 50 44.4444V5.55556C50 2.5 47.5 0 44.4444 0ZM27.7778 11.3889L30.8333 8.33333L34.7222 12.2222L38.6111 8.33333L41.6667 11.3889L37.7778 15.2778L41.6667 19.1667L38.6111 22.2222L34.7222 18.3333L30.8333 22.2222L27.7778 19.1667L31.6667 15.2778L27.7778 11.3889ZM8.88889 13.0556H22.7778V17.2222H8.88889V13.0556ZM23.6111 36.1111H18.0556V41.6667H13.8889V36.1111H8.33333V31.9444H13.8889V26.3889H18.0556V31.9444H23.6111V36.1111ZM41.6667 39.4444H27.7778V35.2778H41.6667V39.4444ZM41.6667 32.7778H27.7778V28.6111H41.6667V32.7778Z" fill="black"/>
</g>
<defs>
<clipPath id="clip0_294_439">
<rect width="50" height="50" fill="white"/>
</clipPath>
</defs>
</svg>
