<svg width="30" height="30" viewBox="0 0 30 30" fill="none" xmlns="http://www.w3.org/2000/svg">
<path d="M25 7.5H2.5V2.5H25V7.5ZM20.625 15H18.75V21.25L23.2625 23.95L24.2 22.425L20.625 20.3125V15ZM28.75 20C28.75 24.8375 24.8375 28.75 20 28.75C17.025 28.75 14.4125 27.2625 12.825 25H3.75V8.75H23.75V12.1C26.7 13.5125 28.75 16.5125 28.75 20ZM10 15H12.825C13.5375 13.9875 14.45 13.125 15.5125 12.5H10.625C10.275 12.5 10 12.775 10 13.125V15ZM26.25 20C26.25 16.55 23.45 13.75 20 13.75C16.55 13.75 13.75 16.55 13.75 20C13.75 23.45 16.55 26.25 20 26.25C23.45 26.25 26.25 23.45 26.25 20Z" fill="black"/>
</svg>
