<svg width="30" height="30" viewBox="0 0 30 30" fill="none" xmlns="http://www.w3.org/2000/svg">
<path d="M15 1.25L3.75 6.25V13.75C3.75 20.6875 8.55 27.175 15 28.75C21.45 27.175 26.25 20.6875 26.25 13.75V6.25L15 1.25ZM15 8.75C16.75 8.75 18.5 10.125 18.5 11.875V13.75C19.25 13.75 20 14.5 20 15.375V19.75C20 20.5 19.25 21.25 18.375 21.25H11.5C10.75 21.25 10 20.5 10 19.625V15.25C10 14.5 10.75 13.75 11.5 13.75V11.875C11.5 10.125 13.25 8.75 15 8.75ZM15 10.25C14 10.25 13.125 10.875 13.125 11.875V13.75H16.875V11.875C16.875 10.875 16 10.25 15 10.25Z" fill="black"/>
</svg>
