<svg width="30" height="30" viewBox="0 0 30 30" fill="none" xmlns="http://www.w3.org/2000/svg">
<path d="M17.5 2.5C14.8478 2.5 12.3043 3.55357 10.4289 5.42893C8.55357 7.3043 7.5 9.84784 7.5 12.5C7.5 15.1522 8.55357 17.6957 10.4289 19.5711C12.3043 21.4464 14.8478 22.5 17.5 22.5C20.1522 22.5 22.6957 21.4464 24.5711 19.5711C26.4464 17.6957 27.5 15.1522 27.5 12.5C27.5 9.84784 26.4464 7.3043 24.5711 5.42893C22.6957 3.55357 20.1522 2.5 17.5 2.5M6.1625 7.275C5.01965 8.21245 4.09854 9.39131 3.4653 10.7269C2.83206 12.0626 2.50241 13.5219 2.5 15C2.5 17.6522 3.55357 20.1957 5.42893 22.0711C7.3043 23.9464 9.84784 25 12.5 25C13.3 25 14.0875 24.9 14.85 24.7125C12.65 24.225 10.625 23.125 8.9625 21.6125C7.76546 20.972 6.76467 20.0187 6.06684 18.8542C5.369 17.6897 5.00029 16.3576 5 15C5 14.625 5.0375 14.2625 5.0875 13.8875C5.0375 13.425 5 12.9625 5 12.5C5 10.7 5.4 8.9125 6.1625 7.275Z" fill="black"/>
</svg>
