<svg width="30" height="30" viewBox="0 0 30 30" fill="none" xmlns="http://www.w3.org/2000/svg">
<path d="M9.87487 26.8384C8.72672 25.8319 7.90775 24.5035 7.52434 23.0256C7.14093 21.5476 7.2108 19.9886 7.72487 18.5509L10.3874 11.1384C10.4486 10.9671 10.5574 10.8168 10.701 10.7052C10.8446 10.5936 11.0171 10.5252 11.1982 10.5082C11.3792 10.4911 11.5614 10.5261 11.7234 10.6089C11.8853 10.6918 12.0202 10.8191 12.1124 10.9759L12.4999 11.6634C12.7999 12.1509 12.8624 12.7509 12.6749 13.2884L11.4499 16.7134L11.9874 17.1884L19.4374 8.7509C19.8749 8.2509 20.6249 8.2009 21.1374 8.6384C21.6249 9.0759 21.6749 9.8384 21.2499 10.3259L15.6874 16.6134L16.4124 17.2509L23.2249 9.5259C23.6624 9.0259 24.4249 8.9759 24.9124 9.4134C25.4124 9.8509 25.4624 10.6259 24.9999 11.1134L18.1999 18.8384L18.9249 19.4759L24.7874 12.8259C25.2249 12.3259 25.9874 12.2759 26.4749 12.7134C26.9624 13.1509 27.0249 13.9134 26.5874 14.3759L20.7249 21.0509L21.4374 21.6884L25.3999 17.2009C25.8374 16.7009 26.5999 16.6509 27.0999 17.0884C27.5999 17.5259 27.6374 18.2884 27.1999 18.7509L20.6999 26.1509C20.0348 26.9077 19.227 27.5258 18.3227 27.97C17.4184 28.4143 16.4354 28.6758 15.4299 28.7396C14.4245 28.8035 13.4163 28.6684 12.4631 28.3422C11.5099 28.016 10.6304 27.5049 9.87487 26.8384ZM14.4874 11.5259L18.0374 7.5009C18.3374 7.1634 18.7124 6.8759 19.1249 6.7134L19.5999 5.7384C19.6705 5.59755 19.7124 5.444 19.7229 5.28677C19.7334 5.12954 19.7125 4.97179 19.6613 4.82276C19.61 4.67374 19.5296 4.53644 19.4246 4.41892C19.3196 4.30141 19.1922 4.20603 19.0499 4.1384C18.7644 4.0015 18.4365 3.98246 18.1371 4.08538C17.8377 4.1883 17.5908 4.40491 17.4499 4.6884L14.3124 11.1134C14.3749 11.2509 14.4499 11.3884 14.4874 11.5259ZM13.7499 10.0009V10.0634L17.2249 2.9759C17.3605 2.68885 17.3776 2.35988 17.2723 2.06035C17.167 1.76082 16.9478 1.51489 16.6624 1.3759C16.5214 1.30592 16.3679 1.26464 16.2109 1.25445C16.0538 1.24426 15.8963 1.26535 15.7474 1.31652C15.5986 1.36768 15.4614 1.4479 15.3438 1.5525C15.2262 1.65711 15.1305 1.78403 15.0624 1.9259L11.7624 8.6884C12.5749 8.8259 13.2874 9.2884 13.7499 10.0009ZM5.96237 17.9134L8.62487 10.5009C8.96237 9.5634 9.74987 8.9259 10.6874 8.7134L13.3624 3.2259C13.5003 2.94058 13.5198 2.61233 13.4168 2.31264C13.3138 2.01296 13.0966 1.76612 12.8124 1.6259C12.6714 1.55609 12.5179 1.51495 12.3609 1.50484C12.2039 1.49474 12.0464 1.51587 11.8976 1.56702C11.7488 1.61817 11.6116 1.69832 11.494 1.80283C11.3764 1.90734 11.2807 2.03415 11.2124 2.1759L6.24987 12.3009L5.62487 11.9884L5.88737 8.3509C5.93737 7.7884 5.71237 7.2259 5.31237 6.8259L4.73737 6.2509C4.14987 5.7134 3.18737 6.0759 3.12487 6.8759L2.49987 14.7384C2.33737 17.2884 3.46237 19.7259 5.43737 21.2509C5.41237 20.1509 5.57487 19.0134 5.96237 17.9134Z" fill="black"/>
</svg>
