<svg width="30" height="30" viewBox="0 0 30 30" fill="none" xmlns="http://www.w3.org/2000/svg">
<path d="M2.49936 13.7C2.35424 13.6202 2.22671 13.512 2.12439 13.3817C2.02208 13.2515 1.94709 13.102 1.90392 12.9421C1.86074 12.7822 1.85025 12.6153 1.8731 12.4513C1.89594 12.2872 1.95164 12.1295 2.03686 11.9875L3.91186 8.75C4.04936 8.5 4.26186 8.325 4.49936 8.225L14.2869 2.725C14.4869 2.575 14.7369 2.5 14.9994 2.5C15.2619 2.5 15.5119 2.575 15.7119 2.725L25.5869 8.275C25.8244 8.4 26.0244 8.6 26.1369 8.85L27.9494 12C28.2994 12.6 28.0869 13.3625 27.4994 13.7L26.2494 14.425V20.625C26.2494 21.1 25.9869 21.5125 25.5869 21.725L15.7119 27.275C15.5119 27.425 15.2619 27.5 14.9994 27.5C14.7369 27.5 14.4869 27.425 14.2869 27.275L4.41186 21.725C4.21146 21.6197 4.04375 21.4615 3.92695 21.2675C3.81015 21.0736 3.74873 20.8514 3.74936 20.625V13.7C3.37436 13.9125 2.89936 13.925 2.49936 13.7ZM14.9994 5.1875V13.5625L22.4494 9.375L14.9994 5.1875M6.24936 19.8875L13.7494 24.1125V15.725L6.24936 11.5125V19.8875ZM23.7494 19.8875V15.8625L17.4994 19.4875C17.0869 19.7125 16.6244 19.7 16.2494 19.5V24.1125L23.7494 19.8875ZM17.3119 16.7L25.1619 12.1625L24.4369 10.9L16.5869 15.4375L17.3119 16.7V16.7Z" fill="black"/>
</svg>
