<svg width="30" height="30" viewBox="0 0 30 30" fill="none" xmlns="http://www.w3.org/2000/svg">
<path d="M6.4 6.25H23.5875L22.4125 5H7.4125L6.4 6.25ZM25.675 6.5375C26.0375 6.9625 26.25 7.5 26.25 8.125V23.75C26.25 24.413 25.9866 25.0489 25.5178 25.5178C25.0489 25.9866 24.413 26.25 23.75 26.25H6.25C5.58696 26.25 4.95107 25.9866 4.48223 25.5178C4.01339 25.0489 3.75 24.413 3.75 23.75V8.125C3.75 7.5 3.9625 6.9625 4.325 6.5375L6.05 4.4375C6.4 4.0125 6.9125 3.75 7.5 3.75H22.5C23.0875 3.75 23.6 4.0125 23.9375 4.4375L25.675 6.5375ZM7.5 22.5H15V18.75H7.5V22.5Z" fill="black"/>
</svg>
