<svg width="50" height="50" viewBox="0 0 50 50" fill="none" xmlns="http://www.w3.org/2000/svg">
<path d="M37.5 33.3333H29.1667V37.5H37.5V41.6666L43.75 35.4166L37.5 29.1666V33.3333ZM22.9167 8.33331C18.3333 8.33331 14.5833 12.0833 14.5833 16.6666C14.5833 21.25 18.3333 25 22.9167 25C27.5 25 31.25 21.25 31.25 16.6666C31.25 12.0833 27.5 8.33331 22.9167 8.33331ZM22.9167 29.1666C13.75 29.1666 6.25 32.9166 6.25 37.5V41.6666H26.0417C25.4167 40 25 38.3333 25 36.4583C25 33.9583 25.625 31.6666 26.875 29.375C25.625 29.375 24.375 29.1666 22.9167 29.1666Z" fill="black"/>
</svg>
