<svg width="30" height="30" viewBox="0 0 30 30" fill="none" xmlns="http://www.w3.org/2000/svg">
<path d="M17.5 15V24.85C17.55 25.225 17.425 25.625 17.1375 25.8875C17.0219 26.0034 16.8845 26.0953 16.7333 26.158C16.5821 26.2208 16.42 26.2531 16.2563 26.2531C16.0926 26.2531 15.9305 26.2208 15.7793 26.158C15.628 26.0953 15.4907 26.0034 15.375 25.8875L12.8625 23.375C12.7263 23.2417 12.6227 23.0787 12.5598 22.8987C12.4969 22.7187 12.4765 22.5267 12.5 22.3375V15H12.4625L5.26254 5.775C5.05955 5.51441 4.96796 5.18407 5.00778 4.85616C5.04759 4.52825 5.21559 4.22943 5.47504 4.025C5.71254 3.85 5.97504 3.75 6.25004 3.75H23.75C24.025 3.75 24.2875 3.85 24.525 4.025C24.7845 4.22943 24.9525 4.52825 24.9923 4.85616C25.0321 5.18407 24.9405 5.51441 24.7375 5.775L17.5375 15H17.5Z" fill="black"/>
</svg>
