<svg width="30" height="30" viewBox="0 0 30 30" fill="none" xmlns="http://www.w3.org/2000/svg">
<path d="M17.8994 4C17.3422 4 16.8079 4.22711 16.414 4.63138C16.0201 5.03564 15.7987 5.58394 15.7987 6.15566C15.7987 6.72738 16.0201 7.27568 16.414 7.67994C16.8079 8.08421 17.3422 8.31132 17.8994 8.31132C18.4565 8.31132 18.9908 8.08421 19.3847 7.67994C19.7787 7.27568 20 6.72738 20 6.15566C20 5.58394 19.7787 5.03564 19.3847 4.63138C18.9908 4.22711 18.4565 4 17.8994 4ZM17.3952 10.855C15.7287 10.9987 11.1773 14.7208 11.1773 14.7208C10.8973 14.9364 10.9813 14.922 11.2054 15.3244C11.4294 15.7124 11.4014 15.7412 11.6675 15.5543C11.9476 15.3675 12.4097 15.0657 13.18 14.5771C16.1488 12.6226 13.6561 17.1352 12.3817 24.7375C11.8776 28.5027 15.1826 26.5626 16.0368 25.9877C16.8771 25.4273 19.1317 23.8321 19.3558 23.674C19.6639 23.4584 19.4398 23.286 19.2018 22.9267C19.0337 22.6824 18.8657 22.8549 18.8657 22.8549C17.9554 23.4728 16.2889 24.7662 16.0648 23.9471C15.7987 23.1279 17.5073 17.5088 18.4455 13.643C18.5996 12.7232 19.0197 10.7113 17.3952 10.855Z" fill="black"/>
</svg>
