<svg width="30" height="30" viewBox="0 0 30 30" fill="none" xmlns="http://www.w3.org/2000/svg">
<path d="M25 13.8875V6.25C25 5.58696 24.7366 4.95107 24.2678 4.48223C23.7989 4.01339 23.163 3.75 22.5 3.75H17.275C16.75 2.3 15.375 1.25 13.75 1.25C12.125 1.25 10.75 2.3 10.225 3.75H5C3.625 3.75 2.5 4.875 2.5 6.25V23.75C2.5 24.413 2.76339 25.0489 3.23223 25.5178C3.70107 25.9866 4.33696 26.25 5 26.25H12.6375C14.2125 27.8 16.3625 28.75 18.75 28.75C23.5875 28.75 27.5 24.8375 27.5 20C27.5 17.6125 26.55 15.4625 25 13.8875ZM13.75 3.75C14.4375 3.75 15 4.3125 15 5C15 5.6875 14.4375 6.25 13.75 6.25C13.0625 6.25 12.5 5.6875 12.5 5C12.5 4.3125 13.0625 3.75 13.75 3.75ZM6.25 8.75H21.25V11.25H6.25V8.75ZM10.1 21.25H6.25V18.75H10.1C10.0375 19.1625 10 19.575 10 20C10 20.425 10.0375 20.8375 10.1 21.25ZM6.25 16.25V13.75H12.6375C11.875 14.4625 11.3 15.3125 10.85 16.25H6.25ZM18.75 26.25C15.3 26.25 12.5 23.45 12.5 20C12.5 16.55 15.3 13.75 18.75 13.75C22.2 13.75 25 16.55 25 20C25 23.45 22.2 26.25 18.75 26.25ZM19.375 20.3125L22.95 22.425L22.0125 23.95L17.5 21.25V15H19.375V20.3125Z" fill="black"/>
</svg>
