<svg width="30" height="30" viewBox="0 0 30 30" fill="none" xmlns="http://www.w3.org/2000/svg">
<path d="M20.8235 20.3571L24.8612 22.7714L23.8024 24.5143L18.7059 21.4286V14.2857H20.8235V20.3571ZM30 20C30 25.5286 25.5812 30 20.1176 30C18.2682 30 16.5318 29.4714 15.0494 28.5714H7.87765C6.84706 28.5714 6 27.7143 6 26.6714V4.75714C6 3.71429 6.84706 2.85714 7.87765 2.85714H10.2353V0H18.7059V2.85714H21.0635C22.0941 2.85714 22.9412 3.71429 22.9412 4.75714V10.4143C27.0212 11.6429 30 15.4714 30 20ZM27.1765 20C27.1765 16.0571 24.0141 12.8571 20.1176 12.8571C16.2212 12.8571 13.0588 16.0571 13.0588 20C13.0588 23.9429 16.2212 27.1429 20.1176 27.1429C24.0141 27.1429 27.1765 23.9429 27.1765 20Z" fill="black"/>
</svg>
