<svg width="30" height="30" viewBox="0 0 30 30" fill="none" xmlns="http://www.w3.org/2000/svg">
<path d="M28.7484 21.25C28.7484 25.3875 25.3859 28.75 21.2484 28.75V26.875C24.3734 26.875 26.8734 24.375 26.8734 21.25H28.7484ZM1.24844 8.75C1.24844 4.6125 4.61094 1.25 8.74844 1.25V3.125C5.62344 3.125 3.12344 5.625 3.12344 8.75H1.24844ZM9.99844 5.4L4.26094 11.15C0.235937 15.175 0.235937 21.7125 4.26094 25.7375C8.28594 29.7625 14.8234 29.7625 18.8484 25.7375L27.6859 16.875C28.2984 16.2875 28.2984 15.3 27.6859 14.6875C27.5408 14.542 27.3684 14.4265 27.1785 14.3478C26.9887 14.269 26.7852 14.2285 26.5797 14.2285C26.3742 14.2285 26.1707 14.269 25.9808 14.3478C25.791 14.4265 25.6186 14.542 25.4734 14.6875L19.9484 20.2125L19.0609 19.325L27.2359 11.15C27.8484 10.5375 27.8484 9.55 27.2359 8.9375C26.6234 8.325 25.6234 8.325 24.9984 8.9375L17.7359 16.25L16.8734 15.3375L25.4609 6.725C26.0734 6.1125 26.0734 5.125 25.4609 4.5125C24.8484 3.9 23.8609 3.9 23.2484 4.5125L14.6359 13.125L13.7484 12.25L20.6234 5.4C21.2484 4.7875 21.2484 3.8 20.6234 3.1875C19.9984 2.575 19.0234 2.575 18.4109 3.1875L8.88594 12.7125C9.63174 13.6745 10.0013 14.8755 9.92535 16.0904C9.84942 17.3053 9.33323 18.4508 8.47344 19.3125L7.58594 18.425C8.28819 17.7219 8.68264 16.7688 8.68264 15.775C8.68264 14.7812 8.28819 13.8281 7.58594 13.125L7.14844 12.6875L12.2359 7.6C12.8484 6.9875 12.8484 6 12.2359 5.3875C11.6109 4.7875 10.6234 4.7875 9.99844 5.4Z" fill="black"/>
</svg>
