<svg width="30" height="30" viewBox="0 0 30 30" fill="none" xmlns="http://www.w3.org/2000/svg">
<g clip-path="url(#clip0_1483_7751)">
<path d="M7.5 8.75C7.5 7.0924 8.15848 5.50269 9.33058 4.33058C10.5027 3.15848 12.0924 2.5 13.75 2.5C15.4076 2.5 16.9973 3.15848 18.1694 4.33058C19.3415 5.50269 20 7.0924 20 8.75C20 10.4076 19.3415 11.9973 18.1694 13.1694C16.9973 14.3415 15.4076 15 13.75 15C12.0924 15 10.5027 14.3415 9.33058 13.1694C8.15848 11.9973 7.5 10.4076 7.5 8.75ZM6.0275 18.3387C8.03125 17.1175 10.7563 16.25 13.75 16.25C14.3087 16.25 14.8587 16.28 15.395 16.3375C15.6097 16.3605 15.8148 16.4388 15.9903 16.5647C16.1657 16.6905 16.3056 16.8597 16.3962 17.0557C16.4869 17.2517 16.5252 17.4679 16.5075 17.6831C16.4897 17.8983 16.4165 18.1052 16.295 18.2837C15.4482 19.5265 14.9968 20.9962 15 22.5C15 23.65 15.2587 24.7375 15.7187 25.7087C15.8084 25.898 15.849 26.1067 15.837 26.3157C15.825 26.5247 15.7607 26.7273 15.6499 26.905C15.5392 27.0827 15.3856 27.2297 15.2032 27.3326C15.0209 27.4355 14.8156 27.4909 14.6063 27.4938L13.75 27.5C10.9637 27.5 8.33125 27.325 6.35875 26.8025C5.3775 26.5425 4.45375 26.17 3.75375 25.6075C3.0125 25.0125 2.5 24.1813 2.5 23.125C2.5 22.1412 2.9475 21.2213 3.555 20.4513C4.1725 19.67 5.02625 18.9512 6.0275 18.3387ZM22.5 17.5C22.8315 17.5 23.1495 17.6317 23.3839 17.8661C23.6183 18.1005 23.75 18.4185 23.75 18.75V21.25H26.25C26.5815 21.25 26.8995 21.3817 27.1339 21.6161C27.3683 21.8505 27.5 22.1685 27.5 22.5C27.5 22.8315 27.3683 23.1495 27.1339 23.3839C26.8995 23.6183 26.5815 23.75 26.25 23.75H23.75V26.25C23.75 26.5815 23.6183 26.8995 23.3839 27.1339C23.1495 27.3683 22.8315 27.5 22.5 27.5C22.1685 27.5 21.8505 27.3683 21.6161 27.1339C21.3817 26.8995 21.25 26.5815 21.25 26.25V23.75H18.75C18.4185 23.75 18.1005 23.6183 17.8661 23.3839C17.6317 23.1495 17.5 22.8315 17.5 22.5C17.5 22.1685 17.6317 21.8505 17.8661 21.6161C18.1005 21.3817 18.4185 21.25 18.75 21.25H21.25V18.75C21.25 18.4185 21.3817 18.1005 21.6161 17.8661C21.8505 17.6317 22.1685 17.5 22.5 17.5Z" fill="black"/>
</g>
<defs>
<clipPath id="clip0_1483_7751">
<rect width="30" height="30" fill="white"/>
</clipPath>
</defs>
</svg>
