<svg width="30" height="30" viewBox="0 0 30 30" fill="none" xmlns="http://www.w3.org/2000/svg">
<path fill-rule="evenodd" clip-rule="evenodd" d="M15.0112 17.6625L21.64 24.2925C21.9917 24.6442 22.4688 24.8418 22.9662 24.8418C23.4637 24.8418 23.9407 24.6442 24.2925 24.2925C24.6442 23.9408 24.8418 23.4637 24.8418 22.9662C24.8418 22.4688 24.6442 21.9917 24.2925 21.64L17.6612 15.0112L24.2912 8.3825C24.4653 8.20833 24.6034 8.00158 24.6976 7.77405C24.7917 7.54653 24.8402 7.30268 24.8401 7.05643C24.8401 6.81018 24.7915 6.56635 24.6972 6.33887C24.6029 6.11139 24.4648 5.9047 24.2906 5.73062C24.1164 5.55654 23.9097 5.41846 23.6822 5.32428C23.4546 5.2301 23.2108 5.18165 22.9645 5.18171C22.7183 5.18177 22.4745 5.23033 22.247 5.32462C22.0195 5.41891 21.8128 5.55708 21.6387 5.73125L15.0112 12.36L8.38247 5.73125C8.2096 5.55208 8.00277 5.40915 7.77406 5.31077C7.54534 5.2124 7.29933 5.16056 7.05037 5.15828C6.80141 5.156 6.55449 5.20333 6.32402 5.29749C6.09355 5.39166 5.88413 5.53079 5.708 5.70675C5.53187 5.88272 5.39255 6.092 5.29816 6.32238C5.20378 6.55277 5.15622 6.79964 5.15827 7.04861C5.16031 7.29757 5.21192 7.54363 5.31008 7.77243C5.40823 8.00123 5.55098 8.2082 5.72997 8.38125L12.3612 15.0112L5.73122 21.64C5.37948 21.9917 5.18187 22.4688 5.18187 22.9662C5.18187 23.4637 5.37948 23.9408 5.73122 24.2925C6.08297 24.6442 6.56003 24.8418 7.05747 24.8418C7.55491 24.8418 8.03198 24.6442 8.38372 24.2925L15.0112 17.6612V17.6625Z" fill="black"/>
</svg>
