<svg width="30" height="30" viewBox="0 0 30 30" fill="none" xmlns="http://www.w3.org/2000/svg">
<path fill-rule="evenodd" clip-rule="evenodd" d="M14.2596 2.5C12.5269 2.5 10.8652 3.15848 9.64 4.33058C8.4148 5.50269 7.72649 7.0924 7.72649 8.75C7.72649 10.4076 8.4148 11.9973 9.64 13.1694C10.8652 14.3415 12.5269 15 14.2596 15C15.9923 15 17.654 14.3415 18.8792 13.1694C20.1044 11.9973 20.7927 10.4076 20.7927 8.75C20.7927 7.0924 20.1044 5.50269 18.8792 4.33058C17.654 3.15848 15.9923 2.5 14.2596 2.5ZM14.2596 16.25C11.1302 16.25 8.28181 17.1175 6.18729 18.3387C5.14199 18.9512 4.24826 19.67 3.60279 20.4513C2.96777 21.2213 2.5 22.1412 2.5 23.125C2.5 24.1813 3.03702 25.0138 3.81054 25.6075C4.54225 26.17 5.50785 26.5425 6.53355 26.8025C8.5954 27.3237 11.3471 27.5 14.2596 27.5C14.5601 27.5 14.8607 27.4975 15.1546 27.4938C15.3735 27.4909 15.588 27.4355 15.7787 27.3326C15.9693 27.2297 16.1298 27.0827 16.2456 26.905C16.3613 26.7273 16.4286 26.5247 16.4412 26.3157C16.4537 26.1067 16.4112 25.898 16.3175 25.7087C15.821 24.7059 15.5643 23.6097 15.5662 22.5C15.5662 20.935 16.0667 19.485 16.9212 18.2837C17.0482 18.1052 17.1247 17.8983 17.1433 17.6831C17.1618 17.4679 17.1218 17.2517 17.027 17.0557C16.9323 16.8597 16.7861 16.6905 16.6027 16.5647C16.4192 16.4388 16.2049 16.3605 15.9804 16.3375C15.4186 16.28 14.8437 16.25 14.2596 16.25ZM21.5584 18.965C21.312 18.7373 20.9819 18.6113 20.6393 18.6142C20.2967 18.617 19.969 18.7485 19.7268 18.9802C19.4845 19.212 19.3471 19.5255 19.3441 19.8532C19.3411 20.181 19.4728 20.4967 19.7108 20.7325L21.5584 22.5L19.7108 24.2675C19.586 24.3828 19.4865 24.5207 19.418 24.6732C19.3495 24.8257 19.3135 24.9898 19.312 25.1557C19.3105 25.3217 19.3435 25.4863 19.4092 25.6399C19.4749 25.7936 19.572 25.9331 19.6946 26.0505C19.8173 26.1679 19.9632 26.2607 20.1238 26.3235C20.2844 26.3864 20.4564 26.418 20.6299 26.4166C20.8034 26.4151 20.9749 26.3806 21.1343 26.3151C21.2937 26.2496 21.4379 26.1544 21.5584 26.035L23.406 24.2675L25.2535 26.035C25.3741 26.1544 25.5182 26.2496 25.6777 26.3151C25.8371 26.3806 26.0085 26.4151 26.182 26.4166C26.3555 26.418 26.5276 26.3864 26.6881 26.3235C26.8487 26.2607 26.9946 26.1679 27.1173 26.0505C27.24 25.9331 27.337 25.7936 27.4027 25.6399C27.4684 25.4863 27.5015 25.3217 27.5 25.1557C27.4984 24.9898 27.4624 24.8257 27.3939 24.6732C27.3254 24.5207 27.2259 24.3828 27.1011 24.2675L25.2535 22.5L27.1011 20.7325C27.3391 20.4967 27.4708 20.181 27.4678 19.8532C27.4649 19.5255 27.3274 19.212 27.0852 18.9802C26.8429 18.7485 26.5152 18.617 26.1726 18.6142C25.83 18.6113 25.5 18.7373 25.2535 18.965L23.406 20.7325L21.5584 18.965Z" fill="black"/>
</svg>
