<svg width="30" height="31" viewBox="0 0 30 31" fill="none" xmlns="http://www.w3.org/2000/svg">
<path d="M15 3.00262C21.9037 3.00262 27.5 8.47917 27.5 15.2352C27.5 21.9913 21.9037 27.4679 15 27.4679C8.09625 27.4679 2.5 21.9913 2.5 15.2352C2.5 8.47917 8.09625 3.00262 15 3.00262ZM15 20.1283C14.6685 20.1283 14.3505 20.2572 14.1161 20.4866C13.8817 20.716 13.75 21.0271 13.75 21.3516C13.75 21.676 13.8817 21.9871 14.1161 22.2165C14.3505 22.4459 14.6685 22.5748 15 22.5748C15.3315 22.5748 15.6495 22.4459 15.8839 22.2165C16.1183 21.9871 16.25 21.676 16.25 21.3516C16.25 21.0271 16.1183 20.716 15.8839 20.4866C15.6495 20.2572 15.3315 20.1283 15 20.1283ZM15 8.5073C13.7982 8.5073 12.6457 8.97449 11.7959 9.80609C10.9461 10.6377 10.4687 11.7656 10.4687 12.9416C10.4687 13.2661 10.6004 13.5772 10.8349 13.8066C11.0693 14.036 11.3872 14.1649 11.7187 14.1649C12.0503 14.1649 12.3682 14.036 12.6026 13.8066C12.8371 13.5772 12.9687 13.2661 12.9687 12.9416C12.9692 12.5808 13.0699 12.2269 13.2602 11.9179C13.4505 11.6088 13.7232 11.3563 14.049 11.1874C14.3748 11.0184 14.7414 10.9395 15.1096 10.959C15.4778 10.9784 15.8336 11.0956 16.1389 11.2979C16.4442 11.5002 16.6875 11.78 16.8426 12.1073C16.9978 12.4346 17.059 12.7971 17.0197 13.1559C16.9803 13.5146 16.842 13.8561 16.6194 14.1438C16.3968 14.4315 16.0984 14.6544 15.7562 14.7888C14.9112 15.119 13.75 15.9655 13.75 17.376V17.6818C13.75 18.0062 13.8817 18.3173 14.1161 18.5467C14.3505 18.7762 14.6685 18.905 15 18.905C15.3315 18.905 15.6495 18.7762 15.8839 18.5467C16.1183 18.3173 16.25 18.0062 16.25 17.6818C16.25 17.3833 16.3125 17.2341 16.5762 17.1068L16.685 17.0579C17.661 16.6737 18.4701 15.9691 18.9734 15.0651C19.4768 14.1611 19.6431 13.1138 19.4439 12.1029C19.2447 11.092 18.6923 10.1804 17.8816 9.52441C17.0708 8.86838 16.052 8.5088 15 8.5073Z" fill="black"/>
</svg>
