<svg width="30" height="30" viewBox="0 0 30 30" fill="none" xmlns="http://www.w3.org/2000/svg">
<g clip-path="url(#clip0_1438_7774)">
<path d="M18.2744 3.32798C18.5116 3.39436 18.7335 3.50685 18.9272 3.65902C19.121 3.81119 19.2829 4.00006 19.4036 4.21482C19.5243 4.42958 19.6016 4.66603 19.6309 4.91066C19.6602 5.15528 19.641 5.40328 19.5744 5.64048L14.0356 25.3742C13.9014 25.8531 13.5823 26.259 13.1488 26.5027C12.7152 26.7464 12.2026 26.8079 11.7237 26.6736C11.2449 26.5393 10.8389 26.2203 10.5952 25.7868C10.3516 25.3532 10.2901 24.8406 10.4244 24.3617L15.9631 4.62548C16.0296 4.38833 16.1422 4.16661 16.2944 3.97299C16.4467 3.77936 16.6356 3.61763 16.8503 3.49702C17.0651 3.37641 17.3015 3.2993 17.546 3.27008C17.7906 3.24086 18.0385 3.26011 18.2756 3.32673L18.2744 3.32798ZM9.44937 8.37173C9.80049 8.72329 9.99772 9.19985 9.99772 9.69673C9.99772 10.1936 9.80049 10.6702 9.44937 11.0217L5.47437 15.0005L9.45187 18.978C9.80344 19.3297 10.0009 19.8067 10.0008 20.304C10.0007 20.8014 9.80298 21.2783 9.45124 21.6299C9.0995 21.9814 8.6225 22.1789 8.12517 22.1788C7.62785 22.1786 7.15094 21.981 6.79937 21.6292L1.49562 16.3255C1.14449 15.9739 0.947266 15.4974 0.947266 15.0005C0.947266 14.5036 1.14449 14.027 1.49562 13.6755L6.79812 8.37173C6.97224 8.19749 7.17899 8.05927 7.40656 7.96497C7.63412 7.87067 7.87804 7.82213 8.12437 7.82213C8.3707 7.82213 8.61461 7.87067 8.84218 7.96497C9.06974 8.05927 9.27524 8.19749 9.44937 8.37173ZM20.5494 11.0217C20.3651 10.8501 20.2174 10.6431 20.1149 10.4131C20.0124 10.1831 19.9573 9.93479 19.9529 9.68304C19.9484 9.43128 19.9948 9.18121 20.0891 8.94774C20.1834 8.71427 20.3237 8.50218 20.5018 8.32413C20.6798 8.14609 20.8919 8.00573 21.1254 7.91142C21.3588 7.81712 21.6089 7.77081 21.8607 7.77525C22.1124 7.77969 22.3607 7.8348 22.5907 7.93728C22.8207 8.03976 23.0277 8.18751 23.1994 8.37173L28.5031 13.6742C28.8546 14.0258 29.0521 14.5027 29.0521 14.9999C29.0521 15.497 28.8546 15.9739 28.5031 16.3255L23.2006 21.6292C23.0265 21.8034 22.8198 21.9416 22.5924 22.0359C22.3649 22.1301 22.1211 22.1787 21.8748 22.1788C21.6286 22.1788 21.3847 22.1304 21.1572 22.0362C20.9297 21.942 20.7229 21.8039 20.5487 21.6299C20.3746 21.4558 20.2364 21.2491 20.1421 21.0216C20.0478 20.7941 19.9993 20.5503 19.9992 20.304C19.9991 20.0578 20.0476 19.8139 20.1418 19.5864C20.236 19.3589 20.374 19.1521 20.5481 18.978L24.5256 15.0005L20.5494 11.0217Z" fill="black"/>
</g>
<defs>
<clipPath id="clip0_1438_7774">
<rect width="30" height="30" fill="white"/>
</clipPath>
</defs>
</svg>
