<svg width="30" height="30" viewBox="0 0 30 30" fill="none" xmlns="http://www.w3.org/2000/svg">
<path fill-rule="evenodd" clip-rule="evenodd" d="M13.7564 2.5C12.0978 2.5 10.5072 3.15848 9.33444 4.33058C8.16168 5.50269 7.50282 7.0924 7.50282 8.75C7.50282 10.4076 8.16168 11.9973 9.33444 13.1694C10.5072 14.3415 12.0978 15 13.7564 15C15.4149 15 17.0055 14.3415 18.1783 13.1694C19.351 11.9973 20.0099 10.4076 20.0099 8.75C20.0099 7.0924 19.351 5.50269 18.1783 4.33058C17.0055 3.15848 15.4149 2.5 13.7564 2.5ZM13.7564 16.25C10.7609 16.25 8.03437 17.1175 6.02949 18.3387C5.02893 18.9512 4.17344 19.67 3.5556 20.4513C2.94775 21.2213 2.5 22.1412 2.5 23.125C2.5 24.1813 3.01404 25.0138 3.75446 25.6075C4.45485 26.17 5.37912 26.5425 6.36093 26.8025C8.33454 27.3237 10.9685 27.5 13.7564 27.5C14.044 27.5 14.3317 27.4975 14.6131 27.4938C14.8226 27.4909 15.0279 27.4355 15.2104 27.3326C15.3929 27.2297 15.5465 27.0827 15.6573 26.905C15.7681 26.7273 15.8325 26.5247 15.8445 26.3157C15.8566 26.1067 15.8159 25.898 15.7262 25.7087C15.2509 24.7059 15.0052 23.6097 15.0071 22.5C15.0071 20.935 15.4861 19.485 16.304 18.2837C16.4256 18.1052 16.4989 17.8983 16.5166 17.6831C16.5344 17.4679 16.496 17.2517 16.4053 17.0557C16.3147 16.8597 16.1747 16.6905 15.9991 16.5647C15.8236 16.4388 15.6184 16.3605 15.4035 16.3375C14.8657 16.28 14.3154 16.25 13.7564 16.25ZM27.1489 20.085C27.3767 19.8492 27.5028 19.5335 27.5 19.2057C27.4971 18.878 27.3656 18.5645 27.1337 18.3327C26.9018 18.101 26.5881 17.9695 26.2602 17.9667C25.9322 17.9638 25.6163 18.0898 25.3804 18.3175L21.4007 22.295L19.6322 20.5275C19.3963 20.2998 19.0804 20.1738 18.7524 20.1767C18.4245 20.1795 18.1108 20.311 17.8789 20.5427C17.647 20.7745 17.5155 21.088 17.5126 21.4157C17.5098 21.7435 17.6358 22.0592 17.8637 22.295L20.4276 24.8575C20.5554 24.9852 20.7071 25.0866 20.874 25.1557C21.041 25.2249 21.2199 25.2605 21.4007 25.2605C21.5814 25.2605 21.7603 25.2249 21.9273 25.1557C22.0943 25.0866 22.246 24.9852 22.3737 24.8575L27.1489 20.085Z" fill="black"/>
</svg>
