<svg width="30" height="30" viewBox="0 0 30 30" fill="none" xmlns="http://www.w3.org/2000/svg">
<g clip-path="url(#clip0_1326_7938)">
<path fill-rule="evenodd" clip-rule="evenodd" d="M13.5444 2.5C11.8868 2.5 10.2971 3.15848 9.12502 4.33058C7.95291 5.50269 7.29443 7.0924 7.29443 8.75C7.29443 10.4076 7.95291 11.9973 9.12502 13.1694C10.2971 14.3415 11.8868 15 13.5444 15C15.202 15 16.7917 14.3415 17.9639 13.1694C19.136 11.9973 19.7944 10.4076 19.7944 8.75C19.7944 7.0924 19.136 5.50269 17.9639 4.33058C16.7917 3.15848 15.202 2.5 13.5444 2.5ZM13.5444 16.25C10.5507 16.25 7.82568 17.1175 5.82193 18.3387C4.82193 18.9512 3.96693 19.67 3.34943 20.4513C2.74193 21.2213 2.29443 22.1412 2.29443 23.125C2.29443 24.1813 2.80818 25.0138 3.54818 25.6075C4.24818 26.17 5.17193 26.5425 6.15318 26.8025C8.12568 27.3237 10.7582 27.5 13.5444 27.5C13.8319 27.5 14.1194 27.4975 14.4007 27.4938C14.61 27.4909 14.8153 27.4355 14.9977 27.3326C15.18 27.2297 15.3336 27.0827 15.4443 26.905C15.5551 26.7273 15.6194 26.5247 15.6315 26.3157C15.6435 26.1067 15.6028 25.898 15.5132 25.7087C15.0381 24.7059 14.7926 23.6097 14.7944 22.5C14.7944 20.935 15.2732 19.485 16.0907 18.2837C16.2122 18.1052 16.2854 17.8983 16.3031 17.6831C16.3209 17.4679 16.2826 17.2517 16.1919 17.0557C16.1013 16.8597 15.9614 16.6905 15.786 16.5647C15.6105 16.4388 15.4054 16.3605 15.1907 16.3375C14.6532 16.28 14.1032 16.25 13.5444 16.25ZM23.3744 17.4962C23.2644 17.3074 23.1068 17.1507 22.9172 17.0418C22.7277 16.9329 22.513 16.8756 22.2944 16.8756C22.0759 16.8756 21.8611 16.9329 21.6716 17.0418C21.4821 17.1507 21.3245 17.3074 21.2144 17.4962L20.0769 19.4488L17.8694 19.9262C17.6557 19.9725 17.4578 20.074 17.2956 20.2206C17.1333 20.3672 17.0124 20.5539 16.9448 20.7618C16.8773 20.9698 16.8655 21.1919 16.9106 21.4059C16.9557 21.6198 17.0562 21.8182 17.2019 21.9812L18.7069 23.6663L18.4794 25.9138C18.4574 26.1312 18.4928 26.3507 18.582 26.5503C18.6713 26.7498 18.8114 26.9225 18.9882 27.051C19.165 27.1795 19.3725 27.2594 19.5898 27.2827C19.8072 27.306 20.0269 27.2719 20.2269 27.1837L22.2944 26.2713L24.3619 27.1837C24.562 27.2719 24.7817 27.306 24.999 27.2827C25.2164 27.2594 25.4238 27.1795 25.6007 27.051C25.7775 26.9225 25.9176 26.7498 26.0068 26.5503C26.0961 26.3507 26.1315 26.1312 26.1094 25.9138L25.8819 23.665L27.3869 21.9812C27.5327 21.8182 27.6332 21.6198 27.6783 21.4059C27.7234 21.1919 27.7116 20.9698 27.644 20.7618C27.5765 20.5539 27.4555 20.3672 27.2933 20.2206C27.131 20.074 26.9332 19.9725 26.7194 19.9262L24.5119 19.4488L23.3744 17.4962Z" fill="black"/>
</g>
<defs>
<clipPath id="clip0_1326_7938">
<rect width="30" height="30" fill="white"/>
</clipPath>
</defs>
</svg>
