<svg width="30" height="30" viewBox="0 0 30 30" fill="none" xmlns="http://www.w3.org/2000/svg">
<g clip-path="url(#clip0_1480_7747)">
<path d="M13.7852 2.50537C12.1276 2.50537 10.5378 3.16385 9.36574 4.33595C8.19364 5.50806 7.53516 7.09777 7.53516 8.75537C7.53516 10.413 8.19364 12.0027 9.36574 13.1748C10.5378 14.3469 12.1276 15.0054 13.7852 15.0054C15.4428 15.0054 17.0325 14.3469 18.2046 13.1748C19.3767 12.0027 20.0352 10.413 20.0352 8.75537C20.0352 7.09777 19.3767 5.50806 18.2046 4.33595C17.0325 3.16385 15.4428 2.50537 13.7852 2.50537ZM13.7852 16.2554C14.5227 16.2554 15.2439 16.3079 15.9402 16.4054C16.1747 16.4381 16.3951 16.5369 16.5758 16.6901C16.7564 16.8433 16.8897 17.0447 16.9603 17.2707C17.0309 17.4968 17.0359 17.7383 16.9745 17.967C16.9132 18.1958 16.7881 18.4024 16.6139 18.5629C15.5851 19.5052 14.7972 20.6806 14.3166 21.9904C13.8359 23.3002 13.6764 24.7062 13.8514 26.0904C13.8735 26.2682 13.8571 26.4487 13.8032 26.6197C13.7494 26.7906 13.6595 26.948 13.5395 27.0812C13.4195 27.2143 13.2723 27.3201 13.1079 27.3913C12.9434 27.4626 12.7656 27.4976 12.5864 27.4941C10.0739 27.4441 7.72391 27.2241 5.96891 26.6866C5.09141 26.4179 4.26391 26.0404 3.63641 25.4841C2.97266 24.8966 2.53516 24.1054 2.53516 23.1304C2.53516 22.1466 2.98266 21.2266 3.59016 20.4566C4.20766 19.6754 5.06141 18.9566 6.06266 18.3441C8.06641 17.1229 10.7914 16.2554 13.7852 16.2554ZM26.5502 17.5479C27.136 18.1339 27.4651 18.9286 27.4651 19.7572C27.4651 20.5859 27.136 21.3806 26.5502 21.9666L22.2777 26.2391C21.9909 26.5257 21.619 26.7117 21.2177 26.7691L18.3314 27.1816C18.1391 27.209 17.9431 27.1912 17.7588 27.1297C17.5745 27.0682 17.4071 26.9647 17.2698 26.8272C17.1326 26.6898 17.0291 26.5223 16.9678 26.338C16.9064 26.1537 16.8889 25.9577 16.9164 25.7654L17.3289 22.8804C17.3861 22.4786 17.572 22.1062 17.8589 21.8191L22.1314 17.5466C22.7174 16.9608 23.5121 16.6317 24.3408 16.6317C25.1694 16.6317 25.9641 16.9608 26.5502 17.5466V17.5479Z" fill="black"/>
</g>
<defs>
<clipPath id="clip0_1480_7747">
<rect width="30" height="30" fill="white"/>
</clipPath>
</defs>
</svg>
