<svg width="30" height="30" viewBox="0 0 30 30" fill="none" xmlns="http://www.w3.org/2000/svg">
<g clip-path="url(#clip0_1343_7950)">
<path d="M15 0C12.0333 0 9.13319 0.879735 6.66645 2.52796C4.19972 4.17618 2.27713 6.51886 1.14181 9.25975C0.00649926 12.0006 -0.290551 15.0166 0.288228 17.9264C0.867006 20.8361 2.29562 23.5088 4.39341 25.6066C6.49119 27.7044 9.16394 29.133 12.0737 29.7118C14.9834 30.2906 17.9994 29.9935 20.7403 28.8582C23.4812 27.7229 25.8238 25.8003 27.472 23.3336C29.1203 20.8668 30 17.9667 30 15C30 11.0218 28.4197 7.20644 25.6066 4.3934C22.7936 1.58035 18.9783 0 15 0ZM3.00001 15C3.00591 12.3366 3.89774 9.75078 5.53501 7.65L22.35 24.465C20.5771 25.8387 18.4547 26.6881 16.2236 26.9168C13.9925 27.1455 11.7419 26.7444 9.72722 25.7589C7.71251 24.7734 6.01431 23.243 4.82525 21.3413C3.63619 19.4397 3.00386 17.2428 3.00001 15ZM24.465 22.35L7.65001 5.535C9.96026 3.77912 12.8285 2.91985 15.7236 3.11631C18.6188 3.31276 21.3446 4.55162 23.3965 6.60349C25.4484 8.65537 26.6872 11.3812 26.8837 14.2764C27.0802 17.1715 26.2209 20.0397 24.465 22.35Z" fill="black"/>
</g>
<defs>
<clipPath id="clip0_1343_7950">
<rect width="30" height="30" fill="white"/>
</clipPath>
</defs>
</svg>
