<svg width="30" height="30" viewBox="0 0 30 30" fill="none" xmlns="http://www.w3.org/2000/svg">
<path fill-rule="evenodd" clip-rule="evenodd" d="M9.375 4.5C9.375 4.40054 9.41451 4.30516 9.48483 4.23484C9.55516 4.16451 9.65054 4.125 9.75 4.125H20.25C20.3495 4.125 20.4448 4.16451 20.5152 4.23484C20.5855 4.30516 20.625 4.40054 20.625 4.5V22.5C20.625 22.5995 20.5855 22.6948 20.5152 22.7652C20.4448 22.8355 20.3495 22.875 20.25 22.875H9.75C9.65054 22.875 9.55516 22.8355 9.48483 22.7652C9.41451 22.6948 9.375 22.5995 9.375 22.5V4.5Z" fill="black"/>
<path fill-rule="evenodd" clip-rule="evenodd" d="M21.75 0H8.25C6.5925 0 5.25 1.4145 5.25 3.1575V26.8425C5.25 28.5855 6.5925 30 8.25 30H21.75C23.4075 30 24.75 28.5855 24.75 26.8425V3.1575C24.75 1.4145 23.4075 0 21.75 0ZM8.25 27V3H21.75V27H8.25Z" fill="black"/>
<path d="M15.75 24.75C15.75 24.9489 15.671 25.1397 15.5303 25.2803C15.3897 25.421 15.1989 25.5 15 25.5C14.8011 25.5 14.6103 25.421 14.4697 25.2803C14.329 25.1397 14.25 24.9489 14.25 24.75C14.25 24.5511 14.329 24.3603 14.4697 24.2197C14.6103 24.079 14.8011 24 15 24C15.1989 24 15.3897 24.079 15.5303 24.2197C15.671 24.3603 15.75 24.5511 15.75 24.75Z" fill="black"/>
<path fill-rule="evenodd" clip-rule="evenodd" d="M13.5 24.75C13.5 24.3522 13.658 23.9706 13.9393 23.6893C14.2206 23.408 14.6022 23.25 15 23.25C15.3978 23.25 15.7794 23.408 16.0607 23.6893C16.342 23.9706 16.5 24.3522 16.5 24.75C16.5 25.1478 16.342 25.5294 16.0607 25.8107C15.7794 26.092 15.3978 26.25 15 26.25C14.6022 26.25 14.2206 26.092 13.9393 25.8107C13.658 25.5294 13.5 25.1478 13.5 24.75Z" fill="black"/>
</svg>
