<svg xmlns="http://www.w3.org/2000/svg" xmlns:xlink="http://www.w3.org/1999/xlink" width="1em" height="1em" preserveAspectRatio="xMidYMid meet" viewBox="0 0 256 256" style="-ms-transform: rotate(360deg); -webkit-transform: rotate(360deg); transform: rotate(360deg);"><path fill="currentColor" d="M120 80v104a8 8 0 0 1-8 8H96v16h16a8 8 0 0 1 0 16H64a8 8 0 0 1 0-16h16v-16H32a24.1 24.1 0 0 1-24-24V96a24.1 24.1 0 0 1 24-24h80a8 8 0 0 1 8 8Zm128-32v160a16 16 0 0 1-16 16h-80a16 16 0 0 1-16-16V48a16 16 0 0 1 16-16h80a16 16 0 0 1 16 16Zm-44 132a12 12 0 1 0-12 12a12 12 0 0 0 12-12Zm20-76a8 8 0 0 0-8-8h-48a8 8 0 0 0 0 16h48a8 8 0 0 0 8-8Zm0-32a8 8 0 0 0-8-8h-48a8 8 0 0 0 0 16h48a8 8 0 0 0 8-8Z"/></svg>