<svg width="30" height="30" viewBox="0 0 30 30" fill="none" xmlns="http://www.w3.org/2000/svg">
<path d="M25.8649 14.705C25.833 14.633 25.0617 12.9219 23.347 11.2072C21.0622 8.92236 18.1763 7.71484 15 7.71484C11.8237 7.71484 8.93783 8.92236 6.65302 11.2072C4.93828 12.9219 4.16332 14.6357 4.13509 14.705C4.09367 14.7981 4.07227 14.8989 4.07227 15.0009C4.07227 15.1029 4.09367 15.2037 4.13509 15.2969C4.16696 15.3688 4.93828 17.079 6.65302 18.7937C8.93783 21.0776 11.8237 22.2852 15 22.2852C18.1763 22.2852 21.0622 21.0776 23.347 18.7937C25.0617 17.079 25.833 15.3688 25.8649 15.2969C25.9063 15.2037 25.9277 15.1029 25.9277 15.0009C25.9277 14.8989 25.9063 14.7981 25.8649 14.705ZM15 18.6426C14.2796 18.6426 13.5753 18.4289 12.9763 18.0287C12.3773 17.6284 11.9104 17.0595 11.6347 16.394C11.359 15.7284 11.2869 14.996 11.4274 14.2894C11.568 13.5828 11.9149 12.9337 12.4243 12.4243C12.9337 11.9149 13.5828 11.568 14.2894 11.4274C14.996 11.2869 15.7284 11.359 16.3939 11.6347C17.0595 11.9104 17.6284 12.3773 18.0287 12.9763C18.4289 13.5753 18.6426 14.2796 18.6426 15C18.6426 15.9661 18.2588 16.8926 17.5757 17.5757C16.8926 18.2588 15.9661 18.6426 15 18.6426Z" fill="black"/>
</svg>
