<svg width="30" height="30" viewBox="0 0 30 30" fill="none" xmlns="http://www.w3.org/2000/svg">
<path d="M26.6403 21.8043C26.7603 22.0126 26.7926 22.26 26.7301 22.4921C26.6677 22.7241 26.5156 22.9219 26.3073 23.0419C26.2042 23.1013 26.0904 23.1398 25.9724 23.1552C25.8543 23.1706 25.7345 23.1626 25.6195 23.1317C25.3874 23.0693 25.1897 22.9172 25.0697 22.7089L22.9213 18.9548C21.6733 19.799 20.2966 20.4352 18.8449 20.8386L19.5086 24.8211C19.5282 24.9384 19.5245 25.0583 19.4977 25.1741C19.4709 25.2899 19.4216 25.3993 19.3525 25.496C19.2834 25.5928 19.1959 25.6749 19.095 25.7378C18.9941 25.8007 18.8819 25.8431 18.7646 25.8626C18.7164 25.8705 18.6676 25.8746 18.6187 25.875C18.4047 25.8747 18.1978 25.7985 18.0346 25.66C17.8715 25.5215 17.7627 25.3296 17.7277 25.1185L17.0753 21.2084C15.6993 21.3998 14.3035 21.3998 12.9276 21.2084L12.2752 25.1185C12.2401 25.33 12.131 25.5222 11.9674 25.6607C11.8038 25.7993 11.5963 25.8752 11.3819 25.875C11.3319 25.8748 11.282 25.8706 11.2326 25.8626C11.1154 25.8431 11.0031 25.8007 10.9022 25.7378C10.8014 25.6749 10.7139 25.5928 10.6448 25.496C10.5757 25.3993 10.5263 25.2899 10.4995 25.1741C10.4727 25.0583 10.469 24.9384 10.4886 24.8211L11.1557 20.8386C9.70343 20.4342 8.32636 19.7969 7.07823 18.9514L4.93658 22.7089C4.87718 22.8124 4.79798 22.9032 4.7035 22.9761C4.60901 23.049 4.5011 23.1025 4.38591 23.1337C4.27073 23.1649 4.15053 23.1731 4.03218 23.1578C3.91383 23.1425 3.79964 23.1041 3.69614 23.0447C3.59264 22.9853 3.50185 22.9061 3.42896 22.8116C3.35607 22.7172 3.3025 22.6092 3.27132 22.4941C3.24013 22.3789 3.23194 22.2587 3.24721 22.1403C3.26248 22.022 3.30091 21.9078 3.36031 21.8043L5.62182 17.8466C4.82717 17.1607 4.0967 16.4037 3.43946 15.5851C3.30929 15.4241 3.23828 15.2234 3.23828 15.0163C3.23828 14.8093 3.30929 14.6086 3.43946 14.4476C5.56528 11.822 9.29565 8.6875 15.0003 8.6875C20.705 8.6875 24.4353 11.822 26.5589 14.4544C26.6891 14.6153 26.7601 14.8161 26.7601 15.0231C26.7601 15.2302 26.6891 15.4309 26.5589 15.5919C25.9017 16.4105 25.1712 17.1674 24.3765 17.8534L26.6403 21.8043Z" fill="black"/>
</svg>
