<svg width="30" height="30" viewBox="0 0 30 30" fill="none" xmlns="http://www.w3.org/2000/svg">
<path d="M23.4434 1.875H18.7559C18.3829 1.875 18.0252 2.02316 17.7615 2.28688C17.4978 2.5506 17.3496 2.90829 17.3496 3.28125C17.3496 3.65421 17.4978 4.0119 17.7615 4.27562C18.0252 4.53934 18.3829 4.6875 18.7559 4.6875H20.0449L18.2121 6.52383C17.2736 5.74395 16.1686 5.19002 14.9821 4.90474C13.7957 4.61946 12.5596 4.61046 11.3692 4.87843C10.1787 5.1464 9.06571 5.68418 8.11596 6.4503C7.16621 7.21643 6.40508 8.19044 5.89127 9.29723C5.37746 10.404 5.12469 11.614 5.15245 12.8339C5.18021 14.0539 5.48776 15.2511 6.05139 16.3334C6.61501 17.4157 7.41965 18.354 8.40327 19.0762C9.38689 19.7983 10.5232 20.2849 11.7246 20.4984V21.5625H9.38087C9.00791 21.5625 8.65023 21.7107 8.3865 21.9744C8.12278 22.2381 7.97462 22.5958 7.97462 22.9688C7.97462 23.3417 8.12278 23.6994 8.3865 23.9631C8.65023 24.2268 9.00791 24.375 9.38087 24.375H11.7246V26.7188C11.7246 27.0917 11.8728 27.4494 12.1365 27.7131C12.4002 27.9768 12.7579 28.125 13.1309 28.125C13.5038 28.125 13.8615 27.9768 14.1252 27.7131C14.389 27.4494 14.5371 27.0917 14.5371 26.7188V24.375H16.8809C17.2538 24.375 17.6115 24.2268 17.8752 23.9631C18.139 23.6994 18.2871 23.3417 18.2871 22.9688C18.2871 22.5958 18.139 22.2381 17.8752 21.9744C17.6115 21.7107 17.2538 21.5625 16.8809 21.5625H14.5371V20.4984C15.7957 20.2739 16.9816 19.7496 17.9947 18.9699C19.0078 18.1901 19.8182 17.1778 20.3573 16.0187C20.8964 14.8595 21.1484 13.5875 21.092 12.3103C21.0356 11.0332 20.6724 9.78838 20.0332 8.68125L22.0371 6.67969V7.96875C22.0371 8.34171 22.1853 8.6994 22.449 8.96312C22.7127 9.22684 23.0704 9.375 23.4434 9.375C23.8163 9.375 24.174 9.22684 24.4377 8.96312C24.7015 8.6994 24.8496 8.34171 24.8496 7.96875V3.28125C24.8496 2.90829 24.7015 2.5506 24.4377 2.28688C24.174 2.02316 23.8163 1.875 23.4434 1.875ZM13.1309 17.8125C12.1111 17.8125 11.1142 17.5101 10.2662 16.9435C9.41827 16.3769 8.75738 15.5716 8.36712 14.6295C7.97685 13.6873 7.87474 12.6505 8.0737 11.6503C8.27265 10.6501 8.76374 9.73134 9.48485 9.01023C10.206 8.28912 11.1247 7.79803 12.1249 7.59908C13.1252 7.40012 14.1619 7.50223 15.1041 7.8925C16.0463 8.28276 16.8516 8.94365 17.4181 9.79159C17.9847 10.6395 18.2871 11.6364 18.2871 12.6562C18.2856 14.0233 17.7418 15.3339 16.7752 16.3006C15.8085 17.2672 14.4979 17.8109 13.1309 17.8125Z" fill="black"/>
</svg>
