<svg width="31" height="31" viewBox="0 0 31 31" fill="none" xmlns="http://www.w3.org/2000/svg">
<path d="M28.25 15.5002V23.0002C28.25 23.2489 28.1513 23.4873 27.9754 23.6632C27.7996 23.839 27.5612 23.9377 27.3125 23.9377H19.8125C19.627 23.9379 19.4456 23.883 19.2913 23.78C19.137 23.677 19.0167 23.5305 18.9457 23.3591C18.8747 23.1877 18.8561 22.9991 18.8924 22.8171C18.9286 22.6352 19.018 22.4681 19.1493 22.337L22.2371 19.2502L16.0625 13.0756L12.0383 17.101C11.9512 17.1882 11.8479 17.2573 11.734 17.3045C11.6202 17.3517 11.4982 17.376 11.375 17.376C11.2518 17.376 11.1298 17.3517 11.016 17.3045C10.9022 17.2573 10.7988 17.1882 10.7118 17.101L2.27425 8.66353C2.09834 8.48762 1.99951 8.24903 1.99951 8.00025C1.99951 7.75147 2.09834 7.51288 2.27425 7.33696C2.45016 7.16105 2.68875 7.06223 2.93753 7.06223C3.18631 7.06223 3.4249 7.16105 3.60081 7.33696L11.375 15.1124L15.3993 11.087C15.4863 10.9998 15.5897 10.9307 15.7035 10.8835C15.8173 10.8363 15.9393 10.812 16.0625 10.812C16.1857 10.812 16.3077 10.8363 16.4215 10.8835C16.5354 10.9307 16.6387 10.9998 16.7258 11.087L23.5625 17.9249L26.6493 14.837C26.7804 14.7057 26.9475 14.6163 27.1294 14.5801C27.3114 14.5438 27.5 14.5624 27.6714 14.6334C27.8428 14.7044 27.9893 14.8247 28.0923 14.979C28.1953 15.1333 28.2502 15.3147 28.25 15.5002Z" fill="black"/>
</svg>
