<svg width="31" height="30" viewBox="0 0 31 30" fill="none" xmlns="http://www.w3.org/2000/svg">
<path d="M28.5911 7.49973V14.9997C28.5912 15.1853 28.5358 15.3667 28.4317 15.521C28.3276 15.6753 28.1796 15.7955 28.0065 15.8666C27.8333 15.9376 27.6427 15.9561 27.4589 15.9199C27.275 15.8837 27.1062 15.7943 26.9737 15.663L23.855 12.5751L16.9475 19.413C16.8595 19.5002 16.755 19.5693 16.6401 19.6165C16.5251 19.6637 16.4018 19.688 16.2773 19.688C16.1528 19.688 16.0296 19.6637 15.9146 19.6165C15.7996 19.5693 15.6951 19.5002 15.6072 19.413L11.5413 15.3876L3.6865 23.163C3.50876 23.3389 3.2677 23.4377 3.01634 23.4377C2.76499 23.4377 2.52393 23.3389 2.34619 23.163C2.16845 22.9871 2.0686 22.7485 2.0686 22.4997C2.0686 22.2509 2.16845 22.0124 2.34619 21.8364L10.8711 13.3989C10.9591 13.3118 11.0635 13.2426 11.1785 13.1955C11.2935 13.1483 11.4168 13.124 11.5413 13.124C11.6657 13.124 11.789 13.1483 11.904 13.1955C12.019 13.2426 12.1234 13.3118 12.2114 13.3989L16.2773 17.4243L22.5159 11.2497L19.396 8.16301C19.2634 8.03189 19.1731 7.86478 19.1365 7.68283C19.0999 7.50087 19.1186 7.31226 19.1904 7.14086C19.2621 6.96946 19.3836 6.82299 19.5395 6.71999C19.6955 6.61698 19.8787 6.56208 20.0662 6.56223H27.6439C27.8951 6.56223 28.136 6.661 28.3137 6.83681C28.4913 7.01263 28.5911 7.25109 28.5911 7.49973Z" fill="black"/>
</svg>
