<svg width="30" height="30" viewBox="0 0 30 30" fill="none" xmlns="http://www.w3.org/2000/svg">
<path d="M29.9287 12.1211L28.1787 7.74609C28.0302 7.37573 27.7738 7.05854 27.4428 6.83566C27.1119 6.61277 26.7215 6.49447 26.3225 6.49609H22V5.49609C22 5.23088 21.8946 4.97652 21.7071 4.78899C21.5196 4.60145 21.2652 4.49609 21 4.49609H2C1.46957 4.49609 0.960859 4.70681 0.585786 5.08188C0.210714 5.45695 0 5.96566 0 6.49609V20.4961C0 21.0265 0.210714 21.5352 0.585786 21.9103C0.960859 22.2854 1.46957 22.4961 2 22.4961H4.125C4.3453 23.3565 4.8457 24.1191 5.54731 24.6637C6.24892 25.2083 7.11183 25.5039 8 25.5039C8.88817 25.5039 9.75108 25.2083 10.4527 24.6637C11.1543 24.1191 11.6547 23.3565 11.875 22.4961H18.125C18.3453 23.3565 18.8457 24.1191 19.5473 24.6637C20.2489 25.2083 21.1118 25.5039 22 25.5039C22.8882 25.5039 23.7511 25.2083 24.4527 24.6637C25.1543 24.1191 25.6547 23.3565 25.875 22.4961H28C28.5304 22.4961 29.0391 22.2854 29.4142 21.9103C29.7893 21.5352 30 21.0265 30 20.4961V12.4961C30.0001 12.3677 29.976 12.2405 29.9287 12.1211ZM8 23.4961C7.60444 23.4961 7.21776 23.3788 6.88886 23.159C6.55996 22.9393 6.30362 22.6269 6.15224 22.2615C6.00087 21.896 5.96126 21.4939 6.03843 21.1059C6.1156 20.718 6.30608 20.3616 6.58579 20.0819C6.86549 19.8022 7.22186 19.6117 7.60982 19.5345C7.99778 19.4574 8.39991 19.497 8.76537 19.6483C9.13082 19.7997 9.44318 20.0561 9.66294 20.385C9.8827 20.7139 10 21.1005 10 21.4961C10 22.0265 9.78929 22.5352 9.41421 22.9103C9.03914 23.2854 8.53043 23.4961 8 23.4961ZM2 14.4961V6.49609H20V14.4961H2ZM22 23.4961C21.6044 23.4961 21.2178 23.3788 20.8889 23.159C20.56 22.9393 20.3036 22.6269 20.1522 22.2615C20.0009 21.896 19.9613 21.4939 20.0384 21.1059C20.1156 20.718 20.3061 20.3616 20.5858 20.0819C20.8655 19.8022 21.2219 19.6117 21.6098 19.5345C21.9978 19.4574 22.3999 19.497 22.7654 19.6483C23.1308 19.7997 23.4432 20.0561 23.6629 20.385C23.8827 20.7139 24 21.1005 24 21.4961C24 22.0265 23.7893 22.5352 23.4142 22.9103C23.0391 23.2854 22.5304 23.4961 22 23.4961ZM22 11.4961V8.49609H26.3225L27.5225 11.4961H22Z" fill="black"/>
<path d="M3.80607 11.715V8.89678H5.77109V9.44996H4.48722V10.0279H5.67064V10.5825H4.48722V11.1618H5.77109V11.715H3.80607Z" fill="black"/>
<path d="M6.5658 8.89678H7.40933L8.12488 10.6416H8.15791L8.87346 8.89678H9.71699V11.715H9.05372V9.98387H9.03033L8.35331 11.6971H7.92948L7.25245 9.97424H7.22906V11.715H6.5658V8.89678Z" fill="black"/>
<path d="M10.51 11.715V8.89678H11.6741C11.8851 8.89678 12.0672 8.93806 12.2204 9.02063C12.3745 9.10227 12.4933 9.21649 12.5768 9.36327C12.6603 9.50913 12.702 9.67885 12.702 9.87241C12.702 10.0669 12.6594 10.2371 12.5741 10.3829C12.4897 10.5279 12.369 10.6403 12.2122 10.7201C12.0553 10.7999 11.8691 10.8398 11.6535 10.8398H10.9352V10.3031H11.5269C11.6296 10.3031 11.7154 10.2852 11.7842 10.2495C11.8539 10.2137 11.9067 10.1637 11.9425 10.0995C11.9782 10.0343 11.9961 9.95865 11.9961 9.87241C11.9961 9.78526 11.9782 9.71004 11.9425 9.64674C11.9067 9.58252 11.8539 9.53298 11.7842 9.49812C11.7145 9.46326 11.6287 9.44583 11.5269 9.44583H11.1911V11.715H10.51Z" fill="black"/>
<path d="M13.3137 9.44996V8.89678H15.6957V9.44996H14.8412V11.715H14.1696V9.44996H13.3137Z" fill="black"/>
<path d="M16.2561 8.89678H17.0171L17.6129 10.0761H17.6377L18.2335 8.89678H18.9945L17.9638 10.7737V11.715H17.2868V10.7737L16.2561 8.89678Z" fill="black"/>
</svg>
