<svg width="70" height="31" viewBox="0 0 70 31" fill="none" xmlns="http://www.w3.org/2000/svg">
<path fill-rule="evenodd" clip-rule="evenodd" d="M3 0C1.34315 0 0 1.34315 0 3V28C0 29.6569 1.34315 31 3 31H67C68.6569 31 70 29.6569 70 28V3C70 1.34315 68.6569 0 67 0H3ZM57.349 13.8871H59.3443C59.2625 13.2789 59.0882 12.7383 58.8215 12.2653C58.5583 11.7887 58.2222 11.3868 57.8132 11.0596C57.4041 10.7288 56.9382 10.478 56.4154 10.3073C55.8926 10.1366 55.327 10.0512 54.7188 10.0512C53.7657 10.0512 52.912 10.2735 52.158 10.7181C51.404 11.1627 50.8083 11.8047 50.3708 12.6441C49.9333 13.4799 49.7146 14.4864 49.7146 15.6637C49.7146 16.8374 49.9315 17.8439 50.3655 18.6833C50.7994 19.5227 51.3933 20.1647 52.1474 20.6093C52.9014 21.0539 53.7585 21.2762 54.7188 21.2762C55.3697 21.2762 55.9619 21.1801 56.4954 20.9881C57.0289 20.7924 57.4948 20.5221 57.8932 20.1771C58.2915 19.8286 58.6134 19.4267 58.8588 18.9714C59.1078 18.5162 59.2696 18.0289 59.3443 17.5096L57.349 17.4989C57.2886 17.8191 57.1783 18.1036 57.0182 18.3526C56.8618 18.6015 56.6679 18.8114 56.4367 18.9821C56.2091 19.1528 55.9512 19.2826 55.6631 19.3715C55.3786 19.4569 55.0727 19.4996 54.7455 19.4996C54.1551 19.4996 53.6305 19.3555 53.1717 19.0675C52.7164 18.7758 52.3572 18.3454 52.094 17.7764C51.8344 17.2037 51.7045 16.4995 51.7045 15.6637C51.7045 14.8421 51.8344 14.1468 52.094 13.5777C52.3536 13.0051 52.7129 12.5711 53.1717 12.2759C53.6305 11.9772 54.1569 11.8278 54.7509 11.8278C55.0852 11.8278 55.3964 11.874 55.6845 11.9665C55.9761 12.0554 56.2358 12.1888 56.4634 12.3666C56.691 12.5445 56.8813 12.7614 57.0343 13.0175C57.1872 13.27 57.2921 13.5599 57.349 13.8871ZM9.52839 10.1426V21.0688H13.9511C14.787 21.0688 15.4805 20.939 16.0318 20.6793C16.5831 20.4197 16.9957 20.0658 17.2695 19.6177C17.5434 19.166 17.6803 18.6574 17.6803 18.0919C17.6803 17.537 17.5665 17.064 17.3389 16.6727C17.1113 16.2815 16.8178 15.9792 16.4586 15.7658C16.1029 15.5488 15.7313 15.4297 15.3436 15.4083V15.3016C15.6993 15.2163 16.0211 15.0758 16.3092 14.8802C16.5973 14.6845 16.8267 14.4302 16.9974 14.1172C17.1682 13.8007 17.2535 13.4201 17.2535 12.9756C17.2535 12.4349 17.1219 11.9512 16.8587 11.5244C16.5991 11.0976 16.2061 10.7615 15.6797 10.5161C15.1569 10.2671 14.5006 10.1426 13.7111 10.1426H9.52839ZM13.6364 19.4149H11.5077V16.2139H13.6897C14.0987 16.2139 14.4509 16.2904 14.7461 16.4433C15.0413 16.5927 15.2689 16.799 15.4289 17.0622C15.589 17.3218 15.669 17.6135 15.669 17.9371C15.669 18.3711 15.509 18.7267 15.1889 19.0041C14.8723 19.278 14.3548 19.4149 13.6364 19.4149ZM13.4656 14.7895H11.5077V11.7752H13.5083C14.0916 11.7752 14.5309 11.9121 14.8261 12.186C15.1248 12.4598 15.2742 12.8084 15.2742 13.2316C15.2742 13.5517 15.1942 13.8292 15.0342 14.0639C14.8777 14.2951 14.6625 14.4747 14.3886 14.6027C14.1147 14.7272 13.8071 14.7895 13.4656 14.7895ZM28.5371 21.1268H30.6498L31.5534 18.4326H35.6611L36.5664 21.1268H38.679L34.8271 10.2006H32.3837L28.5371 21.1268ZM35.127 16.8427L33.6481 12.4413H33.5627L32.0866 16.8427H35.127ZM40.1182 21.1268V10.2006H44.3008C45.0904 10.2006 45.7466 10.3251 46.2695 10.5741C46.7959 10.8195 47.1889 11.1556 47.4485 11.5824C47.7117 12.0092 47.8433 12.4929 47.8433 13.0335C47.8433 13.4781 47.7579 13.8587 47.5872 14.1752C47.4165 14.4882 47.1871 14.7425 46.899 14.9381C46.6109 15.1337 46.289 15.2742 45.9334 15.3596V15.4663C46.321 15.4876 46.6927 15.6068 47.0484 15.8237C47.4076 16.0371 47.701 16.3395 47.9287 16.7307C48.1563 17.1219 48.2701 17.595 48.2701 18.1498C48.2701 18.7153 48.1332 19.2239 47.8593 19.6756C47.5855 20.1238 47.1729 20.4777 46.6216 20.7373C46.0703 20.997 45.3767 21.1268 44.5409 21.1268H40.1182ZM42.0975 19.4729H44.2262C44.9446 19.4729 45.4621 19.336 45.7786 19.0621C46.0988 18.7847 46.2588 18.429 46.2588 17.9951C46.2588 17.6714 46.1788 17.3798 46.0187 17.1202C45.8587 16.857 45.6311 16.6507 45.3358 16.5013C45.0406 16.3484 44.6885 16.2719 44.2795 16.2719H42.0975V19.4729ZM42.0975 14.8474H44.0554C44.3969 14.8474 44.7045 14.7852 44.9784 14.6607C45.2523 14.5327 45.4674 14.3531 45.6239 14.1219C45.784 13.8871 45.864 13.6097 45.864 13.2896C45.864 12.8664 45.7146 12.5178 45.4159 12.2439C45.1207 11.9701 44.6814 11.8331 44.0981 11.8331H42.0975V14.8474Z" fill="black"/>
<rect x="3.5" y="3.5" width="63" height="24" rx="1.5" stroke="white"/>
</svg>
