<svg width="30" height="30" viewBox="0 0 30 30" fill="none" xmlns="http://www.w3.org/2000/svg">
<path d="M4.99977 25V17.5C4.99977 14.8478 6.05333 12.3043 7.9287 10.4289C9.80406 8.55357 12.3476 7.5 14.9998 7.5C17.6519 7.5 20.1955 8.55357 22.0708 10.4289C23.9462 12.3043 24.9998 14.8478 24.9998 17.5V25H26.2498V27.5H3.74977V25H4.99977ZM7.49977 17.5H9.99977C9.99977 16.1739 10.5266 14.9021 11.4642 13.9645C12.4019 13.0268 13.6737 12.5 14.9998 12.5V10C13.0106 10 11.103 10.7902 9.69646 12.1967C8.28994 13.6032 7.49977 15.5109 7.49977 17.5ZM13.7498 2.5H16.2498V6.25H13.7498V2.5ZM24.7223 6.01L26.4898 7.7775L23.8398 10.4288L22.071 8.66125L24.7223 6.01ZM3.51102 7.7775L5.27852 6.01L7.92977 8.66L6.16102 10.43L3.51102 7.7775Z" fill="black"/>
</svg>
