<svg width="30" height="30" viewBox="0 0 30 30" fill="none" xmlns="http://www.w3.org/2000/svg">
<g clip-path="url(#clip0_2571_7549)">
<path d="M27.2727 9.54445C27.996 9.54445 28.6897 9.8318 29.2012 10.3433C29.7127 10.8548 30 11.5485 30 12.2719V17.7267C30 18.45 29.7127 19.1437 29.2012 19.6552C28.6897 20.1667 27.996 20.4541 27.2727 20.4541H25.8245C25.4921 23.0905 24.209 25.515 22.216 27.2726C20.223 29.0302 17.6572 30 15 30V27.2726C17.17 27.2726 19.251 26.4105 20.7854 24.8761C22.3198 23.3416 23.1818 21.2604 23.1818 19.0904V10.9082C23.1818 8.7381 22.3198 6.65692 20.7854 5.12245C19.251 3.58799 17.17 2.72594 15 2.72594C12.83 2.72594 10.749 3.58799 9.21458 5.12245C7.68019 6.65692 6.81818 8.7381 6.81818 10.9082V20.4541H2.72727C2.00396 20.4541 1.31026 20.1667 0.7988 19.6552C0.287337 19.1437 0 18.45 0 17.7267V12.2719C0 11.5485 0.287337 10.8548 0.7988 10.3433C1.31026 9.8318 2.00396 9.54445 2.72727 9.54445H4.17545C4.50822 6.90827 5.79147 4.48412 7.78442 2.72686C9.77736 0.969597 12.343 0 15 0C17.657 0 20.2226 0.969597 22.2156 2.72686C24.2085 4.48412 25.4918 6.90827 25.8245 9.54445H27.2727ZM9.21818 20.1609L10.6636 17.848C11.9633 18.6622 13.4664 19.0929 15 19.0904C16.5336 19.0929 18.0367 18.6622 19.3364 17.848L20.7818 20.1609C19.049 21.2466 17.0448 21.8209 15 21.8178C12.9552 21.8209 10.951 21.2466 9.21818 20.1609Z" fill="black"/>
</g>
<defs>
<clipPath id="clip0_2571_7549">
<rect width="30" height="30" fill="white"/>
</clipPath>
</defs>
</svg>
