<svg width="30" height="30" viewBox="0 0 30 30" fill="none" xmlns="http://www.w3.org/2000/svg">
<path d="M23.6309 2.5C23.9624 2.5 24.2803 2.6317 24.5147 2.86612C24.7492 3.10054 24.8809 3.41848 24.8809 3.75V8.44625L13.6321 19.6962L13.6246 24.9938L18.9321 25.0012L24.8809 19.0525V26.25C24.8809 26.5815 24.7492 26.8995 24.5147 27.1339C24.2803 27.3683 23.9624 27.5 23.6309 27.5H3.63086C3.29934 27.5 2.9814 27.3683 2.74698 27.1339C2.51256 26.8995 2.38086 26.5815 2.38086 26.25V3.75C2.38086 3.41848 2.51256 3.10054 2.74698 2.86612C2.9814 2.6317 3.29934 2.5 3.63086 2.5H23.6309ZM25.8534 11.01L27.6209 12.7775L17.8984 22.5L16.1284 22.4975L16.1309 20.7325L25.8534 11.01ZM13.6309 15H7.38086V17.5H13.6309V15ZM17.3809 10H7.38086V12.5H17.3809V10Z" fill="black"/>
</svg>
