<svg width="30" height="30" viewBox="0 0 30 30" fill="none" xmlns="http://www.w3.org/2000/svg">
<path d="M8 5.99999V1.5C8 1.10217 8.15804 0.720644 8.43934 0.439339C8.72064 0.158035 9.10218 0 9.5 0H27.5C27.8978 0 28.2794 0.158035 28.5607 0.439339C28.842 0.720644 29 1.10217 29 1.5V22.5C29 22.8978 28.842 23.2793 28.5607 23.5606C28.2794 23.8419 27.8978 24 27.5 24H23V28.5C23 29.328 22.325 30 21.4895 30H3.5105C3.31269 30.0012 3.1166 29.9632 2.93348 29.8884C2.75037 29.8136 2.58385 29.7033 2.44349 29.5639C2.30313 29.4245 2.19169 29.2588 2.11558 29.0762C2.03947 28.8936 2.00019 28.6978 2 28.5L2.0045 7.49999C2.0045 6.67199 2.6795 5.99999 3.515 5.99999H8ZM11 5.99999H23V21H26V3H11V5.99999ZM8 13.5V16.5H17V13.5H8ZM8 19.5V22.5H17V19.5H8Z" fill="black"/>
</svg>
