<svg width="25" height="25" viewBox="0 0 25 25" fill="none" xmlns="http://www.w3.org/2000/svg">
<path d="M5.20866 22.9166C4.93239 22.9166 4.66744 22.8068 4.47209 22.6115C4.27674 22.4161 4.16699 22.1512 4.16699 21.8749V3.12492C4.16699 2.84865 4.27674 2.5837 4.47209 2.38835C4.66744 2.193 4.93239 2.08325 5.20866 2.08325H19.792C20.0683 2.08325 20.3332 2.193 20.5286 2.38835C20.7239 2.5837 20.8337 2.84865 20.8337 3.12492V21.8749C20.8337 22.1512 20.7239 22.4161 20.5286 22.6115C20.3332 22.8068 20.0683 22.9166 19.792 22.9166H5.20866ZM15.6253 16.6666L20.8337 12.4999L15.6253 8.33325V11.4583H9.37533V13.5416H15.6253V16.6666Z" fill="black"/>
</svg>
