<svg width="24" height="24" viewBox="0 0 24 24" fill="none" xmlns="http://www.w3.org/2000/svg">
<path d="M7.3957 2.50867C9.19156 2.50879 10.9261 3.17959 12.2757 4.39595C13.6253 5.61231 14.4978 7.29116 14.7306 9.11936L16.8106 12.4783C16.9475 12.6995 16.9197 13.0288 16.6026 13.1693L14.7916 13.9647V16.7456C14.7916 17.2491 14.5968 17.7319 14.25 18.0879C13.9033 18.4439 13.433 18.6439 12.9426 18.6439H11.0946L11.0936 21.4913H2.77328V17.9852C2.77328 16.8652 2.3702 15.805 1.62322 14.8483C0.752126 13.7317 0.206023 12.3851 0.0478222 10.9637C-0.110379 9.54238 0.125759 8.10405 0.729032 6.81446C1.3323 5.52486 2.27817 4.43647 3.45764 3.67469C4.63712 2.9129 6.00223 2.5087 7.3957 2.50867ZM18.6319 17.7916L17.0926 16.738C18.0056 15.3359 18.4919 13.6866 18.4895 12C18.4924 10.3131 18.0065 8.66348 17.0935 7.26096L18.6319 6.20743C19.7479 7.92167 20.342 9.93805 20.3385 12C20.3385 14.1431 19.7098 16.1344 18.6319 17.7916Z" fill="black"/>
<path d="M22.3831 20.1354L20.8663 18.9244C21.7313 16.955 22.2504 14.3696 22.2482 12.0006C22.2509 9.6313 21.7312 7.05494 20.8663 5.085L22.3831 3.86457C23.4405 6.27236 24.0033 9.10451 24 12.0006C24 15.0108 23.4044 17.8077 22.3831 20.1354Z" fill="black"/>
</svg>
