<svg width="30" height="30" viewBox="0 0 30 30" fill="none" xmlns="http://www.w3.org/2000/svg">
<path d="M26.25 3.75V26.26C26.2497 26.589 26.1187 26.9044 25.886 27.1369C25.6533 27.3694 25.3377 27.5 25.0087 27.5H4.99125C4.66297 27.4977 4.34877 27.3664 4.11652 27.1344C3.88427 26.9023 3.75262 26.5883 3.75 26.26V3.74C3.75 3.055 4.30625 2.5 4.99125 2.5H25C25.3315 2.5 25.6495 2.6317 25.8839 2.86612C26.1183 3.10054 26.25 3.41848 26.25 3.75ZM14.1163 16.4013L11.0225 13.3075L9.255 15.0762L14.1163 19.9375L21.1875 12.8663L19.42 11.0987L14.1163 16.4013Z" fill="black"/>
</svg>
