<svg width="30" height="31" viewBox="0 0 30 31" fill="none" xmlns="http://www.w3.org/2000/svg">
<path fill-rule="evenodd" clip-rule="evenodd" d="M9.05625 2.67999H20.9437C22.3925 2.67999 23.1163 2.67999 23.7013 2.88374C24.2528 3.07923 24.7519 3.39926 25.1597 3.81897C25.5675 4.23868 25.873 4.74677 26.0525 5.30374C26.25 5.90624 26.25 6.65124 26.25 8.14249V25.6475C26.25 26.72 25.0188 27.29 24.24 26.5775C24.0215 26.3756 23.735 26.2635 23.4375 26.2635C23.14 26.2635 22.8535 26.3756 22.635 26.5775L22.0312 27.13C21.6485 27.4839 21.1463 27.6805 20.625 27.6805C20.1037 27.6805 19.6015 27.4839 19.2188 27.13C18.836 26.776 18.3338 26.5794 17.8125 26.5794C17.2912 26.5794 16.789 26.776 16.4062 27.13C16.0235 27.4839 15.5213 27.6805 15 27.6805C14.4787 27.6805 13.9765 27.4839 13.5938 27.13C13.211 26.776 12.7088 26.5794 12.1875 26.5794C11.6662 26.5794 11.164 26.776 10.7812 27.13C10.3985 27.4839 9.89633 27.6805 9.375 27.6805C8.85367 27.6805 8.35151 27.4839 7.96875 27.13L7.365 26.5775C7.14652 26.3756 6.85997 26.2635 6.5625 26.2635C6.26503 26.2635 5.97848 26.3756 5.76 26.5775C4.98125 27.29 3.75 26.72 3.75 25.6475V8.14249C3.75 6.65124 3.75 5.90499 3.9475 5.30499C4.3225 4.16374 5.19125 3.26874 6.29875 2.88374C6.88375 2.67999 7.6075 2.67999 9.05625 2.67999ZM8.75 8.61749C8.50136 8.61749 8.2629 8.71626 8.08709 8.89208C7.91127 9.0679 7.8125 9.30635 7.8125 9.55499C7.8125 9.80363 7.91127 10.0421 8.08709 10.2179C8.2629 10.3937 8.50136 10.4925 8.75 10.4925H9.375C9.62364 10.4925 9.8621 10.3937 10.0379 10.2179C10.2137 10.0421 10.3125 9.80363 10.3125 9.55499C10.3125 9.30635 10.2137 9.0679 10.0379 8.89208C9.8621 8.71626 9.62364 8.61749 9.375 8.61749H8.75ZM13.125 8.61749C12.8764 8.61749 12.6379 8.71626 12.4621 8.89208C12.2863 9.0679 12.1875 9.30635 12.1875 9.55499C12.1875 9.80363 12.2863 10.0421 12.4621 10.2179C12.6379 10.3937 12.8764 10.4925 13.125 10.4925H21.25C21.4986 10.4925 21.7371 10.3937 21.9129 10.2179C22.0887 10.0421 22.1875 9.80363 22.1875 9.55499C22.1875 9.30635 22.0887 9.0679 21.9129 8.89208C21.7371 8.71626 21.4986 8.61749 21.25 8.61749H13.125ZM8.75 12.9925C8.50136 12.9925 8.2629 13.0913 8.08709 13.2671C7.91127 13.4429 7.8125 13.6814 7.8125 13.93C7.8125 14.1786 7.91127 14.4171 8.08709 14.5929C8.2629 14.7687 8.50136 14.8675 8.75 14.8675H9.375C9.62364 14.8675 9.8621 14.7687 10.0379 14.5929C10.2137 14.4171 10.3125 14.1786 10.3125 13.93C10.3125 13.6814 10.2137 13.4429 10.0379 13.2671C9.8621 13.0913 9.62364 12.9925 9.375 12.9925H8.75ZM13.125 12.9925C12.8764 12.9925 12.6379 13.0913 12.4621 13.2671C12.2863 13.4429 12.1875 13.6814 12.1875 13.93C12.1875 14.1786 12.2863 14.4171 12.4621 14.5929C12.6379 14.7687 12.8764 14.8675 13.125 14.8675H21.25C21.4986 14.8675 21.7371 14.7687 21.9129 14.5929C22.0887 14.4171 22.1875 14.1786 22.1875 13.93C22.1875 13.6814 22.0887 13.4429 21.9129 13.2671C21.7371 13.0913 21.4986 12.9925 21.25 12.9925H13.125ZM8.75 17.3675C8.50136 17.3675 8.2629 17.4663 8.08709 17.6421C7.91127 17.8179 7.8125 18.0564 7.8125 18.305C7.8125 18.5536 7.91127 18.7921 8.08709 18.9679C8.2629 19.1437 8.50136 19.2425 8.75 19.2425H9.375C9.62364 19.2425 9.8621 19.1437 10.0379 18.9679C10.2137 18.7921 10.3125 18.5536 10.3125 18.305C10.3125 18.0564 10.2137 17.8179 10.0379 17.6421C9.8621 17.4663 9.62364 17.3675 9.375 17.3675H8.75ZM13.125 17.3675C12.8764 17.3675 12.6379 17.4663 12.4621 17.6421C12.2863 17.8179 12.1875 18.0564 12.1875 18.305C12.1875 18.5536 12.2863 18.7921 12.4621 18.9679C12.6379 19.1437 12.8764 19.2425 13.125 19.2425H21.25C21.4986 19.2425 21.7371 19.1437 21.9129 18.9679C22.0887 18.7921 22.1875 18.5536 22.1875 18.305C22.1875 18.0564 22.0887 17.8179 21.9129 17.6421C21.7371 17.4663 21.4986 17.3675 21.25 17.3675H13.125Z" fill="black"/>
</svg>
