<svg width="30" height="30" viewBox="0 0 30 30" fill="none" xmlns="http://www.w3.org/2000/svg">
<path fill-rule="evenodd" clip-rule="evenodd" d="M12.5 5H17.5C22.2137 5 24.5712 5 26.035 6.465C27.5 7.92875 27.5 10.2863 27.5 15C27.5 19.7137 27.5 22.0712 26.035 23.535C24.5712 25 22.2137 25 17.5 25H12.5C7.78625 25 5.42875 25 3.965 23.535C2.5 22.0712 2.5 19.7137 2.5 15C2.5 10.2863 2.5 7.92875 3.965 6.465C5.42875 5 7.78625 5 12.5 5ZM16.5625 11.25C16.5625 11.0014 16.6613 10.7629 16.8371 10.5871C17.0129 10.4113 17.2514 10.3125 17.5 10.3125H23.75C23.9986 10.3125 24.2371 10.4113 24.4129 10.5871C24.5887 10.7629 24.6875 11.0014 24.6875 11.25C24.6875 11.4986 24.5887 11.7371 24.4129 11.9129C24.2371 12.0887 23.9986 12.1875 23.75 12.1875H17.5C17.2514 12.1875 17.0129 12.0887 16.8371 11.9129C16.6613 11.7371 16.5625 11.4986 16.5625 11.25ZM17.8125 15C17.8125 14.7514 17.9113 14.5129 18.0871 14.3371C18.2629 14.1613 18.5014 14.0625 18.75 14.0625H23.75C23.9986 14.0625 24.2371 14.1613 24.4129 14.3371C24.5887 14.5129 24.6875 14.7514 24.6875 15C24.6875 15.2486 24.5887 15.4871 24.4129 15.6629C24.2371 15.8387 23.9986 15.9375 23.75 15.9375H18.75C18.5014 15.9375 18.2629 15.8387 18.0871 15.6629C17.9113 15.4871 17.8125 15.2486 17.8125 15ZM19.0625 18.75C19.0625 18.5014 19.1613 18.2629 19.3371 18.0871C19.5129 17.9113 19.7514 17.8125 20 17.8125H23.75C23.9986 17.8125 24.2371 17.9113 24.4129 18.0871C24.5887 18.2629 24.6875 18.5014 24.6875 18.75C24.6875 18.9986 24.5887 19.2371 24.4129 19.4129C24.2371 19.5887 23.9986 19.6875 23.75 19.6875H20C19.7514 19.6875 19.5129 19.5887 19.3371 19.4129C19.1613 19.2371 19.0625 18.9986 19.0625 18.75ZM13.75 11.25C13.75 11.913 13.4866 12.5489 13.0178 13.0178C12.5489 13.4866 11.913 13.75 11.25 13.75C10.587 13.75 9.95107 13.4866 9.48223 13.0178C9.01339 12.5489 8.75 11.913 8.75 11.25C8.75 10.587 9.01339 9.95107 9.48223 9.48223C9.95107 9.01339 10.587 8.75 11.25 8.75C11.913 8.75 12.5489 9.01339 13.0178 9.48223C13.4866 9.95107 13.75 10.587 13.75 11.25ZM11.25 21.25C16.25 21.25 16.25 20.1313 16.25 18.75C16.25 17.3687 14.0125 16.25 11.25 16.25C8.4875 16.25 6.25 17.3687 6.25 18.75C6.25 20.1313 6.25 21.25 11.25 21.25Z" fill="black"/>
</svg>
