<svg width="30" height="30" viewBox="0 0 30 30" fill="none" xmlns="http://www.w3.org/2000/svg">
<path d="M19.3819 20.6262C19.6007 20.4562 19.7994 20.2575 20.1957 19.8612L25.1419 14.9137C25.2619 14.795 25.2069 14.5887 25.0482 14.5325C24.2742 14.2627 23.5715 13.8208 22.9932 13.24C22.4124 12.6616 21.9704 11.959 21.7007 11.185C21.6444 11.0262 21.4382 10.9712 21.3194 11.0912L16.3707 16.0375C15.9744 16.4337 15.7757 16.6325 15.6057 16.8512C15.4044 17.11 15.2307 17.3887 15.0907 17.6837C14.9719 17.9337 14.8832 18.2012 14.7057 18.7337L14.4757 19.4212L14.1107 20.515L13.7694 21.54C13.7269 21.6685 13.7209 21.8062 13.7521 21.9379C13.7833 22.0696 13.8505 22.19 13.9462 22.2857C14.0419 22.3814 14.1623 22.4486 14.294 22.4798C14.4257 22.511 14.5635 22.505 14.6919 22.4625L15.7169 22.1212L16.8107 21.7562L17.4982 21.5262C18.0307 21.3487 18.2982 21.2612 18.5482 21.1412C18.8432 21 19.1244 20.8287 19.3819 20.6262ZM26.6907 13.365C26.9488 13.1156 27.1547 12.8173 27.2964 12.4875C27.438 12.1577 27.5125 11.8029 27.5157 11.444C27.5188 11.0851 27.4504 10.7291 27.3145 10.3969C27.1786 10.0647 26.9779 9.76287 26.7242 9.50902C26.4704 9.25517 26.1686 9.05439 25.8365 8.91839C25.5043 8.78239 25.1484 8.71389 24.7894 8.71689C24.4305 8.71989 24.0758 8.79433 23.7459 8.93586C23.4161 9.07739 23.1177 9.28318 22.8682 9.54124L22.7094 9.70124C22.6338 9.77584 22.5774 9.86775 22.5452 9.96901C22.5129 10.0703 22.5058 10.1779 22.5244 10.2825C22.5494 10.4162 22.5932 10.6137 22.6744 10.8475C22.8369 11.3162 23.1444 11.9312 23.7232 12.51C24.1906 12.9811 24.7592 13.3398 25.3857 13.5587C25.6207 13.64 25.8169 13.6837 25.9507 13.7087C26.0553 13.7273 26.1629 13.7201 26.2641 13.6879C26.3654 13.6556 26.4573 13.5993 26.5319 13.5237L26.6907 13.365Z" fill="black"/>
<path fill-rule="evenodd" clip-rule="evenodd" d="M3.9484 3.965C2.4834 5.42875 2.4834 7.78625 2.4834 12.5V17.5C2.4834 22.2137 2.4834 24.5712 3.9484 26.035C5.41215 27.5 7.76965 27.5 12.4834 27.5H14.9834C19.6971 27.5 22.0546 27.5 23.5184 26.035C24.9596 24.595 24.9834 22.29 24.9834 17.725L21.4609 21.2475C21.1234 21.585 20.8471 21.8613 20.5359 22.105C20.1702 22.39 19.7745 22.6344 19.3559 22.8338C18.9721 23.0058 18.578 23.154 18.1759 23.2775L15.2859 24.2412C14.8271 24.3942 14.3348 24.4165 13.8641 24.3054C13.3934 24.1943 12.963 23.9543 12.621 23.6124C12.2791 23.2704 12.0391 22.84 11.928 22.3693C11.8169 21.8986 11.8392 21.4063 11.9921 20.9475L12.3346 19.9225L12.9284 18.14L12.9546 18.0575C13.1059 17.605 13.2296 17.235 13.3996 16.8775C13.5996 16.4587 13.8434 16.0638 14.1284 15.6988C14.3721 15.3863 14.6484 15.1113 14.9859 14.7738L19.9934 9.765L21.3834 8.375L21.5421 8.21625C21.9669 7.79025 22.4718 7.45244 23.0276 7.22226C23.5834 6.99208 24.1793 6.87406 24.7809 6.875C24.5921 5.5875 24.2259 4.67125 23.5184 3.965C22.0546 2.5 19.6971 2.5 14.9834 2.5H12.4834C7.76965 2.5 5.41215 2.5 3.9484 3.965ZM7.7959 11.25C7.7959 11.0014 7.89467 10.7629 8.07049 10.5871C8.2463 10.4113 8.48476 10.3125 8.7334 10.3125H16.8584C17.107 10.3125 17.3455 10.4113 17.5213 10.5871C17.6971 10.7629 17.7959 11.0014 17.7959 11.25C17.7959 11.4986 17.6971 11.7371 17.5213 11.9129C17.3455 12.0887 17.107 12.1875 16.8584 12.1875H8.7334C8.48476 12.1875 8.2463 12.0887 8.07049 11.9129C7.89467 11.7371 7.7959 11.4986 7.7959 11.25ZM7.7959 16.25C7.7959 16.0014 7.89467 15.7629 8.07049 15.5871C8.2463 15.4113 8.48476 15.3125 8.7334 15.3125H11.8584C12.107 15.3125 12.3455 15.4113 12.5213 15.5871C12.6971 15.7629 12.7959 16.0014 12.7959 16.25C12.7959 16.4986 12.6971 16.7371 12.5213 16.9129C12.3455 17.0887 12.107 17.1875 11.8584 17.1875H8.7334C8.48476 17.1875 8.2463 17.0887 8.07049 16.9129C7.89467 16.7371 7.7959 16.4986 7.7959 16.25ZM7.7959 21.25C7.7959 21.0014 7.89467 20.7629 8.07049 20.5871C8.2463 20.4113 8.48476 20.3125 8.7334 20.3125H10.6084C10.857 20.3125 11.0955 20.4113 11.2713 20.5871C11.4471 20.7629 11.5459 21.0014 11.5459 21.25C11.5459 21.4986 11.4471 21.7371 11.2713 21.9129C11.0955 22.0887 10.857 22.1875 10.6084 22.1875H8.7334C8.48476 22.1875 8.2463 22.0887 8.07049 21.9129C7.89467 21.7371 7.7959 21.4986 7.7959 21.25Z" fill="black"/>
</svg>
