<svg width="30" height="30" viewBox="0 0 30 30" fill="none" xmlns="http://www.w3.org/2000/svg">
<path d="M13.2211 10.88C14.0124 9.46 14.4086 8.75 14.9999 8.75C15.5911 8.75 15.9874 9.46 16.7786 10.88L16.9836 11.2475C17.2086 11.6513 17.3211 11.8525 17.4961 11.985C17.6711 12.1188 17.8911 12.1688 18.3274 12.2675L18.7249 12.3575C20.2624 12.705 21.0311 12.8788 21.2136 13.4675C21.3974 14.055 20.8724 14.6675 19.8249 15.8938L19.5536 16.2112C19.2561 16.5587 19.1074 16.7338 19.0411 16.9488C18.9724 17.1638 18.9949 17.3962 19.0411 17.8612L19.0811 18.2837C19.2399 19.9187 19.3186 20.7362 18.8399 21.1C18.3611 21.4625 17.6424 21.1325 16.2024 20.47L15.8299 20.2975C15.4211 20.11 15.2174 20.015 14.9999 20.015C14.7836 20.015 14.5786 20.11 14.1699 20.2975L13.7974 20.47C12.3574 21.1325 11.6386 21.4637 11.1599 21.1C10.6811 20.7375 10.7599 19.9187 10.9186 18.2837L10.9586 17.8612C11.0049 17.3962 11.0274 17.1638 10.9586 16.9488C10.8924 16.7338 10.7436 16.5587 10.4461 16.2112L10.1749 15.8938C9.1274 14.6688 8.6024 14.0563 8.78615 13.4675C8.96865 12.88 9.73615 12.705 11.2736 12.3575L11.6724 12.2675C12.1099 12.1675 12.3274 12.1187 12.5036 11.9862C12.6786 11.8525 12.7911 11.6512 13.0161 11.2487L13.2211 10.88Z" fill="black"/>
<path fill-rule="evenodd" clip-rule="evenodd" d="M15 1.5625C15.2486 1.5625 15.4871 1.66127 15.6629 1.83709C15.8387 2.0129 15.9375 2.25136 15.9375 2.5V5C15.9375 5.24864 15.8387 5.4871 15.6629 5.66291C15.4871 5.83873 15.2486 5.9375 15 5.9375C14.7514 5.9375 14.5129 5.83873 14.3371 5.66291C14.1613 5.4871 14.0625 5.24864 14.0625 5V2.5C14.0625 2.25136 14.1613 2.0129 14.3371 1.83709C14.5129 1.66127 14.7514 1.5625 15 1.5625ZM23.1625 6.8375C23.3381 7.01328 23.4367 7.25156 23.4367 7.5C23.4367 7.74844 23.3381 7.98672 23.1625 8.1625L22.7338 8.59125C22.556 8.75685 22.321 8.847 22.0781 8.84272C21.8352 8.83843 21.6035 8.74004 21.4317 8.56828C21.26 8.39651 21.1616 8.16478 21.1573 7.9219C21.153 7.67903 21.2432 7.44397 21.4088 7.26625L21.8375 6.8375C22.0133 6.66194 22.2516 6.56332 22.5 6.56332C22.7484 6.56332 22.9867 6.66194 23.1625 6.8375ZM6.8375 6.8375C7.01328 6.66194 7.25156 6.56332 7.5 6.56332C7.74844 6.56332 7.98672 6.66194 8.1625 6.8375L8.5925 7.26625C8.76319 7.44314 8.85758 7.68 8.85532 7.92581C8.85307 8.17162 8.75437 8.40672 8.58046 8.58045C8.40656 8.75419 8.17138 8.85268 7.92557 8.8547C7.67975 8.85672 7.44298 8.76211 7.26625 8.59125L6.8375 8.1625C6.66194 7.98672 6.56332 7.74844 6.56332 7.5C6.56332 7.25156 6.66194 7.01328 6.8375 6.8375ZM1.5625 15C1.5625 14.7514 1.66127 14.5129 1.83709 14.3371C2.0129 14.1613 2.25136 14.0625 2.5 14.0625H5C5.24864 14.0625 5.4871 14.1613 5.66291 14.3371C5.83873 14.5129 5.9375 14.7514 5.9375 15C5.9375 15.2486 5.83873 15.4871 5.66291 15.6629C5.4871 15.8387 5.24864 15.9375 5 15.9375H2.5C2.25136 15.9375 2.0129 15.8387 1.83709 15.6629C1.66127 15.4871 1.5625 15.2486 1.5625 15ZM24.0625 15C24.0625 14.7514 24.1613 14.5129 24.3371 14.3371C24.5129 14.1613 24.7514 14.0625 25 14.0625H27.5C27.7486 14.0625 27.9871 14.1613 28.1629 14.3371C28.3387 14.5129 28.4375 14.7514 28.4375 15C28.4375 15.2486 28.3387 15.4871 28.1629 15.6629C27.9871 15.8387 27.7486 15.9375 27.5 15.9375H25C24.7514 15.9375 24.5129 15.8387 24.3371 15.6629C24.1613 15.4871 24.0625 15.2486 24.0625 15ZM8.59125 21.4088C8.76681 21.5845 8.86542 21.8228 8.86542 22.0712C8.86542 22.3197 8.76681 22.558 8.59125 22.7338L8.1625 23.1625C7.98478 23.3281 7.74972 23.4183 7.50685 23.414C7.26397 23.4097 7.03224 23.3113 6.86047 23.1395C6.68871 22.9678 6.59032 22.736 6.58603 22.4932C6.58175 22.2503 6.6719 22.0152 6.8375 21.8375L7.26625 21.4088C7.44203 21.2332 7.68031 21.1346 7.92875 21.1346C8.17719 21.1346 8.41547 21.2332 8.59125 21.4088ZM21.4075 21.4088C21.4946 21.3216 21.5979 21.2525 21.7117 21.2054C21.8255 21.1582 21.9475 21.1339 22.0706 21.1339C22.1938 21.1339 22.3157 21.1582 22.4295 21.2054C22.5433 21.2525 22.6467 21.3216 22.7338 21.4088L23.1625 21.8375C23.3281 22.0152 23.4183 22.2503 23.414 22.4932C23.4097 22.736 23.3113 22.9678 23.1395 23.1395C22.9678 23.3113 22.736 23.4097 22.4932 23.414C22.2503 23.4183 22.0152 23.3281 21.8375 23.1625L21.4088 22.7338C21.2332 22.558 21.1346 22.3197 21.1346 22.0712C21.1346 21.8228 21.2332 21.5845 21.4088 21.4088H21.4075ZM15 24.0625C15.2486 24.0625 15.4871 24.1613 15.6629 24.3371C15.8387 24.5129 15.9375 24.7514 15.9375 25V27.5C15.9375 27.7486 15.8387 27.9871 15.6629 28.1629C15.4871 28.3387 15.2486 28.4375 15 28.4375C14.7514 28.4375 14.5129 28.3387 14.3371 28.1629C14.1613 27.9871 14.0625 27.7486 14.0625 27.5V25C14.0625 24.7514 14.1613 24.5129 14.3371 24.3371C14.5129 24.1613 14.7514 24.0625 15 24.0625Z" fill="black"/>
</svg>
