<svg width="30" height="30" viewBox="0 0 30 30" fill="none" xmlns="http://www.w3.org/2000/svg">
<path fill-rule="evenodd" clip-rule="evenodd" d="M17.2237 2.69C16.7612 2.5 16.1737 2.5 14.9999 2.5C13.8262 2.5 13.2387 2.5 12.7762 2.69C12.1605 2.94276 11.6704 3.42971 11.4137 4.04375C11.2962 4.3225 11.2512 4.64875 11.2324 5.1225C11.2241 5.46575 11.1283 5.80121 10.9542 6.09715C10.7801 6.39309 10.5334 6.63973 10.2374 6.81375C9.93584 6.98138 9.59684 7.07018 9.25181 7.07193C8.90679 7.07368 8.56691 6.98832 8.26366 6.82375C7.84116 6.60125 7.53491 6.47875 7.23241 6.43875C6.5706 6.35185 5.90125 6.52975 5.36991 6.93375C4.97241 7.23625 4.67866 7.74125 4.09241 8.75C3.50491 9.75875 3.21241 10.2625 3.14616 10.7563C3.05866 11.4138 3.23866 12.0788 3.64616 12.605C3.83116 12.845 4.09241 13.0463 4.49616 13.2988C5.09241 13.67 5.47491 14.3025 5.47491 15C5.47491 15.6975 5.09241 16.33 4.49741 16.7C4.09241 16.9538 3.83116 17.155 3.64491 17.395C3.44376 17.6549 3.29612 17.9521 3.21051 18.2695C3.12491 18.5868 3.10303 18.9179 3.14616 19.2438C3.21241 19.7363 3.50491 20.2413 4.09241 21.25C4.67991 22.2588 4.97241 22.7625 5.36991 23.0663C5.89991 23.47 6.56991 23.6475 7.23241 23.5613C7.53491 23.5213 7.84116 23.3988 8.26366 23.1763C8.56706 23.0115 8.90718 22.926 9.25244 22.9277C9.5977 22.9295 9.93693 23.0184 10.2387 23.1863C10.8462 23.5363 11.2062 24.18 11.2324 24.8775C11.2512 25.3525 11.2962 25.6775 11.4137 25.9563C11.6687 26.5688 12.1587 27.0563 12.7762 27.31C13.2387 27.5 13.8262 27.5 14.9999 27.5C16.1737 27.5 16.7612 27.5 17.2237 27.31C17.8393 27.0572 18.3294 26.5703 18.5862 25.9563C18.7037 25.6775 18.7487 25.3525 18.7674 24.8775C18.7924 24.18 19.1537 23.535 19.7624 23.1863C20.064 23.0186 20.403 22.9298 20.748 22.9281C21.093 22.9263 21.4329 23.0117 21.7362 23.1763C22.1587 23.3988 22.4649 23.5213 22.7674 23.5613C23.4299 23.6488 24.0999 23.47 24.6299 23.0663C25.0274 22.7638 25.3212 22.2588 25.9074 21.25C26.4949 20.2413 26.7874 19.7375 26.8537 19.2438C26.8966 18.9178 26.8745 18.5867 26.7887 18.2693C26.7029 17.952 26.555 17.6548 26.3537 17.395C26.1687 17.155 25.9074 16.9538 25.5037 16.7013C24.9074 16.33 24.5249 15.6975 24.5249 15C24.5249 14.3025 24.9074 13.67 25.5024 13.3C25.9074 13.0463 26.1687 12.845 26.3549 12.605C26.5561 12.3451 26.7037 12.0479 26.7893 11.7305C26.8749 11.4132 26.8968 11.0821 26.8537 10.7563C26.7874 10.2638 26.4949 9.75875 25.9074 8.75C25.3199 7.74125 25.0274 7.2375 24.6299 6.93375C24.0986 6.52975 23.4292 6.35185 22.7674 6.43875C22.4649 6.47875 22.1587 6.60125 21.7362 6.82375C21.4327 6.98854 21.0926 7.07402 20.7474 7.07227C20.4021 7.07053 20.0629 6.9816 19.7612 6.81375C19.4654 6.63958 19.2189 6.39287 19.0451 6.09694C18.8712 5.80101 18.7756 5.46564 18.7674 5.1225C18.7487 4.6475 18.7037 4.3225 18.5862 4.04375C18.4591 3.73967 18.2734 3.4636 18.0396 3.23132C17.8058 2.99904 17.5285 2.8151 17.2237 2.69ZM14.9999 18.75C17.0874 18.75 18.7787 17.0713 18.7787 15C18.7787 12.9288 17.0862 11.25 14.9999 11.25C12.9124 11.25 11.2212 12.9288 11.2212 15C11.2212 17.0713 12.9137 18.75 14.9999 18.75Z" fill="black"/>
</svg>
