<svg width="30" height="30" viewBox="0 0 30 30" fill="none" xmlns="http://www.w3.org/2000/svg">
<path d="M3.44374 18.3952L4.08999 20.8102C4.84499 23.629 5.22374 25.039 6.07999 25.9527C6.7558 26.6737 7.6301 27.1783 8.59249 27.4027C9.81249 27.6877 11.2225 27.3102 14.0425 26.5552C16.86 25.8002 18.27 25.4227 19.1837 24.5665C19.2587 24.4952 19.3337 24.4215 19.4037 24.3465C18.9781 24.3078 18.5549 24.2452 18.1362 24.159C17.2662 23.9865 16.2325 23.709 15.01 23.3815L14.8762 23.3452L14.845 23.3377C13.515 22.9802 12.4037 22.6827 11.5162 22.3627C10.5825 22.0252 9.73499 21.609 9.01374 20.934C8.02164 20.0045 7.32739 18.8017 7.01874 17.4777C6.79374 16.5165 6.85874 15.574 7.03374 14.5977C7.20124 13.6615 7.50124 12.539 7.86124 11.1952L8.52999 8.70273L8.55249 8.61523C6.15249 9.26148 4.88874 9.64398 4.04624 10.4327C3.32436 11.1091 2.81931 11.9843 2.59499 12.9477C2.30999 14.1665 2.68749 15.5765 3.44374 18.3952Z" fill="black"/>
<path fill-rule="evenodd" clip-rule="evenodd" d="M26.0375 13.3937L25.39 15.8087C24.6337 18.6275 24.2562 20.0375 23.4 20.9512C22.7243 21.6727 21.85 22.1777 20.8875 22.4025C20.7662 22.4312 20.6437 22.4525 20.5187 22.4675C19.375 22.6087 17.9787 22.235 15.4387 21.555C12.62 20.7987 11.21 20.4212 10.2962 19.565C9.57457 18.889 9.06954 18.0142 8.84499 17.0512C8.55999 15.8312 8.93749 14.4225 9.69374 11.6037L10.34 9.18874L10.645 8.05749C11.2137 5.97499 11.5962 4.82874 12.33 4.04499C13.0058 3.32399 13.8801 2.81942 14.8425 2.59499C16.0625 2.30999 17.4725 2.68749 20.2925 3.44374C23.11 4.19874 24.52 4.57624 25.4337 5.43124C26.1556 6.10756 26.6607 6.98281 26.885 7.94624C27.17 9.16624 26.7925 10.575 26.0375 13.3937ZM13.815 12.2562C13.8469 12.1373 13.9019 12.0258 13.9769 11.9281C14.0519 11.8305 14.1454 11.7485 14.2521 11.687C14.3588 11.6255 14.4765 11.5856 14.5987 11.5696C14.7208 11.5536 14.8448 11.5618 14.9637 11.5937L21.0012 13.2125C21.1233 13.2414 21.2383 13.2946 21.3395 13.3688C21.4406 13.443 21.5259 13.5367 21.5901 13.6445C21.6544 13.7522 21.6964 13.8718 21.7136 13.9961C21.7308 14.1203 21.7229 14.2468 21.6903 14.3679C21.6578 14.4891 21.6013 14.6025 21.5241 14.7014C21.4469 14.8003 21.3507 14.8827 21.2411 14.9437C21.1315 15.0048 21.0107 15.0432 20.886 15.0567C20.7613 15.0703 20.6351 15.0586 20.515 15.0225L14.4775 13.405C14.2376 13.3405 14.033 13.1835 13.9088 12.9683C13.7846 12.7532 13.7508 12.4963 13.815 12.2562ZM12.845 15.8787C12.9094 15.6388 13.0665 15.4343 13.2817 15.31C13.4968 15.1858 13.7525 15.1521 13.9925 15.2162L17.615 16.1875C17.7376 16.2158 17.8533 16.2685 17.9552 16.3425C18.057 16.4165 18.1429 16.5102 18.2077 16.6181C18.2726 16.726 18.315 16.8458 18.3325 16.9705C18.3501 17.0951 18.3423 17.222 18.3097 17.3436C18.2771 17.4652 18.2204 17.579 18.1429 17.6782C18.0654 17.7774 17.9687 17.8599 17.8586 17.921C17.7485 17.982 17.6273 18.0202 17.5021 18.0333C17.3769 18.0465 17.2504 18.0343 17.13 17.9975L13.5075 17.0275C13.3885 16.9956 13.2771 16.9406 13.1794 16.8656C13.0817 16.7906 12.9998 16.697 12.9383 16.5904C12.8767 16.4837 12.8368 16.3659 12.8208 16.2438C12.8048 16.1217 12.813 15.9977 12.845 15.8787Z" fill="black"/>
</svg>
