<svg width="30" height="30" viewBox="0 0 30 30" fill="none" xmlns="http://www.w3.org/2000/svg">
<g clip-path="url(#clip0_1498_7763)">
<path fill-rule="evenodd" clip-rule="evenodd" d="M21.1972 0C21.9365 0 22.5365 0.6 22.5365 1.33929V3.09643C22.5365 3.45163 22.3954 3.79228 22.1442 4.04345C21.893 4.29461 21.5524 4.43571 21.1972 4.43571C20.842 4.43571 20.5013 4.29461 20.2502 4.04345C19.999 3.79228 19.8579 3.45163 19.8579 3.09643V1.33929C19.8579 0.6 20.4579 0 21.1972 0ZM8.68288 18.7243C9.37516 18.7383 10.0633 18.6141 10.7069 18.3589C11.3506 18.1037 11.9369 17.7226 12.4315 17.238C12.926 16.7534 13.3189 16.1749 13.5871 15.5366C13.8553 14.8982 13.9935 14.2128 13.9935 13.5204C13.9935 12.8279 13.8553 12.1425 13.5871 11.5041C13.3189 10.8658 12.926 10.2873 12.4315 9.80272C11.9369 9.3181 11.3506 8.93702 10.7069 8.68181C10.0633 8.4266 9.37516 8.30238 8.68288 8.31643C7.321 8.34407 6.02422 8.90448 5.07085 9.87739C4.11748 10.8503 3.58349 12.1582 3.58349 13.5204C3.58349 14.8825 4.11748 16.1904 5.07085 17.1633C6.02422 18.1362 7.321 18.6966 8.68288 18.7243ZM0.0107422 29.1321C0.0465287 26.8555 0.976052 24.6842 2.5987 23.0868C4.22135 21.4895 6.40701 20.5942 8.68396 20.5942C10.9609 20.5942 13.1466 21.4895 14.7692 23.0868C16.3919 24.6842 17.3214 26.8555 17.3572 29.1321C17.3572 29.3623 17.2657 29.5831 17.103 29.7458C16.9402 29.9086 16.7195 30 16.4893 30H0.878599C0.648429 30 0.427686 29.9086 0.264932 29.7458C0.102177 29.5831 0.0107422 29.3623 0.0107422 29.1321ZM29.4022 5.34214C29.5494 5.24249 29.6753 5.11451 29.7726 4.96569C29.8698 4.81686 29.9365 4.65016 29.9686 4.47531C30.0008 4.30046 29.9978 4.12096 29.9599 3.94727C29.9219 3.77358 29.8498 3.60918 29.7477 3.46366C29.6455 3.31814 29.5154 3.19441 29.365 3.09969C29.2145 3.00497 29.0467 2.94115 28.8714 2.91196C28.696 2.88276 28.5166 2.88877 28.3435 2.92964C28.1705 2.97051 28.0074 3.04542 27.8636 3.15L26.4257 4.15929C26.1417 4.36592 25.9502 4.67589 25.8925 5.0224C25.8348 5.36891 25.9155 5.72421 26.1173 6.01174C26.3191 6.29927 26.6258 6.496 26.9713 6.55954C27.3168 6.62308 27.6734 6.54834 27.9643 6.35143L29.4022 5.34214ZM12.66 3.47786C12.4563 3.76836 12.3761 4.12785 12.4372 4.47738C12.4983 4.82692 12.6956 5.13793 12.9857 5.34214L14.4257 6.35143C14.5695 6.45601 14.7327 6.53092 14.9057 6.57179C15.0787 6.61266 15.2581 6.61867 15.4335 6.58947C15.6089 6.56028 15.7767 6.49646 15.9271 6.40174C16.0776 6.30701 16.2077 6.18329 16.3098 6.03777C16.4119 5.89225 16.4841 5.72785 16.522 5.55416C16.5599 5.38047 16.5629 5.20097 16.5308 5.02612C16.4986 4.85127 16.432 4.68457 16.3347 4.53574C16.2374 4.38692 16.1115 4.25894 15.9643 4.15929L14.5243 3.15C14.2338 2.94625 13.8743 2.86612 13.5248 2.92719C13.1753 2.98825 12.8642 3.18554 12.66 3.47571V3.47786ZM21.0965 6.08571C21.7309 6.07893 22.3603 6.19753 22.9488 6.43469C23.5372 6.67186 24.073 7.02293 24.5254 7.46774C24.9777 7.91255 25.3378 8.44234 25.5849 9.02669C25.8319 9.61104 25.9611 10.2384 25.965 10.8729C25.9436 12.63 24.8936 14.3014 23.3207 15.0857V17.4707C23.3174 17.6094 23.2599 17.7413 23.1606 17.8382C23.0613 17.9351 22.9281 17.9893 22.7893 17.9893H19.6007C19.462 17.9893 19.3287 17.9351 19.2294 17.8382C19.1301 17.7413 19.0727 17.6094 19.0693 17.4707V15.1264C18.313 14.741 17.6712 14.1635 17.2083 13.452C16.7453 12.7405 16.4774 11.9198 16.4315 11.0721C16.4089 10.4381 16.5117 9.80575 16.7342 9.21154C16.9567 8.61733 17.2943 8.07292 17.7278 7.60958C18.1613 7.14624 18.682 6.7731 19.2601 6.51159C19.8382 6.25008 20.4623 6.10535 21.0965 6.08571Z" fill="black"/>
</g>
<defs>
<clipPath id="clip0_1498_7763">
<rect width="30" height="30" fill="white"/>
</clipPath>
</defs>
</svg>
