<svg width="30" height="31" viewBox="0 0 30 31" fill="none" xmlns="http://www.w3.org/2000/svg">
<path d="M23.7488 4.25C24.8138 4.25 25.37 5.4825 24.7275 6.27875L24.6325 6.38375L19.8925 11.125L24.6325 15.8663C25.3863 16.6188 24.9075 17.8838 23.8913 17.9925L23.7488 18H7.49878V25.5C7.49874 25.8062 7.38633 26.1017 7.18289 26.3305C6.97944 26.5593 6.69909 26.7054 6.39503 26.7413L6.24878 26.75C5.94261 26.75 5.64711 26.6376 5.41831 26.4341C5.18952 26.2307 5.04335 25.9503 5.00753 25.6463L4.99878 25.5V5.5C4.99882 5.19383 5.11122 4.89833 5.31467 4.66954C5.51812 4.44074 5.79847 4.29457 6.10253 4.25875L6.24878 4.25H23.7488Z" fill="black"/>
</svg>
