<svg width="25" height="25" viewBox="0 0 25 25" fill="none" xmlns="http://www.w3.org/2000/svg">
<g clip-path="url(#clip0_118_642)">
<path d="M0 7.5V3.72529e-08H1.66667V7.5C1.66667 8.16304 1.93006 8.79893 2.3989 9.26777C2.86774 9.73661 3.50363 10 4.16667 10C4.82971 10 5.46559 9.73661 5.93443 9.26777C6.40327 8.79893 6.66667 8.16304 6.66667 7.5V2.5C6.66667 2.27899 6.57887 2.06702 6.42259 1.91074C6.26631 1.75446 6.05435 1.66667 5.83333 1.66667C5.61232 1.66667 5.40036 1.75446 5.24408 1.91074C5.0878 2.06702 5 2.27899 5 2.5V8.33333H3.33333V2.5C3.33333 2.1717 3.398 1.84661 3.52363 1.54329C3.64927 1.23998 3.83342 0.96438 4.06557 0.732233C4.29771 0.500087 4.57331 0.315938 4.87662 0.190301C5.17994 0.0646644 5.50503 0 5.83333 0C6.16164 0 6.48673 0.0646644 6.79004 0.190301C7.09336 0.315938 7.36895 0.500087 7.6011 0.732233C7.83325 0.96438 8.0174 1.23998 8.14303 1.54329C8.26867 1.84661 8.33333 2.1717 8.33333 2.5V7.5C8.33333 8.60507 7.89435 9.66488 7.11294 10.4463C6.33154 11.2277 5.27174 11.6667 4.16667 11.6667C3.0616 11.6667 2.00179 11.2277 1.22039 10.4463C0.438987 9.66488 0 8.60507 0 7.5H0Z" fill="black"/>
<path fill-rule="evenodd" clip-rule="evenodd" d="M20.8333 0H9.99996V7.5C9.99996 9.0471 9.38538 10.5308 8.29142 11.6248C7.19745 12.7188 5.71372 13.3333 4.16663 13.3333H1.66663V22.5C1.66663 23.163 1.93002 23.7989 2.39886 24.2678C2.8677 24.7366 3.50358 25 4.16663 25H20.8333C21.4963 25 22.1322 24.7366 22.6011 24.2678C23.0699 23.7989 23.3333 23.163 23.3333 22.5V2.5C23.3333 1.83696 23.0699 1.20107 22.6011 0.732233C22.1322 0.263392 21.4963 0 20.8333 0V0ZM18.3333 6.66667H11.6666V8.33333H18.3333V6.66667ZM18.3333 11.6667H11.6666V13.3333H18.3333V11.6667ZM6.66663 16.6667H18.3333V18.3333H6.66663V16.6667Z" fill="black"/>
</g>
<defs>
<clipPath id="clip0_118_642">
<rect width="25" height="25" fill="white"/>
</clipPath>
</defs>
</svg>
