<svg width="50" height="50" viewBox="0 0 50 50" fill="none" xmlns="http://www.w3.org/2000/svg">
<g clip-path="url(#clip0_302_389)">
<path d="M50 12.5L24.8125 0L0 12.5V15.625H3.125V50H9.375V21.875H40.625V50H46.875V15.625H50V12.5ZM12.5 18.75V15.625H18.75V18.75H12.5ZM21.875 18.75V15.625H28.125V18.75H21.875ZM31.25 18.75V15.625H37.5V18.75H31.25Z" fill="black"/>
<path d="M13 27.9605C13 27.1753 13.3161 26.4223 13.8787 25.8671C14.4413 25.3119 15.2044 25 16 25H34C34.7957 25 35.5587 25.3119 36.1213 25.8671C36.6839 26.4223 37 27.1753 37 27.9605V45.7237C37 45.9854 36.8946 46.2364 36.7071 46.4215C36.5196 46.6066 36.2652 46.7105 36 46.7105H34.6667V35.8553C34.6667 35.7105 34.6507 35.5671 34.6187 35.4276L33.6333 31.0513C33.4359 30.1748 32.9415 29.3908 32.2317 28.8289C31.522 28.267 30.6393 27.9607 29.7293 27.9605H20.2707C19.3605 27.9607 18.4777 28.2672 17.7679 28.8294C17.0582 29.3916 16.5639 30.1758 16.3667 31.0526L15.38 35.4276C15.3487 35.5681 15.3331 35.7115 15.3333 35.8553V46.7105H14C13.7348 46.7105 13.4804 46.6066 13.2929 46.4215C13.1054 46.2364 13 45.9854 13 45.7237V27.9605ZM20.2707 28.9474C19.5882 28.9475 18.9261 29.1773 18.3938 29.5988C17.8615 30.0203 17.4907 30.6083 17.3427 31.2658L16.356 35.6408C16.3405 35.7112 16.3329 35.7832 16.3333 35.8553V47.6974C16.3333 48.9684 17.3787 50 18.6667 50H20.6667C21.2855 50 21.879 49.7574 22.3166 49.3256C22.7542 48.8937 23 48.3081 23 47.6974V46.7105H27V47.6974C27 48.9684 28.0453 50 29.3333 50H31.3333C31.9522 50 32.5457 49.7574 32.9832 49.3256C33.4208 48.8937 33.6667 48.3081 33.6667 47.6974V35.8553C33.6667 35.7831 33.6586 35.7112 33.6427 35.6408L32.6573 31.2658C32.5093 30.6083 32.1385 30.0203 31.6062 29.5988C31.0739 29.1773 30.4118 28.9475 29.7293 28.9474H20.2707ZM19.2947 31.6934C19.3441 31.4743 19.4677 31.2784 19.6452 31.138C19.8226 30.9976 20.0432 30.9211 20.2707 30.9211H29.7293C29.9568 30.9211 30.1774 30.9976 30.3548 31.138C30.5323 31.2784 30.6559 31.4743 30.7053 31.6934L31.42 34.8684H18.58L19.2947 31.6934ZM18.3333 47.6974V46.7105H21V47.6974C21 47.7846 20.9649 47.8683 20.9024 47.93C20.8399 47.9917 20.7551 48.0263 20.6667 48.0263H18.6667C18.5783 48.0263 18.4935 47.9917 18.431 47.93C18.3685 47.8683 18.3333 47.7846 18.3333 47.6974ZM31.6667 46.7105V47.6974C31.6667 47.7846 31.6315 47.8683 31.569 47.93C31.5065 47.9917 31.4217 48.0263 31.3333 48.0263H29.3333C29.2449 48.0263 29.1601 47.9917 29.0976 47.93C29.0351 47.8683 29 47.7846 29 47.6974V46.7105H31.6667ZM23.3333 42.7632H26.6667C26.9319 42.7632 27.1862 42.8671 27.3738 43.0522C27.5613 43.2373 27.6667 43.4883 27.6667 43.75C27.6667 44.0117 27.5613 44.2627 27.3738 44.4478C27.1862 44.6329 26.9319 44.7368 26.6667 44.7368H23.3333C23.0681 44.7368 22.8138 44.6329 22.6262 44.4478C22.4387 44.2627 22.3333 44.0117 22.3333 43.75C22.3333 43.4883 22.4387 43.2373 22.6262 43.0522C22.8138 42.8671 23.0681 42.7632 23.3333 42.7632ZM22.34 39.4737C22.34 39.8227 22.1995 40.1573 21.9495 40.4041C21.6994 40.6508 21.3603 40.7895 21.0067 40.7895C20.653 40.7895 20.3139 40.6508 20.0639 40.4041C19.8138 40.1573 19.6733 39.8227 19.6733 39.4737C19.6733 39.1247 19.8138 38.79 20.0639 38.5433C20.3139 38.2965 20.653 38.1579 21.0067 38.1579C21.3603 38.1579 21.6994 38.2965 21.9495 38.5433C22.1995 38.79 22.34 39.1247 22.34 39.4737ZM29 40.7895C28.6464 40.7895 28.3072 40.6508 28.0572 40.4041C27.8071 40.1573 27.6667 39.8227 27.6667 39.4737C27.6667 39.1247 27.8071 38.79 28.0572 38.5433C28.3072 38.2965 28.6464 38.1579 29 38.1579C29.3536 38.1579 29.6928 38.2965 29.9428 38.5433C30.1929 38.79 30.3333 39.1247 30.3333 39.4737C30.3333 39.8227 30.1929 40.1573 29.9428 40.4041C29.6928 40.6508 29.3536 40.7895 29 40.7895Z" fill="black"/>
</g>
<defs>
<clipPath id="clip0_302_389">
<rect width="50" height="50" fill="white"/>
</clipPath>
</defs>
</svg>
