<svg width="30" height="30" viewBox="0 0 30 30" fill="none" xmlns="http://www.w3.org/2000/svg">
<path d="M10.625 16.875C12.3513 16.875 13.9138 16.175 15.045 15.0437C16.175 13.9137 16.875 12.3513 16.875 10.625C16.875 8.89875 16.175 7.33625 15.045 6.20625C13.9138 5.075 12.3513 4.375 10.625 4.375C8.89875 4.375 7.33625 5.075 6.205 6.20625C5.075 7.33625 4.375 8.89875 4.375 10.625C4.375 12.3513 5.075 13.9137 6.205 15.0437C6.78476 15.6251 7.47371 16.0862 8.23224 16.4005C8.99078 16.7148 9.80394 16.876 10.625 16.875ZM10.625 25.625C15.0225 25.625 18.125 24.375 18.125 23.125C18.125 20.625 15.1825 18.125 10.625 18.125C5.9375 18.125 3.125 20.625 3.125 23.125C3.125 24.375 5.9375 25.625 10.625 25.625ZM25.625 14.375H23.125V11.875C23.125 11.5435 22.9933 11.2255 22.7589 10.9911C22.5245 10.7567 22.2065 10.625 21.875 10.625C21.5435 10.625 21.2255 10.7567 20.9911 10.9911C20.7567 11.2255 20.625 11.5435 20.625 11.875V14.375H18.125C17.7935 14.375 17.4755 14.5067 17.2411 14.7411C17.0067 14.9755 16.875 15.2935 16.875 15.625C16.875 15.9565 17.0067 16.2745 17.2411 16.5089C17.4755 16.7433 17.7935 16.875 18.125 16.875H20.625V19.375C20.625 19.7065 20.7567 20.0245 20.9911 20.2589C21.2255 20.4933 21.5435 20.625 21.875 20.625C22.2065 20.625 22.5245 20.4933 22.7589 20.2589C22.9933 20.0245 23.125 19.7065 23.125 19.375V16.875H25.625C25.9565 16.875 26.2745 16.7433 26.5089 16.5089C26.7433 16.2745 26.875 15.9565 26.875 15.625C26.875 15.2935 26.7433 14.9755 26.5089 14.7411C26.2745 14.5067 25.9565 14.375 25.625 14.375Z" fill="black"/>
</svg>
