<svg width="30" height="30" viewBox="0 0 30 30" fill="none" xmlns="http://www.w3.org/2000/svg">
<path d="M27.1372 11.6118L22.1372 6.61176C22.0206 6.49521 21.8823 6.40276 21.73 6.33968C21.5777 6.27661 21.4145 6.24414 21.2497 6.24414C20.9168 6.24414 20.5976 6.37638 20.3622 6.61176C20.1268 6.84713 19.9946 7.16638 19.9946 7.49926C19.9946 7.83213 20.1268 8.15138 20.3622 8.38676L23.2372 11.2493H8.74969C8.41817 11.2493 8.10022 11.381 7.8658 11.6154C7.63138 11.8498 7.49969 12.1677 7.49969 12.4993C7.49969 12.8308 7.63138 13.1487 7.8658 13.3831C8.10022 13.6176 8.41817 13.7493 8.74969 13.7493H26.2497C26.4965 13.748 26.7374 13.6738 26.942 13.5359C27.1467 13.3979 27.3059 13.2025 27.3997 12.9743C27.4954 12.7466 27.5216 12.4957 27.4748 12.2532C27.4281 12.0108 27.3106 11.7875 27.1372 11.6118ZM21.2497 16.2493H3.74969C3.5029 16.2505 3.26201 16.3247 3.05736 16.4627C2.85271 16.6006 2.69346 16.796 2.59969 17.0243C2.50396 17.2519 2.47781 17.5028 2.52453 17.7453C2.57124 17.9878 2.68874 18.211 2.86219 18.3868L7.86219 23.3868C7.97839 23.5039 8.11664 23.5969 8.26897 23.6604C8.42129 23.7238 8.58467 23.7565 8.74969 23.7565C8.9147 23.7565 9.07808 23.7238 9.23041 23.6604C9.38273 23.5969 9.52098 23.5039 9.63719 23.3868C9.75435 23.2705 9.84734 23.1323 9.9108 22.98C9.97426 22.8277 10.0069 22.6643 10.0069 22.4993C10.0069 22.3342 9.97426 22.1709 9.9108 22.0185C9.84734 21.8662 9.75435 21.728 9.63719 21.6118L6.76219 18.7493H21.2497C21.5812 18.7493 21.8991 18.6176 22.1336 18.3831C22.368 18.1487 22.4997 17.8308 22.4997 17.4993C22.4997 17.1677 22.368 16.8498 22.1336 16.6154C21.8991 16.381 21.5812 16.2493 21.2497 16.2493Z" fill="black"/>
</svg>
