<svg width="30" height="30" viewBox="0 0 30 30" fill="none" xmlns="http://www.w3.org/2000/svg">
<path d="M10.7812 10.625H5.15625C4.82473 10.625 4.50679 10.4933 4.27237 10.2589C4.03795 10.0245 3.90625 9.70652 3.90625 9.375V3.75C3.90625 3.41848 4.03795 3.10054 4.27237 2.86612C4.50679 2.6317 4.82473 2.5 5.15625 2.5C5.48777 2.5 5.80571 2.6317 6.04013 2.86612C6.27455 3.10054 6.40625 3.41848 6.40625 3.75V8.125H10.7812C11.1128 8.125 11.4307 8.2567 11.6651 8.49112C11.8996 8.72554 12.0312 9.04348 12.0312 9.375C12.0312 9.70652 11.8996 10.0245 11.6651 10.2589C11.4307 10.4933 11.1128 10.625 10.7812 10.625Z" fill="black"/>
<path d="M26.2515 16.2502C25.9199 16.2502 25.602 16.1186 25.3676 15.8841C25.1332 15.6497 25.0015 15.3318 25.0015 15.0002C25.0024 12.7997 24.277 10.6603 22.9378 8.91413C21.5987 7.16796 19.7206 5.91261 17.595 5.3429C15.4695 4.77319 13.2153 4.92097 11.1823 5.76331C9.14934 6.60564 7.45122 8.09543 6.35147 10.0015C6.18537 10.2884 5.9121 10.4976 5.59177 10.5831C5.27143 10.6685 4.93027 10.6232 4.64334 10.4571C4.35641 10.291 4.14721 10.0178 4.06176 9.69742C3.97632 9.37709 4.02162 9.03593 4.18772 8.749C5.56303 6.3668 7.68608 4.50506 10.2275 3.45261C12.7689 2.40016 15.5866 2.21584 18.2434 2.92823C20.9003 3.64063 23.2478 5.20993 24.9217 7.39266C26.5957 9.57539 27.5025 12.2495 27.5015 15.0002C27.5015 15.3318 27.3698 15.6497 27.1354 15.8841C26.9009 16.1186 26.583 16.2502 26.2515 16.2502ZM24.8452 27.5002C24.5137 27.5002 24.1958 27.3686 23.9613 27.1341C23.7269 26.8997 23.5952 26.5818 23.5952 26.2502V21.8752H19.2202C18.8887 21.8752 18.5708 21.7436 18.3363 21.5091C18.1019 21.2747 17.9702 20.9568 17.9702 20.6252C17.9702 20.2937 18.1019 19.9758 18.3363 19.7414C18.5708 19.5069 18.8887 19.3752 19.2202 19.3752H24.8452C25.1767 19.3752 25.4947 19.5069 25.7291 19.7414C25.9635 19.9758 26.0952 20.2937 26.0952 20.6252V26.2502C26.0952 26.5818 25.9635 26.8997 25.7291 27.1341C25.4947 27.3686 25.1767 27.5002 24.8452 27.5002Z" fill="black"/>
<path d="M15 27.5C11.686 27.496 8.50889 26.1778 6.16555 23.8345C3.8222 21.4911 2.50397 18.314 2.5 15C2.5 14.6685 2.6317 14.3505 2.86612 14.1161C3.10054 13.8817 3.41848 13.75 3.75 13.75C4.08152 13.75 4.39946 13.8817 4.63388 14.1161C4.8683 14.3505 5 14.6685 5 15C4.99905 17.2006 5.72445 19.3399 7.06363 21.0861C8.40282 22.8323 10.2809 24.0876 12.4065 24.6573C14.532 25.2271 16.7862 25.0793 18.8191 24.2369C20.8521 23.3946 22.5502 21.9048 23.65 19.9987C23.7322 19.8567 23.8417 19.7322 23.972 19.6324C24.1024 19.5326 24.2511 19.4595 24.4097 19.4172C24.5683 19.3749 24.7337 19.3642 24.8964 19.3858C25.0592 19.4074 25.2161 19.4609 25.3581 19.5431C25.5002 19.6254 25.6247 19.7348 25.7245 19.8651C25.8243 19.9955 25.8974 20.1442 25.9397 20.3028C25.982 20.4614 25.9927 20.6268 25.9711 20.7896C25.9494 20.9523 25.896 21.1092 25.8137 21.2512C24.7144 23.1468 23.1375 24.7213 21.2401 25.8176C19.3428 26.914 17.1913 27.4941 15 27.5Z" fill="black"/>
</svg>
