<svg width="30" height="30" viewBox="0 0 30 30" fill="none" xmlns="http://www.w3.org/2000/svg">
<path d="M21.25 2.49994H8.75C6.625 2.49994 5 4.12494 5 6.24994V13.7499H15.75L12.875 10.8749C12.375 10.3749 12.375 9.62494 12.875 9.12494C13.375 8.62494 14.125 8.62494 14.625 9.12494L19.625 14.1249C20.125 14.6249 20.125 15.3749 19.625 15.8749L14.625 20.8749C14.125 21.3749 13.375 21.3749 12.875 20.8749C12.375 20.3749 12.375 19.6249 12.875 19.1249L15.75 16.2499H5V23.7499C5 25.8749 6.625 27.4999 8.75 27.4999H21.25C23.375 27.4999 25 25.8749 25 23.7499V6.24994C25 4.12494 23.375 2.49994 21.25 2.49994Z" fill="black"/>
</svg>
