<svg width="50" height="50" viewBox="0 0 50 50" fill="none" xmlns="http://www.w3.org/2000/svg">
<g clip-path="url(#clip0_302_389)">
<path d="M50 12.5L24.8125 0L0 12.5V15.625H3.125V50H9.375V21.875H40.625V50H46.875V15.625H50V12.5ZM12.5 18.75V15.625H18.75V18.75H12.5ZM21.875 18.75V15.625H28.125V18.75H21.875ZM31.25 18.75V15.625H37.5V18.75H31.25Z" fill="black"/>
<path d="M18.75 28.125H15.625V25H12.5V34.375H21.875V25H18.75V28.125ZM18.75 40.625H15.625V37.5H12.5V46.875H21.875V37.5H18.75V40.625ZM31.25 40.625H28.125V37.5H25V46.875H34.375V37.5H31.25V40.625Z" fill="black"/>
</g>
<defs>
<clipPath id="clip0_302_389">
<rect width="50" height="50" fill="white"/>
</clipPath>
</defs>
</svg>
