<svg width="30" height="30" viewBox="0 0 30 30" fill="none" xmlns="http://www.w3.org/2000/svg">
<g clip-path="url(#clip0_443_11466)">
<path d="M1.515 0L0 1.515L2.66885 6.13038L4.39962 5.87654L14.9642 16.4423L14.0631 17.3077C13.6015 17.7692 13.6015 18.4685 14.0631 18.93L14.5315 19.3996C14.9931 19.8612 15.6992 19.8612 16.0454 19.3996L17.4162 20.7692C17.3008 21.4615 17.4162 22.2842 17.9931 22.8612L24.2308 29.0631C25.5 30.3323 27.5769 30.3323 28.8462 29.0631C30.3462 27.6785 30.3323 25.6085 29.0631 24.3392L22.8612 18.1004C22.2842 17.5235 21.4615 17.2927 20.7692 17.5235L19.2542 16.1538C19.6004 15.6923 19.6004 14.9862 19.2542 14.6388L18.8215 14.2073C18.7166 14.0979 18.5907 14.0109 18.4513 13.9514C18.3119 13.892 18.1619 13.8613 18.0104 13.8613C17.8588 13.8613 17.7089 13.892 17.5695 13.9514C17.4301 14.0109 17.3041 14.0979 17.1992 14.2073L16.4423 14.9642L5.87769 4.39962L6.12923 2.66885L1.515 0ZM24.015 0.0357692C21.7385 -0.153462 18.72 1.35577 17.3077 2.66769C15.57 4.40538 15.8538 6.67731 17.235 8.87077L14.7842 11.3227L16.515 13.2692C17.4381 12.4615 18.7996 12.4615 19.7227 13.2692L20.1923 13.7377L20.3008 13.8462L21.3104 12.8365C23.3965 14.0631 25.5681 14.2396 27.2238 12.5838C28.8392 11.0838 30.5908 7.38462 29.7831 5.19231L26.5385 8.54538C26.0769 9.00692 25.3777 9.00692 24.9162 8.54538L21.5619 5.19231C21.4525 5.08741 21.3655 4.96148 21.306 4.82208C21.2466 4.68269 21.2159 4.5327 21.2159 4.38115C21.2159 4.2296 21.2466 4.07962 21.306 3.94022C21.3655 3.80083 21.4525 3.67489 21.5619 3.57L24.9173 0.216923C24.6288 0.115385 24.3404 0.0634615 24.015 0.0357692ZM11.3227 14.4231L7.13885 18.6058C6.68926 18.5059 6.22976 18.4575 5.76923 18.4615C2.53846 18.4615 0 21 0 24.2308C0 27.4615 2.53846 30 5.76923 30C9 30 11.5385 27.4615 11.5385 24.2308C11.5385 23.6388 11.445 23.07 11.2858 22.5358L13.7377 20.0838L13.3777 19.6154C12.4546 18.6923 12.4615 17.2938 13.2692 16.3696L11.3227 14.4231ZM20.265 19.6881C20.4092 19.6881 20.5454 19.7158 20.6608 19.8323L27.4765 26.6469C27.7073 26.8777 27.7073 27.2446 27.4765 27.4754C27.2458 27.7062 26.8765 27.7062 26.6458 27.4754L19.8323 20.6608C19.6015 20.43 19.6015 20.0631 19.8323 19.8323C19.9477 19.7169 20.1208 19.6881 20.265 19.6881ZM6.56308 21.2365L8.76231 23.4369L7.96846 26.4288L4.97654 27.2227L2.77615 25.0223L3.57 22.0304L6.56308 21.2365Z" fill="black"/>
</g>
<defs>
<clipPath id="clip0_443_11466">
<rect width="30" height="30" fill="white"/>
</clipPath>
</defs>
</svg>
