<svg width="50" height="50" viewBox="0 0 50 50" fill="none" xmlns="http://www.w3.org/2000/svg">
<g clip-path="url(#clip0_803_1070)">
<path d="M36.65 39.1501C33.3801 42.4236 29.0763 44.4621 24.472 44.9183C19.8676 45.3745 15.2475 44.2202 11.3988 41.652C7.55009 39.0838 4.71089 35.2606 3.36493 30.8338C2.01897 26.407 2.24951 21.6504 4.01728 17.3745C5.78505 13.0986 8.98069 9.56792 13.0597 7.38396C17.1388 5.19999 21.8489 4.49788 26.3875 5.39724C30.9262 6.29659 35.0126 8.74178 37.9506 12.3162C40.8886 15.8906 42.4964 20.3731 42.5 25.0001H37.5C37.5031 21.5296 36.3026 18.1654 34.1032 15.4808C31.9038 12.7962 28.8416 10.9573 25.4384 10.2775C22.0351 9.59762 18.5014 10.1189 15.4394 11.7525C12.3774 13.3861 9.97664 16.0309 8.64613 19.2362C7.31562 22.4415 7.13773 26.009 8.14277 29.3308C9.14781 32.6526 11.2736 35.5231 14.1579 37.4532C17.0422 39.3832 20.5065 40.2535 23.9605 39.9156C27.4145 39.5777 30.6445 38.0525 33.1 35.6001L36.65 39.1501ZM30 25.0001H50L40 35.0001L30 25.0001Z" fill="black"/>
</g>
<defs>
<clipPath id="clip0_803_1070">
<rect width="50" height="50" fill="white"/>
</clipPath>
</defs>
</svg>
